<?xml version="1.0" encoding="UTF-8"?>
<!-- 2025-12-22 03:25:18 Generated by QCAD 3.32.5 SVG Exporter -->
<svg width="700mm" height="20mm" viewBox="14735.6483 -339.0513 700 20" version="1.1" xmlns="http://www.w3.org/2000/svg" style="stroke-linecap:round;stroke-linejoin:round;fill:none">
    <g transform="scale(1,-1)">
        <!-- Line -->
        <path d="M15346.6483,326.0513 L15364.6483,326.0513 " style="stroke:#ff00ff;stroke-width:0.13;"/>
        <!-- Line -->
        <path d="M15364.6483,326.0513 L15364.6483,332.0513 " style="stroke:#ff00ff;stroke-width:0.13;"/>
        <!-- Line -->
        <path d="M15364.6483,332.0513 L15346.6483,332.0513 " style="stroke:#ff00ff;stroke-width:0.13;"/>
        <!-- Line -->
        <path d="M15346.6483,332.0513 L15346.6483,326.0513 " style="stroke:#ff00ff;stroke-width:0.13;"/>
        <!-- Line -->
        <path d="M15310.6483,326.0513 L15328.6483,326.0513 " style="stroke:#ff00ff;stroke-width:0.13;"/>
        <!-- Line -->
        <path d="M15328.6483,326.0513 L15328.6483,332.0513 " style="stroke:#ff00ff;stroke-width:0.13;"/>
        <!-- Line -->
        <path d="M15328.6483,332.0513 L15310.6483,332.0513 " style="stroke:#ff00ff;stroke-width:0.13;"/>
        <!-- Line -->
        <path d="M15310.6483,332.0513 L15310.6483,326.0513 " style="stroke:#ff00ff;stroke-width:0.13;"/>
        <!-- Line -->
        <path d="M15382.6483,326.0513 L15400.6483,326.0513 " style="stroke:#ff00ff;stroke-width:0.13;"/>
        <!-- Line -->
        <path d="M15400.6483,326.0513 L15400.6483,332.0513 " style="stroke:#ff00ff;stroke-width:0.13;"/>
        <!-- Line -->
        <path d="M15400.6483,332.0513 L15382.6483,332.0513 " style="stroke:#ff00ff;stroke-width:0.13;"/>
        <!-- Line -->
        <path d="M15382.6483,332.0513 L15382.6483,326.0513 " style="stroke:#ff00ff;stroke-width:0.13;"/>
        <!-- Line -->
        <path d="M15274.6483,326.0513 L15292.6483,326.0513 " style="stroke:#ff00ff;stroke-width:0.13;"/>
        <!-- Line -->
        <path d="M15292.6483,326.0513 L15292.6483,332.0513 " style="stroke:#ff00ff;stroke-width:0.13;"/>
        <!-- Line -->
        <path d="M15292.6483,332.0513 L15274.6483,332.0513 " style="stroke:#ff00ff;stroke-width:0.13;"/>
        <!-- Line -->
        <path d="M15274.6483,332.0513 L15274.6483,326.0513 " style="stroke:#ff00ff;stroke-width:0.13;"/>
        <!-- Line -->
        <path d="M15166.6483,326.0513 L15184.6483,326.0513 " style="stroke:#ff00ff;stroke-width:0.13;"/>
        <!-- Line -->
        <path d="M15184.6483,326.0513 L15184.6483,332.0513 " style="stroke:#ff00ff;stroke-width:0.13;"/>
        <!-- Line -->
        <path d="M15184.6483,332.0513 L15166.6483,332.0513 " style="stroke:#ff00ff;stroke-width:0.13;"/>
        <!-- Line -->
        <path d="M15166.6483,332.0513 L15166.6483,326.0513 " style="stroke:#ff00ff;stroke-width:0.13;"/>
        <!-- Line -->
        <path d="M15238.6483,326.0513 L15256.6483,326.0513 " style="stroke:#ff00ff;stroke-width:0.13;"/>
        <!-- Line -->
        <path d="M15256.6483,326.0513 L15256.6483,332.0513 " style="stroke:#ff00ff;stroke-width:0.13;"/>
        <!-- Line -->
        <path d="M15256.6483,332.0513 L15238.6483,332.0513 " style="stroke:#ff00ff;stroke-width:0.13;"/>
        <!-- Line -->
        <path d="M15238.6483,332.0513 L15238.6483,326.0513 " style="stroke:#ff00ff;stroke-width:0.13;"/>
        <!-- Line -->
        <path d="M15130.6483,326.0513 L15148.6483,326.0513 " style="stroke:#ff00ff;stroke-width:0.13;"/>
        <!-- Line -->
        <path d="M15148.6483,326.0513 L15148.6483,332.0513 " style="stroke:#ff00ff;stroke-width:0.13;"/>
        <!-- Line -->
        <path d="M15148.6483,332.0513 L15130.6483,332.0513 " style="stroke:#ff00ff;stroke-width:0.13;"/>
        <!-- Line -->
        <path d="M15130.6483,332.0513 L15130.6483,326.0513 " style="stroke:#ff00ff;stroke-width:0.13;"/>
        <!-- Line -->
        <path d="M15202.6483,326.0513 L15220.6483,326.0513 " style="stroke:#ff00ff;stroke-width:0.13;"/>
        <!-- Line -->
        <path d="M15220.6483,326.0513 L15220.6483,332.0513 " style="stroke:#ff00ff;stroke-width:0.13;"/>
        <!-- Line -->
        <path d="M15220.6483,332.0513 L15202.6483,332.0513 " style="stroke:#ff00ff;stroke-width:0.13;"/>
        <!-- Line -->
        <path d="M15202.6483,332.0513 L15202.6483,326.0513 " style="stroke:#ff00ff;stroke-width:0.13;"/>
        <!-- Line -->
        <path d="M15094.6483,326.0513 L15112.6483,326.0513 " style="stroke:#ff00ff;stroke-width:0.13;"/>
        <!-- Line -->
        <path d="M15112.6483,326.0513 L15112.6483,332.0513 " style="stroke:#ff00ff;stroke-width:0.13;"/>
        <!-- Line -->
        <path d="M15112.6483,332.0513 L15094.6483,332.0513 " style="stroke:#ff00ff;stroke-width:0.13;"/>
        <!-- Line -->
        <path d="M15094.6483,332.0513 L15094.6483,326.0513 " style="stroke:#ff00ff;stroke-width:0.13;"/>
        <!-- Line -->
        <path d="M14986.6483,326.0513 L15004.6483,326.0513 " style="stroke:#ff00ff;stroke-width:0.13;"/>
        <!-- Line -->
        <path d="M15004.6483,326.0513 L15004.6483,332.0513 " style="stroke:#ff00ff;stroke-width:0.13;"/>
        <!-- Line -->
        <path d="M15004.6483,332.0513 L14986.6483,332.0513 " style="stroke:#ff00ff;stroke-width:0.13;"/>
        <!-- Line -->
        <path d="M14986.6483,332.0513 L14986.6483,326.0513 " style="stroke:#ff00ff;stroke-width:0.13;"/>
        <!-- Line -->
        <path d="M15058.6483,326.0513 L15076.6483,326.0513 " style="stroke:#ff00ff;stroke-width:0.13;"/>
        <!-- Line -->
        <path d="M15076.6483,326.0513 L15076.6483,332.0513 " style="stroke:#ff00ff;stroke-width:0.13;"/>
        <!-- Line -->
        <path d="M15076.6483,332.0513 L15058.6483,332.0513 " style="stroke:#ff00ff;stroke-width:0.13;"/>
        <!-- Line -->
        <path d="M15058.6483,332.0513 L15058.6483,326.0513 " style="stroke:#ff00ff;stroke-width:0.13;"/>
        <!-- Line -->
        <path d="M14950.6483,326.0513 L14968.6483,326.0513 " style="stroke:#ff00ff;stroke-width:0.13;"/>
        <!-- Line -->
        <path d="M14968.6483,326.0513 L14968.6483,332.0513 " style="stroke:#ff00ff;stroke-width:0.13;"/>
        <!-- Line -->
        <path d="M14968.6483,332.0513 L14950.6483,332.0513 " style="stroke:#ff00ff;stroke-width:0.13;"/>
        <!-- Line -->
        <path d="M14950.6483,332.0513 L14950.6483,326.0513 " style="stroke:#ff00ff;stroke-width:0.13;"/>
        <!-- Line -->
        <path d="M15022.6483,326.0513 L15040.6483,326.0513 " style="stroke:#ff00ff;stroke-width:0.13;"/>
        <!-- Line -->
        <path d="M15040.6483,326.0513 L15040.6483,332.0513 " style="stroke:#ff00ff;stroke-width:0.13;"/>
        <!-- Line -->
        <path d="M15040.6483,332.0513 L15022.6483,332.0513 " style="stroke:#ff00ff;stroke-width:0.13;"/>
        <!-- Line -->
        <path d="M15022.6483,332.0513 L15022.6483,326.0513 " style="stroke:#ff00ff;stroke-width:0.13;"/>
        <!-- Line -->
        <path d="M14914.6483,326.0513 L14932.6483,326.0513 " style="stroke:#ff00ff;stroke-width:0.13;"/>
        <!-- Line -->
        <path d="M14932.6483,326.0513 L14932.6483,332.0513 " style="stroke:#ff00ff;stroke-width:0.13;"/>
        <!-- Line -->
        <path d="M14932.6483,332.0513 L14914.6483,332.0513 " style="stroke:#ff00ff;stroke-width:0.13;"/>
        <!-- Line -->
        <path d="M14914.6483,332.0513 L14914.6483,326.0513 " style="stroke:#ff00ff;stroke-width:0.13;"/>
        <!-- Line -->
        <path d="M14806.6483,326.0513 L14824.6483,326.0513 " style="stroke:#ff00ff;stroke-width:0.13;"/>
        <!-- Line -->
        <path d="M14824.6483,326.0513 L14824.6483,332.0513 " style="stroke:#ff00ff;stroke-width:0.13;"/>
        <!-- Line -->
        <path d="M14824.6483,332.0513 L14806.6483,332.0513 " style="stroke:#ff00ff;stroke-width:0.13;"/>
        <!-- Line -->
        <path d="M14806.6483,332.0513 L14806.6483,326.0513 " style="stroke:#ff00ff;stroke-width:0.13;"/>
        <!-- Line -->
        <path d="M14878.6483,326.0513 L14896.6483,326.0513 " style="stroke:#ff00ff;stroke-width:0.13;"/>
        <!-- Line -->
        <path d="M14896.6483,326.0513 L14896.6483,332.0513 " style="stroke:#ff00ff;stroke-width:0.13;"/>
        <!-- Line -->
        <path d="M14896.6483,332.0513 L14878.6483,332.0513 " style="stroke:#ff00ff;stroke-width:0.13;"/>
        <!-- Line -->
        <path d="M14878.6483,332.0513 L14878.6483,326.0513 " style="stroke:#ff00ff;stroke-width:0.13;"/>
        <!-- Line -->
        <path d="M14770.6483,326.0513 L14788.6483,326.0513 " style="stroke:#ff00ff;stroke-width:0.13;"/>
        <!-- Line -->
        <path d="M14788.6483,326.0513 L14788.6483,332.0513 " style="stroke:#ff00ff;stroke-width:0.13;"/>
        <!-- Line -->
        <path d="M14788.6483,332.0513 L14770.6483,332.0513 " style="stroke:#ff00ff;stroke-width:0.13;"/>
        <!-- Line -->
        <path d="M14770.6483,332.0513 L14770.6483,326.0513 " style="stroke:#ff00ff;stroke-width:0.13;"/>
        <!-- Line -->
        <path d="M14842.6483,326.0513 L14860.6483,326.0513 " style="stroke:#ff00ff;stroke-width:0.13;"/>
        <!-- Line -->
        <path d="M14860.6483,326.0513 L14860.6483,332.0513 " style="stroke:#ff00ff;stroke-width:0.13;"/>
        <!-- Line -->
        <path d="M14860.6483,332.0513 L14842.6483,332.0513 " style="stroke:#ff00ff;stroke-width:0.13;"/>
        <!-- Line -->
        <path d="M14842.6483,332.0513 L14842.6483,326.0513 " style="stroke:#ff00ff;stroke-width:0.13;"/>
        <!-- Polyline -->
        <path d="M15435.6483,319.0513 L14735.6483,319.0513" style="stroke:#ff00ff;stroke-width:0;"/>
        <!-- Polyline -->
        <path d="M14735.6483,339.0513 L15435.6483,339.0513" style="stroke:#ff00ff;stroke-width:0;"/>
    </g>
</svg>
