<?xml version='1.0' encoding='utf-8'?>
<svg xmlns:xlink="http://www.w3.org/1999/xlink" xmlns="http://www.w3.org/2000/svg" xmlns:lc="http://www.librecad.org" width="408.00mm" height="22.00mm" viewBox="-22310.28513785 -7052.78632971 408.0 22.0">
    <g lc:layername="0" lc:is_locked="false" lc:is_construction="false" fill="none" stroke="black" stroke-width="1">
        <g lc:blockname="a36-0">
            <g lc:layername="0" lc:is_locked="false" lc:is_construction="false" fill="none" stroke="black" stroke-width="1">
                <line x1="-21994.03335237" y1="-7044.78632971" x2="-21976.03335237" y2="-7044.78632971" />
                <line x1="-21976.03335237" y1="-7044.78632971" x2="-21976.03335237" y2="-7038.78632971" />
                <line x1="-21976.03335237" y1="-7038.78632971" x2="-21994.03335237" y2="-7038.78632971" />
                <line x1="-21994.03335237" y1="-7038.78632971" x2="-21994.03335237" y2="-7044.78632971" />
                <line x1="-22030.03335237" y1="-7044.78632971" x2="-22012.03335237" y2="-7044.78632971" />
                <line x1="-22012.03335237" y1="-7044.78632971" x2="-22012.03335237" y2="-7038.78632971" />
                <line x1="-22012.03335237" y1="-7038.78632971" x2="-22030.03335237" y2="-7038.78632971" />
                <line x1="-22030.03335237" y1="-7038.78632971" x2="-22030.03335237" y2="-7044.78632971" />
                <line x1="-21958.03335237" y1="-7044.78632971" x2="-21940.03335237" y2="-7044.78632971" />
                <line x1="-21940.03335237" y1="-7044.78632971" x2="-21940.03335237" y2="-7038.78632971" />
                <line x1="-21940.03335237" y1="-7038.78632971" x2="-21958.03335237" y2="-7038.78632971" />
                <line x1="-21958.03335237" y1="-7038.78632971" x2="-21958.03335237" y2="-7044.78632971" />
                <line x1="-22066.03335237" y1="-7044.78632971" x2="-22048.03335237" y2="-7044.78632971" />
                <line x1="-22048.03335237" y1="-7044.78632971" x2="-22048.03335237" y2="-7038.78632971" />
                <line x1="-22048.03335237" y1="-7038.78632971" x2="-22066.03335237" y2="-7038.78632971" />
                <line x1="-22066.03335237" y1="-7038.78632971" x2="-22066.03335237" y2="-7044.78632971" />
                <line x1="-22174.03335237" y1="-7044.78632971" x2="-22156.03335237" y2="-7044.78632971" />
                <line x1="-22156.03335237" y1="-7044.78632971" x2="-22156.03335237" y2="-7038.78632971" />
                <line x1="-22156.03335237" y1="-7038.78632971" x2="-22174.03335237" y2="-7038.78632971" />
                <line x1="-22174.03335237" y1="-7038.78632971" x2="-22174.03335237" y2="-7044.78632971" />
                <line x1="-22102.03335237" y1="-7044.78632971" x2="-22084.03335237" y2="-7044.78632971" />
                <line x1="-22084.03335237" y1="-7044.78632971" x2="-22084.03335237" y2="-7038.78632971" />
                <line x1="-22084.03335237" y1="-7038.78632971" x2="-22102.03335237" y2="-7038.78632971" />
                <line x1="-22102.03335237" y1="-7038.78632971" x2="-22102.03335237" y2="-7044.78632971" />
                <line x1="-22210.03335237" y1="-7044.78632971" x2="-22192.03335237" y2="-7044.78632971" />
                <line x1="-22192.03335237" y1="-7044.78632971" x2="-22192.03335237" y2="-7038.78632971" />
                <line x1="-22192.03335237" y1="-7038.78632971" x2="-22210.03335237" y2="-7038.78632971" />
                <line x1="-22210.03335237" y1="-7038.78632971" x2="-22210.03335237" y2="-7044.78632971" />
                <line x1="-22138.03335237" y1="-7044.78632971" x2="-22120.03335237" y2="-7044.78632971" />
                <line x1="-22120.03335237" y1="-7044.78632971" x2="-22120.03335237" y2="-7038.78632971" />
                <line x1="-22120.03335237" y1="-7038.78632971" x2="-22138.03335237" y2="-7038.78632971" />
                <line x1="-22138.03335237" y1="-7038.78632971" x2="-22138.03335237" y2="-7044.78632971" />
                <line x1="-22246.03335237" y1="-7044.78632971" x2="-22228.03335237" y2="-7044.78632971" />
                <line x1="-22228.03335237" y1="-7044.78632971" x2="-22228.03335237" y2="-7038.78632971" />
                <line x1="-22228.03335237" y1="-7038.78632971" x2="-22246.03335237" y2="-7038.78632971" />
                <line x1="-22246.03335237" y1="-7038.78632971" x2="-22246.03335237" y2="-7044.78632971" />
                <line x1="-22282.03335237" y1="-7044.78632971" x2="-22264.03335237" y2="-7044.78632971" />
                <line x1="-22264.03335237" y1="-7044.78632971" x2="-22264.03335237" y2="-7038.78632971" />
                <line x1="-22264.03335237" y1="-7038.78632971" x2="-22282.03335237" y2="-7038.78632971" />
                <line x1="-22282.03335237" y1="-7038.78632971" x2="-22282.03335237" y2="-7044.78632971" />
                <line x1="-22306.28513785" y1="-7031.78632971" x2="-21906.28513785" y2="-7031.78632971" />
                <line x1="-21906.28513785" y1="-7051.78632971" x2="-22306.28513785" y2="-7051.78632971" />
            </g>
            </g>
    </g>
    </svg>