<?xml version='1.0' encoding='utf-8'?>
<svg xmlns:xlink="http://www.w3.org/1999/xlink" xmlns="http://www.w3.org/2000/svg" xmlns:lc="http://www.librecad.org" width="510.00mm" height="22.00mm" viewBox="-22811.28513785 -7052.78632971 510.0 22.0">
    <g lc:layername="0" lc:is_locked="false" lc:is_construction="false" fill="none" stroke="black" stroke-width="1">
        <g lc:blockname="b29b-0">
            <g lc:layername="0" lc:is_locked="false" lc:is_construction="false" fill="none" stroke="black" stroke-width="1">
                <line x1="-22385.35322727" y1="-7038.78632971" x2="-22367.35322727" y2="-7038.78632971" />
                <line x1="-22367.35322727" y1="-7038.78632971" x2="-22367.35322727" y2="-7044.78632971" />
                <line x1="-22367.35322727" y1="-7044.78632971" x2="-22385.35322727" y2="-7044.78632971" />
                <line x1="-22385.35322727" y1="-7044.78632971" x2="-22385.35322727" y2="-7038.78632971" />
                <line x1="-22421.35322727" y1="-7038.78632971" x2="-22403.35322727" y2="-7038.78632971" />
                <line x1="-22403.35322727" y1="-7038.78632971" x2="-22403.35322727" y2="-7044.78632971" />
                <line x1="-22403.35322727" y1="-7044.78632971" x2="-22421.35322727" y2="-7044.78632971" />
                <line x1="-22421.35322727" y1="-7044.78632971" x2="-22421.35322727" y2="-7038.78632971" />
                <line x1="-22349.35322727" y1="-7038.78632971" x2="-22331.35322727" y2="-7038.78632971" />
                <line x1="-22331.35322727" y1="-7038.78632971" x2="-22331.35322727" y2="-7044.78632971" />
                <line x1="-22331.35322727" y1="-7044.78632971" x2="-22349.35322727" y2="-7044.78632971" />
                <line x1="-22349.35322727" y1="-7044.78632971" x2="-22349.35322727" y2="-7038.78632971" />
                <line x1="-22457.35322727" y1="-7038.78632971" x2="-22439.35322727" y2="-7038.78632971" />
                <line x1="-22439.35322727" y1="-7038.78632971" x2="-22439.35322727" y2="-7044.78632971" />
                <line x1="-22439.35322727" y1="-7044.78632971" x2="-22457.35322727" y2="-7044.78632971" />
                <line x1="-22457.35322727" y1="-7044.78632971" x2="-22457.35322727" y2="-7038.78632971" />
                <line x1="-22565.35322727" y1="-7038.78632971" x2="-22547.35322727" y2="-7038.78632971" />
                <line x1="-22547.35322727" y1="-7038.78632971" x2="-22547.35322727" y2="-7044.78632971" />
                <line x1="-22547.35322727" y1="-7044.78632971" x2="-22565.35322727" y2="-7044.78632971" />
                <line x1="-22565.35322727" y1="-7044.78632971" x2="-22565.35322727" y2="-7038.78632971" />
                <line x1="-22493.35322727" y1="-7038.78632971" x2="-22475.35322727" y2="-7038.78632971" />
                <line x1="-22475.35322727" y1="-7038.78632971" x2="-22475.35322727" y2="-7044.78632971" />
                <line x1="-22475.35322727" y1="-7044.78632971" x2="-22493.35322727" y2="-7044.78632971" />
                <line x1="-22493.35322727" y1="-7044.78632971" x2="-22493.35322727" y2="-7038.78632971" />
                <line x1="-22601.35322727" y1="-7038.78632971" x2="-22583.35322727" y2="-7038.78632971" />
                <line x1="-22583.35322727" y1="-7038.78632971" x2="-22583.35322727" y2="-7044.78632971" />
                <line x1="-22583.35322727" y1="-7044.78632971" x2="-22601.35322727" y2="-7044.78632971" />
                <line x1="-22601.35322727" y1="-7044.78632971" x2="-22601.35322727" y2="-7038.78632971" />
                <line x1="-22529.35322727" y1="-7038.78632971" x2="-22511.35322727" y2="-7038.78632971" />
                <line x1="-22511.35322727" y1="-7038.78632971" x2="-22511.35322727" y2="-7044.78632971" />
                <line x1="-22511.35322727" y1="-7044.78632971" x2="-22529.35322727" y2="-7044.78632971" />
                <line x1="-22529.35322727" y1="-7044.78632971" x2="-22529.35322727" y2="-7038.78632971" />
                <line x1="-22637.35322727" y1="-7038.78632971" x2="-22619.35322727" y2="-7038.78632971" />
                <line x1="-22619.35322727" y1="-7038.78632971" x2="-22619.35322727" y2="-7044.78632971" />
                <line x1="-22619.35322727" y1="-7044.78632971" x2="-22637.35322727" y2="-7044.78632971" />
                <line x1="-22637.35322727" y1="-7044.78632971" x2="-22637.35322727" y2="-7038.78632971" />
                <line x1="-22745.35322727" y1="-7038.78632971" x2="-22727.35322727" y2="-7038.78632971" />
                <line x1="-22727.35322727" y1="-7038.78632971" x2="-22727.35322727" y2="-7044.78632971" />
                <line x1="-22727.35322727" y1="-7044.78632971" x2="-22745.35322727" y2="-7044.78632971" />
                <line x1="-22745.35322727" y1="-7044.78632971" x2="-22745.35322727" y2="-7038.78632971" />
                <line x1="-22673.35322727" y1="-7038.78632971" x2="-22655.35322727" y2="-7038.78632971" />
                <line x1="-22655.35322727" y1="-7038.78632971" x2="-22655.35322727" y2="-7044.78632971" />
                <line x1="-22655.35322727" y1="-7044.78632971" x2="-22673.35322727" y2="-7044.78632971" />
                <line x1="-22673.35322727" y1="-7044.78632971" x2="-22673.35322727" y2="-7038.78632971" />
                <line x1="-22781.35322727" y1="-7038.78632971" x2="-22763.35322727" y2="-7038.78632971" />
                <line x1="-22763.35322727" y1="-7038.78632971" x2="-22763.35322727" y2="-7044.78632971" />
                <line x1="-22763.35322727" y1="-7044.78632971" x2="-22781.35322727" y2="-7044.78632971" />
                <line x1="-22781.35322727" y1="-7044.78632971" x2="-22781.35322727" y2="-7038.78632971" />
                <line x1="-22709.35322727" y1="-7038.78632971" x2="-22691.35322727" y2="-7038.78632971" />
                <line x1="-22691.35322727" y1="-7038.78632971" x2="-22691.35322727" y2="-7044.78632971" />
                <line x1="-22691.35322727" y1="-7044.78632971" x2="-22709.35322727" y2="-7044.78632971" />
                <line x1="-22709.35322727" y1="-7044.78632971" x2="-22709.35322727" y2="-7038.78632971" />
                <line x1="-22806.28513785" y1="-7051.78632971" x2="-22306.28513785" y2="-7051.78632971" />
                <line x1="-22306.28513785" y1="-7031.78632971" x2="-22806.28513785" y2="-7031.78632971" />
            </g>
            </g>
    </g>
    </svg>