<?xml version='1.0' encoding='utf-8'?>
<svg xmlns:xlink="http://www.w3.org/1999/xlink" xmlns="http://www.w3.org/2000/svg" xmlns:lc="http://www.librecad.org" width="612.00mm" height="22.00mm" viewBox="-23412.285137422503 -7052.78632971 611.999956395002 22.0">
    <g lc:layername="0" lc:is_locked="false" lc:is_construction="false" fill="none" stroke="black" stroke-width="1">
        <g lc:blockname="r28r-0">
            <g lc:layername="0" lc:is_locked="false" lc:is_construction="false" fill="none" stroke="black" stroke-width="1">
                <line x1="-22846.54180456" y1="-7038.78632971" x2="-22828.54180456" y2="-7038.78632971" />
                <line x1="-22828.54180456" y1="-7038.78632971" x2="-22828.54180456" y2="-7044.78632971" />
                <line x1="-22828.54180456" y1="-7044.78632971" x2="-22846.54180456" y2="-7044.78632971" />
                <line x1="-22846.54180456" y1="-7044.78632971" x2="-22846.54180456" y2="-7038.78632971" />
                <line x1="-22882.54180456" y1="-7038.78632971" x2="-22864.54180456" y2="-7038.78632971" />
                <line x1="-22864.54180456" y1="-7038.78632971" x2="-22864.54180456" y2="-7044.78632971" />
                <line x1="-22864.54180456" y1="-7044.78632971" x2="-22882.54180456" y2="-7044.78632971" />
                <line x1="-22882.54180456" y1="-7044.78632971" x2="-22882.54180456" y2="-7038.78632971" />
                <line x1="-22990.54180456" y1="-7038.78632971" x2="-22972.54180456" y2="-7038.78632971" />
                <line x1="-22972.54180456" y1="-7038.78632971" x2="-22972.54180456" y2="-7044.78632971" />
                <line x1="-22972.54180456" y1="-7044.78632971" x2="-22990.54180456" y2="-7044.78632971" />
                <line x1="-22990.54180456" y1="-7044.78632971" x2="-22990.54180456" y2="-7038.78632971" />
                <line x1="-22918.54180456" y1="-7038.78632971" x2="-22900.54180456" y2="-7038.78632971" />
                <line x1="-22900.54180456" y1="-7038.78632971" x2="-22900.54180456" y2="-7044.78632971" />
                <line x1="-22900.54180456" y1="-7044.78632971" x2="-22918.54180456" y2="-7044.78632971" />
                <line x1="-22918.54180456" y1="-7044.78632971" x2="-22918.54180456" y2="-7038.78632971" />
                <line x1="-23026.54180456" y1="-7038.78632971" x2="-23008.54180456" y2="-7038.78632971" />
                <line x1="-23008.54180456" y1="-7038.78632971" x2="-23008.54180456" y2="-7044.78632971" />
                <line x1="-23008.54180456" y1="-7044.78632971" x2="-23026.54180456" y2="-7044.78632971" />
                <line x1="-23026.54180456" y1="-7044.78632971" x2="-23026.54180456" y2="-7038.78632971" />
                <line x1="-22954.54180456" y1="-7038.78632971" x2="-22936.54180456" y2="-7038.78632971" />
                <line x1="-22936.54180456" y1="-7038.78632971" x2="-22936.54180456" y2="-7044.78632971" />
                <line x1="-22936.54180456" y1="-7044.78632971" x2="-22954.54180456" y2="-7044.78632971" />
                <line x1="-22954.54180456" y1="-7044.78632971" x2="-22954.54180456" y2="-7038.78632971" />
                <line x1="-23062.54180456" y1="-7038.78632971" x2="-23044.54180456" y2="-7038.78632971" />
                <line x1="-23044.54180456" y1="-7038.78632971" x2="-23044.54180456" y2="-7044.78632971" />
                <line x1="-23044.54180456" y1="-7044.78632971" x2="-23062.54180456" y2="-7044.78632971" />
                <line x1="-23062.54180456" y1="-7044.78632971" x2="-23062.54180456" y2="-7038.78632971" />
                <line x1="-23170.54180456" y1="-7038.78632971" x2="-23152.54180456" y2="-7038.78632971" />
                <line x1="-23152.54180456" y1="-7038.78632971" x2="-23152.54180456" y2="-7044.78632971" />
                <line x1="-23152.54180456" y1="-7044.78632971" x2="-23170.54180456" y2="-7044.78632971" />
                <line x1="-23170.54180456" y1="-7044.78632971" x2="-23170.54180456" y2="-7038.78632971" />
                <line x1="-23098.54180456" y1="-7038.78632971" x2="-23080.54180456" y2="-7038.78632971" />
                <line x1="-23080.54180456" y1="-7038.78632971" x2="-23080.54180456" y2="-7044.78632971" />
                <line x1="-23080.54180456" y1="-7044.78632971" x2="-23098.54180456" y2="-7044.78632971" />
                <line x1="-23098.54180456" y1="-7044.78632971" x2="-23098.54180456" y2="-7038.78632971" />
                <line x1="-23206.54180456" y1="-7038.78632971" x2="-23188.54180456" y2="-7038.78632971" />
                <line x1="-23188.54180456" y1="-7038.78632971" x2="-23188.54180456" y2="-7044.78632971" />
                <line x1="-23188.54180456" y1="-7044.78632971" x2="-23206.54180456" y2="-7044.78632971" />
                <line x1="-23206.54180456" y1="-7044.78632971" x2="-23206.54180456" y2="-7038.78632971" />
                <line x1="-23134.54180456" y1="-7038.78632971" x2="-23116.54180456" y2="-7038.78632971" />
                <line x1="-23116.54180456" y1="-7038.78632971" x2="-23116.54180456" y2="-7044.78632971" />
                <line x1="-23116.54180456" y1="-7044.78632971" x2="-23134.54180456" y2="-7044.78632971" />
                <line x1="-23134.54180456" y1="-7044.78632971" x2="-23134.54180456" y2="-7038.78632971" />
                <line x1="-23242.54180456" y1="-7038.78632971" x2="-23224.54180456" y2="-7038.78632971" />
                <line x1="-23224.54180456" y1="-7038.78632971" x2="-23224.54180456" y2="-7044.78632971" />
                <line x1="-23224.54180456" y1="-7044.78632971" x2="-23242.54180456" y2="-7044.78632971" />
                <line x1="-23242.54180456" y1="-7044.78632971" x2="-23242.54180456" y2="-7038.78632971" />
                <line x1="-23350.54180456" y1="-7038.78632971" x2="-23332.54180456" y2="-7038.78632971" />
                <line x1="-23332.54180456" y1="-7038.78632971" x2="-23332.54180456" y2="-7044.78632971" />
                <line x1="-23332.54180456" y1="-7044.78632971" x2="-23350.54180456" y2="-7044.78632971" />
                <line x1="-23350.54180456" y1="-7044.78632971" x2="-23350.54180456" y2="-7038.78632971" />
                <line x1="-23278.54180456" y1="-7038.78632971" x2="-23260.54180456" y2="-7038.78632971" />
                <line x1="-23260.54180456" y1="-7038.78632971" x2="-23260.54180456" y2="-7044.78632971" />
                <line x1="-23260.54180456" y1="-7044.78632971" x2="-23278.54180456" y2="-7044.78632971" />
                <line x1="-23278.54180456" y1="-7044.78632971" x2="-23278.54180456" y2="-7038.78632971" />
                <line x1="-23386.54180456" y1="-7038.78632971" x2="-23368.54180456" y2="-7038.78632971" />
                <line x1="-23368.54180456" y1="-7038.78632971" x2="-23368.54180456" y2="-7044.78632971" />
                <line x1="-23368.54180456" y1="-7044.78632971" x2="-23386.54180456" y2="-7044.78632971" />
                <line x1="-23386.54180456" y1="-7044.78632971" x2="-23386.54180456" y2="-7038.78632971" />
                <line x1="-23314.54180456" y1="-7038.78632971" x2="-23296.54180456" y2="-7038.78632971" />
                <line x1="-23296.54180456" y1="-7038.78632971" x2="-23296.54180456" y2="-7044.78632971" />
                <line x1="-23296.54180456" y1="-7044.78632971" x2="-23314.54180456" y2="-7044.78632971" />
                <line x1="-23314.54180456" y1="-7044.78632971" x2="-23314.54180456" y2="-7038.78632971" />
                <line x1="-23406.28513785" y1="-7051.78632971" x2="-22806.2851806" y2="-7051.78632971" />
                <line x1="-22806.2851806" y1="-7051.78632971" x2="-22806.2851806" y2="-7031.78632971" />
                <line x1="-22806.2851806" y1="-7031.78632971" x2="-23406.28513785" y2="-7031.78632971" />
                <line x1="-23406.28513785" y1="-7031.78632971" x2="-23406.28513785" y2="-7051.78632971" />
            </g>
            </g>
    </g>
    </svg>