<?xml version='1.0' encoding='utf-8'?>
<svg xmlns:xlink="http://www.w3.org/1999/xlink" xmlns="http://www.w3.org/2000/svg" xmlns:lc="http://www.librecad.org" width="714.00mm" height="22.00mm" viewBox="-24113.28513785 -7052.78632971 714.0 22.0">
    <g lc:layername="0" lc:is_locked="false" lc:is_construction="false" fill="none" stroke="black" stroke-width="1">
        <g lc:blockname="ai2-0">
            <g lc:layername="0" lc:is_locked="false" lc:is_construction="false" fill="none" stroke="black" stroke-width="1">
                <line x1="-23495.28513785" y1="-7038.78632971" x2="-23477.28513785" y2="-7038.78632971" />
                <line x1="-23477.28513785" y1="-7038.78632971" x2="-23477.28513785" y2="-7044.78632971" />
                <line x1="-23477.28513785" y1="-7044.78632971" x2="-23495.28513785" y2="-7044.78632971" />
                <line x1="-23495.28513785" y1="-7044.78632971" x2="-23495.28513785" y2="-7038.78632971" />
                <line x1="-23531.28513785" y1="-7038.78632971" x2="-23513.28513785" y2="-7038.78632971" />
                <line x1="-23513.28513785" y1="-7038.78632971" x2="-23513.28513785" y2="-7044.78632971" />
                <line x1="-23513.28513785" y1="-7044.78632971" x2="-23531.28513785" y2="-7044.78632971" />
                <line x1="-23531.28513785" y1="-7044.78632971" x2="-23531.28513785" y2="-7038.78632971" />
                <line x1="-23459.28513785" y1="-7038.78632971" x2="-23441.28513785" y2="-7038.78632971" />
                <line x1="-23441.28513785" y1="-7038.78632971" x2="-23441.28513785" y2="-7044.78632971" />
                <line x1="-23441.28513785" y1="-7044.78632971" x2="-23459.28513785" y2="-7044.78632971" />
                <line x1="-23459.28513785" y1="-7044.78632971" x2="-23459.28513785" y2="-7038.78632971" />
                <line x1="-23567.28513785" y1="-7038.78632971" x2="-23549.28513785" y2="-7038.78632971" />
                <line x1="-23549.28513785" y1="-7038.78632971" x2="-23549.28513785" y2="-7044.78632971" />
                <line x1="-23549.28513785" y1="-7044.78632971" x2="-23567.28513785" y2="-7044.78632971" />
                <line x1="-23567.28513785" y1="-7044.78632971" x2="-23567.28513785" y2="-7038.78632971" />
                <line x1="-23675.28513785" y1="-7038.78632971" x2="-23657.28513785" y2="-7038.78632971" />
                <line x1="-23657.28513785" y1="-7038.78632971" x2="-23657.28513785" y2="-7044.78632971" />
                <line x1="-23657.28513785" y1="-7044.78632971" x2="-23675.28513785" y2="-7044.78632971" />
                <line x1="-23675.28513785" y1="-7044.78632971" x2="-23675.28513785" y2="-7038.78632971" />
                <line x1="-23603.28513785" y1="-7038.78632971" x2="-23585.28513785" y2="-7038.78632971" />
                <line x1="-23585.28513785" y1="-7038.78632971" x2="-23585.28513785" y2="-7044.78632971" />
                <line x1="-23585.28513785" y1="-7044.78632971" x2="-23603.28513785" y2="-7044.78632971" />
                <line x1="-23603.28513785" y1="-7044.78632971" x2="-23603.28513785" y2="-7038.78632971" />
                <line x1="-23711.28513785" y1="-7038.78632971" x2="-23693.28513785" y2="-7038.78632971" />
                <line x1="-23693.28513785" y1="-7038.78632971" x2="-23693.28513785" y2="-7044.78632971" />
                <line x1="-23693.28513785" y1="-7044.78632971" x2="-23711.28513785" y2="-7044.78632971" />
                <line x1="-23711.28513785" y1="-7044.78632971" x2="-23711.28513785" y2="-7038.78632971" />
                <line x1="-23639.28513785" y1="-7038.78632971" x2="-23621.28513785" y2="-7038.78632971" />
                <line x1="-23621.28513785" y1="-7038.78632971" x2="-23621.28513785" y2="-7044.78632971" />
                <line x1="-23621.28513785" y1="-7044.78632971" x2="-23639.28513785" y2="-7044.78632971" />
                <line x1="-23639.28513785" y1="-7044.78632971" x2="-23639.28513785" y2="-7038.78632971" />
                <line x1="-23747.28513785" y1="-7038.78632971" x2="-23729.28513785" y2="-7038.78632971" />
                <line x1="-23729.28513785" y1="-7044.78632971" x2="-23747.28513785" y2="-7044.78632971" />
                <line x1="-23747.28513785" y1="-7044.78632971" x2="-23747.28513785" y2="-7038.78632971" />
                <line x1="-23855.28513785" y1="-7038.78632971" x2="-23837.28513785" y2="-7038.78632971" />
                <line x1="-23837.28513785" y1="-7038.78632971" x2="-23837.28513785" y2="-7044.78632971" />
                <line x1="-23837.28513785" y1="-7044.78632971" x2="-23855.28513785" y2="-7044.78632971" />
                <line x1="-23855.28513785" y1="-7044.78632971" x2="-23855.28513785" y2="-7038.78632971" />
                <line x1="-23783.28513785" y1="-7038.78632971" x2="-23765.28513785" y2="-7038.78632971" />
                <line x1="-23765.28513785" y1="-7038.78632971" x2="-23765.28513785" y2="-7044.78632971" />
                <line x1="-23765.28513785" y1="-7044.78632971" x2="-23783.28513785" y2="-7044.78632971" />
                <line x1="-23783.28513785" y1="-7044.78632971" x2="-23783.28513785" y2="-7038.78632971" />
                <line x1="-23891.28513785" y1="-7038.78632971" x2="-23873.28513785" y2="-7038.78632971" />
                <line x1="-23873.28513785" y1="-7038.78632971" x2="-23873.28513785" y2="-7044.78632971" />
                <line x1="-23873.28513785" y1="-7044.78632971" x2="-23891.28513785" y2="-7044.78632971" />
                <line x1="-23891.28513785" y1="-7044.78632971" x2="-23891.28513785" y2="-7038.78632971" />
                <line x1="-23819.28513785" y1="-7038.78632971" x2="-23801.28513785" y2="-7038.78632971" />
                <line x1="-23801.28513785" y1="-7038.78632971" x2="-23801.28513785" y2="-7044.78632971" />
                <line x1="-23801.28513785" y1="-7044.78632971" x2="-23819.28513785" y2="-7044.78632971" />
                <line x1="-23819.28513785" y1="-7044.78632971" x2="-23819.28513785" y2="-7038.78632971" />
                <line x1="-23927.28513785" y1="-7038.78632971" x2="-23909.28513785" y2="-7038.78632971" />
                <line x1="-23909.28513785" y1="-7038.78632971" x2="-23909.28513785" y2="-7044.78632971" />
                <line x1="-23909.28513785" y1="-7044.78632971" x2="-23927.28513785" y2="-7044.78632971" />
                <line x1="-23927.28513785" y1="-7044.78632971" x2="-23927.28513785" y2="-7038.78632971" />
                <line x1="-24035.28513785" y1="-7038.78632971" x2="-24017.28513785" y2="-7038.78632971" />
                <line x1="-24017.28513785" y1="-7038.78632971" x2="-24017.28513785" y2="-7044.78632971" />
                <line x1="-24017.28513785" y1="-7044.78632971" x2="-24035.28513785" y2="-7044.78632971" />
                <line x1="-24035.28513785" y1="-7044.78632971" x2="-24035.28513785" y2="-7038.78632971" />
                <line x1="-23963.28513785" y1="-7038.78632971" x2="-23945.28513785" y2="-7038.78632971" />
                <line x1="-23945.28513785" y1="-7038.78632971" x2="-23945.28513785" y2="-7044.78632971" />
                <line x1="-23945.28513785" y1="-7044.78632971" x2="-23963.28513785" y2="-7044.78632971" />
                <line x1="-23963.28513785" y1="-7044.78632971" x2="-23963.28513785" y2="-7038.78632971" />
                <line x1="-24071.28513785" y1="-7038.78632971" x2="-24053.28513785" y2="-7038.78632971" />
                <line x1="-24053.28513785" y1="-7038.78632971" x2="-24053.28513785" y2="-7044.78632971" />
                <line x1="-24053.28513785" y1="-7044.78632971" x2="-24071.28513785" y2="-7044.78632971" />
                <line x1="-24071.28513785" y1="-7044.78632971" x2="-24071.28513785" y2="-7038.78632971" />
                <line x1="-23999.28513785" y1="-7038.78632971" x2="-23981.28513785" y2="-7038.78632971" />
                <line x1="-23981.28513785" y1="-7038.78632971" x2="-23981.28513785" y2="-7044.78632971" />
                <line x1="-23981.28513785" y1="-7044.78632971" x2="-23999.28513785" y2="-7044.78632971" />
                <line x1="-23999.28513785" y1="-7044.78632971" x2="-23999.28513785" y2="-7038.78632971" />
                <path d="M-23406.28513785,-7031.78632971 L-24106.28513785,-7031.78632971 " />
                <path d="M-24106.28513785,-7051.78632971 L-23406.28513785,-7051.78632971 " />
            </g>
            </g>
    </g>
    </svg>