<?xml version='1.0' encoding='utf-8'?>
<svg xmlns:xlink="http://www.w3.org/1999/xlink" xmlns="http://www.w3.org/2000/svg" xmlns:lc="http://www.librecad.org" width="816.00mm" height="22.00mm" viewBox="-24914.28513785 -7052.78632971 816.0 22.0">
    <g lc:layername="0" lc:is_locked="false" lc:is_construction="false" fill="none" stroke="black" stroke-width="1">
        <g lc:blockname="cb33-0">
            <g lc:layername="0" lc:is_locked="false" lc:is_construction="false" fill="none" stroke="black" stroke-width="1">
                <line x1="-24195.28513785" y1="-7038.78632971" x2="-24177.28513785" y2="-7038.78632971" />
                <line x1="-24177.28513785" y1="-7038.78632971" x2="-24177.28513785" y2="-7044.78632971" />
                <line x1="-24177.28513785" y1="-7044.78632971" x2="-24195.28513785" y2="-7044.78632971" />
                <line x1="-24195.28513785" y1="-7044.78632971" x2="-24195.28513785" y2="-7038.78632971" />
                <line x1="-24231.28513785" y1="-7038.78632971" x2="-24213.28513785" y2="-7038.78632971" />
                <line x1="-24213.28513785" y1="-7038.78632971" x2="-24213.28513785" y2="-7044.78632971" />
                <line x1="-24213.28513785" y1="-7044.78632971" x2="-24231.28513785" y2="-7044.78632971" />
                <line x1="-24231.28513785" y1="-7044.78632971" x2="-24231.28513785" y2="-7038.78632971" />
                <line x1="-24159.28513785" y1="-7038.78632971" x2="-24141.28513785" y2="-7038.78632971" />
                <line x1="-24141.28513785" y1="-7038.78632971" x2="-24141.28513785" y2="-7044.78632971" />
                <line x1="-24141.28513785" y1="-7044.78632971" x2="-24159.28513785" y2="-7044.78632971" />
                <line x1="-24159.28513785" y1="-7044.78632971" x2="-24159.28513785" y2="-7038.78632971" />
                <line x1="-24267.28513785" y1="-7038.78632971" x2="-24249.28513785" y2="-7038.78632971" />
                <line x1="-24249.28513785" y1="-7038.78632971" x2="-24249.28513785" y2="-7044.78632971" />
                <line x1="-24249.28513785" y1="-7044.78632971" x2="-24267.28513785" y2="-7044.78632971" />
                <line x1="-24267.28513785" y1="-7044.78632971" x2="-24267.28513785" y2="-7038.78632971" />
                <line x1="-24475.28513785" y1="-7038.78632971" x2="-24457.28513785" y2="-7038.78632971" />
                <line x1="-24457.28513785" y1="-7038.78632971" x2="-24457.28513785" y2="-7044.78632971" />
                <line x1="-24457.28513785" y1="-7044.78632971" x2="-24475.28513785" y2="-7044.78632971" />
                <line x1="-24475.28513785" y1="-7044.78632971" x2="-24475.28513785" y2="-7038.78632971" />
                <line x1="-24303.28513785" y1="-7038.78632971" x2="-24285.28513785" y2="-7038.78632971" />
                <line x1="-24285.28513785" y1="-7038.78632971" x2="-24285.28513785" y2="-7044.78632971" />
                <line x1="-24285.28513785" y1="-7044.78632971" x2="-24303.28513785" y2="-7044.78632971" />
                <line x1="-24303.28513785" y1="-7044.78632971" x2="-24303.28513785" y2="-7038.78632971" />
                <line x1="-24511.28513785" y1="-7038.78632971" x2="-24493.28513785" y2="-7038.78632971" />
                <line x1="-24493.28513785" y1="-7038.78632971" x2="-24493.28513785" y2="-7044.78632971" />
                <line x1="-24493.28513785" y1="-7044.78632971" x2="-24511.28513785" y2="-7044.78632971" />
                <line x1="-24511.28513785" y1="-7044.78632971" x2="-24511.28513785" y2="-7038.78632971" />
                <line x1="-24547.28513785" y1="-7038.78632971" x2="-24529.28513785" y2="-7038.78632971" />
                <line x1="-24529.28513785" y1="-7038.78632971" x2="-24529.28513785" y2="-7044.78632971" />
                <line x1="-24529.28513785" y1="-7044.78632971" x2="-24547.28513785" y2="-7044.78632971" />
                <line x1="-24547.28513785" y1="-7044.78632971" x2="-24547.28513785" y2="-7038.78632971" />
                <line x1="-24655.28513785" y1="-7038.78632971" x2="-24637.28513785" y2="-7038.78632971" />
                <line x1="-24637.28513785" y1="-7038.78632971" x2="-24637.28513785" y2="-7044.78632971" />
                <line x1="-24637.28513785" y1="-7044.78632971" x2="-24655.28513785" y2="-7044.78632971" />
                <line x1="-24655.28513785" y1="-7044.78632971" x2="-24655.28513785" y2="-7038.78632971" />
                <line x1="-24583.28513785" y1="-7038.78632971" x2="-24565.28513785" y2="-7038.78632971" />
                <line x1="-24565.28513785" y1="-7038.78632971" x2="-24565.28513785" y2="-7044.78632971" />
                <line x1="-24565.28513785" y1="-7044.78632971" x2="-24583.28513785" y2="-7044.78632971" />
                <line x1="-24583.28513785" y1="-7044.78632971" x2="-24583.28513785" y2="-7038.78632971" />
                <line x1="-24691.28513785" y1="-7038.78632971" x2="-24673.28513785" y2="-7038.78632971" />
                <line x1="-24673.28513785" y1="-7038.78632971" x2="-24673.28513785" y2="-7044.78632971" />
                <line x1="-24673.28513785" y1="-7044.78632971" x2="-24691.28513785" y2="-7044.78632971" />
                <line x1="-24691.28513785" y1="-7044.78632971" x2="-24691.28513785" y2="-7038.78632971" />
                <line x1="-24619.28513785" y1="-7038.78632971" x2="-24601.28513785" y2="-7038.78632971" />
                <line x1="-24601.28513785" y1="-7038.78632971" x2="-24601.28513785" y2="-7044.78632971" />
                <line x1="-24601.28513785" y1="-7044.78632971" x2="-24619.28513785" y2="-7044.78632971" />
                <line x1="-24619.28513785" y1="-7044.78632971" x2="-24619.28513785" y2="-7038.78632971" />
                <line x1="-24727.28513785" y1="-7038.78632971" x2="-24709.28513785" y2="-7038.78632971" />
                <line x1="-24709.28513785" y1="-7038.78632971" x2="-24709.28513785" y2="-7044.78632971" />
                <line x1="-24709.28513785" y1="-7044.78632971" x2="-24727.28513785" y2="-7044.78632971" />
                <line x1="-24727.28513785" y1="-7044.78632971" x2="-24727.28513785" y2="-7038.78632971" />
                <line x1="-24835.28513785" y1="-7038.78632971" x2="-24817.28513785" y2="-7038.78632971" />
                <line x1="-24817.28513785" y1="-7038.78632971" x2="-24817.28513785" y2="-7044.78632971" />
                <line x1="-24817.28513785" y1="-7044.78632971" x2="-24835.28513785" y2="-7044.78632971" />
                <line x1="-24835.28513785" y1="-7044.78632971" x2="-24835.28513785" y2="-7038.78632971" />
                <line x1="-24763.28513785" y1="-7038.78632971" x2="-24745.28513785" y2="-7038.78632971" />
                <line x1="-24745.28513785" y1="-7038.78632971" x2="-24745.28513785" y2="-7044.78632971" />
                <line x1="-24745.28513785" y1="-7044.78632971" x2="-24763.28513785" y2="-7044.78632971" />
                <line x1="-24763.28513785" y1="-7044.78632971" x2="-24763.28513785" y2="-7038.78632971" />
                <line x1="-24871.28513785" y1="-7038.78632971" x2="-24853.28513785" y2="-7038.78632971" />
                <line x1="-24853.28513785" y1="-7038.78632971" x2="-24853.28513785" y2="-7044.78632971" />
                <line x1="-24853.28513785" y1="-7044.78632971" x2="-24871.28513785" y2="-7044.78632971" />
                <line x1="-24871.28513785" y1="-7044.78632971" x2="-24871.28513785" y2="-7038.78632971" />
                <line x1="-24799.28513785" y1="-7038.78632971" x2="-24781.28513785" y2="-7038.78632971" />
                <line x1="-24781.28513785" y1="-7038.78632971" x2="-24781.28513785" y2="-7044.78632971" />
                <line x1="-24781.28513785" y1="-7044.78632971" x2="-24799.28513785" y2="-7044.78632971" />
                <line x1="-24799.28513785" y1="-7044.78632971" x2="-24799.28513785" y2="-7038.78632971" />
                <line x1="-24906.28513785" y1="-7051.78632971" x2="-24106.28513785" y2="-7051.78632971" />
                <line x1="-24106.28513785" y1="-7031.78632971" x2="-24906.28513785" y2="-7031.78632971" />
                <line x1="-24303.28513785" y1="-7038.78632971" x2="-24285.28513785" y2="-7038.78632971" />
                <line x1="-24285.28513785" y1="-7038.78632971" x2="-24285.28513785" y2="-7044.78632971" />
                <line x1="-24285.28513785" y1="-7044.78632971" x2="-24303.28513785" y2="-7044.78632971" />
                <line x1="-24303.28513785" y1="-7044.78632971" x2="-24303.28513785" y2="-7038.78632971" />
                <line x1="-24339.28513785" y1="-7038.78632971" x2="-24321.28513785" y2="-7038.78632971" />
                <line x1="-24321.28513785" y1="-7038.78632971" x2="-24321.28513785" y2="-7044.78632971" />
                <line x1="-24321.28513785" y1="-7044.78632971" x2="-24339.28513785" y2="-7044.78632971" />
                <line x1="-24339.28513785" y1="-7044.78632971" x2="-24339.28513785" y2="-7038.78632971" />
                <line x1="-24375.28513785" y1="-7038.78632971" x2="-24357.28513785" y2="-7038.78632971" />
                <line x1="-24357.28513785" y1="-7038.78632971" x2="-24357.28513785" y2="-7044.78632971" />
                <line x1="-24357.28513785" y1="-7044.78632971" x2="-24375.28513785" y2="-7044.78632971" />
                <line x1="-24375.28513785" y1="-7044.78632971" x2="-24375.28513785" y2="-7038.78632971" />
                <line x1="-24411.28513785" y1="-7038.78632971" x2="-24393.28513785" y2="-7038.78632971" />
                <line x1="-24393.28513785" y1="-7038.78632971" x2="-24393.28513785" y2="-7044.78632971" />
                <line x1="-24393.28513785" y1="-7044.78632971" x2="-24411.28513785" y2="-7044.78632971" />
                <line x1="-24411.28513785" y1="-7044.78632971" x2="-24411.28513785" y2="-7038.78632971" />
                <line x1="-24447.28513785" y1="-7038.78632971" x2="-24429.28513785" y2="-7038.78632971" />
                <line x1="-24429.28513785" y1="-7038.78632971" x2="-24429.28513785" y2="-7044.78632971" />
                <line x1="-24429.28513785" y1="-7044.78632971" x2="-24447.28513785" y2="-7044.78632971" />
                <line x1="-24447.28513785" y1="-7044.78632971" x2="-24447.28513785" y2="-7038.78632971" />
            </g>
            </g>
    </g>
    </svg>