<?xml version='1.0' encoding='utf-8'?>
<svg xmlns:xlink="http://www.w3.org/1999/xlink" xmlns="http://www.w3.org/2000/svg" xmlns:lc="http://www.librecad.org" width="408.00mm" height="57.00mm" viewBox="-22310.28513785 -4084.7187426 408.0 57.0">
    <g lc:layername="CERCEVE" lc:is_locked="false" lc:is_construction="false" fill="none" stroke="black" stroke-width="1">
        <g lc:blockname="2-0">
            <g lc:layername="0" lc:is_locked="false" lc:is_construction="false" fill="none" stroke="black" stroke-width="1">
                <circle cx="-21921.78513785" cy="-4056.2187426" r="0.1" />
                <circle cx="-22290.78513785" cy="-4056.2187426" r="0.1" />
                <line x1="-21955.28513785" y1="-4053.2187426" x2="-21955.28513785" y2="-4059.2187426" />
                <line x1="-22049.78513785" y1="-4059.2187426" x2="-22049.78513785" y2="-4053.2187426" />
                <line x1="-22052.78513785" y1="-4053.2187426" x2="-22052.78513785" y2="-4059.2187426" />
                <line x1="-22159.78513785" y1="-4059.2187426" x2="-22159.78513785" y2="-4053.2187426" />
                <line x1="-22162.78513785" y1="-4053.2187426" x2="-22162.78513785" y2="-4059.2187426" />
                <line x1="-22257.28513785" y1="-4059.2187426" x2="-22257.28513785" y2="-4053.2187426" />
                <line x1="-22257.28513785" y1="-4053.2187426" x2="-22162.78513785" y2="-4053.2187426" />
                <line x1="-22159.78513785" y1="-4053.2187426" x2="-22052.78513785" y2="-4053.2187426" />
                <line x1="-22049.78513785" y1="-4053.2187426" x2="-21955.28513785" y2="-4053.2187426" />
                <line x1="-21955.28513785" y1="-4059.2187426" x2="-22049.78513785" y2="-4059.2187426" />
                <line x1="-22052.78513785" y1="-4059.2187426" x2="-22159.78513785" y2="-4059.2187426" />
                <line x1="-22162.78513785" y1="-4059.2187426" x2="-22257.28513785" y2="-4059.2187426" />
                <line x1="-21917.78513785" y1="-4035.2187426" x2="-21925.78513785" y2="-4035.2187426" />
                <line x1="-21925.78513785" y1="-4035.2187426" x2="-21925.78513785" y2="-4077.2187426" />
                <line x1="-21925.78513785" y1="-4077.2187426" x2="-21917.78513785" y2="-4077.2187426" />
                <line x1="-21917.78513785" y1="-4077.2187426" x2="-21917.78513785" y2="-4035.2187426" />
                <line x1="-22294.78513785" y1="-4077.2187426" x2="-22294.78513785" y2="-4035.2187426" />
                <line x1="-22286.78513785" y1="-4077.2187426" x2="-22294.78513785" y2="-4077.2187426" />
                <line x1="-22286.78513785" y1="-4035.2187426" x2="-22286.78513785" y2="-4077.2187426" />
                <line x1="-22294.78513785" y1="-4035.2187426" x2="-22286.78513785" y2="-4035.2187426" />
                <line x1="-22306.28513785" y1="-4083.7187426" x2="-22306.28513785" y2="-4028.7187426" />
                <line x1="-21906.28513785" y1="-4083.7187426" x2="-22306.28513785" y2="-4083.7187426" />
                <line x1="-21906.28513785" y1="-4028.7187426" x2="-21906.28513785" y2="-4083.7187426" />
                <line x1="-22306.28513785" y1="-4028.7187426" x2="-21906.28513785" y2="-4028.7187426" />
            </g>
            <g lc:layername="CERCEVE" lc:is_locked="false" lc:is_construction="false" fill="none" stroke="black" stroke-width="1">
                <line x1="-22306.28513785" y1="-4083.7187426" x2="-21906.28513785" y2="-4083.7187426" />
                <line x1="-21906.28513785" y1="-4028.7187426" x2="-22306.28513785" y2="-4028.7187426" />
            </g>
            </g>
    </g>
    </svg>