<?xml version='1.0' encoding='utf-8'?>
<svg xmlns:xlink="http://www.w3.org/1999/xlink" xmlns="http://www.w3.org/2000/svg" xmlns:lc="http://www.librecad.org" width="510.00mm" height="57.00mm" viewBox="-22810.34945928 -4084.7187426 510.0 57.0">
    <g lc:layername="CERCEVE" lc:is_locked="false" lc:is_construction="false" fill="none" stroke="black" stroke-width="1">
        <g lc:blockname="3-0">
            <g lc:layername="0" lc:is_locked="false" lc:is_construction="false" fill="none" stroke="black" stroke-width="1">
                <circle cx="-22320.84945928" cy="-4056.2187426" r="0.1" />
                <circle cx="-22789.84945928" cy="-4056.2187426" r="0.1" />
                <line x1="-22354.34945928" y1="-4053.2187426" x2="-22354.34945928" y2="-4059.2187426" />
                <line x1="-22448.84945928" y1="-4059.2187426" x2="-22448.84945928" y2="-4053.2187426" />
                <line x1="-22451.84945928" y1="-4053.2187426" x2="-22451.84945928" y2="-4059.2187426" />
                <line x1="-22658.84945928" y1="-4059.2187426" x2="-22658.84945928" y2="-4053.2187426" />
                <line x1="-22661.84945928" y1="-4053.2187426" x2="-22661.84945928" y2="-4059.2187426" />
                <line x1="-22756.34945928" y1="-4059.2187426" x2="-22756.34945928" y2="-4053.2187426" />
                <line x1="-22756.34945928" y1="-4053.2187426" x2="-22661.84945928" y2="-4053.2187426" />
                <line x1="-22658.84945928" y1="-4053.2187426" x2="-22451.84945928" y2="-4053.2187426" />
                <line x1="-22448.84945928" y1="-4053.2187426" x2="-22354.34945928" y2="-4053.2187426" />
                <line x1="-22354.34945928" y1="-4059.2187426" x2="-22448.84945928" y2="-4059.2187426" />
                <line x1="-22451.84945928" y1="-4059.2187426" x2="-22658.84945928" y2="-4059.2187426" />
                <line x1="-22661.84945928" y1="-4059.2187426" x2="-22756.34945928" y2="-4059.2187426" />
                <line x1="-22316.84945928" y1="-4035.2187426" x2="-22324.84945928" y2="-4035.2187426" />
                <line x1="-22324.84945928" y1="-4035.2187426" x2="-22324.84945928" y2="-4077.2187426" />
                <line x1="-22324.84945928" y1="-4077.2187426" x2="-22316.84945928" y2="-4077.2187426" />
                <line x1="-22316.84945928" y1="-4077.2187426" x2="-22316.84945928" y2="-4035.2187426" />
                <line x1="-22793.84945928" y1="-4077.2187426" x2="-22793.84945928" y2="-4035.2187426" />
                <line x1="-22785.84945928" y1="-4077.2187426" x2="-22793.84945928" y2="-4077.2187426" />
                <line x1="-22785.84945928" y1="-4035.2187426" x2="-22785.84945928" y2="-4077.2187426" />
                <line x1="-22793.84945928" y1="-4035.2187426" x2="-22785.84945928" y2="-4035.2187426" />
                <line x1="-22805.34945928" y1="-4083.7187426" x2="-22805.34945928" y2="-4028.7187426" />
                <line x1="-22305.34945928" y1="-4083.7187426" x2="-22805.34945928" y2="-4083.7187426" />
                <line x1="-22305.34945928" y1="-4028.7187426" x2="-22305.34945928" y2="-4083.7187426" />
                <line x1="-22805.34945928" y1="-4028.7187426" x2="-22305.34945928" y2="-4028.7187426" />
            </g>
            <g lc:layername="CERCEVE" lc:is_locked="false" lc:is_construction="false" fill="none" stroke="black" stroke-width="1">
                <line x1="-22805.34945928" y1="-4083.7187426" x2="-22305.34945928" y2="-4083.7187426" />
                <line x1="-22305.34945928" y1="-4028.7187426" x2="-22805.34945928" y2="-4028.7187426" />
            </g>
            </g>
    </g>
    </svg>