<?xml version='1.0' encoding='utf-8'?>
<svg xmlns:xlink="http://www.w3.org/1999/xlink" xmlns="http://www.w3.org/2000/svg" xmlns:lc="http://www.librecad.org" width="612.00mm" height="57.00mm" viewBox="-23413.22081641 -4084.7187426 612.0 57.0">
    <g lc:layername="CERCEVE" lc:is_locked="false" lc:is_construction="false" fill="none" stroke="black" stroke-width="1">
        <g lc:blockname="4-0">
            <g lc:layername="0" lc:is_locked="false" lc:is_construction="false" fill="none" stroke="black" stroke-width="1">
                <circle cx="-22822.72081641" cy="-4056.2187426" r="0.1" />
                <circle cx="-23391.72081641" cy="-4056.2187426" r="0.1" />
                <line x1="-22856.22081641" y1="-4053.2187426" x2="-22856.22081641" y2="-4059.2187426" />
                <line x1="-22950.72081641" y1="-4059.2187426" x2="-22950.72081641" y2="-4053.2187426" />
                <line x1="-22953.72081641" y1="-4053.2187426" x2="-22953.72081641" y2="-4059.2187426" />
                <line x1="-23260.72081641" y1="-4059.2187426" x2="-23260.72081641" y2="-4053.2187426" />
                <line x1="-23263.72081641" y1="-4053.2187426" x2="-23263.72081641" y2="-4059.2187426" />
                <line x1="-23358.22081641" y1="-4059.2187426" x2="-23358.22081641" y2="-4053.2187426" />
                <line x1="-23358.22081641" y1="-4053.2187426" x2="-23263.72081641" y2="-4053.2187426" />
                <line x1="-23260.72081641" y1="-4053.2187426" x2="-22953.72081641" y2="-4053.2187426" />
                <line x1="-22950.72081641" y1="-4053.2187426" x2="-22856.22081641" y2="-4053.2187426" />
                <line x1="-22856.22081641" y1="-4059.2187426" x2="-22950.72081641" y2="-4059.2187426" />
                <line x1="-22953.72081641" y1="-4059.2187426" x2="-23260.72081641" y2="-4059.2187426" />
                <line x1="-23263.72081641" y1="-4059.2187426" x2="-23358.22081641" y2="-4059.2187426" />
                <line x1="-22818.72081641" y1="-4035.2187426" x2="-22826.72081641" y2="-4035.2187426" />
                <line x1="-22826.72081641" y1="-4035.2187426" x2="-22826.72081641" y2="-4077.2187426" />
                <line x1="-22826.72081641" y1="-4077.2187426" x2="-22818.72081641" y2="-4077.2187426" />
                <line x1="-22818.72081641" y1="-4077.2187426" x2="-22818.72081641" y2="-4035.2187426" />
                <line x1="-23395.72081641" y1="-4077.2187426" x2="-23395.72081641" y2="-4035.2187426" />
                <line x1="-23387.72081641" y1="-4077.2187426" x2="-23395.72081641" y2="-4077.2187426" />
                <line x1="-23387.72081641" y1="-4035.2187426" x2="-23387.72081641" y2="-4077.2187426" />
                <line x1="-23395.72081641" y1="-4035.2187426" x2="-23387.72081641" y2="-4035.2187426" />
                <line x1="-23407.22081641" y1="-4083.7187426" x2="-23407.22081641" y2="-4028.7187426" />
                <line x1="-22807.22081641" y1="-4083.7187426" x2="-23407.22081641" y2="-4083.7187426" />
                <line x1="-22807.22081641" y1="-4028.7187426" x2="-22807.22081641" y2="-4083.7187426" />
                <line x1="-23407.22081641" y1="-4028.7187426" x2="-22807.22081641" y2="-4028.7187426" />
            </g>
            <g lc:layername="CERCEVE" lc:is_locked="false" lc:is_construction="false" fill="none" stroke="black" stroke-width="1">
                <line x1="-23407.22081641" y1="-4083.7187426" x2="-22807.22081641" y2="-4083.7187426" />
                <line x1="-22807.22081641" y1="-4028.7187426" x2="-23407.22081641" y2="-4028.7187426" />
            </g>
            </g>
    </g>
    </svg>