<?xml version='1.0' encoding='utf-8'?>
<svg xmlns:xlink="http://www.w3.org/1999/xlink" xmlns="http://www.w3.org/2000/svg" xmlns:lc="http://www.librecad.org" width="714.00mm" height="57.00mm" viewBox="-24150.31727108 -4069.90588931 714.0 57.0">
    <g lc:layername="CERCEVE" lc:is_locked="false" lc:is_construction="false" fill="none" stroke="black" stroke-width="1">
        <g lc:blockname="5-0">
            <g lc:layername="0" lc:is_locked="false" lc:is_construction="false" fill="none" stroke="black" stroke-width="1">
                <circle cx="-23458.81727108" cy="-4041.40588931" r="0.1" />
                <circle cx="-24127.81727108" cy="-4041.40588931" r="0.1" />
                <line x1="-23492.31727108" y1="-4038.40588931" x2="-23492.31727108" y2="-4044.40588931" />
                <line x1="-23636.81727108" y1="-4044.40588931" x2="-23636.81727108" y2="-4038.40588931" />
                <line x1="-23639.81727108" y1="-4038.40588931" x2="-23639.81727108" y2="-4044.40588931" />
                <line x1="-23946.81727108" y1="-4044.40588931" x2="-23946.81727108" y2="-4038.40588931" />
                <line x1="-23949.81727108" y1="-4038.40588931" x2="-23949.81727108" y2="-4044.40588931" />
                <line x1="-24094.31727108" y1="-4044.40588931" x2="-24094.31727108" y2="-4038.40588931" />
                <line x1="-24094.31727108" y1="-4038.40588931" x2="-23949.81727108" y2="-4038.40588931" />
                <line x1="-23946.81727108" y1="-4038.40588931" x2="-23639.81727108" y2="-4038.40588931" />
                <line x1="-23636.81727108" y1="-4038.40588931" x2="-23492.31727108" y2="-4038.40588931" />
                <line x1="-23492.31727108" y1="-4044.40588931" x2="-23636.81727108" y2="-4044.40588931" />
                <line x1="-23639.81727108" y1="-4044.40588931" x2="-23946.81727108" y2="-4044.40588931" />
                <line x1="-23949.81727108" y1="-4044.40588931" x2="-24094.31727108" y2="-4044.40588931" />
                <line x1="-23454.81727108" y1="-4020.40588931" x2="-23462.81727108" y2="-4020.40588931" />
                <line x1="-23462.81727108" y1="-4020.40588931" x2="-23462.81727108" y2="-4062.40588931" />
                <line x1="-23462.81727108" y1="-4062.40588931" x2="-23454.81727108" y2="-4062.40588931" />
                <line x1="-23454.81727108" y1="-4062.40588931" x2="-23454.81727108" y2="-4020.40588931" />
                <line x1="-24131.81727108" y1="-4062.40588931" x2="-24131.81727108" y2="-4020.40588931" />
                <line x1="-24123.81727108" y1="-4062.40588931" x2="-24131.81727108" y2="-4062.40588931" />
                <line x1="-24123.81727108" y1="-4020.40588931" x2="-24123.81727108" y2="-4062.40588931" />
                <line x1="-24131.81727108" y1="-4020.40588931" x2="-24123.81727108" y2="-4020.40588931" />
                <line x1="-24143.31727108" y1="-4068.90588931" x2="-24143.31727108" y2="-4013.90588931" />
                <line x1="-23443.31727108" y1="-4068.90588931" x2="-24143.31727108" y2="-4068.90588931" />
                <line x1="-23443.31727108" y1="-4013.90588931" x2="-23443.31727108" y2="-4068.90588931" />
                <line x1="-24143.31727108" y1="-4013.90588931" x2="-23443.31727108" y2="-4013.90588931" />
            </g>
            <g lc:layername="CERCEVE" lc:is_locked="false" lc:is_construction="false" fill="none" stroke="black" stroke-width="1">
                <line x1="-24143.31727108" y1="-4068.90588931" x2="-23443.31727108" y2="-4068.90588931" />
                <line x1="-23443.31727108" y1="-4013.90588931" x2="-24143.31727108" y2="-4013.90588931" />
            </g>
            </g>
    </g>
    </svg>