<?xml version='1.0' encoding='utf-8'?>
<svg xmlns:xlink="http://www.w3.org/1999/xlink" xmlns="http://www.w3.org/2000/svg" xmlns:lc="http://www.librecad.org" width="816.00mm" height="57.00mm" viewBox="-24914.28513785 -4084.7187426 816.0 57.0">
    <g lc:layername="CERCEVE" lc:is_locked="false" lc:is_construction="false" fill="none" stroke="black" stroke-width="1">
        <g lc:blockname="6-0">
            <g lc:layername="0" lc:is_locked="false" lc:is_construction="false" fill="none" stroke="black" stroke-width="1">
                <circle cx="-24121.78513785" cy="-4056.2187426" r="0.1" />
                <circle cx="-24890.78513785" cy="-4056.2187426" r="0.1" />
                <line x1="-24155.28513785" y1="-4053.2187426" x2="-24155.28513785" y2="-4059.2187426" />
                <line x1="-24299.78513785" y1="-4059.2187426" x2="-24299.78513785" y2="-4053.2187426" />
                <line x1="-24302.78513785" y1="-4053.2187426" x2="-24302.78513785" y2="-4059.2187426" />
                <line x1="-24709.78513785" y1="-4059.2187426" x2="-24709.78513785" y2="-4053.2187426" />
                <line x1="-24712.78513785" y1="-4053.2187426" x2="-24712.78513785" y2="-4059.2187426" />
                <line x1="-24857.28513785" y1="-4059.2187426" x2="-24857.28513785" y2="-4053.2187426" />
                <line x1="-24857.28513785" y1="-4053.2187426" x2="-24712.78513785" y2="-4053.2187426" />
                <line x1="-24709.78513785" y1="-4053.2187426" x2="-24302.78513785" y2="-4053.2187426" />
                <line x1="-24299.78513785" y1="-4053.2187426" x2="-24155.28513785" y2="-4053.2187426" />
                <line x1="-24155.28513785" y1="-4059.2187426" x2="-24299.78513785" y2="-4059.2187426" />
                <line x1="-24302.78513785" y1="-4059.2187426" x2="-24709.78513785" y2="-4059.2187426" />
                <line x1="-24712.78513785" y1="-4059.2187426" x2="-24857.28513785" y2="-4059.2187426" />
                <line x1="-24117.78513785" y1="-4035.2187426" x2="-24125.78513785" y2="-4035.2187426" />
                <line x1="-24125.78513785" y1="-4035.2187426" x2="-24125.78513785" y2="-4077.2187426" />
                <line x1="-24125.78513785" y1="-4077.2187426" x2="-24117.78513785" y2="-4077.2187426" />
                <line x1="-24117.78513785" y1="-4077.2187426" x2="-24117.78513785" y2="-4035.2187426" />
                <line x1="-24894.78513785" y1="-4077.2187426" x2="-24894.78513785" y2="-4035.2187426" />
                <line x1="-24886.78513785" y1="-4077.2187426" x2="-24894.78513785" y2="-4077.2187426" />
                <line x1="-24886.78513785" y1="-4035.2187426" x2="-24886.78513785" y2="-4077.2187426" />
                <line x1="-24894.78513785" y1="-4035.2187426" x2="-24886.78513785" y2="-4035.2187426" />
                <line x1="-24906.28513785" y1="-4083.7187426" x2="-24906.28513785" y2="-4028.7187426" />
                <line x1="-24106.28513785" y1="-4083.7187426" x2="-24906.28513785" y2="-4083.7187426" />
                <line x1="-24106.28513785" y1="-4028.7187426" x2="-24106.28513785" y2="-4083.7187426" />
                <line x1="-24906.28513785" y1="-4028.7187426" x2="-24106.28513785" y2="-4028.7187426" />
            </g>
            <g lc:layername="CERCEVE" lc:is_locked="false" lc:is_construction="false" fill="none" stroke="black" stroke-width="1">
                <line x1="-24906.28513785" y1="-4083.7187426" x2="-24106.28513785" y2="-4083.7187426" />
                <line x1="-24106.28513785" y1="-4028.7187426" x2="-24906.28513785" y2="-4028.7187426" />
            </g>
            </g>
    </g>
    </svg>