<?xml version='1.0' encoding='utf-8'?>
<svg xmlns:xlink="http://www.w3.org/1999/xlink" xmlns="http://www.w3.org/2000/svg" xmlns:lc="http://www.librecad.org" width="510.00mm" height="53.00mm" viewBox="-22811.28513785 -5312.44259357 510.0 53.0">
    <g lc:layername="0" lc:is_locked="false" lc:is_construction="false" fill="none" stroke="black" stroke-width="1">
        <g lc:blockname="a20a-0">
            <g lc:layername="0" lc:is_locked="false" lc:is_construction="false" fill="none" stroke="black" stroke-width="1">
                <line x1="-22765.0259103" y1="-5308.85602486" x2="-22806.28513785" y2="-5308.85602486" />
                <line x1="-22765.0259103" y1="-5305.72139998" x2="-22806.28513785" y2="-5305.72139998" />
                <line x1="-22765.0259103" y1="-5264.99064973" x2="-22806.28513785" y2="-5264.99064973" />
                <line x1="-22765.0259103" y1="-5261.85602486" x2="-22806.28513785" y2="-5261.85602486" />
                <line x1="-22306.28513785" y1="-5310.43470901" x2="-22366.0259103" y2="-5310.43470901" />
                <line x1="-22306.28513785" y1="-5307.30008414" x2="-22366.0259103" y2="-5307.30008414" />
                <line x1="-22306.28513785" y1="-5266.56933389" x2="-22366.0259103" y2="-5266.56933389" />
                <line x1="-22306.28513785" y1="-5263.43470901" x2="-22366.0259103" y2="-5263.43470901" />
                <line x1="-22784.27540963" y1="-5289.19041347" x2="-22790.51956918" y2="-5282.95109042" />
                <circle cx="-22787.69963477" cy="-5286.37265547" r="4.62917092" />
                <line x1="-22324.6035464" y1="-5288.91406503" x2="-22330.84770594" y2="-5282.67474198" />
                <circle cx="-22328.02777153" cy="-5286.09630703" r="4.62917092" />
            </g>
            <g lc:layername="SALT" lc:is_locked="false" lc:is_construction="false" fill="none" stroke="black" stroke-width="1">
                <line x1="-22754.5259103" y1="-5260.44259357" x2="-22765.0259103" y2="-5260.44259357" />
                <line x1="-22765.0259103" y1="-5260.44259357" x2="-22765.0259103" y2="-5311.44259357" />
                <line x1="-22765.0259103" y1="-5311.44259357" x2="-22754.5259103" y2="-5311.44259357" />
                <line x1="-22754.5259103" y1="-5311.44259357" x2="-22754.5259103" y2="-5260.44259357" />
                <line x1="-22765.0259103" y1="-5278.84259357" x2="-22754.5259103" y2="-5278.84259357" />
                <line x1="-22765.0259103" y1="-5293.04259357" x2="-22754.5259103" y2="-5293.04259357" />
                <line x1="-22765.0259103" y1="-5302.24259357" x2="-22754.5259103" y2="-5302.24259357" />
                <line x1="-22765.0259103" y1="-5269.64259357" x2="-22754.5259103" y2="-5269.64259357" />
                <line x1="-22758.23022589" y1="-5297.23629908" x2="-22761.17251537" y2="-5297.23629908" />
                <line x1="-22758.23022589" y1="-5297.64259357" x2="-22761.17251537" y2="-5297.64259357" />
                <line x1="-22758.23022589" y1="-5297.23629908" x2="-22758.23022589" y2="-5297.64259357" />
                <line x1="-22761.17251537" y1="-5297.64259357" x2="-22761.17251537" y2="-5297.23629908" />
                <line x1="-22761.17251537" y1="-5274.24259357" x2="-22761.17251537" y2="-5273.83629908" />
                <line x1="-22758.23022589" y1="-5273.83629908" x2="-22758.23022589" y2="-5274.24259357" />
                <line x1="-22758.23022589" y1="-5274.24259357" x2="-22761.17251537" y2="-5274.24259357" />
                <line x1="-22758.23022589" y1="-5273.83629908" x2="-22761.17251537" y2="-5273.83629908" />
                <circle cx="-22759.70137063" cy="-5297.43944632" r="1.82453966" />
                <circle cx="-22759.70137063" cy="-5274.03944632" r="1.82453966" />
                <line x1="-22744.0259103" y1="-5260.44259357" x2="-22754.5259103" y2="-5260.44259357" />
                <line x1="-22754.5259103" y1="-5260.44259357" x2="-22754.5259103" y2="-5311.44259357" />
                <line x1="-22754.5259103" y1="-5311.44259357" x2="-22744.0259103" y2="-5311.44259357" />
                <line x1="-22744.0259103" y1="-5311.44259357" x2="-22744.0259103" y2="-5260.44259357" />
                <line x1="-22747.73022589" y1="-5297.23629908" x2="-22750.67251537" y2="-5297.23629908" />
                <line x1="-22747.73022589" y1="-5297.64259357" x2="-22750.67251537" y2="-5297.64259357" />
                <line x1="-22747.73022589" y1="-5297.23629908" x2="-22747.73022589" y2="-5297.64259357" />
                <line x1="-22750.67251537" y1="-5297.64259357" x2="-22750.67251537" y2="-5297.23629908" />
                <line x1="-22750.67251537" y1="-5274.24259357" x2="-22750.67251537" y2="-5273.83629908" />
                <line x1="-22747.73022589" y1="-5273.83629908" x2="-22747.73022589" y2="-5274.24259357" />
                <line x1="-22747.73022589" y1="-5274.24259357" x2="-22750.67251537" y2="-5274.24259357" />
                <line x1="-22747.73022589" y1="-5273.83629908" x2="-22750.67251537" y2="-5273.83629908" />
                <circle cx="-22749.20137063" cy="-5297.43944632" r="1.82453966" />
                <circle cx="-22749.20137063" cy="-5274.03944632" r="1.82453966" />
                <line x1="-22754.5259103" y1="-5278.84259357" x2="-22744.0259103" y2="-5278.84259357" />
                <line x1="-22754.5259103" y1="-5293.04259357" x2="-22744.0259103" y2="-5293.04259357" />
                <line x1="-22754.5259103" y1="-5302.24259357" x2="-22744.0259103" y2="-5302.24259357" />
                <line x1="-22754.5259103" y1="-5269.64259357" x2="-22744.0259103" y2="-5269.64259357" />
                <line x1="-22733.5259103" y1="-5260.44259357" x2="-22744.0259103" y2="-5260.44259357" />
                <line x1="-22744.0259103" y1="-5260.44259357" x2="-22744.0259103" y2="-5311.44259357" />
                <line x1="-22744.0259103" y1="-5311.44259357" x2="-22733.5259103" y2="-5311.44259357" />
                <line x1="-22733.5259103" y1="-5311.44259357" x2="-22733.5259103" y2="-5260.44259357" />
                <line x1="-22737.23022589" y1="-5297.23629908" x2="-22740.17251537" y2="-5297.23629908" />
                <line x1="-22737.23022589" y1="-5297.64259357" x2="-22740.17251537" y2="-5297.64259357" />
                <line x1="-22737.23022589" y1="-5297.23629908" x2="-22737.23022589" y2="-5297.64259357" />
                <line x1="-22740.17251537" y1="-5297.64259357" x2="-22740.17251537" y2="-5297.23629908" />
                <line x1="-22740.17251537" y1="-5274.24259357" x2="-22740.17251537" y2="-5273.83629908" />
                <line x1="-22737.23022589" y1="-5273.83629908" x2="-22737.23022589" y2="-5274.24259357" />
                <line x1="-22737.23022589" y1="-5274.24259357" x2="-22740.17251537" y2="-5274.24259357" />
                <line x1="-22737.23022589" y1="-5273.83629908" x2="-22740.17251537" y2="-5273.83629908" />
                <circle cx="-22738.70137063" cy="-5297.43944632" r="1.82453966" />
                <circle cx="-22738.70137063" cy="-5274.03944632" r="1.82453966" />
                <line x1="-22744.0259103" y1="-5278.84259357" x2="-22733.5259103" y2="-5278.84259357" />
                <line x1="-22744.0259103" y1="-5293.04259357" x2="-22733.5259103" y2="-5293.04259357" />
                <line x1="-22744.0259103" y1="-5302.24259357" x2="-22733.5259103" y2="-5302.24259357" />
                <line x1="-22744.0259103" y1="-5269.64259357" x2="-22733.5259103" y2="-5269.64259357" />
                <line x1="-22702.0259103" y1="-5260.44259357" x2="-22712.5259103" y2="-5260.44259357" />
                <line x1="-22712.5259103" y1="-5260.44259357" x2="-22712.5259103" y2="-5311.44259357" />
                <line x1="-22712.5259103" y1="-5311.44259357" x2="-22702.0259103" y2="-5311.44259357" />
                <line x1="-22702.0259103" y1="-5311.44259357" x2="-22702.0259103" y2="-5260.44259357" />
                <line x1="-22712.5259103" y1="-5260.44259357" x2="-22723.0259103" y2="-5260.44259357" />
                <line x1="-22723.0259103" y1="-5260.44259357" x2="-22723.0259103" y2="-5311.44259357" />
                <line x1="-22723.0259103" y1="-5311.44259357" x2="-22712.5259103" y2="-5311.44259357" />
                <line x1="-22712.5259103" y1="-5311.44259357" x2="-22712.5259103" y2="-5260.44259357" />
                <line x1="-22723.0259103" y1="-5260.44259357" x2="-22733.5259103" y2="-5260.44259357" />
                <line x1="-22733.5259103" y1="-5260.44259357" x2="-22733.5259103" y2="-5311.44259357" />
                <line x1="-22733.5259103" y1="-5311.44259357" x2="-22723.0259103" y2="-5311.44259357" />
                <line x1="-22723.0259103" y1="-5311.44259357" x2="-22723.0259103" y2="-5260.44259357" />
                <line x1="-22712.5259103" y1="-5269.64259357" x2="-22702.0259103" y2="-5269.64259357" />
                <line x1="-22712.5259103" y1="-5302.24259357" x2="-22702.0259103" y2="-5302.24259357" />
                <line x1="-22712.5259103" y1="-5293.04259357" x2="-22702.0259103" y2="-5293.04259357" />
                <line x1="-22712.5259103" y1="-5278.84259357" x2="-22702.0259103" y2="-5278.84259357" />
                <circle cx="-22707.20137063" cy="-5274.03944632" r="1.82453966" />
                <circle cx="-22707.20137063" cy="-5297.43944632" r="1.82453966" />
                <line x1="-22705.73022589" y1="-5273.83629908" x2="-22708.67251537" y2="-5273.83629908" />
                <line x1="-22705.73022589" y1="-5274.24259357" x2="-22708.67251537" y2="-5274.24259357" />
                <line x1="-22705.73022589" y1="-5273.83629908" x2="-22705.73022589" y2="-5274.24259357" />
                <line x1="-22708.67251537" y1="-5274.24259357" x2="-22708.67251537" y2="-5273.83629908" />
                <line x1="-22708.67251537" y1="-5297.64259357" x2="-22708.67251537" y2="-5297.23629908" />
                <line x1="-22705.73022589" y1="-5297.23629908" x2="-22705.73022589" y2="-5297.64259357" />
                <line x1="-22705.73022589" y1="-5297.64259357" x2="-22708.67251537" y2="-5297.64259357" />
                <line x1="-22705.73022589" y1="-5297.23629908" x2="-22708.67251537" y2="-5297.23629908" />
                <line x1="-22723.0259103" y1="-5269.64259357" x2="-22712.5259103" y2="-5269.64259357" />
                <line x1="-22723.0259103" y1="-5302.24259357" x2="-22712.5259103" y2="-5302.24259357" />
                <line x1="-22723.0259103" y1="-5293.04259357" x2="-22712.5259103" y2="-5293.04259357" />
                <line x1="-22723.0259103" y1="-5278.84259357" x2="-22712.5259103" y2="-5278.84259357" />
                <circle cx="-22717.70137063" cy="-5274.03944632" r="1.82453966" />
                <circle cx="-22717.70137063" cy="-5297.43944632" r="1.82453966" />
                <line x1="-22716.23022589" y1="-5273.83629908" x2="-22719.17251537" y2="-5273.83629908" />
                <line x1="-22716.23022589" y1="-5274.24259357" x2="-22719.17251537" y2="-5274.24259357" />
                <line x1="-22716.23022589" y1="-5273.83629908" x2="-22716.23022589" y2="-5274.24259357" />
                <line x1="-22719.17251537" y1="-5274.24259357" x2="-22719.17251537" y2="-5273.83629908" />
                <line x1="-22719.17251537" y1="-5297.64259357" x2="-22719.17251537" y2="-5297.23629908" />
                <line x1="-22716.23022589" y1="-5297.23629908" x2="-22716.23022589" y2="-5297.64259357" />
                <line x1="-22716.23022589" y1="-5297.64259357" x2="-22719.17251537" y2="-5297.64259357" />
                <line x1="-22716.23022589" y1="-5297.23629908" x2="-22719.17251537" y2="-5297.23629908" />
                <line x1="-22726.73022589" y1="-5297.23629908" x2="-22729.67251537" y2="-5297.23629908" />
                <line x1="-22726.73022589" y1="-5297.64259357" x2="-22729.67251537" y2="-5297.64259357" />
                <line x1="-22726.73022589" y1="-5297.23629908" x2="-22726.73022589" y2="-5297.64259357" />
                <line x1="-22729.67251537" y1="-5297.64259357" x2="-22729.67251537" y2="-5297.23629908" />
                <line x1="-22729.67251537" y1="-5274.24259357" x2="-22729.67251537" y2="-5273.83629908" />
                <line x1="-22726.73022589" y1="-5273.83629908" x2="-22726.73022589" y2="-5274.24259357" />
                <line x1="-22726.73022589" y1="-5274.24259357" x2="-22729.67251537" y2="-5274.24259357" />
                <line x1="-22726.73022589" y1="-5273.83629908" x2="-22729.67251537" y2="-5273.83629908" />
                <circle cx="-22728.20137063" cy="-5297.43944632" r="1.82453966" />
                <circle cx="-22728.20137063" cy="-5274.03944632" r="1.82453966" />
                <line x1="-22733.5259103" y1="-5278.84259357" x2="-22723.0259103" y2="-5278.84259357" />
                <line x1="-22733.5259103" y1="-5293.04259357" x2="-22723.0259103" y2="-5293.04259357" />
                <line x1="-22733.5259103" y1="-5302.24259357" x2="-22723.0259103" y2="-5302.24259357" />
                <line x1="-22733.5259103" y1="-5269.64259357" x2="-22723.0259103" y2="-5269.64259357" />
                <line x1="-22670.5259103" y1="-5260.44259357" x2="-22681.0259103" y2="-5260.44259357" />
                <line x1="-22681.0259103" y1="-5260.44259357" x2="-22681.0259103" y2="-5311.44259357" />
                <line x1="-22681.0259103" y1="-5311.44259357" x2="-22670.5259103" y2="-5311.44259357" />
                <line x1="-22670.5259103" y1="-5311.44259357" x2="-22670.5259103" y2="-5260.44259357" />
                <line x1="-22681.0259103" y1="-5260.44259357" x2="-22691.5259103" y2="-5260.44259357" />
                <line x1="-22691.5259103" y1="-5260.44259357" x2="-22691.5259103" y2="-5311.44259357" />
                <line x1="-22691.5259103" y1="-5311.44259357" x2="-22681.0259103" y2="-5311.44259357" />
                <line x1="-22681.0259103" y1="-5311.44259357" x2="-22681.0259103" y2="-5260.44259357" />
                <line x1="-22691.5259103" y1="-5260.44259357" x2="-22702.0259103" y2="-5260.44259357" />
                <line x1="-22702.0259103" y1="-5260.44259357" x2="-22702.0259103" y2="-5311.44259357" />
                <line x1="-22702.0259103" y1="-5311.44259357" x2="-22691.5259103" y2="-5311.44259357" />
                <line x1="-22691.5259103" y1="-5311.44259357" x2="-22691.5259103" y2="-5260.44259357" />
                <line x1="-22681.0259103" y1="-5269.64259357" x2="-22670.5259103" y2="-5269.64259357" />
                <line x1="-22681.0259103" y1="-5302.24259357" x2="-22670.5259103" y2="-5302.24259357" />
                <line x1="-22681.0259103" y1="-5293.04259357" x2="-22670.5259103" y2="-5293.04259357" />
                <line x1="-22681.0259103" y1="-5278.84259357" x2="-22670.5259103" y2="-5278.84259357" />
                <circle cx="-22675.70137063" cy="-5274.03944632" r="1.82453966" />
                <circle cx="-22675.70137063" cy="-5297.43944632" r="1.82453966" />
                <line x1="-22674.23022589" y1="-5273.83629908" x2="-22677.17251537" y2="-5273.83629908" />
                <line x1="-22674.23022589" y1="-5274.24259357" x2="-22677.17251537" y2="-5274.24259357" />
                <line x1="-22674.23022589" y1="-5273.83629908" x2="-22674.23022589" y2="-5274.24259357" />
                <line x1="-22677.17251537" y1="-5274.24259357" x2="-22677.17251537" y2="-5273.83629908" />
                <line x1="-22677.17251537" y1="-5297.64259357" x2="-22677.17251537" y2="-5297.23629908" />
                <line x1="-22674.23022589" y1="-5297.23629908" x2="-22674.23022589" y2="-5297.64259357" />
                <line x1="-22674.23022589" y1="-5297.64259357" x2="-22677.17251537" y2="-5297.64259357" />
                <line x1="-22674.23022589" y1="-5297.23629908" x2="-22677.17251537" y2="-5297.23629908" />
                <line x1="-22691.5259103" y1="-5269.64259357" x2="-22681.0259103" y2="-5269.64259357" />
                <line x1="-22691.5259103" y1="-5302.24259357" x2="-22681.0259103" y2="-5302.24259357" />
                <line x1="-22691.5259103" y1="-5293.04259357" x2="-22681.0259103" y2="-5293.04259357" />
                <line x1="-22691.5259103" y1="-5278.84259357" x2="-22681.0259103" y2="-5278.84259357" />
                <circle cx="-22686.20137063" cy="-5274.03944632" r="1.82453966" />
                <circle cx="-22686.20137063" cy="-5297.43944632" r="1.82453966" />
                <line x1="-22684.73022589" y1="-5273.83629908" x2="-22687.67251537" y2="-5273.83629908" />
                <line x1="-22684.73022589" y1="-5274.24259357" x2="-22687.67251537" y2="-5274.24259357" />
                <line x1="-22684.73022589" y1="-5273.83629908" x2="-22684.73022589" y2="-5274.24259357" />
                <line x1="-22687.67251537" y1="-5274.24259357" x2="-22687.67251537" y2="-5273.83629908" />
                <line x1="-22687.67251537" y1="-5297.64259357" x2="-22687.67251537" y2="-5297.23629908" />
                <line x1="-22684.73022589" y1="-5297.23629908" x2="-22684.73022589" y2="-5297.64259357" />
                <line x1="-22684.73022589" y1="-5297.64259357" x2="-22687.67251537" y2="-5297.64259357" />
                <line x1="-22684.73022589" y1="-5297.23629908" x2="-22687.67251537" y2="-5297.23629908" />
                <line x1="-22695.23022589" y1="-5297.23629908" x2="-22698.17251537" y2="-5297.23629908" />
                <line x1="-22695.23022589" y1="-5297.64259357" x2="-22698.17251537" y2="-5297.64259357" />
                <line x1="-22695.23022589" y1="-5297.23629908" x2="-22695.23022589" y2="-5297.64259357" />
                <line x1="-22698.17251537" y1="-5297.64259357" x2="-22698.17251537" y2="-5297.23629908" />
                <line x1="-22698.17251537" y1="-5274.24259357" x2="-22698.17251537" y2="-5273.83629908" />
                <line x1="-22695.23022589" y1="-5273.83629908" x2="-22695.23022589" y2="-5274.24259357" />
                <line x1="-22695.23022589" y1="-5274.24259357" x2="-22698.17251537" y2="-5274.24259357" />
                <line x1="-22695.23022589" y1="-5273.83629908" x2="-22698.17251537" y2="-5273.83629908" />
                <circle cx="-22696.70137063" cy="-5297.43944632" r="1.82453966" />
                <circle cx="-22696.70137063" cy="-5274.03944632" r="1.82453966" />
                <line x1="-22702.0259103" y1="-5278.84259357" x2="-22691.5259103" y2="-5278.84259357" />
                <line x1="-22702.0259103" y1="-5293.04259357" x2="-22691.5259103" y2="-5293.04259357" />
                <line x1="-22702.0259103" y1="-5302.24259357" x2="-22691.5259103" y2="-5302.24259357" />
                <line x1="-22702.0259103" y1="-5269.64259357" x2="-22691.5259103" y2="-5269.64259357" />
                <line x1="-22639.0259103" y1="-5260.44259357" x2="-22649.5259103" y2="-5260.44259357" />
                <line x1="-22649.5259103" y1="-5260.44259357" x2="-22649.5259103" y2="-5311.44259357" />
                <line x1="-22649.5259103" y1="-5311.44259357" x2="-22639.0259103" y2="-5311.44259357" />
                <line x1="-22639.0259103" y1="-5311.44259357" x2="-22639.0259103" y2="-5260.44259357" />
                <line x1="-22649.5259103" y1="-5260.44259357" x2="-22660.0259103" y2="-5260.44259357" />
                <line x1="-22660.0259103" y1="-5260.44259357" x2="-22660.0259103" y2="-5311.44259357" />
                <line x1="-22660.0259103" y1="-5311.44259357" x2="-22649.5259103" y2="-5311.44259357" />
                <line x1="-22649.5259103" y1="-5311.44259357" x2="-22649.5259103" y2="-5260.44259357" />
                <line x1="-22660.0259103" y1="-5260.44259357" x2="-22670.5259103" y2="-5260.44259357" />
                <line x1="-22670.5259103" y1="-5260.44259357" x2="-22670.5259103" y2="-5311.44259357" />
                <line x1="-22670.5259103" y1="-5311.44259357" x2="-22660.0259103" y2="-5311.44259357" />
                <line x1="-22660.0259103" y1="-5311.44259357" x2="-22660.0259103" y2="-5260.44259357" />
                <line x1="-22649.5259103" y1="-5269.64259357" x2="-22639.0259103" y2="-5269.64259357" />
                <line x1="-22649.5259103" y1="-5302.24259357" x2="-22639.0259103" y2="-5302.24259357" />
                <line x1="-22649.5259103" y1="-5293.04259357" x2="-22639.0259103" y2="-5293.04259357" />
                <line x1="-22649.5259103" y1="-5278.84259357" x2="-22639.0259103" y2="-5278.84259357" />
                <circle cx="-22644.20137063" cy="-5274.03944632" r="1.82453966" />
                <circle cx="-22644.20137063" cy="-5297.43944632" r="1.82453966" />
                <line x1="-22642.73022589" y1="-5273.83629908" x2="-22645.67251537" y2="-5273.83629908" />
                <line x1="-22642.73022589" y1="-5274.24259357" x2="-22645.67251537" y2="-5274.24259357" />
                <line x1="-22642.73022589" y1="-5273.83629908" x2="-22642.73022589" y2="-5274.24259357" />
                <line x1="-22645.67251537" y1="-5274.24259357" x2="-22645.67251537" y2="-5273.83629908" />
                <line x1="-22645.67251537" y1="-5297.64259357" x2="-22645.67251537" y2="-5297.23629908" />
                <line x1="-22642.73022589" y1="-5297.23629908" x2="-22642.73022589" y2="-5297.64259357" />
                <line x1="-22642.73022589" y1="-5297.64259357" x2="-22645.67251537" y2="-5297.64259357" />
                <line x1="-22642.73022589" y1="-5297.23629908" x2="-22645.67251537" y2="-5297.23629908" />
                <line x1="-22660.0259103" y1="-5269.64259357" x2="-22649.5259103" y2="-5269.64259357" />
                <line x1="-22660.0259103" y1="-5302.24259357" x2="-22649.5259103" y2="-5302.24259357" />
                <line x1="-22660.0259103" y1="-5293.04259357" x2="-22649.5259103" y2="-5293.04259357" />
                <line x1="-22660.0259103" y1="-5278.84259357" x2="-22649.5259103" y2="-5278.84259357" />
                <circle cx="-22654.70137063" cy="-5274.03944632" r="1.82453966" />
                <circle cx="-22654.70137063" cy="-5297.43944632" r="1.82453966" />
                <line x1="-22653.23022589" y1="-5273.83629908" x2="-22656.17251537" y2="-5273.83629908" />
                <line x1="-22653.23022589" y1="-5274.24259357" x2="-22656.17251537" y2="-5274.24259357" />
                <line x1="-22653.23022589" y1="-5273.83629908" x2="-22653.23022589" y2="-5274.24259357" />
                <line x1="-22656.17251537" y1="-5274.24259357" x2="-22656.17251537" y2="-5273.83629908" />
                <line x1="-22656.17251537" y1="-5297.64259357" x2="-22656.17251537" y2="-5297.23629908" />
                <line x1="-22653.23022589" y1="-5297.23629908" x2="-22653.23022589" y2="-5297.64259357" />
                <line x1="-22653.23022589" y1="-5297.64259357" x2="-22656.17251537" y2="-5297.64259357" />
                <line x1="-22653.23022589" y1="-5297.23629908" x2="-22656.17251537" y2="-5297.23629908" />
                <line x1="-22663.73022589" y1="-5297.23629908" x2="-22666.67251537" y2="-5297.23629908" />
                <line x1="-22663.73022589" y1="-5297.64259357" x2="-22666.67251537" y2="-5297.64259357" />
                <line x1="-22663.73022589" y1="-5297.23629908" x2="-22663.73022589" y2="-5297.64259357" />
                <line x1="-22666.67251537" y1="-5297.64259357" x2="-22666.67251537" y2="-5297.23629908" />
                <line x1="-22666.67251537" y1="-5274.24259357" x2="-22666.67251537" y2="-5273.83629908" />
                <line x1="-22663.73022589" y1="-5273.83629908" x2="-22663.73022589" y2="-5274.24259357" />
                <line x1="-22663.73022589" y1="-5274.24259357" x2="-22666.67251537" y2="-5274.24259357" />
                <line x1="-22663.73022589" y1="-5273.83629908" x2="-22666.67251537" y2="-5273.83629908" />
                <circle cx="-22665.20137063" cy="-5297.43944632" r="1.82453966" />
                <circle cx="-22665.20137063" cy="-5274.03944632" r="1.82453966" />
                <line x1="-22670.5259103" y1="-5278.84259357" x2="-22660.0259103" y2="-5278.84259357" />
                <line x1="-22670.5259103" y1="-5293.04259357" x2="-22660.0259103" y2="-5293.04259357" />
                <line x1="-22670.5259103" y1="-5302.24259357" x2="-22660.0259103" y2="-5302.24259357" />
                <line x1="-22670.5259103" y1="-5269.64259357" x2="-22660.0259103" y2="-5269.64259357" />
                <line x1="-22607.5259103" y1="-5260.44259357" x2="-22618.0259103" y2="-5260.44259357" />
                <line x1="-22618.0259103" y1="-5260.44259357" x2="-22618.0259103" y2="-5311.44259357" />
                <line x1="-22618.0259103" y1="-5311.44259357" x2="-22607.5259103" y2="-5311.44259357" />
                <line x1="-22607.5259103" y1="-5311.44259357" x2="-22607.5259103" y2="-5260.44259357" />
                <line x1="-22618.0259103" y1="-5260.44259357" x2="-22628.5259103" y2="-5260.44259357" />
                <line x1="-22628.5259103" y1="-5260.44259357" x2="-22628.5259103" y2="-5311.44259357" />
                <line x1="-22628.5259103" y1="-5311.44259357" x2="-22618.0259103" y2="-5311.44259357" />
                <line x1="-22618.0259103" y1="-5311.44259357" x2="-22618.0259103" y2="-5260.44259357" />
                <line x1="-22628.5259103" y1="-5260.44259357" x2="-22639.0259103" y2="-5260.44259357" />
                <line x1="-22639.0259103" y1="-5260.44259357" x2="-22639.0259103" y2="-5311.44259357" />
                <line x1="-22639.0259103" y1="-5311.44259357" x2="-22628.5259103" y2="-5311.44259357" />
                <line x1="-22628.5259103" y1="-5311.44259357" x2="-22628.5259103" y2="-5260.44259357" />
                <line x1="-22618.0259103" y1="-5269.64259357" x2="-22607.5259103" y2="-5269.64259357" />
                <line x1="-22618.0259103" y1="-5302.24259357" x2="-22607.5259103" y2="-5302.24259357" />
                <line x1="-22618.0259103" y1="-5293.04259357" x2="-22607.5259103" y2="-5293.04259357" />
                <line x1="-22618.0259103" y1="-5278.84259357" x2="-22607.5259103" y2="-5278.84259357" />
                <circle cx="-22612.70137063" cy="-5274.03944632" r="1.82453966" />
                <circle cx="-22612.70137063" cy="-5297.43944632" r="1.82453966" />
                <line x1="-22611.23022589" y1="-5273.83629908" x2="-22614.17251537" y2="-5273.83629908" />
                <line x1="-22611.23022589" y1="-5274.24259357" x2="-22614.17251537" y2="-5274.24259357" />
                <line x1="-22611.23022589" y1="-5273.83629908" x2="-22611.23022589" y2="-5274.24259357" />
                <line x1="-22614.17251537" y1="-5274.24259357" x2="-22614.17251537" y2="-5273.83629908" />
                <line x1="-22614.17251537" y1="-5297.64259357" x2="-22614.17251537" y2="-5297.23629908" />
                <line x1="-22611.23022589" y1="-5297.23629908" x2="-22611.23022589" y2="-5297.64259357" />
                <line x1="-22611.23022589" y1="-5297.64259357" x2="-22614.17251537" y2="-5297.64259357" />
                <line x1="-22611.23022589" y1="-5297.23629908" x2="-22614.17251537" y2="-5297.23629908" />
                <line x1="-22628.5259103" y1="-5269.64259357" x2="-22618.0259103" y2="-5269.64259357" />
                <line x1="-22628.5259103" y1="-5302.24259357" x2="-22618.0259103" y2="-5302.24259357" />
                <line x1="-22628.5259103" y1="-5293.04259357" x2="-22618.0259103" y2="-5293.04259357" />
                <line x1="-22628.5259103" y1="-5278.84259357" x2="-22618.0259103" y2="-5278.84259357" />
                <circle cx="-22623.20137063" cy="-5274.03944632" r="1.82453966" />
                <circle cx="-22623.20137063" cy="-5297.43944632" r="1.82453966" />
                <line x1="-22621.73022589" y1="-5273.83629908" x2="-22624.67251537" y2="-5273.83629908" />
                <line x1="-22621.73022589" y1="-5274.24259357" x2="-22624.67251537" y2="-5274.24259357" />
                <line x1="-22621.73022589" y1="-5273.83629908" x2="-22621.73022589" y2="-5274.24259357" />
                <line x1="-22624.67251537" y1="-5274.24259357" x2="-22624.67251537" y2="-5273.83629908" />
                <line x1="-22624.67251537" y1="-5297.64259357" x2="-22624.67251537" y2="-5297.23629908" />
                <line x1="-22621.73022589" y1="-5297.23629908" x2="-22621.73022589" y2="-5297.64259357" />
                <line x1="-22621.73022589" y1="-5297.64259357" x2="-22624.67251537" y2="-5297.64259357" />
                <line x1="-22621.73022589" y1="-5297.23629908" x2="-22624.67251537" y2="-5297.23629908" />
                <line x1="-22632.23022589" y1="-5297.23629908" x2="-22635.17251537" y2="-5297.23629908" />
                <line x1="-22632.23022589" y1="-5297.64259357" x2="-22635.17251537" y2="-5297.64259357" />
                <line x1="-22632.23022589" y1="-5297.23629908" x2="-22632.23022589" y2="-5297.64259357" />
                <line x1="-22635.17251537" y1="-5297.64259357" x2="-22635.17251537" y2="-5297.23629908" />
                <line x1="-22635.17251537" y1="-5274.24259357" x2="-22635.17251537" y2="-5273.83629908" />
                <line x1="-22632.23022589" y1="-5273.83629908" x2="-22632.23022589" y2="-5274.24259357" />
                <line x1="-22632.23022589" y1="-5274.24259357" x2="-22635.17251537" y2="-5274.24259357" />
                <line x1="-22632.23022589" y1="-5273.83629908" x2="-22635.17251537" y2="-5273.83629908" />
                <circle cx="-22633.70137063" cy="-5297.43944632" r="1.82453966" />
                <circle cx="-22633.70137063" cy="-5274.03944632" r="1.82453966" />
                <line x1="-22639.0259103" y1="-5278.84259357" x2="-22628.5259103" y2="-5278.84259357" />
                <line x1="-22639.0259103" y1="-5293.04259357" x2="-22628.5259103" y2="-5293.04259357" />
                <line x1="-22639.0259103" y1="-5302.24259357" x2="-22628.5259103" y2="-5302.24259357" />
                <line x1="-22639.0259103" y1="-5269.64259357" x2="-22628.5259103" y2="-5269.64259357" />
                <line x1="-22576.0259103" y1="-5260.44259357" x2="-22586.5259103" y2="-5260.44259357" />
                <line x1="-22586.5259103" y1="-5260.44259357" x2="-22586.5259103" y2="-5311.44259357" />
                <line x1="-22586.5259103" y1="-5311.44259357" x2="-22576.0259103" y2="-5311.44259357" />
                <line x1="-22576.0259103" y1="-5311.44259357" x2="-22576.0259103" y2="-5260.44259357" />
                <line x1="-22586.5259103" y1="-5260.44259357" x2="-22597.0259103" y2="-5260.44259357" />
                <line x1="-22597.0259103" y1="-5260.44259357" x2="-22597.0259103" y2="-5311.44259357" />
                <line x1="-22597.0259103" y1="-5311.44259357" x2="-22586.5259103" y2="-5311.44259357" />
                <line x1="-22586.5259103" y1="-5311.44259357" x2="-22586.5259103" y2="-5260.44259357" />
                <line x1="-22597.0259103" y1="-5260.44259357" x2="-22607.5259103" y2="-5260.44259357" />
                <line x1="-22607.5259103" y1="-5260.44259357" x2="-22607.5259103" y2="-5311.44259357" />
                <line x1="-22607.5259103" y1="-5311.44259357" x2="-22597.0259103" y2="-5311.44259357" />
                <line x1="-22597.0259103" y1="-5311.44259357" x2="-22597.0259103" y2="-5260.44259357" />
                <line x1="-22586.5259103" y1="-5269.64259357" x2="-22576.0259103" y2="-5269.64259357" />
                <line x1="-22586.5259103" y1="-5302.24259357" x2="-22576.0259103" y2="-5302.24259357" />
                <line x1="-22586.5259103" y1="-5293.04259357" x2="-22576.0259103" y2="-5293.04259357" />
                <line x1="-22586.5259103" y1="-5278.84259357" x2="-22576.0259103" y2="-5278.84259357" />
                <circle cx="-22581.20137063" cy="-5274.03944632" r="1.82453966" />
                <circle cx="-22581.20137063" cy="-5297.43944632" r="1.82453966" />
                <line x1="-22579.73022589" y1="-5273.83629908" x2="-22582.67251537" y2="-5273.83629908" />
                <line x1="-22579.73022589" y1="-5274.24259357" x2="-22582.67251537" y2="-5274.24259357" />
                <line x1="-22579.73022589" y1="-5273.83629908" x2="-22579.73022589" y2="-5274.24259357" />
                <line x1="-22582.67251537" y1="-5274.24259357" x2="-22582.67251537" y2="-5273.83629908" />
                <line x1="-22582.67251537" y1="-5297.64259357" x2="-22582.67251537" y2="-5297.23629908" />
                <line x1="-22579.73022589" y1="-5297.23629908" x2="-22579.73022589" y2="-5297.64259357" />
                <line x1="-22579.73022589" y1="-5297.64259357" x2="-22582.67251537" y2="-5297.64259357" />
                <line x1="-22579.73022589" y1="-5297.23629908" x2="-22582.67251537" y2="-5297.23629908" />
                <line x1="-22597.0259103" y1="-5269.64259357" x2="-22586.5259103" y2="-5269.64259357" />
                <line x1="-22597.0259103" y1="-5302.24259357" x2="-22586.5259103" y2="-5302.24259357" />
                <line x1="-22597.0259103" y1="-5293.04259357" x2="-22586.5259103" y2="-5293.04259357" />
                <line x1="-22597.0259103" y1="-5278.84259357" x2="-22586.5259103" y2="-5278.84259357" />
                <circle cx="-22591.70137063" cy="-5274.03944632" r="1.82453966" />
                <circle cx="-22591.70137063" cy="-5297.43944632" r="1.82453966" />
                <line x1="-22590.23022589" y1="-5273.83629908" x2="-22593.17251537" y2="-5273.83629908" />
                <line x1="-22590.23022589" y1="-5274.24259357" x2="-22593.17251537" y2="-5274.24259357" />
                <line x1="-22590.23022589" y1="-5273.83629908" x2="-22590.23022589" y2="-5274.24259357" />
                <line x1="-22593.17251537" y1="-5274.24259357" x2="-22593.17251537" y2="-5273.83629908" />
                <line x1="-22593.17251537" y1="-5297.64259357" x2="-22593.17251537" y2="-5297.23629908" />
                <line x1="-22590.23022589" y1="-5297.23629908" x2="-22590.23022589" y2="-5297.64259357" />
                <line x1="-22590.23022589" y1="-5297.64259357" x2="-22593.17251537" y2="-5297.64259357" />
                <line x1="-22590.23022589" y1="-5297.23629908" x2="-22593.17251537" y2="-5297.23629908" />
                <line x1="-22600.73022589" y1="-5297.23629908" x2="-22603.67251537" y2="-5297.23629908" />
                <line x1="-22600.73022589" y1="-5297.64259357" x2="-22603.67251537" y2="-5297.64259357" />
                <line x1="-22600.73022589" y1="-5297.23629908" x2="-22600.73022589" y2="-5297.64259357" />
                <line x1="-22603.67251537" y1="-5297.64259357" x2="-22603.67251537" y2="-5297.23629908" />
                <line x1="-22603.67251537" y1="-5274.24259357" x2="-22603.67251537" y2="-5273.83629908" />
                <line x1="-22600.73022589" y1="-5273.83629908" x2="-22600.73022589" y2="-5274.24259357" />
                <line x1="-22600.73022589" y1="-5274.24259357" x2="-22603.67251537" y2="-5274.24259357" />
                <line x1="-22600.73022589" y1="-5273.83629908" x2="-22603.67251537" y2="-5273.83629908" />
                <circle cx="-22602.20137063" cy="-5297.43944632" r="1.82453966" />
                <circle cx="-22602.20137063" cy="-5274.03944632" r="1.82453966" />
                <line x1="-22607.5259103" y1="-5278.84259357" x2="-22597.0259103" y2="-5278.84259357" />
                <line x1="-22607.5259103" y1="-5293.04259357" x2="-22597.0259103" y2="-5293.04259357" />
                <line x1="-22607.5259103" y1="-5302.24259357" x2="-22597.0259103" y2="-5302.24259357" />
                <line x1="-22607.5259103" y1="-5269.64259357" x2="-22597.0259103" y2="-5269.64259357" />
                <line x1="-22544.5259103" y1="-5260.44259357" x2="-22555.0259103" y2="-5260.44259357" />
                <line x1="-22555.0259103" y1="-5260.44259357" x2="-22555.0259103" y2="-5311.44259357" />
                <line x1="-22555.0259103" y1="-5311.44259357" x2="-22544.5259103" y2="-5311.44259357" />
                <line x1="-22544.5259103" y1="-5311.44259357" x2="-22544.5259103" y2="-5260.44259357" />
                <line x1="-22555.0259103" y1="-5260.44259357" x2="-22565.5259103" y2="-5260.44259357" />
                <line x1="-22565.5259103" y1="-5260.44259357" x2="-22565.5259103" y2="-5311.44259357" />
                <line x1="-22565.5259103" y1="-5311.44259357" x2="-22555.0259103" y2="-5311.44259357" />
                <line x1="-22555.0259103" y1="-5311.44259357" x2="-22555.0259103" y2="-5260.44259357" />
                <line x1="-22565.5259103" y1="-5260.44259357" x2="-22576.0259103" y2="-5260.44259357" />
                <line x1="-22576.0259103" y1="-5260.44259357" x2="-22576.0259103" y2="-5311.44259357" />
                <line x1="-22576.0259103" y1="-5311.44259357" x2="-22565.5259103" y2="-5311.44259357" />
                <line x1="-22565.5259103" y1="-5311.44259357" x2="-22565.5259103" y2="-5260.44259357" />
                <line x1="-22555.0259103" y1="-5269.64259357" x2="-22544.5259103" y2="-5269.64259357" />
                <line x1="-22555.0259103" y1="-5302.24259357" x2="-22544.5259103" y2="-5302.24259357" />
                <line x1="-22555.0259103" y1="-5293.04259357" x2="-22544.5259103" y2="-5293.04259357" />
                <line x1="-22555.0259103" y1="-5278.84259357" x2="-22544.5259103" y2="-5278.84259357" />
                <circle cx="-22549.70137063" cy="-5274.03944632" r="1.82453966" />
                <circle cx="-22549.70137063" cy="-5297.43944632" r="1.82453966" />
                <line x1="-22548.23022589" y1="-5273.83629908" x2="-22551.17251537" y2="-5273.83629908" />
                <line x1="-22548.23022589" y1="-5274.24259357" x2="-22551.17251537" y2="-5274.24259357" />
                <line x1="-22548.23022589" y1="-5273.83629908" x2="-22548.23022589" y2="-5274.24259357" />
                <line x1="-22551.17251537" y1="-5274.24259357" x2="-22551.17251537" y2="-5273.83629908" />
                <line x1="-22551.17251537" y1="-5297.64259357" x2="-22551.17251537" y2="-5297.23629908" />
                <line x1="-22548.23022589" y1="-5297.23629908" x2="-22548.23022589" y2="-5297.64259357" />
                <line x1="-22548.23022589" y1="-5297.64259357" x2="-22551.17251537" y2="-5297.64259357" />
                <line x1="-22548.23022589" y1="-5297.23629908" x2="-22551.17251537" y2="-5297.23629908" />
                <line x1="-22565.5259103" y1="-5269.64259357" x2="-22555.0259103" y2="-5269.64259357" />
                <line x1="-22565.5259103" y1="-5302.24259357" x2="-22555.0259103" y2="-5302.24259357" />
                <line x1="-22565.5259103" y1="-5293.04259357" x2="-22555.0259103" y2="-5293.04259357" />
                <line x1="-22565.5259103" y1="-5278.84259357" x2="-22555.0259103" y2="-5278.84259357" />
                <circle cx="-22560.20137063" cy="-5274.03944632" r="1.82453966" />
                <circle cx="-22560.20137063" cy="-5297.43944632" r="1.82453966" />
                <line x1="-22558.73022589" y1="-5273.83629908" x2="-22561.67251537" y2="-5273.83629908" />
                <line x1="-22558.73022589" y1="-5274.24259357" x2="-22561.67251537" y2="-5274.24259357" />
                <line x1="-22558.73022589" y1="-5273.83629908" x2="-22558.73022589" y2="-5274.24259357" />
                <line x1="-22561.67251537" y1="-5274.24259357" x2="-22561.67251537" y2="-5273.83629908" />
                <line x1="-22561.67251537" y1="-5297.64259357" x2="-22561.67251537" y2="-5297.23629908" />
                <line x1="-22558.73022589" y1="-5297.23629908" x2="-22558.73022589" y2="-5297.64259357" />
                <line x1="-22558.73022589" y1="-5297.64259357" x2="-22561.67251537" y2="-5297.64259357" />
                <line x1="-22558.73022589" y1="-5297.23629908" x2="-22561.67251537" y2="-5297.23629908" />
                <line x1="-22569.23022589" y1="-5297.23629908" x2="-22572.17251537" y2="-5297.23629908" />
                <line x1="-22569.23022589" y1="-5297.64259357" x2="-22572.17251537" y2="-5297.64259357" />
                <line x1="-22569.23022589" y1="-5297.23629908" x2="-22569.23022589" y2="-5297.64259357" />
                <line x1="-22572.17251537" y1="-5297.64259357" x2="-22572.17251537" y2="-5297.23629908" />
                <line x1="-22572.17251537" y1="-5274.24259357" x2="-22572.17251537" y2="-5273.83629908" />
                <line x1="-22569.23022589" y1="-5273.83629908" x2="-22569.23022589" y2="-5274.24259357" />
                <line x1="-22569.23022589" y1="-5274.24259357" x2="-22572.17251537" y2="-5274.24259357" />
                <line x1="-22569.23022589" y1="-5273.83629908" x2="-22572.17251537" y2="-5273.83629908" />
                <circle cx="-22570.70137063" cy="-5297.43944632" r="1.82453966" />
                <circle cx="-22570.70137063" cy="-5274.03944632" r="1.82453966" />
                <line x1="-22576.0259103" y1="-5278.84259357" x2="-22565.5259103" y2="-5278.84259357" />
                <line x1="-22576.0259103" y1="-5293.04259357" x2="-22565.5259103" y2="-5293.04259357" />
                <line x1="-22576.0259103" y1="-5302.24259357" x2="-22565.5259103" y2="-5302.24259357" />
                <line x1="-22576.0259103" y1="-5269.64259357" x2="-22565.5259103" y2="-5269.64259357" />
                <line x1="-22513.0259103" y1="-5260.44259357" x2="-22523.5259103" y2="-5260.44259357" />
                <line x1="-22523.5259103" y1="-5260.44259357" x2="-22523.5259103" y2="-5311.44259357" />
                <line x1="-22523.5259103" y1="-5311.44259357" x2="-22513.0259103" y2="-5311.44259357" />
                <line x1="-22513.0259103" y1="-5311.44259357" x2="-22513.0259103" y2="-5260.44259357" />
                <line x1="-22523.5259103" y1="-5260.44259357" x2="-22534.0259103" y2="-5260.44259357" />
                <line x1="-22534.0259103" y1="-5260.44259357" x2="-22534.0259103" y2="-5311.44259357" />
                <line x1="-22534.0259103" y1="-5311.44259357" x2="-22523.5259103" y2="-5311.44259357" />
                <line x1="-22523.5259103" y1="-5311.44259357" x2="-22523.5259103" y2="-5260.44259357" />
                <line x1="-22534.0259103" y1="-5260.44259357" x2="-22544.5259103" y2="-5260.44259357" />
                <line x1="-22544.5259103" y1="-5260.44259357" x2="-22544.5259103" y2="-5311.44259357" />
                <line x1="-22544.5259103" y1="-5311.44259357" x2="-22534.0259103" y2="-5311.44259357" />
                <line x1="-22534.0259103" y1="-5311.44259357" x2="-22534.0259103" y2="-5260.44259357" />
                <line x1="-22523.5259103" y1="-5269.64259357" x2="-22513.0259103" y2="-5269.64259357" />
                <line x1="-22523.5259103" y1="-5302.24259357" x2="-22513.0259103" y2="-5302.24259357" />
                <line x1="-22523.5259103" y1="-5293.04259357" x2="-22513.0259103" y2="-5293.04259357" />
                <line x1="-22523.5259103" y1="-5278.84259357" x2="-22513.0259103" y2="-5278.84259357" />
                <circle cx="-22518.20137063" cy="-5274.03944632" r="1.82453966" />
                <circle cx="-22518.20137063" cy="-5297.43944632" r="1.82453966" />
                <line x1="-22516.73022589" y1="-5273.83629908" x2="-22519.67251537" y2="-5273.83629908" />
                <line x1="-22516.73022589" y1="-5274.24259357" x2="-22519.67251537" y2="-5274.24259357" />
                <line x1="-22516.73022589" y1="-5273.83629908" x2="-22516.73022589" y2="-5274.24259357" />
                <line x1="-22519.67251537" y1="-5274.24259357" x2="-22519.67251537" y2="-5273.83629908" />
                <line x1="-22519.67251537" y1="-5297.64259357" x2="-22519.67251537" y2="-5297.23629908" />
                <line x1="-22516.73022589" y1="-5297.23629908" x2="-22516.73022589" y2="-5297.64259357" />
                <line x1="-22516.73022589" y1="-5297.64259357" x2="-22519.67251537" y2="-5297.64259357" />
                <line x1="-22516.73022589" y1="-5297.23629908" x2="-22519.67251537" y2="-5297.23629908" />
                <line x1="-22534.0259103" y1="-5269.64259357" x2="-22523.5259103" y2="-5269.64259357" />
                <line x1="-22534.0259103" y1="-5302.24259357" x2="-22523.5259103" y2="-5302.24259357" />
                <line x1="-22534.0259103" y1="-5293.04259357" x2="-22523.5259103" y2="-5293.04259357" />
                <line x1="-22534.0259103" y1="-5278.84259357" x2="-22523.5259103" y2="-5278.84259357" />
                <circle cx="-22528.70137063" cy="-5274.03944632" r="1.82453966" />
                <circle cx="-22528.70137063" cy="-5297.43944632" r="1.82453966" />
                <line x1="-22527.23022589" y1="-5273.83629908" x2="-22530.17251537" y2="-5273.83629908" />
                <line x1="-22527.23022589" y1="-5274.24259357" x2="-22530.17251537" y2="-5274.24259357" />
                <line x1="-22527.23022589" y1="-5273.83629908" x2="-22527.23022589" y2="-5274.24259357" />
                <line x1="-22530.17251537" y1="-5274.24259357" x2="-22530.17251537" y2="-5273.83629908" />
                <line x1="-22530.17251537" y1="-5297.64259357" x2="-22530.17251537" y2="-5297.23629908" />
                <line x1="-22527.23022589" y1="-5297.23629908" x2="-22527.23022589" y2="-5297.64259357" />
                <line x1="-22527.23022589" y1="-5297.64259357" x2="-22530.17251537" y2="-5297.64259357" />
                <line x1="-22527.23022589" y1="-5297.23629908" x2="-22530.17251537" y2="-5297.23629908" />
                <line x1="-22537.73022589" y1="-5297.23629908" x2="-22540.67251537" y2="-5297.23629908" />
                <line x1="-22537.73022589" y1="-5297.64259357" x2="-22540.67251537" y2="-5297.64259357" />
                <line x1="-22537.73022589" y1="-5297.23629908" x2="-22537.73022589" y2="-5297.64259357" />
                <line x1="-22540.67251537" y1="-5297.64259357" x2="-22540.67251537" y2="-5297.23629908" />
                <line x1="-22540.67251537" y1="-5274.24259357" x2="-22540.67251537" y2="-5273.83629908" />
                <line x1="-22537.73022589" y1="-5273.83629908" x2="-22537.73022589" y2="-5274.24259357" />
                <line x1="-22537.73022589" y1="-5274.24259357" x2="-22540.67251537" y2="-5274.24259357" />
                <line x1="-22537.73022589" y1="-5273.83629908" x2="-22540.67251537" y2="-5273.83629908" />
                <circle cx="-22539.20137063" cy="-5297.43944632" r="1.82453966" />
                <circle cx="-22539.20137063" cy="-5274.03944632" r="1.82453966" />
                <line x1="-22544.5259103" y1="-5278.84259357" x2="-22534.0259103" y2="-5278.84259357" />
                <line x1="-22544.5259103" y1="-5293.04259357" x2="-22534.0259103" y2="-5293.04259357" />
                <line x1="-22544.5259103" y1="-5302.24259357" x2="-22534.0259103" y2="-5302.24259357" />
                <line x1="-22544.5259103" y1="-5269.64259357" x2="-22534.0259103" y2="-5269.64259357" />
                <line x1="-22481.5259103" y1="-5260.44259357" x2="-22492.0259103" y2="-5260.44259357" />
                <line x1="-22492.0259103" y1="-5260.44259357" x2="-22492.0259103" y2="-5311.44259357" />
                <line x1="-22492.0259103" y1="-5311.44259357" x2="-22481.5259103" y2="-5311.44259357" />
                <line x1="-22481.5259103" y1="-5311.44259357" x2="-22481.5259103" y2="-5260.44259357" />
                <line x1="-22492.0259103" y1="-5260.44259357" x2="-22502.5259103" y2="-5260.44259357" />
                <line x1="-22502.5259103" y1="-5260.44259357" x2="-22502.5259103" y2="-5311.44259357" />
                <line x1="-22502.5259103" y1="-5311.44259357" x2="-22492.0259103" y2="-5311.44259357" />
                <line x1="-22492.0259103" y1="-5311.44259357" x2="-22492.0259103" y2="-5260.44259357" />
                <line x1="-22502.5259103" y1="-5260.44259357" x2="-22513.0259103" y2="-5260.44259357" />
                <line x1="-22513.0259103" y1="-5260.44259357" x2="-22513.0259103" y2="-5311.44259357" />
                <line x1="-22513.0259103" y1="-5311.44259357" x2="-22502.5259103" y2="-5311.44259357" />
                <line x1="-22502.5259103" y1="-5311.44259357" x2="-22502.5259103" y2="-5260.44259357" />
                <line x1="-22492.0259103" y1="-5269.64259357" x2="-22481.5259103" y2="-5269.64259357" />
                <line x1="-22492.0259103" y1="-5302.24259357" x2="-22481.5259103" y2="-5302.24259357" />
                <line x1="-22492.0259103" y1="-5293.04259357" x2="-22481.5259103" y2="-5293.04259357" />
                <line x1="-22492.0259103" y1="-5278.84259357" x2="-22481.5259103" y2="-5278.84259357" />
                <circle cx="-22486.70137063" cy="-5274.03944632" r="1.82453966" />
                <circle cx="-22486.70137063" cy="-5297.43944632" r="1.82453966" />
                <line x1="-22485.23022589" y1="-5273.83629908" x2="-22488.17251537" y2="-5273.83629908" />
                <line x1="-22485.23022589" y1="-5274.24259357" x2="-22488.17251537" y2="-5274.24259357" />
                <line x1="-22485.23022589" y1="-5273.83629908" x2="-22485.23022589" y2="-5274.24259357" />
                <line x1="-22488.17251537" y1="-5274.24259357" x2="-22488.17251537" y2="-5273.83629908" />
                <line x1="-22488.17251537" y1="-5297.64259357" x2="-22488.17251537" y2="-5297.23629908" />
                <line x1="-22485.23022589" y1="-5297.23629908" x2="-22485.23022589" y2="-5297.64259357" />
                <line x1="-22485.23022589" y1="-5297.64259357" x2="-22488.17251537" y2="-5297.64259357" />
                <line x1="-22485.23022589" y1="-5297.23629908" x2="-22488.17251537" y2="-5297.23629908" />
                <line x1="-22502.5259103" y1="-5269.64259357" x2="-22492.0259103" y2="-5269.64259357" />
                <line x1="-22502.5259103" y1="-5302.24259357" x2="-22492.0259103" y2="-5302.24259357" />
                <line x1="-22502.5259103" y1="-5293.04259357" x2="-22492.0259103" y2="-5293.04259357" />
                <line x1="-22502.5259103" y1="-5278.84259357" x2="-22492.0259103" y2="-5278.84259357" />
                <circle cx="-22497.20137063" cy="-5274.03944632" r="1.82453966" />
                <circle cx="-22497.20137063" cy="-5297.43944632" r="1.82453966" />
                <line x1="-22495.73022589" y1="-5273.83629908" x2="-22498.67251537" y2="-5273.83629908" />
                <line x1="-22495.73022589" y1="-5274.24259357" x2="-22498.67251537" y2="-5274.24259357" />
                <line x1="-22495.73022589" y1="-5273.83629908" x2="-22495.73022589" y2="-5274.24259357" />
                <line x1="-22498.67251537" y1="-5274.24259357" x2="-22498.67251537" y2="-5273.83629908" />
                <line x1="-22498.67251537" y1="-5297.64259357" x2="-22498.67251537" y2="-5297.23629908" />
                <line x1="-22495.73022589" y1="-5297.23629908" x2="-22495.73022589" y2="-5297.64259357" />
                <line x1="-22495.73022589" y1="-5297.64259357" x2="-22498.67251537" y2="-5297.64259357" />
                <line x1="-22495.73022589" y1="-5297.23629908" x2="-22498.67251537" y2="-5297.23629908" />
                <line x1="-22506.23022589" y1="-5297.23629908" x2="-22509.17251537" y2="-5297.23629908" />
                <line x1="-22506.23022589" y1="-5297.64259357" x2="-22509.17251537" y2="-5297.64259357" />
                <line x1="-22506.23022589" y1="-5297.23629908" x2="-22506.23022589" y2="-5297.64259357" />
                <line x1="-22509.17251537" y1="-5297.64259357" x2="-22509.17251537" y2="-5297.23629908" />
                <line x1="-22509.17251537" y1="-5274.24259357" x2="-22509.17251537" y2="-5273.83629908" />
                <line x1="-22506.23022589" y1="-5273.83629908" x2="-22506.23022589" y2="-5274.24259357" />
                <line x1="-22506.23022589" y1="-5274.24259357" x2="-22509.17251537" y2="-5274.24259357" />
                <line x1="-22506.23022589" y1="-5273.83629908" x2="-22509.17251537" y2="-5273.83629908" />
                <circle cx="-22507.70137063" cy="-5297.43944632" r="1.82453966" />
                <circle cx="-22507.70137063" cy="-5274.03944632" r="1.82453966" />
                <line x1="-22513.0259103" y1="-5278.84259357" x2="-22502.5259103" y2="-5278.84259357" />
                <line x1="-22513.0259103" y1="-5293.04259357" x2="-22502.5259103" y2="-5293.04259357" />
                <line x1="-22513.0259103" y1="-5302.24259357" x2="-22502.5259103" y2="-5302.24259357" />
                <line x1="-22513.0259103" y1="-5269.64259357" x2="-22502.5259103" y2="-5269.64259357" />
                <line x1="-22450.0259103" y1="-5260.44259357" x2="-22460.5259103" y2="-5260.44259357" />
                <line x1="-22460.5259103" y1="-5260.44259357" x2="-22460.5259103" y2="-5311.44259357" />
                <line x1="-22460.5259103" y1="-5311.44259357" x2="-22450.0259103" y2="-5311.44259357" />
                <line x1="-22450.0259103" y1="-5311.44259357" x2="-22450.0259103" y2="-5260.44259357" />
                <line x1="-22460.5259103" y1="-5260.44259357" x2="-22471.0259103" y2="-5260.44259357" />
                <line x1="-22471.0259103" y1="-5260.44259357" x2="-22471.0259103" y2="-5311.44259357" />
                <line x1="-22471.0259103" y1="-5311.44259357" x2="-22460.5259103" y2="-5311.44259357" />
                <line x1="-22460.5259103" y1="-5311.44259357" x2="-22460.5259103" y2="-5260.44259357" />
                <line x1="-22471.0259103" y1="-5260.44259357" x2="-22481.5259103" y2="-5260.44259357" />
                <line x1="-22481.5259103" y1="-5260.44259357" x2="-22481.5259103" y2="-5311.44259357" />
                <line x1="-22481.5259103" y1="-5311.44259357" x2="-22471.0259103" y2="-5311.44259357" />
                <line x1="-22471.0259103" y1="-5311.44259357" x2="-22471.0259103" y2="-5260.44259357" />
                <line x1="-22460.5259103" y1="-5269.64259357" x2="-22450.0259103" y2="-5269.64259357" />
                <line x1="-22460.5259103" y1="-5302.24259357" x2="-22450.0259103" y2="-5302.24259357" />
                <line x1="-22460.5259103" y1="-5293.04259357" x2="-22450.0259103" y2="-5293.04259357" />
                <line x1="-22460.5259103" y1="-5278.84259357" x2="-22450.0259103" y2="-5278.84259357" />
                <circle cx="-22455.20137063" cy="-5274.03944632" r="1.82453966" />
                <circle cx="-22455.20137063" cy="-5297.43944632" r="1.82453966" />
                <line x1="-22453.73022589" y1="-5273.83629908" x2="-22456.67251537" y2="-5273.83629908" />
                <line x1="-22453.73022589" y1="-5274.24259357" x2="-22456.67251537" y2="-5274.24259357" />
                <line x1="-22453.73022589" y1="-5273.83629908" x2="-22453.73022589" y2="-5274.24259357" />
                <line x1="-22456.67251537" y1="-5274.24259357" x2="-22456.67251537" y2="-5273.83629908" />
                <line x1="-22456.67251537" y1="-5297.64259357" x2="-22456.67251537" y2="-5297.23629908" />
                <line x1="-22453.73022589" y1="-5297.23629908" x2="-22453.73022589" y2="-5297.64259357" />
                <line x1="-22453.73022589" y1="-5297.64259357" x2="-22456.67251537" y2="-5297.64259357" />
                <line x1="-22453.73022589" y1="-5297.23629908" x2="-22456.67251537" y2="-5297.23629908" />
                <line x1="-22471.0259103" y1="-5269.64259357" x2="-22460.5259103" y2="-5269.64259357" />
                <line x1="-22471.0259103" y1="-5302.24259357" x2="-22460.5259103" y2="-5302.24259357" />
                <line x1="-22471.0259103" y1="-5293.04259357" x2="-22460.5259103" y2="-5293.04259357" />
                <line x1="-22471.0259103" y1="-5278.84259357" x2="-22460.5259103" y2="-5278.84259357" />
                <circle cx="-22465.70137063" cy="-5274.03944632" r="1.82453966" />
                <circle cx="-22465.70137063" cy="-5297.43944632" r="1.82453966" />
                <line x1="-22464.23022589" y1="-5273.83629908" x2="-22467.17251537" y2="-5273.83629908" />
                <line x1="-22464.23022589" y1="-5274.24259357" x2="-22467.17251537" y2="-5274.24259357" />
                <line x1="-22464.23022589" y1="-5273.83629908" x2="-22464.23022589" y2="-5274.24259357" />
                <line x1="-22467.17251537" y1="-5274.24259357" x2="-22467.17251537" y2="-5273.83629908" />
                <line x1="-22467.17251537" y1="-5297.64259357" x2="-22467.17251537" y2="-5297.23629908" />
                <line x1="-22464.23022589" y1="-5297.23629908" x2="-22464.23022589" y2="-5297.64259357" />
                <line x1="-22464.23022589" y1="-5297.64259357" x2="-22467.17251537" y2="-5297.64259357" />
                <line x1="-22464.23022589" y1="-5297.23629908" x2="-22467.17251537" y2="-5297.23629908" />
                <line x1="-22474.73022589" y1="-5297.23629908" x2="-22477.67251537" y2="-5297.23629908" />
                <line x1="-22474.73022589" y1="-5297.64259357" x2="-22477.67251537" y2="-5297.64259357" />
                <line x1="-22474.73022589" y1="-5297.23629908" x2="-22474.73022589" y2="-5297.64259357" />
                <line x1="-22477.67251537" y1="-5297.64259357" x2="-22477.67251537" y2="-5297.23629908" />
                <line x1="-22477.67251537" y1="-5274.24259357" x2="-22477.67251537" y2="-5273.83629908" />
                <line x1="-22474.73022589" y1="-5273.83629908" x2="-22474.73022589" y2="-5274.24259357" />
                <line x1="-22474.73022589" y1="-5274.24259357" x2="-22477.67251537" y2="-5274.24259357" />
                <line x1="-22474.73022589" y1="-5273.83629908" x2="-22477.67251537" y2="-5273.83629908" />
                <circle cx="-22476.20137063" cy="-5297.43944632" r="1.82453966" />
                <circle cx="-22476.20137063" cy="-5274.03944632" r="1.82453966" />
                <line x1="-22481.5259103" y1="-5278.84259357" x2="-22471.0259103" y2="-5278.84259357" />
                <line x1="-22481.5259103" y1="-5293.04259357" x2="-22471.0259103" y2="-5293.04259357" />
                <line x1="-22481.5259103" y1="-5302.24259357" x2="-22471.0259103" y2="-5302.24259357" />
                <line x1="-22481.5259103" y1="-5269.64259357" x2="-22471.0259103" y2="-5269.64259357" />
                <line x1="-22418.5259103" y1="-5260.44259357" x2="-22429.0259103" y2="-5260.44259357" />
                <line x1="-22429.0259103" y1="-5260.44259357" x2="-22429.0259103" y2="-5311.44259357" />
                <line x1="-22429.0259103" y1="-5311.44259357" x2="-22418.5259103" y2="-5311.44259357" />
                <line x1="-22418.5259103" y1="-5311.44259357" x2="-22418.5259103" y2="-5260.44259357" />
                <line x1="-22429.0259103" y1="-5260.44259357" x2="-22439.5259103" y2="-5260.44259357" />
                <line x1="-22439.5259103" y1="-5260.44259357" x2="-22439.5259103" y2="-5311.44259357" />
                <line x1="-22439.5259103" y1="-5311.44259357" x2="-22429.0259103" y2="-5311.44259357" />
                <line x1="-22429.0259103" y1="-5311.44259357" x2="-22429.0259103" y2="-5260.44259357" />
                <line x1="-22439.5259103" y1="-5260.44259357" x2="-22450.0259103" y2="-5260.44259357" />
                <line x1="-22450.0259103" y1="-5260.44259357" x2="-22450.0259103" y2="-5311.44259357" />
                <line x1="-22450.0259103" y1="-5311.44259357" x2="-22439.5259103" y2="-5311.44259357" />
                <line x1="-22439.5259103" y1="-5311.44259357" x2="-22439.5259103" y2="-5260.44259357" />
                <line x1="-22429.0259103" y1="-5269.64259357" x2="-22418.5259103" y2="-5269.64259357" />
                <line x1="-22429.0259103" y1="-5302.24259357" x2="-22418.5259103" y2="-5302.24259357" />
                <line x1="-22429.0259103" y1="-5293.04259357" x2="-22418.5259103" y2="-5293.04259357" />
                <line x1="-22429.0259103" y1="-5278.84259357" x2="-22418.5259103" y2="-5278.84259357" />
                <circle cx="-22423.70137063" cy="-5274.03944632" r="1.82453966" />
                <circle cx="-22423.70137063" cy="-5297.43944632" r="1.82453966" />
                <line x1="-22422.23022589" y1="-5273.83629908" x2="-22425.17251537" y2="-5273.83629908" />
                <line x1="-22422.23022589" y1="-5274.24259357" x2="-22425.17251537" y2="-5274.24259357" />
                <line x1="-22422.23022589" y1="-5273.83629908" x2="-22422.23022589" y2="-5274.24259357" />
                <line x1="-22425.17251537" y1="-5274.24259357" x2="-22425.17251537" y2="-5273.83629908" />
                <line x1="-22425.17251537" y1="-5297.64259357" x2="-22425.17251537" y2="-5297.23629908" />
                <line x1="-22422.23022589" y1="-5297.23629908" x2="-22422.23022589" y2="-5297.64259357" />
                <line x1="-22422.23022589" y1="-5297.64259357" x2="-22425.17251537" y2="-5297.64259357" />
                <line x1="-22422.23022589" y1="-5297.23629908" x2="-22425.17251537" y2="-5297.23629908" />
                <line x1="-22439.5259103" y1="-5269.64259357" x2="-22429.0259103" y2="-5269.64259357" />
                <line x1="-22439.5259103" y1="-5302.24259357" x2="-22429.0259103" y2="-5302.24259357" />
                <line x1="-22439.5259103" y1="-5293.04259357" x2="-22429.0259103" y2="-5293.04259357" />
                <line x1="-22439.5259103" y1="-5278.84259357" x2="-22429.0259103" y2="-5278.84259357" />
                <circle cx="-22434.20137063" cy="-5274.03944632" r="1.82453966" />
                <circle cx="-22434.20137063" cy="-5297.43944632" r="1.82453966" />
                <line x1="-22432.73022589" y1="-5273.83629908" x2="-22435.67251537" y2="-5273.83629908" />
                <line x1="-22432.73022589" y1="-5274.24259357" x2="-22435.67251537" y2="-5274.24259357" />
                <line x1="-22432.73022589" y1="-5273.83629908" x2="-22432.73022589" y2="-5274.24259357" />
                <line x1="-22435.67251537" y1="-5274.24259357" x2="-22435.67251537" y2="-5273.83629908" />
                <line x1="-22435.67251537" y1="-5297.64259357" x2="-22435.67251537" y2="-5297.23629908" />
                <line x1="-22432.73022589" y1="-5297.23629908" x2="-22432.73022589" y2="-5297.64259357" />
                <line x1="-22432.73022589" y1="-5297.64259357" x2="-22435.67251537" y2="-5297.64259357" />
                <line x1="-22432.73022589" y1="-5297.23629908" x2="-22435.67251537" y2="-5297.23629908" />
                <line x1="-22443.23022589" y1="-5297.23629908" x2="-22446.17251537" y2="-5297.23629908" />
                <line x1="-22443.23022589" y1="-5297.64259357" x2="-22446.17251537" y2="-5297.64259357" />
                <line x1="-22443.23022589" y1="-5297.23629908" x2="-22443.23022589" y2="-5297.64259357" />
                <line x1="-22446.17251537" y1="-5297.64259357" x2="-22446.17251537" y2="-5297.23629908" />
                <line x1="-22446.17251537" y1="-5274.24259357" x2="-22446.17251537" y2="-5273.83629908" />
                <line x1="-22443.23022589" y1="-5273.83629908" x2="-22443.23022589" y2="-5274.24259357" />
                <line x1="-22443.23022589" y1="-5274.24259357" x2="-22446.17251537" y2="-5274.24259357" />
                <line x1="-22443.23022589" y1="-5273.83629908" x2="-22446.17251537" y2="-5273.83629908" />
                <circle cx="-22444.70137063" cy="-5297.43944632" r="1.82453966" />
                <circle cx="-22444.70137063" cy="-5274.03944632" r="1.82453966" />
                <line x1="-22450.0259103" y1="-5278.84259357" x2="-22439.5259103" y2="-5278.84259357" />
                <line x1="-22450.0259103" y1="-5293.04259357" x2="-22439.5259103" y2="-5293.04259357" />
                <line x1="-22450.0259103" y1="-5302.24259357" x2="-22439.5259103" y2="-5302.24259357" />
                <line x1="-22450.0259103" y1="-5269.64259357" x2="-22439.5259103" y2="-5269.64259357" />
                <line x1="-22387.0259103" y1="-5260.44259357" x2="-22397.5259103" y2="-5260.44259357" />
                <line x1="-22397.5259103" y1="-5260.44259357" x2="-22397.5259103" y2="-5311.44259357" />
                <line x1="-22397.5259103" y1="-5311.44259357" x2="-22387.0259103" y2="-5311.44259357" />
                <line x1="-22387.0259103" y1="-5311.44259357" x2="-22387.0259103" y2="-5260.44259357" />
                <line x1="-22397.5259103" y1="-5260.44259357" x2="-22408.0259103" y2="-5260.44259357" />
                <line x1="-22408.0259103" y1="-5260.44259357" x2="-22408.0259103" y2="-5311.44259357" />
                <line x1="-22408.0259103" y1="-5311.44259357" x2="-22397.5259103" y2="-5311.44259357" />
                <line x1="-22397.5259103" y1="-5311.44259357" x2="-22397.5259103" y2="-5260.44259357" />
                <line x1="-22408.0259103" y1="-5260.44259357" x2="-22418.5259103" y2="-5260.44259357" />
                <line x1="-22418.5259103" y1="-5260.44259357" x2="-22418.5259103" y2="-5311.44259357" />
                <line x1="-22418.5259103" y1="-5311.44259357" x2="-22408.0259103" y2="-5311.44259357" />
                <line x1="-22408.0259103" y1="-5311.44259357" x2="-22408.0259103" y2="-5260.44259357" />
                <line x1="-22397.5259103" y1="-5269.64259357" x2="-22387.0259103" y2="-5269.64259357" />
                <line x1="-22397.5259103" y1="-5302.24259357" x2="-22387.0259103" y2="-5302.24259357" />
                <line x1="-22397.5259103" y1="-5293.04259357" x2="-22387.0259103" y2="-5293.04259357" />
                <line x1="-22397.5259103" y1="-5278.84259357" x2="-22387.0259103" y2="-5278.84259357" />
                <circle cx="-22392.20137063" cy="-5274.03944632" r="1.82453966" />
                <circle cx="-22392.20137063" cy="-5297.43944632" r="1.82453966" />
                <line x1="-22390.73022589" y1="-5273.83629908" x2="-22393.67251537" y2="-5273.83629908" />
                <line x1="-22390.73022589" y1="-5274.24259357" x2="-22393.67251537" y2="-5274.24259357" />
                <line x1="-22390.73022589" y1="-5273.83629908" x2="-22390.73022589" y2="-5274.24259357" />
                <line x1="-22393.67251537" y1="-5274.24259357" x2="-22393.67251537" y2="-5273.83629908" />
                <line x1="-22393.67251537" y1="-5297.64259357" x2="-22393.67251537" y2="-5297.23629908" />
                <line x1="-22390.73022589" y1="-5297.23629908" x2="-22390.73022589" y2="-5297.64259357" />
                <line x1="-22390.73022589" y1="-5297.64259357" x2="-22393.67251537" y2="-5297.64259357" />
                <line x1="-22390.73022589" y1="-5297.23629908" x2="-22393.67251537" y2="-5297.23629908" />
                <line x1="-22408.0259103" y1="-5269.64259357" x2="-22397.5259103" y2="-5269.64259357" />
                <line x1="-22408.0259103" y1="-5302.24259357" x2="-22397.5259103" y2="-5302.24259357" />
                <line x1="-22408.0259103" y1="-5293.04259357" x2="-22397.5259103" y2="-5293.04259357" />
                <line x1="-22408.0259103" y1="-5278.84259357" x2="-22397.5259103" y2="-5278.84259357" />
                <circle cx="-22402.70137063" cy="-5274.03944632" r="1.82453966" />
                <circle cx="-22402.70137063" cy="-5297.43944632" r="1.82453966" />
                <line x1="-22401.23022589" y1="-5273.83629908" x2="-22404.17251537" y2="-5273.83629908" />
                <line x1="-22401.23022589" y1="-5274.24259357" x2="-22404.17251537" y2="-5274.24259357" />
                <line x1="-22401.23022589" y1="-5273.83629908" x2="-22401.23022589" y2="-5274.24259357" />
                <line x1="-22404.17251537" y1="-5274.24259357" x2="-22404.17251537" y2="-5273.83629908" />
                <line x1="-22404.17251537" y1="-5297.64259357" x2="-22404.17251537" y2="-5297.23629908" />
                <line x1="-22401.23022589" y1="-5297.23629908" x2="-22401.23022589" y2="-5297.64259357" />
                <line x1="-22401.23022589" y1="-5297.64259357" x2="-22404.17251537" y2="-5297.64259357" />
                <line x1="-22401.23022589" y1="-5297.23629908" x2="-22404.17251537" y2="-5297.23629908" />
                <line x1="-22411.73022589" y1="-5297.23629908" x2="-22414.67251537" y2="-5297.23629908" />
                <line x1="-22411.73022589" y1="-5297.64259357" x2="-22414.67251537" y2="-5297.64259357" />
                <line x1="-22411.73022589" y1="-5297.23629908" x2="-22411.73022589" y2="-5297.64259357" />
                <line x1="-22414.67251537" y1="-5297.64259357" x2="-22414.67251537" y2="-5297.23629908" />
                <line x1="-22414.67251537" y1="-5274.24259357" x2="-22414.67251537" y2="-5273.83629908" />
                <line x1="-22411.73022589" y1="-5273.83629908" x2="-22411.73022589" y2="-5274.24259357" />
                <line x1="-22411.73022589" y1="-5274.24259357" x2="-22414.67251537" y2="-5274.24259357" />
                <line x1="-22411.73022589" y1="-5273.83629908" x2="-22414.67251537" y2="-5273.83629908" />
                <circle cx="-22413.20137063" cy="-5297.43944632" r="1.82453966" />
                <circle cx="-22413.20137063" cy="-5274.03944632" r="1.82453966" />
                <line x1="-22418.5259103" y1="-5278.84259357" x2="-22408.0259103" y2="-5278.84259357" />
                <line x1="-22418.5259103" y1="-5293.04259357" x2="-22408.0259103" y2="-5293.04259357" />
                <line x1="-22418.5259103" y1="-5302.24259357" x2="-22408.0259103" y2="-5302.24259357" />
                <line x1="-22418.5259103" y1="-5269.64259357" x2="-22408.0259103" y2="-5269.64259357" />
                <line x1="-22418.5259103" y1="-5260.44259357" x2="-22429.0259103" y2="-5260.44259357" />
                <line x1="-22429.0259103" y1="-5260.44259357" x2="-22429.0259103" y2="-5311.44259357" />
                <line x1="-22429.0259103" y1="-5311.44259357" x2="-22418.5259103" y2="-5311.44259357" />
                <line x1="-22418.5259103" y1="-5311.44259357" x2="-22418.5259103" y2="-5260.44259357" />
                <line x1="-22429.0259103" y1="-5269.64259357" x2="-22418.5259103" y2="-5269.64259357" />
                <line x1="-22429.0259103" y1="-5302.24259357" x2="-22418.5259103" y2="-5302.24259357" />
                <line x1="-22429.0259103" y1="-5293.04259357" x2="-22418.5259103" y2="-5293.04259357" />
                <line x1="-22429.0259103" y1="-5278.84259357" x2="-22418.5259103" y2="-5278.84259357" />
                <circle cx="-22423.70137063" cy="-5274.03944632" r="1.82453966" />
                <circle cx="-22423.70137063" cy="-5297.43944632" r="1.82453966" />
                <line x1="-22422.23022589" y1="-5273.83629908" x2="-22425.17251537" y2="-5273.83629908" />
                <line x1="-22422.23022589" y1="-5274.24259357" x2="-22425.17251537" y2="-5274.24259357" />
                <line x1="-22422.23022589" y1="-5273.83629908" x2="-22422.23022589" y2="-5274.24259357" />
                <line x1="-22425.17251537" y1="-5274.24259357" x2="-22425.17251537" y2="-5273.83629908" />
                <line x1="-22425.17251537" y1="-5297.64259357" x2="-22425.17251537" y2="-5297.23629908" />
                <line x1="-22422.23022589" y1="-5297.23629908" x2="-22422.23022589" y2="-5297.64259357" />
                <line x1="-22422.23022589" y1="-5297.64259357" x2="-22425.17251537" y2="-5297.64259357" />
                <line x1="-22422.23022589" y1="-5297.23629908" x2="-22425.17251537" y2="-5297.23629908" />
                <line x1="-22387.0259103" y1="-5260.44259357" x2="-22397.5259103" y2="-5260.44259357" />
                <line x1="-22397.5259103" y1="-5260.44259357" x2="-22397.5259103" y2="-5311.44259357" />
                <line x1="-22397.5259103" y1="-5311.44259357" x2="-22387.0259103" y2="-5311.44259357" />
                <line x1="-22387.0259103" y1="-5311.44259357" x2="-22387.0259103" y2="-5260.44259357" />
                <line x1="-22397.5259103" y1="-5260.44259357" x2="-22408.0259103" y2="-5260.44259357" />
                <line x1="-22408.0259103" y1="-5260.44259357" x2="-22408.0259103" y2="-5311.44259357" />
                <line x1="-22408.0259103" y1="-5311.44259357" x2="-22397.5259103" y2="-5311.44259357" />
                <line x1="-22397.5259103" y1="-5311.44259357" x2="-22397.5259103" y2="-5260.44259357" />
                <line x1="-22408.0259103" y1="-5260.44259357" x2="-22418.5259103" y2="-5260.44259357" />
                <line x1="-22418.5259103" y1="-5260.44259357" x2="-22418.5259103" y2="-5311.44259357" />
                <line x1="-22418.5259103" y1="-5311.44259357" x2="-22408.0259103" y2="-5311.44259357" />
                <line x1="-22408.0259103" y1="-5311.44259357" x2="-22408.0259103" y2="-5260.44259357" />
                <line x1="-22397.5259103" y1="-5269.64259357" x2="-22387.0259103" y2="-5269.64259357" />
                <line x1="-22397.5259103" y1="-5302.24259357" x2="-22387.0259103" y2="-5302.24259357" />
                <line x1="-22397.5259103" y1="-5293.04259357" x2="-22387.0259103" y2="-5293.04259357" />
                <line x1="-22397.5259103" y1="-5278.84259357" x2="-22387.0259103" y2="-5278.84259357" />
                <circle cx="-22392.20137063" cy="-5274.03944632" r="1.82453966" />
                <circle cx="-22392.20137063" cy="-5297.43944632" r="1.82453966" />
                <line x1="-22390.73022589" y1="-5273.83629908" x2="-22393.67251537" y2="-5273.83629908" />
                <line x1="-22390.73022589" y1="-5274.24259357" x2="-22393.67251537" y2="-5274.24259357" />
                <line x1="-22390.73022589" y1="-5273.83629908" x2="-22390.73022589" y2="-5274.24259357" />
                <line x1="-22393.67251537" y1="-5274.24259357" x2="-22393.67251537" y2="-5273.83629908" />
                <line x1="-22393.67251537" y1="-5297.64259357" x2="-22393.67251537" y2="-5297.23629908" />
                <line x1="-22390.73022589" y1="-5297.23629908" x2="-22390.73022589" y2="-5297.64259357" />
                <line x1="-22390.73022589" y1="-5297.64259357" x2="-22393.67251537" y2="-5297.64259357" />
                <line x1="-22390.73022589" y1="-5297.23629908" x2="-22393.67251537" y2="-5297.23629908" />
                <line x1="-22408.0259103" y1="-5269.64259357" x2="-22397.5259103" y2="-5269.64259357" />
                <line x1="-22408.0259103" y1="-5302.24259357" x2="-22397.5259103" y2="-5302.24259357" />
                <line x1="-22408.0259103" y1="-5293.04259357" x2="-22397.5259103" y2="-5293.04259357" />
                <line x1="-22408.0259103" y1="-5278.84259357" x2="-22397.5259103" y2="-5278.84259357" />
                <circle cx="-22402.70137063" cy="-5274.03944632" r="1.82453966" />
                <circle cx="-22402.70137063" cy="-5297.43944632" r="1.82453966" />
                <line x1="-22401.23022589" y1="-5273.83629908" x2="-22404.17251537" y2="-5273.83629908" />
                <line x1="-22401.23022589" y1="-5274.24259357" x2="-22404.17251537" y2="-5274.24259357" />
                <line x1="-22401.23022589" y1="-5273.83629908" x2="-22401.23022589" y2="-5274.24259357" />
                <line x1="-22404.17251537" y1="-5274.24259357" x2="-22404.17251537" y2="-5273.83629908" />
                <line x1="-22404.17251537" y1="-5297.64259357" x2="-22404.17251537" y2="-5297.23629908" />
                <line x1="-22401.23022589" y1="-5297.23629908" x2="-22401.23022589" y2="-5297.64259357" />
                <line x1="-22401.23022589" y1="-5297.64259357" x2="-22404.17251537" y2="-5297.64259357" />
                <line x1="-22401.23022589" y1="-5297.23629908" x2="-22404.17251537" y2="-5297.23629908" />
                <line x1="-22411.73022589" y1="-5297.23629908" x2="-22414.67251537" y2="-5297.23629908" />
                <line x1="-22411.73022589" y1="-5297.64259357" x2="-22414.67251537" y2="-5297.64259357" />
                <line x1="-22411.73022589" y1="-5297.23629908" x2="-22411.73022589" y2="-5297.64259357" />
                <line x1="-22414.67251537" y1="-5297.64259357" x2="-22414.67251537" y2="-5297.23629908" />
                <line x1="-22414.67251537" y1="-5274.24259357" x2="-22414.67251537" y2="-5273.83629908" />
                <line x1="-22411.73022589" y1="-5273.83629908" x2="-22411.73022589" y2="-5274.24259357" />
                <line x1="-22411.73022589" y1="-5274.24259357" x2="-22414.67251537" y2="-5274.24259357" />
                <line x1="-22411.73022589" y1="-5273.83629908" x2="-22414.67251537" y2="-5273.83629908" />
                <circle cx="-22413.20137063" cy="-5297.43944632" r="1.82453966" />
                <circle cx="-22413.20137063" cy="-5274.03944632" r="1.82453966" />
                <line x1="-22418.5259103" y1="-5278.84259357" x2="-22408.0259103" y2="-5278.84259357" />
                <line x1="-22418.5259103" y1="-5293.04259357" x2="-22408.0259103" y2="-5293.04259357" />
                <line x1="-22418.5259103" y1="-5302.24259357" x2="-22408.0259103" y2="-5302.24259357" />
                <line x1="-22418.5259103" y1="-5269.64259357" x2="-22408.0259103" y2="-5269.64259357" />
                <line x1="-22408.0259103" y1="-5260.44259357" x2="-22418.5259103" y2="-5260.44259357" />
                <line x1="-22418.5259103" y1="-5260.44259357" x2="-22418.5259103" y2="-5311.44259357" />
                <line x1="-22418.5259103" y1="-5311.44259357" x2="-22408.0259103" y2="-5311.44259357" />
                <line x1="-22408.0259103" y1="-5311.44259357" x2="-22408.0259103" y2="-5260.44259357" />
                <line x1="-22366.0259103" y1="-5260.44259357" x2="-22376.5259103" y2="-5260.44259357" />
                <line x1="-22376.5259103" y1="-5260.44259357" x2="-22376.5259103" y2="-5311.44259357" />
                <line x1="-22376.5259103" y1="-5311.44259357" x2="-22366.0259103" y2="-5311.44259357" />
                <line x1="-22366.0259103" y1="-5311.44259357" x2="-22366.0259103" y2="-5260.44259357" />
                <line x1="-22376.5259103" y1="-5260.44259357" x2="-22387.0259103" y2="-5260.44259357" />
                <line x1="-22387.0259103" y1="-5260.44259357" x2="-22387.0259103" y2="-5311.44259357" />
                <line x1="-22387.0259103" y1="-5311.44259357" x2="-22376.5259103" y2="-5311.44259357" />
                <line x1="-22376.5259103" y1="-5311.44259357" x2="-22376.5259103" y2="-5260.44259357" />
                <line x1="-22418.5259103" y1="-5269.64259357" x2="-22408.0259103" y2="-5269.64259357" />
                <line x1="-22418.5259103" y1="-5302.24259357" x2="-22408.0259103" y2="-5302.24259357" />
                <line x1="-22418.5259103" y1="-5293.04259357" x2="-22408.0259103" y2="-5293.04259357" />
                <line x1="-22418.5259103" y1="-5278.84259357" x2="-22408.0259103" y2="-5278.84259357" />
                <circle cx="-22413.20137063" cy="-5274.03944632" r="1.82453966" />
                <circle cx="-22413.20137063" cy="-5297.43944632" r="1.82453966" />
                <line x1="-22411.73022589" y1="-5273.83629908" x2="-22414.67251537" y2="-5273.83629908" />
                <line x1="-22411.73022589" y1="-5274.24259357" x2="-22414.67251537" y2="-5274.24259357" />
                <line x1="-22411.73022589" y1="-5273.83629908" x2="-22411.73022589" y2="-5274.24259357" />
                <line x1="-22414.67251537" y1="-5274.24259357" x2="-22414.67251537" y2="-5273.83629908" />
                <line x1="-22414.67251537" y1="-5297.64259357" x2="-22414.67251537" y2="-5297.23629908" />
                <line x1="-22411.73022589" y1="-5297.23629908" x2="-22411.73022589" y2="-5297.64259357" />
                <line x1="-22411.73022589" y1="-5297.64259357" x2="-22414.67251537" y2="-5297.64259357" />
                <line x1="-22411.73022589" y1="-5297.23629908" x2="-22414.67251537" y2="-5297.23629908" />
                <line x1="-22376.5259103" y1="-5269.64259357" x2="-22366.0259103" y2="-5269.64259357" />
                <line x1="-22376.5259103" y1="-5302.24259357" x2="-22366.0259103" y2="-5302.24259357" />
                <line x1="-22376.5259103" y1="-5293.04259357" x2="-22366.0259103" y2="-5293.04259357" />
                <line x1="-22376.5259103" y1="-5278.84259357" x2="-22366.0259103" y2="-5278.84259357" />
                <circle cx="-22371.20137063" cy="-5274.03944632" r="1.82453966" />
                <circle cx="-22371.20137063" cy="-5297.43944632" r="1.82453966" />
                <line x1="-22369.73022589" y1="-5273.83629908" x2="-22372.67251537" y2="-5273.83629908" />
                <line x1="-22369.73022589" y1="-5274.24259357" x2="-22372.67251537" y2="-5274.24259357" />
                <line x1="-22369.73022589" y1="-5273.83629908" x2="-22369.73022589" y2="-5274.24259357" />
                <line x1="-22372.67251537" y1="-5274.24259357" x2="-22372.67251537" y2="-5273.83629908" />
                <line x1="-22372.67251537" y1="-5297.64259357" x2="-22372.67251537" y2="-5297.23629908" />
                <line x1="-22369.73022589" y1="-5297.23629908" x2="-22369.73022589" y2="-5297.64259357" />
                <line x1="-22369.73022589" y1="-5297.64259357" x2="-22372.67251537" y2="-5297.64259357" />
                <line x1="-22369.73022589" y1="-5297.23629908" x2="-22372.67251537" y2="-5297.23629908" />
                <line x1="-22380.23022589" y1="-5297.23629908" x2="-22383.17251537" y2="-5297.23629908" />
                <line x1="-22380.23022589" y1="-5297.64259357" x2="-22383.17251537" y2="-5297.64259357" />
                <line x1="-22380.23022589" y1="-5297.23629908" x2="-22380.23022589" y2="-5297.64259357" />
                <line x1="-22383.17251537" y1="-5297.64259357" x2="-22383.17251537" y2="-5297.23629908" />
                <line x1="-22383.17251537" y1="-5274.24259357" x2="-22383.17251537" y2="-5273.83629908" />
                <line x1="-22380.23022589" y1="-5273.83629908" x2="-22380.23022589" y2="-5274.24259357" />
                <line x1="-22380.23022589" y1="-5274.24259357" x2="-22383.17251537" y2="-5274.24259357" />
                <line x1="-22380.23022589" y1="-5273.83629908" x2="-22383.17251537" y2="-5273.83629908" />
                <circle cx="-22381.70137063" cy="-5297.43944632" r="1.82453966" />
                <circle cx="-22381.70137063" cy="-5274.03944632" r="1.82453966" />
                <line x1="-22387.0259103" y1="-5278.84259357" x2="-22376.5259103" y2="-5278.84259357" />
                <line x1="-22387.0259103" y1="-5293.04259357" x2="-22376.5259103" y2="-5293.04259357" />
                <line x1="-22387.0259103" y1="-5302.24259357" x2="-22376.5259103" y2="-5302.24259357" />
                <line x1="-22387.0259103" y1="-5269.64259357" x2="-22376.5259103" y2="-5269.64259357" />
                <line x1="-22376.5259103" y1="-5260.44259357" x2="-22387.0259103" y2="-5260.44259357" />
                <line x1="-22387.0259103" y1="-5260.44259357" x2="-22387.0259103" y2="-5311.44259357" />
                <line x1="-22387.0259103" y1="-5311.44259357" x2="-22376.5259103" y2="-5311.44259357" />
                <line x1="-22376.5259103" y1="-5311.44259357" x2="-22376.5259103" y2="-5260.44259357" />
                <line x1="-22387.0259103" y1="-5260.44259357" x2="-22397.5259103" y2="-5260.44259357" />
                <line x1="-22397.5259103" y1="-5260.44259357" x2="-22397.5259103" y2="-5311.44259357" />
                <line x1="-22397.5259103" y1="-5311.44259357" x2="-22387.0259103" y2="-5311.44259357" />
                <line x1="-22387.0259103" y1="-5311.44259357" x2="-22387.0259103" y2="-5260.44259357" />
                <line x1="-22397.5259103" y1="-5260.44259357" x2="-22408.0259103" y2="-5260.44259357" />
                <line x1="-22408.0259103" y1="-5260.44259357" x2="-22408.0259103" y2="-5311.44259357" />
                <line x1="-22408.0259103" y1="-5311.44259357" x2="-22397.5259103" y2="-5311.44259357" />
                <line x1="-22397.5259103" y1="-5311.44259357" x2="-22397.5259103" y2="-5260.44259357" />
                <line x1="-22387.0259103" y1="-5269.64259357" x2="-22376.5259103" y2="-5269.64259357" />
                <line x1="-22387.0259103" y1="-5302.24259357" x2="-22376.5259103" y2="-5302.24259357" />
                <line x1="-22387.0259103" y1="-5293.04259357" x2="-22376.5259103" y2="-5293.04259357" />
                <line x1="-22387.0259103" y1="-5278.84259357" x2="-22376.5259103" y2="-5278.84259357" />
                <circle cx="-22381.70137063" cy="-5274.03944632" r="1.82453966" />
                <circle cx="-22381.70137063" cy="-5297.43944632" r="1.82453966" />
                <line x1="-22380.23022589" y1="-5273.83629908" x2="-22383.17251537" y2="-5273.83629908" />
                <line x1="-22380.23022589" y1="-5274.24259357" x2="-22383.17251537" y2="-5274.24259357" />
                <line x1="-22380.23022589" y1="-5273.83629908" x2="-22380.23022589" y2="-5274.24259357" />
                <line x1="-22383.17251537" y1="-5274.24259357" x2="-22383.17251537" y2="-5273.83629908" />
                <line x1="-22383.17251537" y1="-5297.64259357" x2="-22383.17251537" y2="-5297.23629908" />
                <line x1="-22380.23022589" y1="-5297.23629908" x2="-22380.23022589" y2="-5297.64259357" />
                <line x1="-22380.23022589" y1="-5297.64259357" x2="-22383.17251537" y2="-5297.64259357" />
                <line x1="-22380.23022589" y1="-5297.23629908" x2="-22383.17251537" y2="-5297.23629908" />
                <line x1="-22397.5259103" y1="-5269.64259357" x2="-22387.0259103" y2="-5269.64259357" />
                <line x1="-22397.5259103" y1="-5302.24259357" x2="-22387.0259103" y2="-5302.24259357" />
                <line x1="-22397.5259103" y1="-5293.04259357" x2="-22387.0259103" y2="-5293.04259357" />
                <line x1="-22397.5259103" y1="-5278.84259357" x2="-22387.0259103" y2="-5278.84259357" />
                <circle cx="-22392.20137063" cy="-5274.03944632" r="1.82453966" />
                <circle cx="-22392.20137063" cy="-5297.43944632" r="1.82453966" />
                <line x1="-22390.73022589" y1="-5273.83629908" x2="-22393.67251537" y2="-5273.83629908" />
                <line x1="-22390.73022589" y1="-5274.24259357" x2="-22393.67251537" y2="-5274.24259357" />
                <line x1="-22390.73022589" y1="-5273.83629908" x2="-22390.73022589" y2="-5274.24259357" />
                <line x1="-22393.67251537" y1="-5274.24259357" x2="-22393.67251537" y2="-5273.83629908" />
                <line x1="-22393.67251537" y1="-5297.64259357" x2="-22393.67251537" y2="-5297.23629908" />
                <line x1="-22390.73022589" y1="-5297.23629908" x2="-22390.73022589" y2="-5297.64259357" />
                <line x1="-22390.73022589" y1="-5297.64259357" x2="-22393.67251537" y2="-5297.64259357" />
                <line x1="-22390.73022589" y1="-5297.23629908" x2="-22393.67251537" y2="-5297.23629908" />
                <line x1="-22401.23022589" y1="-5297.23629908" x2="-22404.17251537" y2="-5297.23629908" />
                <line x1="-22401.23022589" y1="-5297.64259357" x2="-22404.17251537" y2="-5297.64259357" />
                <line x1="-22401.23022589" y1="-5297.23629908" x2="-22401.23022589" y2="-5297.64259357" />
                <line x1="-22404.17251537" y1="-5297.64259357" x2="-22404.17251537" y2="-5297.23629908" />
                <line x1="-22404.17251537" y1="-5274.24259357" x2="-22404.17251537" y2="-5273.83629908" />
                <line x1="-22401.23022589" y1="-5273.83629908" x2="-22401.23022589" y2="-5274.24259357" />
                <line x1="-22401.23022589" y1="-5274.24259357" x2="-22404.17251537" y2="-5274.24259357" />
                <line x1="-22401.23022589" y1="-5273.83629908" x2="-22404.17251537" y2="-5273.83629908" />
                <circle cx="-22402.70137063" cy="-5297.43944632" r="1.82453966" />
                <circle cx="-22402.70137063" cy="-5274.03944632" r="1.82453966" />
                <line x1="-22408.0259103" y1="-5278.84259357" x2="-22397.5259103" y2="-5278.84259357" />
                <line x1="-22408.0259103" y1="-5293.04259357" x2="-22397.5259103" y2="-5293.04259357" />
                <line x1="-22408.0259103" y1="-5302.24259357" x2="-22397.5259103" y2="-5302.24259357" />
                <line x1="-22408.0259103" y1="-5269.64259357" x2="-22397.5259103" y2="-5269.64259357" />
                <line x1="-22366.0259103" y1="-5260.44259357" x2="-22376.5259103" y2="-5260.44259357" />
                <line x1="-22376.5259103" y1="-5260.44259357" x2="-22376.5259103" y2="-5311.44259357" />
                <line x1="-22376.5259103" y1="-5311.44259357" x2="-22366.0259103" y2="-5311.44259357" />
                <line x1="-22366.0259103" y1="-5311.44259357" x2="-22366.0259103" y2="-5260.44259357" />
                <line x1="-22376.5259103" y1="-5269.64259357" x2="-22366.0259103" y2="-5269.64259357" />
                <line x1="-22376.5259103" y1="-5302.24259357" x2="-22366.0259103" y2="-5302.24259357" />
                <line x1="-22376.5259103" y1="-5293.04259357" x2="-22366.0259103" y2="-5293.04259357" />
                <line x1="-22376.5259103" y1="-5278.84259357" x2="-22366.0259103" y2="-5278.84259357" />
                <circle cx="-22371.20137063" cy="-5274.03944632" r="1.82453966" />
                <circle cx="-22371.20137063" cy="-5297.43944632" r="1.82453966" />
                <line x1="-22369.73022589" y1="-5273.83629908" x2="-22372.67251537" y2="-5273.83629908" />
                <line x1="-22369.73022589" y1="-5274.24259357" x2="-22372.67251537" y2="-5274.24259357" />
                <line x1="-22369.73022589" y1="-5273.83629908" x2="-22369.73022589" y2="-5274.24259357" />
                <line x1="-22372.67251537" y1="-5274.24259357" x2="-22372.67251537" y2="-5273.83629908" />
                <line x1="-22372.67251537" y1="-5297.64259357" x2="-22372.67251537" y2="-5297.23629908" />
                <line x1="-22369.73022589" y1="-5297.23629908" x2="-22369.73022589" y2="-5297.64259357" />
                <line x1="-22369.73022589" y1="-5297.64259357" x2="-22372.67251537" y2="-5297.64259357" />
                <line x1="-22369.73022589" y1="-5297.23629908" x2="-22372.67251537" y2="-5297.23629908" />
            </g>
            </g>
    </g>
    </svg>