<?xml version='1.0' encoding='utf-8'?>
<svg xmlns:xlink="http://www.w3.org/1999/xlink" xmlns="http://www.w3.org/2000/svg" xmlns:lc="http://www.librecad.org" width="612.00mm" height="53.00mm" viewBox="-23412.28513785 -5310.86390941 612.0 53.0">
    <g lc:layername="0" lc:is_locked="false" lc:is_construction="false" fill="none" stroke="black" stroke-width="1">
        <g lc:blockname="l2l-0">
            <g lc:layername="0" lc:is_locked="false" lc:is_construction="false" fill="none" stroke="black" stroke-width="1">
                <line x1="-23336.27340465" y1="-5307.27734071" x2="-23406.28513785" y2="-5307.27734071" />
                <line x1="-23336.27340465" y1="-5304.14271583" x2="-23406.28513785" y2="-5304.14271583" />
                <line x1="-23336.27340465" y1="-5263.41196558" x2="-23406.28513785" y2="-5263.41196558" />
                <line x1="-23336.27340465" y1="-5260.27734071" x2="-23406.28513785" y2="-5260.27734071" />
                <line x1="-22806.28513785" y1="-5308.85602486" x2="-22884.77340465" y2="-5308.85602486" />
                <line x1="-22806.28513785" y1="-5305.72139998" x2="-22884.77340465" y2="-5305.72139998" />
                <line x1="-22806.28513785" y1="-5264.99064973" x2="-22884.77340465" y2="-5264.99064973" />
                <line x1="-22806.28513785" y1="-5261.85602486" x2="-22884.77340465" y2="-5261.85602486" />
                <line x1="-23384.27540963" y1="-5287.61172932" x2="-23390.51956918" y2="-5281.37240627" />
                <circle cx="-23387.69963477" cy="-5284.79397132" r="4.62917092" />
                <line x1="-22832.1035464" y1="-5287.33538088" x2="-22838.34770594" y2="-5281.09605783" />
                <circle cx="-22835.52777153" cy="-5284.51762288" r="4.62917092" />
            </g>
            <g lc:layername="SALT" lc:is_locked="false" lc:is_construction="false" fill="none" stroke="black" stroke-width="1">
                <line x1="-23325.77340465" y1="-5258.86390941" x2="-23336.27340465" y2="-5258.86390941" />
                <line x1="-23336.27340465" y1="-5258.86390941" x2="-23336.27340465" y2="-5309.86390941" />
                <line x1="-23336.27340465" y1="-5309.86390941" x2="-23325.77340465" y2="-5309.86390941" />
                <line x1="-23325.77340465" y1="-5309.86390941" x2="-23325.77340465" y2="-5258.86390941" />
                <line x1="-23336.27340465" y1="-5277.26390941" x2="-23325.77340465" y2="-5277.26390941" />
                <line x1="-23336.27340465" y1="-5291.46390941" x2="-23325.77340465" y2="-5291.46390941" />
                <line x1="-23336.27340465" y1="-5300.66390941" x2="-23325.77340465" y2="-5300.66390941" />
                <line x1="-23336.27340465" y1="-5268.06390941" x2="-23325.77340465" y2="-5268.06390941" />
                <line x1="-23329.47772024" y1="-5295.65761493" x2="-23332.42000972" y2="-5295.65761493" />
                <line x1="-23329.47772024" y1="-5296.06390941" x2="-23332.42000972" y2="-5296.06390941" />
                <line x1="-23329.47772024" y1="-5295.65761493" x2="-23329.47772024" y2="-5296.06390941" />
                <line x1="-23332.42000972" y1="-5296.06390941" x2="-23332.42000972" y2="-5295.65761493" />
                <line x1="-23332.42000972" y1="-5272.66390941" x2="-23332.42000972" y2="-5272.25761493" />
                <line x1="-23329.47772024" y1="-5272.25761493" x2="-23329.47772024" y2="-5272.66390941" />
                <line x1="-23329.47772024" y1="-5272.66390941" x2="-23332.42000972" y2="-5272.66390941" />
                <line x1="-23329.47772024" y1="-5272.25761493" x2="-23332.42000972" y2="-5272.25761493" />
                <circle cx="-23330.94886498" cy="-5295.86076217" r="1.82453966" />
                <circle cx="-23330.94886498" cy="-5272.46076217" r="1.82453966" />
                <line x1="-23315.27340465" y1="-5258.86390941" x2="-23325.77340465" y2="-5258.86390941" />
                <line x1="-23325.77340465" y1="-5258.86390941" x2="-23325.77340465" y2="-5309.86390941" />
                <line x1="-23325.77340465" y1="-5309.86390941" x2="-23315.27340465" y2="-5309.86390941" />
                <line x1="-23315.27340465" y1="-5309.86390941" x2="-23315.27340465" y2="-5258.86390941" />
                <line x1="-23318.97772024" y1="-5295.65761493" x2="-23321.92000972" y2="-5295.65761493" />
                <line x1="-23318.97772024" y1="-5296.06390941" x2="-23321.92000972" y2="-5296.06390941" />
                <line x1="-23318.97772024" y1="-5295.65761493" x2="-23318.97772024" y2="-5296.06390941" />
                <line x1="-23321.92000972" y1="-5296.06390941" x2="-23321.92000972" y2="-5295.65761493" />
                <line x1="-23321.92000972" y1="-5272.66390941" x2="-23321.92000972" y2="-5272.25761493" />
                <line x1="-23318.97772024" y1="-5272.25761493" x2="-23318.97772024" y2="-5272.66390941" />
                <line x1="-23318.97772024" y1="-5272.66390941" x2="-23321.92000972" y2="-5272.66390941" />
                <line x1="-23318.97772024" y1="-5272.25761493" x2="-23321.92000972" y2="-5272.25761493" />
                <circle cx="-23320.44886498" cy="-5295.86076217" r="1.82453966" />
                <circle cx="-23320.44886498" cy="-5272.46076217" r="1.82453966" />
                <line x1="-23325.77340465" y1="-5277.26390941" x2="-23315.27340465" y2="-5277.26390941" />
                <line x1="-23325.77340465" y1="-5291.46390941" x2="-23315.27340465" y2="-5291.46390941" />
                <line x1="-23325.77340465" y1="-5300.66390941" x2="-23315.27340465" y2="-5300.66390941" />
                <line x1="-23325.77340465" y1="-5268.06390941" x2="-23315.27340465" y2="-5268.06390941" />
                <line x1="-23304.77340465" y1="-5258.86390941" x2="-23315.27340465" y2="-5258.86390941" />
                <line x1="-23315.27340465" y1="-5258.86390941" x2="-23315.27340465" y2="-5309.86390941" />
                <line x1="-23315.27340465" y1="-5309.86390941" x2="-23304.77340465" y2="-5309.86390941" />
                <line x1="-23304.77340465" y1="-5309.86390941" x2="-23304.77340465" y2="-5258.86390941" />
                <line x1="-23308.47772024" y1="-5295.65761493" x2="-23311.42000972" y2="-5295.65761493" />
                <line x1="-23308.47772024" y1="-5296.06390941" x2="-23311.42000972" y2="-5296.06390941" />
                <line x1="-23308.47772024" y1="-5295.65761493" x2="-23308.47772024" y2="-5296.06390941" />
                <line x1="-23311.42000972" y1="-5296.06390941" x2="-23311.42000972" y2="-5295.65761493" />
                <line x1="-23311.42000972" y1="-5272.66390941" x2="-23311.42000972" y2="-5272.25761493" />
                <line x1="-23308.47772024" y1="-5272.25761493" x2="-23308.47772024" y2="-5272.66390941" />
                <line x1="-23308.47772024" y1="-5272.66390941" x2="-23311.42000972" y2="-5272.66390941" />
                <line x1="-23308.47772024" y1="-5272.25761493" x2="-23311.42000972" y2="-5272.25761493" />
                <circle cx="-23309.94886498" cy="-5295.86076217" r="1.82453966" />
                <circle cx="-23309.94886498" cy="-5272.46076217" r="1.82453966" />
                <line x1="-23315.27340465" y1="-5277.26390941" x2="-23304.77340465" y2="-5277.26390941" />
                <line x1="-23315.27340465" y1="-5291.46390941" x2="-23304.77340465" y2="-5291.46390941" />
                <line x1="-23315.27340465" y1="-5300.66390941" x2="-23304.77340465" y2="-5300.66390941" />
                <line x1="-23315.27340465" y1="-5268.06390941" x2="-23304.77340465" y2="-5268.06390941" />
                <line x1="-23273.27340465" y1="-5258.86390941" x2="-23283.77340465" y2="-5258.86390941" />
                <line x1="-23283.77340465" y1="-5258.86390941" x2="-23283.77340465" y2="-5309.86390941" />
                <line x1="-23283.77340465" y1="-5309.86390941" x2="-23273.27340465" y2="-5309.86390941" />
                <line x1="-23273.27340465" y1="-5309.86390941" x2="-23273.27340465" y2="-5258.86390941" />
                <line x1="-23283.77340465" y1="-5258.86390941" x2="-23294.27340465" y2="-5258.86390941" />
                <line x1="-23294.27340465" y1="-5258.86390941" x2="-23294.27340465" y2="-5309.86390941" />
                <line x1="-23294.27340465" y1="-5309.86390941" x2="-23283.77340465" y2="-5309.86390941" />
                <line x1="-23283.77340465" y1="-5309.86390941" x2="-23283.77340465" y2="-5258.86390941" />
                <line x1="-23294.27340465" y1="-5258.86390941" x2="-23304.77340465" y2="-5258.86390941" />
                <line x1="-23304.77340465" y1="-5258.86390941" x2="-23304.77340465" y2="-5309.86390941" />
                <line x1="-23304.77340465" y1="-5309.86390941" x2="-23294.27340465" y2="-5309.86390941" />
                <line x1="-23294.27340465" y1="-5309.86390941" x2="-23294.27340465" y2="-5258.86390941" />
                <line x1="-23283.77340465" y1="-5268.06390941" x2="-23273.27340465" y2="-5268.06390941" />
                <line x1="-23283.77340465" y1="-5300.66390941" x2="-23273.27340465" y2="-5300.66390941" />
                <line x1="-23283.77340465" y1="-5291.46390941" x2="-23273.27340465" y2="-5291.46390941" />
                <line x1="-23283.77340465" y1="-5277.26390941" x2="-23273.27340465" y2="-5277.26390941" />
                <circle cx="-23278.44886498" cy="-5272.46076217" r="1.82453966" />
                <circle cx="-23278.44886498" cy="-5295.86076217" r="1.82453966" />
                <line x1="-23276.97772024" y1="-5272.25761493" x2="-23279.92000972" y2="-5272.25761493" />
                <line x1="-23276.97772024" y1="-5272.66390941" x2="-23279.92000972" y2="-5272.66390941" />
                <line x1="-23276.97772024" y1="-5272.25761493" x2="-23276.97772024" y2="-5272.66390941" />
                <line x1="-23279.92000972" y1="-5272.66390941" x2="-23279.92000972" y2="-5272.25761493" />
                <line x1="-23279.92000972" y1="-5296.06390941" x2="-23279.92000972" y2="-5295.65761493" />
                <line x1="-23276.97772024" y1="-5295.65761493" x2="-23276.97772024" y2="-5296.06390941" />
                <line x1="-23276.97772024" y1="-5296.06390941" x2="-23279.92000972" y2="-5296.06390941" />
                <line x1="-23276.97772024" y1="-5295.65761493" x2="-23279.92000972" y2="-5295.65761493" />
                <line x1="-23294.27340465" y1="-5268.06390941" x2="-23283.77340465" y2="-5268.06390941" />
                <line x1="-23294.27340465" y1="-5300.66390941" x2="-23283.77340465" y2="-5300.66390941" />
                <line x1="-23294.27340465" y1="-5291.46390941" x2="-23283.77340465" y2="-5291.46390941" />
                <line x1="-23294.27340465" y1="-5277.26390941" x2="-23283.77340465" y2="-5277.26390941" />
                <circle cx="-23288.94886498" cy="-5272.46076217" r="1.82453966" />
                <circle cx="-23288.94886498" cy="-5295.86076217" r="1.82453966" />
                <line x1="-23287.47772024" y1="-5272.25761493" x2="-23290.42000972" y2="-5272.25761493" />
                <line x1="-23287.47772024" y1="-5272.66390941" x2="-23290.42000972" y2="-5272.66390941" />
                <line x1="-23287.47772024" y1="-5272.25761493" x2="-23287.47772024" y2="-5272.66390941" />
                <line x1="-23290.42000972" y1="-5272.66390941" x2="-23290.42000972" y2="-5272.25761493" />
                <line x1="-23290.42000972" y1="-5296.06390941" x2="-23290.42000972" y2="-5295.65761493" />
                <line x1="-23287.47772024" y1="-5295.65761493" x2="-23287.47772024" y2="-5296.06390941" />
                <line x1="-23287.47772024" y1="-5296.06390941" x2="-23290.42000972" y2="-5296.06390941" />
                <line x1="-23287.47772024" y1="-5295.65761493" x2="-23290.42000972" y2="-5295.65761493" />
                <line x1="-23297.97772024" y1="-5295.65761493" x2="-23300.92000972" y2="-5295.65761493" />
                <line x1="-23297.97772024" y1="-5296.06390941" x2="-23300.92000972" y2="-5296.06390941" />
                <line x1="-23297.97772024" y1="-5295.65761493" x2="-23297.97772024" y2="-5296.06390941" />
                <line x1="-23300.92000972" y1="-5296.06390941" x2="-23300.92000972" y2="-5295.65761493" />
                <line x1="-23300.92000972" y1="-5272.66390941" x2="-23300.92000972" y2="-5272.25761493" />
                <line x1="-23297.97772024" y1="-5272.25761493" x2="-23297.97772024" y2="-5272.66390941" />
                <line x1="-23297.97772024" y1="-5272.66390941" x2="-23300.92000972" y2="-5272.66390941" />
                <line x1="-23297.97772024" y1="-5272.25761493" x2="-23300.92000972" y2="-5272.25761493" />
                <circle cx="-23299.44886498" cy="-5295.86076217" r="1.82453966" />
                <circle cx="-23299.44886498" cy="-5272.46076217" r="1.82453966" />
                <line x1="-23304.77340465" y1="-5277.26390941" x2="-23294.27340465" y2="-5277.26390941" />
                <line x1="-23304.77340465" y1="-5291.46390941" x2="-23294.27340465" y2="-5291.46390941" />
                <line x1="-23304.77340465" y1="-5300.66390941" x2="-23294.27340465" y2="-5300.66390941" />
                <line x1="-23304.77340465" y1="-5268.06390941" x2="-23294.27340465" y2="-5268.06390941" />
                <line x1="-23241.77340465" y1="-5258.86390941" x2="-23252.27340465" y2="-5258.86390941" />
                <line x1="-23252.27340465" y1="-5258.86390941" x2="-23252.27340465" y2="-5309.86390941" />
                <line x1="-23252.27340465" y1="-5309.86390941" x2="-23241.77340465" y2="-5309.86390941" />
                <line x1="-23241.77340465" y1="-5309.86390941" x2="-23241.77340465" y2="-5258.86390941" />
                <line x1="-23252.27340465" y1="-5258.86390941" x2="-23262.77340465" y2="-5258.86390941" />
                <line x1="-23262.77340465" y1="-5258.86390941" x2="-23262.77340465" y2="-5309.86390941" />
                <line x1="-23262.77340465" y1="-5309.86390941" x2="-23252.27340465" y2="-5309.86390941" />
                <line x1="-23252.27340465" y1="-5309.86390941" x2="-23252.27340465" y2="-5258.86390941" />
                <line x1="-23262.77340465" y1="-5258.86390941" x2="-23273.27340465" y2="-5258.86390941" />
                <line x1="-23273.27340465" y1="-5258.86390941" x2="-23273.27340465" y2="-5309.86390941" />
                <line x1="-23273.27340465" y1="-5309.86390941" x2="-23262.77340465" y2="-5309.86390941" />
                <line x1="-23262.77340465" y1="-5309.86390941" x2="-23262.77340465" y2="-5258.86390941" />
                <line x1="-23252.27340465" y1="-5268.06390941" x2="-23241.77340465" y2="-5268.06390941" />
                <line x1="-23252.27340465" y1="-5300.66390941" x2="-23241.77340465" y2="-5300.66390941" />
                <line x1="-23252.27340465" y1="-5291.46390941" x2="-23241.77340465" y2="-5291.46390941" />
                <line x1="-23252.27340465" y1="-5277.26390941" x2="-23241.77340465" y2="-5277.26390941" />
                <circle cx="-23246.94886498" cy="-5272.46076217" r="1.82453966" />
                <circle cx="-23246.94886498" cy="-5295.86076217" r="1.82453966" />
                <line x1="-23245.47772024" y1="-5272.25761493" x2="-23248.42000972" y2="-5272.25761493" />
                <line x1="-23245.47772024" y1="-5272.66390941" x2="-23248.42000972" y2="-5272.66390941" />
                <line x1="-23245.47772024" y1="-5272.25761493" x2="-23245.47772024" y2="-5272.66390941" />
                <line x1="-23248.42000972" y1="-5272.66390941" x2="-23248.42000972" y2="-5272.25761493" />
                <line x1="-23248.42000972" y1="-5296.06390941" x2="-23248.42000972" y2="-5295.65761493" />
                <line x1="-23245.47772024" y1="-5295.65761493" x2="-23245.47772024" y2="-5296.06390941" />
                <line x1="-23245.47772024" y1="-5296.06390941" x2="-23248.42000972" y2="-5296.06390941" />
                <line x1="-23245.47772024" y1="-5295.65761493" x2="-23248.42000972" y2="-5295.65761493" />
                <line x1="-23262.77340465" y1="-5268.06390941" x2="-23252.27340465" y2="-5268.06390941" />
                <line x1="-23262.77340465" y1="-5300.66390941" x2="-23252.27340465" y2="-5300.66390941" />
                <line x1="-23262.77340465" y1="-5291.46390941" x2="-23252.27340465" y2="-5291.46390941" />
                <line x1="-23262.77340465" y1="-5277.26390941" x2="-23252.27340465" y2="-5277.26390941" />
                <circle cx="-23257.44886498" cy="-5272.46076217" r="1.82453966" />
                <circle cx="-23257.44886498" cy="-5295.86076217" r="1.82453966" />
                <line x1="-23255.97772024" y1="-5272.25761493" x2="-23258.92000972" y2="-5272.25761493" />
                <line x1="-23255.97772024" y1="-5272.66390941" x2="-23258.92000972" y2="-5272.66390941" />
                <line x1="-23255.97772024" y1="-5272.25761493" x2="-23255.97772024" y2="-5272.66390941" />
                <line x1="-23258.92000972" y1="-5272.66390941" x2="-23258.92000972" y2="-5272.25761493" />
                <line x1="-23258.92000972" y1="-5296.06390941" x2="-23258.92000972" y2="-5295.65761493" />
                <line x1="-23255.97772024" y1="-5295.65761493" x2="-23255.97772024" y2="-5296.06390941" />
                <line x1="-23255.97772024" y1="-5296.06390941" x2="-23258.92000972" y2="-5296.06390941" />
                <line x1="-23255.97772024" y1="-5295.65761493" x2="-23258.92000972" y2="-5295.65761493" />
                <line x1="-23266.47772024" y1="-5295.65761493" x2="-23269.42000972" y2="-5295.65761493" />
                <line x1="-23266.47772024" y1="-5296.06390941" x2="-23269.42000972" y2="-5296.06390941" />
                <line x1="-23266.47772024" y1="-5295.65761493" x2="-23266.47772024" y2="-5296.06390941" />
                <line x1="-23269.42000972" y1="-5296.06390941" x2="-23269.42000972" y2="-5295.65761493" />
                <line x1="-23269.42000972" y1="-5272.66390941" x2="-23269.42000972" y2="-5272.25761493" />
                <line x1="-23266.47772024" y1="-5272.25761493" x2="-23266.47772024" y2="-5272.66390941" />
                <line x1="-23266.47772024" y1="-5272.66390941" x2="-23269.42000972" y2="-5272.66390941" />
                <line x1="-23266.47772024" y1="-5272.25761493" x2="-23269.42000972" y2="-5272.25761493" />
                <circle cx="-23267.94886498" cy="-5295.86076217" r="1.82453966" />
                <circle cx="-23267.94886498" cy="-5272.46076217" r="1.82453966" />
                <line x1="-23273.27340465" y1="-5277.26390941" x2="-23262.77340465" y2="-5277.26390941" />
                <line x1="-23273.27340465" y1="-5291.46390941" x2="-23262.77340465" y2="-5291.46390941" />
                <line x1="-23273.27340465" y1="-5300.66390941" x2="-23262.77340465" y2="-5300.66390941" />
                <line x1="-23273.27340465" y1="-5268.06390941" x2="-23262.77340465" y2="-5268.06390941" />
                <line x1="-23210.27340465" y1="-5258.86390941" x2="-23220.77340465" y2="-5258.86390941" />
                <line x1="-23220.77340465" y1="-5258.86390941" x2="-23220.77340465" y2="-5309.86390941" />
                <line x1="-23220.77340465" y1="-5309.86390941" x2="-23210.27340465" y2="-5309.86390941" />
                <line x1="-23210.27340465" y1="-5309.86390941" x2="-23210.27340465" y2="-5258.86390941" />
                <line x1="-23220.77340465" y1="-5258.86390941" x2="-23231.27340465" y2="-5258.86390941" />
                <line x1="-23231.27340465" y1="-5258.86390941" x2="-23231.27340465" y2="-5309.86390941" />
                <line x1="-23231.27340465" y1="-5309.86390941" x2="-23220.77340465" y2="-5309.86390941" />
                <line x1="-23220.77340465" y1="-5309.86390941" x2="-23220.77340465" y2="-5258.86390941" />
                <line x1="-23231.27340465" y1="-5258.86390941" x2="-23241.77340465" y2="-5258.86390941" />
                <line x1="-23241.77340465" y1="-5258.86390941" x2="-23241.77340465" y2="-5309.86390941" />
                <line x1="-23241.77340465" y1="-5309.86390941" x2="-23231.27340465" y2="-5309.86390941" />
                <line x1="-23231.27340465" y1="-5309.86390941" x2="-23231.27340465" y2="-5258.86390941" />
                <line x1="-23220.77340465" y1="-5268.06390941" x2="-23210.27340465" y2="-5268.06390941" />
                <line x1="-23220.77340465" y1="-5300.66390941" x2="-23210.27340465" y2="-5300.66390941" />
                <line x1="-23220.77340465" y1="-5291.46390941" x2="-23210.27340465" y2="-5291.46390941" />
                <line x1="-23220.77340465" y1="-5277.26390941" x2="-23210.27340465" y2="-5277.26390941" />
                <circle cx="-23215.44886498" cy="-5272.46076217" r="1.82453966" />
                <circle cx="-23215.44886498" cy="-5295.86076217" r="1.82453966" />
                <line x1="-23213.97772024" y1="-5272.25761493" x2="-23216.92000972" y2="-5272.25761493" />
                <line x1="-23213.97772024" y1="-5272.66390941" x2="-23216.92000972" y2="-5272.66390941" />
                <line x1="-23213.97772024" y1="-5272.25761493" x2="-23213.97772024" y2="-5272.66390941" />
                <line x1="-23216.92000972" y1="-5272.66390941" x2="-23216.92000972" y2="-5272.25761493" />
                <line x1="-23216.92000972" y1="-5296.06390941" x2="-23216.92000972" y2="-5295.65761493" />
                <line x1="-23213.97772024" y1="-5295.65761493" x2="-23213.97772024" y2="-5296.06390941" />
                <line x1="-23213.97772024" y1="-5296.06390941" x2="-23216.92000972" y2="-5296.06390941" />
                <line x1="-23213.97772024" y1="-5295.65761493" x2="-23216.92000972" y2="-5295.65761493" />
                <line x1="-23231.27340465" y1="-5268.06390941" x2="-23220.77340465" y2="-5268.06390941" />
                <line x1="-23231.27340465" y1="-5300.66390941" x2="-23220.77340465" y2="-5300.66390941" />
                <line x1="-23231.27340465" y1="-5291.46390941" x2="-23220.77340465" y2="-5291.46390941" />
                <line x1="-23231.27340465" y1="-5277.26390941" x2="-23220.77340465" y2="-5277.26390941" />
                <circle cx="-23225.94886498" cy="-5272.46076217" r="1.82453966" />
                <circle cx="-23225.94886498" cy="-5295.86076217" r="1.82453966" />
                <line x1="-23224.47772024" y1="-5272.25761493" x2="-23227.42000972" y2="-5272.25761493" />
                <line x1="-23224.47772024" y1="-5272.66390941" x2="-23227.42000972" y2="-5272.66390941" />
                <line x1="-23224.47772024" y1="-5272.25761493" x2="-23224.47772024" y2="-5272.66390941" />
                <line x1="-23227.42000972" y1="-5272.66390941" x2="-23227.42000972" y2="-5272.25761493" />
                <line x1="-23227.42000972" y1="-5296.06390941" x2="-23227.42000972" y2="-5295.65761493" />
                <line x1="-23224.47772024" y1="-5295.65761493" x2="-23224.47772024" y2="-5296.06390941" />
                <line x1="-23224.47772024" y1="-5296.06390941" x2="-23227.42000972" y2="-5296.06390941" />
                <line x1="-23224.47772024" y1="-5295.65761493" x2="-23227.42000972" y2="-5295.65761493" />
                <line x1="-23234.97772024" y1="-5295.65761493" x2="-23237.92000972" y2="-5295.65761493" />
                <line x1="-23234.97772024" y1="-5296.06390941" x2="-23237.92000972" y2="-5296.06390941" />
                <line x1="-23234.97772024" y1="-5295.65761493" x2="-23234.97772024" y2="-5296.06390941" />
                <line x1="-23237.92000972" y1="-5296.06390941" x2="-23237.92000972" y2="-5295.65761493" />
                <line x1="-23237.92000972" y1="-5272.66390941" x2="-23237.92000972" y2="-5272.25761493" />
                <line x1="-23234.97772024" y1="-5272.25761493" x2="-23234.97772024" y2="-5272.66390941" />
                <line x1="-23234.97772024" y1="-5272.66390941" x2="-23237.92000972" y2="-5272.66390941" />
                <line x1="-23234.97772024" y1="-5272.25761493" x2="-23237.92000972" y2="-5272.25761493" />
                <circle cx="-23236.44886498" cy="-5295.86076217" r="1.82453966" />
                <circle cx="-23236.44886498" cy="-5272.46076217" r="1.82453966" />
                <line x1="-23241.77340465" y1="-5277.26390941" x2="-23231.27340465" y2="-5277.26390941" />
                <line x1="-23241.77340465" y1="-5291.46390941" x2="-23231.27340465" y2="-5291.46390941" />
                <line x1="-23241.77340465" y1="-5300.66390941" x2="-23231.27340465" y2="-5300.66390941" />
                <line x1="-23241.77340465" y1="-5268.06390941" x2="-23231.27340465" y2="-5268.06390941" />
                <line x1="-23178.77340465" y1="-5258.86390941" x2="-23189.27340465" y2="-5258.86390941" />
                <line x1="-23189.27340465" y1="-5258.86390941" x2="-23189.27340465" y2="-5309.86390941" />
                <line x1="-23189.27340465" y1="-5309.86390941" x2="-23178.77340465" y2="-5309.86390941" />
                <line x1="-23178.77340465" y1="-5309.86390941" x2="-23178.77340465" y2="-5258.86390941" />
                <line x1="-23189.27340465" y1="-5258.86390941" x2="-23199.77340465" y2="-5258.86390941" />
                <line x1="-23199.77340465" y1="-5258.86390941" x2="-23199.77340465" y2="-5309.86390941" />
                <line x1="-23199.77340465" y1="-5309.86390941" x2="-23189.27340465" y2="-5309.86390941" />
                <line x1="-23189.27340465" y1="-5309.86390941" x2="-23189.27340465" y2="-5258.86390941" />
                <line x1="-23199.77340465" y1="-5258.86390941" x2="-23210.27340465" y2="-5258.86390941" />
                <line x1="-23210.27340465" y1="-5258.86390941" x2="-23210.27340465" y2="-5309.86390941" />
                <line x1="-23210.27340465" y1="-5309.86390941" x2="-23199.77340465" y2="-5309.86390941" />
                <line x1="-23199.77340465" y1="-5309.86390941" x2="-23199.77340465" y2="-5258.86390941" />
                <line x1="-23189.27340465" y1="-5268.06390941" x2="-23178.77340465" y2="-5268.06390941" />
                <line x1="-23189.27340465" y1="-5300.66390941" x2="-23178.77340465" y2="-5300.66390941" />
                <line x1="-23189.27340465" y1="-5291.46390941" x2="-23178.77340465" y2="-5291.46390941" />
                <line x1="-23189.27340465" y1="-5277.26390941" x2="-23178.77340465" y2="-5277.26390941" />
                <circle cx="-23183.94886498" cy="-5272.46076217" r="1.82453966" />
                <circle cx="-23183.94886498" cy="-5295.86076217" r="1.82453966" />
                <line x1="-23182.47772024" y1="-5272.25761493" x2="-23185.42000972" y2="-5272.25761493" />
                <line x1="-23182.47772024" y1="-5272.66390941" x2="-23185.42000972" y2="-5272.66390941" />
                <line x1="-23182.47772024" y1="-5272.25761493" x2="-23182.47772024" y2="-5272.66390941" />
                <line x1="-23185.42000972" y1="-5272.66390941" x2="-23185.42000972" y2="-5272.25761493" />
                <line x1="-23185.42000972" y1="-5296.06390941" x2="-23185.42000972" y2="-5295.65761493" />
                <line x1="-23182.47772024" y1="-5295.65761493" x2="-23182.47772024" y2="-5296.06390941" />
                <line x1="-23182.47772024" y1="-5296.06390941" x2="-23185.42000972" y2="-5296.06390941" />
                <line x1="-23182.47772024" y1="-5295.65761493" x2="-23185.42000972" y2="-5295.65761493" />
                <line x1="-23199.77340465" y1="-5268.06390941" x2="-23189.27340465" y2="-5268.06390941" />
                <line x1="-23199.77340465" y1="-5300.66390941" x2="-23189.27340465" y2="-5300.66390941" />
                <line x1="-23199.77340465" y1="-5291.46390941" x2="-23189.27340465" y2="-5291.46390941" />
                <line x1="-23199.77340465" y1="-5277.26390941" x2="-23189.27340465" y2="-5277.26390941" />
                <circle cx="-23194.44886498" cy="-5272.46076217" r="1.82453966" />
                <circle cx="-23194.44886498" cy="-5295.86076217" r="1.82453966" />
                <line x1="-23192.97772024" y1="-5272.25761493" x2="-23195.92000972" y2="-5272.25761493" />
                <line x1="-23192.97772024" y1="-5272.66390941" x2="-23195.92000972" y2="-5272.66390941" />
                <line x1="-23192.97772024" y1="-5272.25761493" x2="-23192.97772024" y2="-5272.66390941" />
                <line x1="-23195.92000972" y1="-5272.66390941" x2="-23195.92000972" y2="-5272.25761493" />
                <line x1="-23195.92000972" y1="-5296.06390941" x2="-23195.92000972" y2="-5295.65761493" />
                <line x1="-23192.97772024" y1="-5295.65761493" x2="-23192.97772024" y2="-5296.06390941" />
                <line x1="-23192.97772024" y1="-5296.06390941" x2="-23195.92000972" y2="-5296.06390941" />
                <line x1="-23192.97772024" y1="-5295.65761493" x2="-23195.92000972" y2="-5295.65761493" />
                <line x1="-23203.47772024" y1="-5295.65761493" x2="-23206.42000972" y2="-5295.65761493" />
                <line x1="-23203.47772024" y1="-5296.06390941" x2="-23206.42000972" y2="-5296.06390941" />
                <line x1="-23203.47772024" y1="-5295.65761493" x2="-23203.47772024" y2="-5296.06390941" />
                <line x1="-23206.42000972" y1="-5296.06390941" x2="-23206.42000972" y2="-5295.65761493" />
                <line x1="-23206.42000972" y1="-5272.66390941" x2="-23206.42000972" y2="-5272.25761493" />
                <line x1="-23203.47772024" y1="-5272.25761493" x2="-23203.47772024" y2="-5272.66390941" />
                <line x1="-23203.47772024" y1="-5272.66390941" x2="-23206.42000972" y2="-5272.66390941" />
                <line x1="-23203.47772024" y1="-5272.25761493" x2="-23206.42000972" y2="-5272.25761493" />
                <circle cx="-23204.94886498" cy="-5295.86076217" r="1.82453966" />
                <circle cx="-23204.94886498" cy="-5272.46076217" r="1.82453966" />
                <line x1="-23210.27340465" y1="-5277.26390941" x2="-23199.77340465" y2="-5277.26390941" />
                <line x1="-23210.27340465" y1="-5291.46390941" x2="-23199.77340465" y2="-5291.46390941" />
                <line x1="-23210.27340465" y1="-5300.66390941" x2="-23199.77340465" y2="-5300.66390941" />
                <line x1="-23210.27340465" y1="-5268.06390941" x2="-23199.77340465" y2="-5268.06390941" />
                <line x1="-23147.27340465" y1="-5258.86390941" x2="-23157.77340465" y2="-5258.86390941" />
                <line x1="-23157.77340465" y1="-5258.86390941" x2="-23157.77340465" y2="-5309.86390941" />
                <line x1="-23157.77340465" y1="-5309.86390941" x2="-23147.27340465" y2="-5309.86390941" />
                <line x1="-23147.27340465" y1="-5309.86390941" x2="-23147.27340465" y2="-5258.86390941" />
                <line x1="-23157.77340465" y1="-5258.86390941" x2="-23168.27340465" y2="-5258.86390941" />
                <line x1="-23168.27340465" y1="-5258.86390941" x2="-23168.27340465" y2="-5309.86390941" />
                <line x1="-23168.27340465" y1="-5309.86390941" x2="-23157.77340465" y2="-5309.86390941" />
                <line x1="-23157.77340465" y1="-5309.86390941" x2="-23157.77340465" y2="-5258.86390941" />
                <line x1="-23168.27340465" y1="-5258.86390941" x2="-23178.77340465" y2="-5258.86390941" />
                <line x1="-23178.77340465" y1="-5258.86390941" x2="-23178.77340465" y2="-5309.86390941" />
                <line x1="-23178.77340465" y1="-5309.86390941" x2="-23168.27340465" y2="-5309.86390941" />
                <line x1="-23168.27340465" y1="-5309.86390941" x2="-23168.27340465" y2="-5258.86390941" />
                <line x1="-23157.77340465" y1="-5268.06390941" x2="-23147.27340465" y2="-5268.06390941" />
                <line x1="-23157.77340465" y1="-5300.66390941" x2="-23147.27340465" y2="-5300.66390941" />
                <line x1="-23157.77340465" y1="-5291.46390941" x2="-23147.27340465" y2="-5291.46390941" />
                <line x1="-23157.77340465" y1="-5277.26390941" x2="-23147.27340465" y2="-5277.26390941" />
                <circle cx="-23152.44886498" cy="-5272.46076217" r="1.82453966" />
                <circle cx="-23152.44886498" cy="-5295.86076217" r="1.82453966" />
                <line x1="-23150.97772024" y1="-5272.25761493" x2="-23153.92000972" y2="-5272.25761493" />
                <line x1="-23150.97772024" y1="-5272.66390941" x2="-23153.92000972" y2="-5272.66390941" />
                <line x1="-23150.97772024" y1="-5272.25761493" x2="-23150.97772024" y2="-5272.66390941" />
                <line x1="-23153.92000972" y1="-5272.66390941" x2="-23153.92000972" y2="-5272.25761493" />
                <line x1="-23153.92000972" y1="-5296.06390941" x2="-23153.92000972" y2="-5295.65761493" />
                <line x1="-23150.97772024" y1="-5295.65761493" x2="-23150.97772024" y2="-5296.06390941" />
                <line x1="-23150.97772024" y1="-5296.06390941" x2="-23153.92000972" y2="-5296.06390941" />
                <line x1="-23150.97772024" y1="-5295.65761493" x2="-23153.92000972" y2="-5295.65761493" />
                <line x1="-23168.27340465" y1="-5268.06390941" x2="-23157.77340465" y2="-5268.06390941" />
                <line x1="-23168.27340465" y1="-5300.66390941" x2="-23157.77340465" y2="-5300.66390941" />
                <line x1="-23168.27340465" y1="-5291.46390941" x2="-23157.77340465" y2="-5291.46390941" />
                <line x1="-23168.27340465" y1="-5277.26390941" x2="-23157.77340465" y2="-5277.26390941" />
                <circle cx="-23162.94886498" cy="-5272.46076217" r="1.82453966" />
                <circle cx="-23162.94886498" cy="-5295.86076217" r="1.82453966" />
                <line x1="-23161.47772024" y1="-5272.25761493" x2="-23164.42000972" y2="-5272.25761493" />
                <line x1="-23161.47772024" y1="-5272.66390941" x2="-23164.42000972" y2="-5272.66390941" />
                <line x1="-23161.47772024" y1="-5272.25761493" x2="-23161.47772024" y2="-5272.66390941" />
                <line x1="-23164.42000972" y1="-5272.66390941" x2="-23164.42000972" y2="-5272.25761493" />
                <line x1="-23164.42000972" y1="-5296.06390941" x2="-23164.42000972" y2="-5295.65761493" />
                <line x1="-23161.47772024" y1="-5295.65761493" x2="-23161.47772024" y2="-5296.06390941" />
                <line x1="-23161.47772024" y1="-5296.06390941" x2="-23164.42000972" y2="-5296.06390941" />
                <line x1="-23161.47772024" y1="-5295.65761493" x2="-23164.42000972" y2="-5295.65761493" />
                <line x1="-23171.97772024" y1="-5295.65761493" x2="-23174.92000972" y2="-5295.65761493" />
                <line x1="-23171.97772024" y1="-5296.06390941" x2="-23174.92000972" y2="-5296.06390941" />
                <line x1="-23171.97772024" y1="-5295.65761493" x2="-23171.97772024" y2="-5296.06390941" />
                <line x1="-23174.92000972" y1="-5296.06390941" x2="-23174.92000972" y2="-5295.65761493" />
                <line x1="-23174.92000972" y1="-5272.66390941" x2="-23174.92000972" y2="-5272.25761493" />
                <line x1="-23171.97772024" y1="-5272.25761493" x2="-23171.97772024" y2="-5272.66390941" />
                <line x1="-23171.97772024" y1="-5272.66390941" x2="-23174.92000972" y2="-5272.66390941" />
                <line x1="-23171.97772024" y1="-5272.25761493" x2="-23174.92000972" y2="-5272.25761493" />
                <circle cx="-23173.44886498" cy="-5295.86076217" r="1.82453966" />
                <circle cx="-23173.44886498" cy="-5272.46076217" r="1.82453966" />
                <line x1="-23178.77340465" y1="-5277.26390941" x2="-23168.27340465" y2="-5277.26390941" />
                <line x1="-23178.77340465" y1="-5291.46390941" x2="-23168.27340465" y2="-5291.46390941" />
                <line x1="-23178.77340465" y1="-5300.66390941" x2="-23168.27340465" y2="-5300.66390941" />
                <line x1="-23178.77340465" y1="-5268.06390941" x2="-23168.27340465" y2="-5268.06390941" />
                <line x1="-23115.77340465" y1="-5258.86390941" x2="-23126.27340465" y2="-5258.86390941" />
                <line x1="-23126.27340465" y1="-5258.86390941" x2="-23126.27340465" y2="-5309.86390941" />
                <line x1="-23126.27340465" y1="-5309.86390941" x2="-23115.77340465" y2="-5309.86390941" />
                <line x1="-23115.77340465" y1="-5309.86390941" x2="-23115.77340465" y2="-5258.86390941" />
                <line x1="-23126.27340465" y1="-5258.86390941" x2="-23136.77340465" y2="-5258.86390941" />
                <line x1="-23136.77340465" y1="-5258.86390941" x2="-23136.77340465" y2="-5309.86390941" />
                <line x1="-23136.77340465" y1="-5309.86390941" x2="-23126.27340465" y2="-5309.86390941" />
                <line x1="-23126.27340465" y1="-5309.86390941" x2="-23126.27340465" y2="-5258.86390941" />
                <line x1="-23136.77340465" y1="-5258.86390941" x2="-23147.27340465" y2="-5258.86390941" />
                <line x1="-23147.27340465" y1="-5258.86390941" x2="-23147.27340465" y2="-5309.86390941" />
                <line x1="-23147.27340465" y1="-5309.86390941" x2="-23136.77340465" y2="-5309.86390941" />
                <line x1="-23136.77340465" y1="-5309.86390941" x2="-23136.77340465" y2="-5258.86390941" />
                <line x1="-23126.27340465" y1="-5268.06390941" x2="-23115.77340465" y2="-5268.06390941" />
                <line x1="-23126.27340465" y1="-5300.66390941" x2="-23115.77340465" y2="-5300.66390941" />
                <line x1="-23126.27340465" y1="-5291.46390941" x2="-23115.77340465" y2="-5291.46390941" />
                <line x1="-23126.27340465" y1="-5277.26390941" x2="-23115.77340465" y2="-5277.26390941" />
                <circle cx="-23120.94886498" cy="-5272.46076217" r="1.82453966" />
                <circle cx="-23120.94886498" cy="-5295.86076217" r="1.82453966" />
                <line x1="-23119.47772024" y1="-5272.25761493" x2="-23122.42000972" y2="-5272.25761493" />
                <line x1="-23119.47772024" y1="-5272.66390941" x2="-23122.42000972" y2="-5272.66390941" />
                <line x1="-23119.47772024" y1="-5272.25761493" x2="-23119.47772024" y2="-5272.66390941" />
                <line x1="-23122.42000972" y1="-5272.66390941" x2="-23122.42000972" y2="-5272.25761493" />
                <line x1="-23122.42000972" y1="-5296.06390941" x2="-23122.42000972" y2="-5295.65761493" />
                <line x1="-23119.47772024" y1="-5295.65761493" x2="-23119.47772024" y2="-5296.06390941" />
                <line x1="-23119.47772024" y1="-5296.06390941" x2="-23122.42000972" y2="-5296.06390941" />
                <line x1="-23119.47772024" y1="-5295.65761493" x2="-23122.42000972" y2="-5295.65761493" />
                <line x1="-23136.77340465" y1="-5268.06390941" x2="-23126.27340465" y2="-5268.06390941" />
                <line x1="-23136.77340465" y1="-5300.66390941" x2="-23126.27340465" y2="-5300.66390941" />
                <line x1="-23136.77340465" y1="-5291.46390941" x2="-23126.27340465" y2="-5291.46390941" />
                <line x1="-23136.77340465" y1="-5277.26390941" x2="-23126.27340465" y2="-5277.26390941" />
                <circle cx="-23131.44886498" cy="-5272.46076217" r="1.82453966" />
                <circle cx="-23131.44886498" cy="-5295.86076217" r="1.82453966" />
                <line x1="-23129.97772024" y1="-5272.25761493" x2="-23132.92000972" y2="-5272.25761493" />
                <line x1="-23129.97772024" y1="-5272.66390941" x2="-23132.92000972" y2="-5272.66390941" />
                <line x1="-23129.97772024" y1="-5272.25761493" x2="-23129.97772024" y2="-5272.66390941" />
                <line x1="-23132.92000972" y1="-5272.66390941" x2="-23132.92000972" y2="-5272.25761493" />
                <line x1="-23132.92000972" y1="-5296.06390941" x2="-23132.92000972" y2="-5295.65761493" />
                <line x1="-23129.97772024" y1="-5295.65761493" x2="-23129.97772024" y2="-5296.06390941" />
                <line x1="-23129.97772024" y1="-5296.06390941" x2="-23132.92000972" y2="-5296.06390941" />
                <line x1="-23129.97772024" y1="-5295.65761493" x2="-23132.92000972" y2="-5295.65761493" />
                <line x1="-23140.47772024" y1="-5295.65761493" x2="-23143.42000972" y2="-5295.65761493" />
                <line x1="-23140.47772024" y1="-5296.06390941" x2="-23143.42000972" y2="-5296.06390941" />
                <line x1="-23140.47772024" y1="-5295.65761493" x2="-23140.47772024" y2="-5296.06390941" />
                <line x1="-23143.42000972" y1="-5296.06390941" x2="-23143.42000972" y2="-5295.65761493" />
                <line x1="-23143.42000972" y1="-5272.66390941" x2="-23143.42000972" y2="-5272.25761493" />
                <line x1="-23140.47772024" y1="-5272.25761493" x2="-23140.47772024" y2="-5272.66390941" />
                <line x1="-23140.47772024" y1="-5272.66390941" x2="-23143.42000972" y2="-5272.66390941" />
                <line x1="-23140.47772024" y1="-5272.25761493" x2="-23143.42000972" y2="-5272.25761493" />
                <circle cx="-23141.94886498" cy="-5295.86076217" r="1.82453966" />
                <circle cx="-23141.94886498" cy="-5272.46076217" r="1.82453966" />
                <line x1="-23147.27340465" y1="-5277.26390941" x2="-23136.77340465" y2="-5277.26390941" />
                <line x1="-23147.27340465" y1="-5291.46390941" x2="-23136.77340465" y2="-5291.46390941" />
                <line x1="-23147.27340465" y1="-5300.66390941" x2="-23136.77340465" y2="-5300.66390941" />
                <line x1="-23147.27340465" y1="-5268.06390941" x2="-23136.77340465" y2="-5268.06390941" />
                <line x1="-23084.27340465" y1="-5258.86390941" x2="-23094.77340465" y2="-5258.86390941" />
                <line x1="-23094.77340465" y1="-5258.86390941" x2="-23094.77340465" y2="-5309.86390941" />
                <line x1="-23094.77340465" y1="-5309.86390941" x2="-23084.27340465" y2="-5309.86390941" />
                <line x1="-23084.27340465" y1="-5309.86390941" x2="-23084.27340465" y2="-5258.86390941" />
                <line x1="-23094.77340465" y1="-5258.86390941" x2="-23105.27340465" y2="-5258.86390941" />
                <line x1="-23105.27340465" y1="-5258.86390941" x2="-23105.27340465" y2="-5309.86390941" />
                <line x1="-23105.27340465" y1="-5309.86390941" x2="-23094.77340465" y2="-5309.86390941" />
                <line x1="-23094.77340465" y1="-5309.86390941" x2="-23094.77340465" y2="-5258.86390941" />
                <line x1="-23105.27340465" y1="-5258.86390941" x2="-23115.77340465" y2="-5258.86390941" />
                <line x1="-23115.77340465" y1="-5258.86390941" x2="-23115.77340465" y2="-5309.86390941" />
                <line x1="-23115.77340465" y1="-5309.86390941" x2="-23105.27340465" y2="-5309.86390941" />
                <line x1="-23105.27340465" y1="-5309.86390941" x2="-23105.27340465" y2="-5258.86390941" />
                <line x1="-23094.77340465" y1="-5268.06390941" x2="-23084.27340465" y2="-5268.06390941" />
                <line x1="-23094.77340465" y1="-5300.66390941" x2="-23084.27340465" y2="-5300.66390941" />
                <line x1="-23094.77340465" y1="-5291.46390941" x2="-23084.27340465" y2="-5291.46390941" />
                <line x1="-23094.77340465" y1="-5277.26390941" x2="-23084.27340465" y2="-5277.26390941" />
                <circle cx="-23089.44886498" cy="-5272.46076217" r="1.82453966" />
                <circle cx="-23089.44886498" cy="-5295.86076217" r="1.82453966" />
                <line x1="-23087.97772024" y1="-5272.25761493" x2="-23090.92000972" y2="-5272.25761493" />
                <line x1="-23087.97772024" y1="-5272.66390941" x2="-23090.92000972" y2="-5272.66390941" />
                <line x1="-23087.97772024" y1="-5272.25761493" x2="-23087.97772024" y2="-5272.66390941" />
                <line x1="-23090.92000972" y1="-5272.66390941" x2="-23090.92000972" y2="-5272.25761493" />
                <line x1="-23090.92000972" y1="-5296.06390941" x2="-23090.92000972" y2="-5295.65761493" />
                <line x1="-23087.97772024" y1="-5295.65761493" x2="-23087.97772024" y2="-5296.06390941" />
                <line x1="-23087.97772024" y1="-5296.06390941" x2="-23090.92000972" y2="-5296.06390941" />
                <line x1="-23087.97772024" y1="-5295.65761493" x2="-23090.92000972" y2="-5295.65761493" />
                <line x1="-23105.27340465" y1="-5268.06390941" x2="-23094.77340465" y2="-5268.06390941" />
                <line x1="-23105.27340465" y1="-5300.66390941" x2="-23094.77340465" y2="-5300.66390941" />
                <line x1="-23105.27340465" y1="-5291.46390941" x2="-23094.77340465" y2="-5291.46390941" />
                <line x1="-23105.27340465" y1="-5277.26390941" x2="-23094.77340465" y2="-5277.26390941" />
                <circle cx="-23099.94886498" cy="-5272.46076217" r="1.82453966" />
                <circle cx="-23099.94886498" cy="-5295.86076217" r="1.82453966" />
                <line x1="-23098.47772024" y1="-5272.25761493" x2="-23101.42000972" y2="-5272.25761493" />
                <line x1="-23098.47772024" y1="-5272.66390941" x2="-23101.42000972" y2="-5272.66390941" />
                <line x1="-23098.47772024" y1="-5272.25761493" x2="-23098.47772024" y2="-5272.66390941" />
                <line x1="-23101.42000972" y1="-5272.66390941" x2="-23101.42000972" y2="-5272.25761493" />
                <line x1="-23101.42000972" y1="-5296.06390941" x2="-23101.42000972" y2="-5295.65761493" />
                <line x1="-23098.47772024" y1="-5295.65761493" x2="-23098.47772024" y2="-5296.06390941" />
                <line x1="-23098.47772024" y1="-5296.06390941" x2="-23101.42000972" y2="-5296.06390941" />
                <line x1="-23098.47772024" y1="-5295.65761493" x2="-23101.42000972" y2="-5295.65761493" />
                <line x1="-23108.97772024" y1="-5295.65761493" x2="-23111.92000972" y2="-5295.65761493" />
                <line x1="-23108.97772024" y1="-5296.06390941" x2="-23111.92000972" y2="-5296.06390941" />
                <line x1="-23108.97772024" y1="-5295.65761493" x2="-23108.97772024" y2="-5296.06390941" />
                <line x1="-23111.92000972" y1="-5296.06390941" x2="-23111.92000972" y2="-5295.65761493" />
                <line x1="-23111.92000972" y1="-5272.66390941" x2="-23111.92000972" y2="-5272.25761493" />
                <line x1="-23108.97772024" y1="-5272.25761493" x2="-23108.97772024" y2="-5272.66390941" />
                <line x1="-23108.97772024" y1="-5272.66390941" x2="-23111.92000972" y2="-5272.66390941" />
                <line x1="-23108.97772024" y1="-5272.25761493" x2="-23111.92000972" y2="-5272.25761493" />
                <circle cx="-23110.44886498" cy="-5295.86076217" r="1.82453966" />
                <circle cx="-23110.44886498" cy="-5272.46076217" r="1.82453966" />
                <line x1="-23115.77340465" y1="-5277.26390941" x2="-23105.27340465" y2="-5277.26390941" />
                <line x1="-23115.77340465" y1="-5291.46390941" x2="-23105.27340465" y2="-5291.46390941" />
                <line x1="-23115.77340465" y1="-5300.66390941" x2="-23105.27340465" y2="-5300.66390941" />
                <line x1="-23115.77340465" y1="-5268.06390941" x2="-23105.27340465" y2="-5268.06390941" />
                <line x1="-23052.77340465" y1="-5258.86390941" x2="-23063.27340465" y2="-5258.86390941" />
                <line x1="-23063.27340465" y1="-5258.86390941" x2="-23063.27340465" y2="-5309.86390941" />
                <line x1="-23063.27340465" y1="-5309.86390941" x2="-23052.77340465" y2="-5309.86390941" />
                <line x1="-23052.77340465" y1="-5309.86390941" x2="-23052.77340465" y2="-5258.86390941" />
                <line x1="-23063.27340465" y1="-5258.86390941" x2="-23073.77340465" y2="-5258.86390941" />
                <line x1="-23073.77340465" y1="-5258.86390941" x2="-23073.77340465" y2="-5309.86390941" />
                <line x1="-23073.77340465" y1="-5309.86390941" x2="-23063.27340465" y2="-5309.86390941" />
                <line x1="-23063.27340465" y1="-5309.86390941" x2="-23063.27340465" y2="-5258.86390941" />
                <line x1="-23073.77340465" y1="-5258.86390941" x2="-23084.27340465" y2="-5258.86390941" />
                <line x1="-23084.27340465" y1="-5258.86390941" x2="-23084.27340465" y2="-5309.86390941" />
                <line x1="-23084.27340465" y1="-5309.86390941" x2="-23073.77340465" y2="-5309.86390941" />
                <line x1="-23073.77340465" y1="-5309.86390941" x2="-23073.77340465" y2="-5258.86390941" />
                <line x1="-23063.27340465" y1="-5268.06390941" x2="-23052.77340465" y2="-5268.06390941" />
                <line x1="-23063.27340465" y1="-5300.66390941" x2="-23052.77340465" y2="-5300.66390941" />
                <line x1="-23063.27340465" y1="-5291.46390941" x2="-23052.77340465" y2="-5291.46390941" />
                <line x1="-23063.27340465" y1="-5277.26390941" x2="-23052.77340465" y2="-5277.26390941" />
                <circle cx="-23057.94886498" cy="-5272.46076217" r="1.82453966" />
                <circle cx="-23057.94886498" cy="-5295.86076217" r="1.82453966" />
                <line x1="-23056.47772024" y1="-5272.25761493" x2="-23059.42000972" y2="-5272.25761493" />
                <line x1="-23056.47772024" y1="-5272.66390941" x2="-23059.42000972" y2="-5272.66390941" />
                <line x1="-23056.47772024" y1="-5272.25761493" x2="-23056.47772024" y2="-5272.66390941" />
                <line x1="-23059.42000972" y1="-5272.66390941" x2="-23059.42000972" y2="-5272.25761493" />
                <line x1="-23059.42000972" y1="-5296.06390941" x2="-23059.42000972" y2="-5295.65761493" />
                <line x1="-23056.47772024" y1="-5295.65761493" x2="-23056.47772024" y2="-5296.06390941" />
                <line x1="-23056.47772024" y1="-5296.06390941" x2="-23059.42000972" y2="-5296.06390941" />
                <line x1="-23056.47772024" y1="-5295.65761493" x2="-23059.42000972" y2="-5295.65761493" />
                <line x1="-23073.77340465" y1="-5268.06390941" x2="-23063.27340465" y2="-5268.06390941" />
                <line x1="-23073.77340465" y1="-5300.66390941" x2="-23063.27340465" y2="-5300.66390941" />
                <line x1="-23073.77340465" y1="-5291.46390941" x2="-23063.27340465" y2="-5291.46390941" />
                <line x1="-23073.77340465" y1="-5277.26390941" x2="-23063.27340465" y2="-5277.26390941" />
                <circle cx="-23068.44886498" cy="-5272.46076217" r="1.82453966" />
                <circle cx="-23068.44886498" cy="-5295.86076217" r="1.82453966" />
                <line x1="-23066.97772024" y1="-5272.25761493" x2="-23069.92000972" y2="-5272.25761493" />
                <line x1="-23066.97772024" y1="-5272.66390941" x2="-23069.92000972" y2="-5272.66390941" />
                <line x1="-23066.97772024" y1="-5272.25761493" x2="-23066.97772024" y2="-5272.66390941" />
                <line x1="-23069.92000972" y1="-5272.66390941" x2="-23069.92000972" y2="-5272.25761493" />
                <line x1="-23069.92000972" y1="-5296.06390941" x2="-23069.92000972" y2="-5295.65761493" />
                <line x1="-23066.97772024" y1="-5295.65761493" x2="-23066.97772024" y2="-5296.06390941" />
                <line x1="-23066.97772024" y1="-5296.06390941" x2="-23069.92000972" y2="-5296.06390941" />
                <line x1="-23066.97772024" y1="-5295.65761493" x2="-23069.92000972" y2="-5295.65761493" />
                <line x1="-23077.47772024" y1="-5295.65761493" x2="-23080.42000972" y2="-5295.65761493" />
                <line x1="-23077.47772024" y1="-5296.06390941" x2="-23080.42000972" y2="-5296.06390941" />
                <line x1="-23077.47772024" y1="-5295.65761493" x2="-23077.47772024" y2="-5296.06390941" />
                <line x1="-23080.42000972" y1="-5296.06390941" x2="-23080.42000972" y2="-5295.65761493" />
                <line x1="-23080.42000972" y1="-5272.66390941" x2="-23080.42000972" y2="-5272.25761493" />
                <line x1="-23077.47772024" y1="-5272.25761493" x2="-23077.47772024" y2="-5272.66390941" />
                <line x1="-23077.47772024" y1="-5272.66390941" x2="-23080.42000972" y2="-5272.66390941" />
                <line x1="-23077.47772024" y1="-5272.25761493" x2="-23080.42000972" y2="-5272.25761493" />
                <circle cx="-23078.94886498" cy="-5295.86076217" r="1.82453966" />
                <circle cx="-23078.94886498" cy="-5272.46076217" r="1.82453966" />
                <line x1="-23084.27340465" y1="-5277.26390941" x2="-23073.77340465" y2="-5277.26390941" />
                <line x1="-23084.27340465" y1="-5291.46390941" x2="-23073.77340465" y2="-5291.46390941" />
                <line x1="-23084.27340465" y1="-5300.66390941" x2="-23073.77340465" y2="-5300.66390941" />
                <line x1="-23084.27340465" y1="-5268.06390941" x2="-23073.77340465" y2="-5268.06390941" />
                <line x1="-23021.27340465" y1="-5258.86390941" x2="-23031.77340465" y2="-5258.86390941" />
                <line x1="-23031.77340465" y1="-5258.86390941" x2="-23031.77340465" y2="-5309.86390941" />
                <line x1="-23031.77340465" y1="-5309.86390941" x2="-23021.27340465" y2="-5309.86390941" />
                <line x1="-23021.27340465" y1="-5309.86390941" x2="-23021.27340465" y2="-5258.86390941" />
                <line x1="-23031.77340465" y1="-5258.86390941" x2="-23042.27340465" y2="-5258.86390941" />
                <line x1="-23042.27340465" y1="-5258.86390941" x2="-23042.27340465" y2="-5309.86390941" />
                <line x1="-23042.27340465" y1="-5309.86390941" x2="-23031.77340465" y2="-5309.86390941" />
                <line x1="-23031.77340465" y1="-5309.86390941" x2="-23031.77340465" y2="-5258.86390941" />
                <line x1="-23042.27340465" y1="-5258.86390941" x2="-23052.77340465" y2="-5258.86390941" />
                <line x1="-23052.77340465" y1="-5258.86390941" x2="-23052.77340465" y2="-5309.86390941" />
                <line x1="-23052.77340465" y1="-5309.86390941" x2="-23042.27340465" y2="-5309.86390941" />
                <line x1="-23042.27340465" y1="-5309.86390941" x2="-23042.27340465" y2="-5258.86390941" />
                <line x1="-23031.77340465" y1="-5268.06390941" x2="-23021.27340465" y2="-5268.06390941" />
                <line x1="-23031.77340465" y1="-5300.66390941" x2="-23021.27340465" y2="-5300.66390941" />
                <line x1="-23031.77340465" y1="-5291.46390941" x2="-23021.27340465" y2="-5291.46390941" />
                <line x1="-23031.77340465" y1="-5277.26390941" x2="-23021.27340465" y2="-5277.26390941" />
                <circle cx="-23026.44886498" cy="-5272.46076217" r="1.82453966" />
                <circle cx="-23026.44886498" cy="-5295.86076217" r="1.82453966" />
                <line x1="-23024.97772024" y1="-5272.25761493" x2="-23027.92000972" y2="-5272.25761493" />
                <line x1="-23024.97772024" y1="-5272.66390941" x2="-23027.92000972" y2="-5272.66390941" />
                <line x1="-23024.97772024" y1="-5272.25761493" x2="-23024.97772024" y2="-5272.66390941" />
                <line x1="-23027.92000972" y1="-5272.66390941" x2="-23027.92000972" y2="-5272.25761493" />
                <line x1="-23027.92000972" y1="-5296.06390941" x2="-23027.92000972" y2="-5295.65761493" />
                <line x1="-23024.97772024" y1="-5295.65761493" x2="-23024.97772024" y2="-5296.06390941" />
                <line x1="-23024.97772024" y1="-5296.06390941" x2="-23027.92000972" y2="-5296.06390941" />
                <line x1="-23024.97772024" y1="-5295.65761493" x2="-23027.92000972" y2="-5295.65761493" />
                <line x1="-23042.27340465" y1="-5268.06390941" x2="-23031.77340465" y2="-5268.06390941" />
                <line x1="-23042.27340465" y1="-5300.66390941" x2="-23031.77340465" y2="-5300.66390941" />
                <line x1="-23042.27340465" y1="-5291.46390941" x2="-23031.77340465" y2="-5291.46390941" />
                <line x1="-23042.27340465" y1="-5277.26390941" x2="-23031.77340465" y2="-5277.26390941" />
                <circle cx="-23036.94886498" cy="-5272.46076217" r="1.82453966" />
                <circle cx="-23036.94886498" cy="-5295.86076217" r="1.82453966" />
                <line x1="-23035.47772024" y1="-5272.25761493" x2="-23038.42000972" y2="-5272.25761493" />
                <line x1="-23035.47772024" y1="-5272.66390941" x2="-23038.42000972" y2="-5272.66390941" />
                <line x1="-23035.47772024" y1="-5272.25761493" x2="-23035.47772024" y2="-5272.66390941" />
                <line x1="-23038.42000972" y1="-5272.66390941" x2="-23038.42000972" y2="-5272.25761493" />
                <line x1="-23038.42000972" y1="-5296.06390941" x2="-23038.42000972" y2="-5295.65761493" />
                <line x1="-23035.47772024" y1="-5295.65761493" x2="-23035.47772024" y2="-5296.06390941" />
                <line x1="-23035.47772024" y1="-5296.06390941" x2="-23038.42000972" y2="-5296.06390941" />
                <line x1="-23035.47772024" y1="-5295.65761493" x2="-23038.42000972" y2="-5295.65761493" />
                <line x1="-23045.97772024" y1="-5295.65761493" x2="-23048.92000972" y2="-5295.65761493" />
                <line x1="-23045.97772024" y1="-5296.06390941" x2="-23048.92000972" y2="-5296.06390941" />
                <line x1="-23045.97772024" y1="-5295.65761493" x2="-23045.97772024" y2="-5296.06390941" />
                <line x1="-23048.92000972" y1="-5296.06390941" x2="-23048.92000972" y2="-5295.65761493" />
                <line x1="-23048.92000972" y1="-5272.66390941" x2="-23048.92000972" y2="-5272.25761493" />
                <line x1="-23045.97772024" y1="-5272.25761493" x2="-23045.97772024" y2="-5272.66390941" />
                <line x1="-23045.97772024" y1="-5272.66390941" x2="-23048.92000972" y2="-5272.66390941" />
                <line x1="-23045.97772024" y1="-5272.25761493" x2="-23048.92000972" y2="-5272.25761493" />
                <circle cx="-23047.44886498" cy="-5295.86076217" r="1.82453966" />
                <circle cx="-23047.44886498" cy="-5272.46076217" r="1.82453966" />
                <line x1="-23052.77340465" y1="-5277.26390941" x2="-23042.27340465" y2="-5277.26390941" />
                <line x1="-23052.77340465" y1="-5291.46390941" x2="-23042.27340465" y2="-5291.46390941" />
                <line x1="-23052.77340465" y1="-5300.66390941" x2="-23042.27340465" y2="-5300.66390941" />
                <line x1="-23052.77340465" y1="-5268.06390941" x2="-23042.27340465" y2="-5268.06390941" />
                <line x1="-22989.77340465" y1="-5258.86390941" x2="-23000.27340465" y2="-5258.86390941" />
                <line x1="-23000.27340465" y1="-5258.86390941" x2="-23000.27340465" y2="-5309.86390941" />
                <line x1="-23000.27340465" y1="-5309.86390941" x2="-22989.77340465" y2="-5309.86390941" />
                <line x1="-22989.77340465" y1="-5309.86390941" x2="-22989.77340465" y2="-5258.86390941" />
                <line x1="-23000.27340465" y1="-5258.86390941" x2="-23010.77340465" y2="-5258.86390941" />
                <line x1="-23010.77340465" y1="-5258.86390941" x2="-23010.77340465" y2="-5309.86390941" />
                <line x1="-23010.77340465" y1="-5309.86390941" x2="-23000.27340465" y2="-5309.86390941" />
                <line x1="-23000.27340465" y1="-5309.86390941" x2="-23000.27340465" y2="-5258.86390941" />
                <line x1="-23010.77340465" y1="-5258.86390941" x2="-23021.27340465" y2="-5258.86390941" />
                <line x1="-23021.27340465" y1="-5258.86390941" x2="-23021.27340465" y2="-5309.86390941" />
                <line x1="-23021.27340465" y1="-5309.86390941" x2="-23010.77340465" y2="-5309.86390941" />
                <line x1="-23010.77340465" y1="-5309.86390941" x2="-23010.77340465" y2="-5258.86390941" />
                <line x1="-23000.27340465" y1="-5268.06390941" x2="-22989.77340465" y2="-5268.06390941" />
                <line x1="-23000.27340465" y1="-5300.66390941" x2="-22989.77340465" y2="-5300.66390941" />
                <line x1="-23000.27340465" y1="-5291.46390941" x2="-22989.77340465" y2="-5291.46390941" />
                <line x1="-23000.27340465" y1="-5277.26390941" x2="-22989.77340465" y2="-5277.26390941" />
                <circle cx="-22994.94886498" cy="-5272.46076217" r="1.82453966" />
                <circle cx="-22994.94886498" cy="-5295.86076217" r="1.82453966" />
                <line x1="-22993.47772024" y1="-5272.25761493" x2="-22996.42000972" y2="-5272.25761493" />
                <line x1="-22993.47772024" y1="-5272.66390941" x2="-22996.42000972" y2="-5272.66390941" />
                <line x1="-22993.47772024" y1="-5272.25761493" x2="-22993.47772024" y2="-5272.66390941" />
                <line x1="-22996.42000972" y1="-5272.66390941" x2="-22996.42000972" y2="-5272.25761493" />
                <line x1="-22996.42000972" y1="-5296.06390941" x2="-22996.42000972" y2="-5295.65761493" />
                <line x1="-22993.47772024" y1="-5295.65761493" x2="-22993.47772024" y2="-5296.06390941" />
                <line x1="-22993.47772024" y1="-5296.06390941" x2="-22996.42000972" y2="-5296.06390941" />
                <line x1="-22993.47772024" y1="-5295.65761493" x2="-22996.42000972" y2="-5295.65761493" />
                <line x1="-23010.77340465" y1="-5268.06390941" x2="-23000.27340465" y2="-5268.06390941" />
                <line x1="-23010.77340465" y1="-5300.66390941" x2="-23000.27340465" y2="-5300.66390941" />
                <line x1="-23010.77340465" y1="-5291.46390941" x2="-23000.27340465" y2="-5291.46390941" />
                <line x1="-23010.77340465" y1="-5277.26390941" x2="-23000.27340465" y2="-5277.26390941" />
                <circle cx="-23005.44886498" cy="-5272.46076217" r="1.82453966" />
                <circle cx="-23005.44886498" cy="-5295.86076217" r="1.82453966" />
                <line x1="-23003.97772024" y1="-5272.25761493" x2="-23006.92000972" y2="-5272.25761493" />
                <line x1="-23003.97772024" y1="-5272.66390941" x2="-23006.92000972" y2="-5272.66390941" />
                <line x1="-23003.97772024" y1="-5272.25761493" x2="-23003.97772024" y2="-5272.66390941" />
                <line x1="-23006.92000972" y1="-5272.66390941" x2="-23006.92000972" y2="-5272.25761493" />
                <line x1="-23006.92000972" y1="-5296.06390941" x2="-23006.92000972" y2="-5295.65761493" />
                <line x1="-23003.97772024" y1="-5295.65761493" x2="-23003.97772024" y2="-5296.06390941" />
                <line x1="-23003.97772024" y1="-5296.06390941" x2="-23006.92000972" y2="-5296.06390941" />
                <line x1="-23003.97772024" y1="-5295.65761493" x2="-23006.92000972" y2="-5295.65761493" />
                <line x1="-23014.47772024" y1="-5295.65761493" x2="-23017.42000972" y2="-5295.65761493" />
                <line x1="-23014.47772024" y1="-5296.06390941" x2="-23017.42000972" y2="-5296.06390941" />
                <line x1="-23014.47772024" y1="-5295.65761493" x2="-23014.47772024" y2="-5296.06390941" />
                <line x1="-23017.42000972" y1="-5296.06390941" x2="-23017.42000972" y2="-5295.65761493" />
                <line x1="-23017.42000972" y1="-5272.66390941" x2="-23017.42000972" y2="-5272.25761493" />
                <line x1="-23014.47772024" y1="-5272.25761493" x2="-23014.47772024" y2="-5272.66390941" />
                <line x1="-23014.47772024" y1="-5272.66390941" x2="-23017.42000972" y2="-5272.66390941" />
                <line x1="-23014.47772024" y1="-5272.25761493" x2="-23017.42000972" y2="-5272.25761493" />
                <circle cx="-23015.94886498" cy="-5295.86076217" r="1.82453966" />
                <circle cx="-23015.94886498" cy="-5272.46076217" r="1.82453966" />
                <line x1="-23021.27340465" y1="-5277.26390941" x2="-23010.77340465" y2="-5277.26390941" />
                <line x1="-23021.27340465" y1="-5291.46390941" x2="-23010.77340465" y2="-5291.46390941" />
                <line x1="-23021.27340465" y1="-5300.66390941" x2="-23010.77340465" y2="-5300.66390941" />
                <line x1="-23021.27340465" y1="-5268.06390941" x2="-23010.77340465" y2="-5268.06390941" />
                <line x1="-22958.27340465" y1="-5258.86390941" x2="-22968.77340465" y2="-5258.86390941" />
                <line x1="-22968.77340465" y1="-5258.86390941" x2="-22968.77340465" y2="-5309.86390941" />
                <line x1="-22968.77340465" y1="-5309.86390941" x2="-22958.27340465" y2="-5309.86390941" />
                <line x1="-22958.27340465" y1="-5309.86390941" x2="-22958.27340465" y2="-5258.86390941" />
                <line x1="-22968.77340465" y1="-5258.86390941" x2="-22979.27340465" y2="-5258.86390941" />
                <line x1="-22979.27340465" y1="-5258.86390941" x2="-22979.27340465" y2="-5309.86390941" />
                <line x1="-22979.27340465" y1="-5309.86390941" x2="-22968.77340465" y2="-5309.86390941" />
                <line x1="-22968.77340465" y1="-5309.86390941" x2="-22968.77340465" y2="-5258.86390941" />
                <line x1="-22979.27340465" y1="-5258.86390941" x2="-22989.77340465" y2="-5258.86390941" />
                <line x1="-22989.77340465" y1="-5258.86390941" x2="-22989.77340465" y2="-5309.86390941" />
                <line x1="-22989.77340465" y1="-5309.86390941" x2="-22979.27340465" y2="-5309.86390941" />
                <line x1="-22979.27340465" y1="-5309.86390941" x2="-22979.27340465" y2="-5258.86390941" />
                <line x1="-22968.77340465" y1="-5268.06390941" x2="-22958.27340465" y2="-5268.06390941" />
                <line x1="-22968.77340465" y1="-5300.66390941" x2="-22958.27340465" y2="-5300.66390941" />
                <line x1="-22968.77340465" y1="-5291.46390941" x2="-22958.27340465" y2="-5291.46390941" />
                <line x1="-22968.77340465" y1="-5277.26390941" x2="-22958.27340465" y2="-5277.26390941" />
                <circle cx="-22963.44886498" cy="-5272.46076217" r="1.82453966" />
                <circle cx="-22963.44886498" cy="-5295.86076217" r="1.82453966" />
                <line x1="-22961.97772024" y1="-5272.25761493" x2="-22964.92000972" y2="-5272.25761493" />
                <line x1="-22961.97772024" y1="-5272.66390941" x2="-22964.92000972" y2="-5272.66390941" />
                <line x1="-22961.97772024" y1="-5272.25761493" x2="-22961.97772024" y2="-5272.66390941" />
                <line x1="-22964.92000972" y1="-5272.66390941" x2="-22964.92000972" y2="-5272.25761493" />
                <line x1="-22964.92000972" y1="-5296.06390941" x2="-22964.92000972" y2="-5295.65761493" />
                <line x1="-22961.97772024" y1="-5295.65761493" x2="-22961.97772024" y2="-5296.06390941" />
                <line x1="-22961.97772024" y1="-5296.06390941" x2="-22964.92000972" y2="-5296.06390941" />
                <line x1="-22961.97772024" y1="-5295.65761493" x2="-22964.92000972" y2="-5295.65761493" />
                <line x1="-22979.27340465" y1="-5268.06390941" x2="-22968.77340465" y2="-5268.06390941" />
                <line x1="-22979.27340465" y1="-5300.66390941" x2="-22968.77340465" y2="-5300.66390941" />
                <line x1="-22979.27340465" y1="-5291.46390941" x2="-22968.77340465" y2="-5291.46390941" />
                <line x1="-22979.27340465" y1="-5277.26390941" x2="-22968.77340465" y2="-5277.26390941" />
                <circle cx="-22973.94886498" cy="-5272.46076217" r="1.82453966" />
                <circle cx="-22973.94886498" cy="-5295.86076217" r="1.82453966" />
                <line x1="-22972.47772024" y1="-5272.25761493" x2="-22975.42000972" y2="-5272.25761493" />
                <line x1="-22972.47772024" y1="-5272.66390941" x2="-22975.42000972" y2="-5272.66390941" />
                <line x1="-22972.47772024" y1="-5272.25761493" x2="-22972.47772024" y2="-5272.66390941" />
                <line x1="-22975.42000972" y1="-5272.66390941" x2="-22975.42000972" y2="-5272.25761493" />
                <line x1="-22975.42000972" y1="-5296.06390941" x2="-22975.42000972" y2="-5295.65761493" />
                <line x1="-22972.47772024" y1="-5295.65761493" x2="-22972.47772024" y2="-5296.06390941" />
                <line x1="-22972.47772024" y1="-5296.06390941" x2="-22975.42000972" y2="-5296.06390941" />
                <line x1="-22972.47772024" y1="-5295.65761493" x2="-22975.42000972" y2="-5295.65761493" />
                <line x1="-22982.97772024" y1="-5295.65761493" x2="-22985.92000972" y2="-5295.65761493" />
                <line x1="-22982.97772024" y1="-5296.06390941" x2="-22985.92000972" y2="-5296.06390941" />
                <line x1="-22982.97772024" y1="-5295.65761493" x2="-22982.97772024" y2="-5296.06390941" />
                <line x1="-22985.92000972" y1="-5296.06390941" x2="-22985.92000972" y2="-5295.65761493" />
                <line x1="-22985.92000972" y1="-5272.66390941" x2="-22985.92000972" y2="-5272.25761493" />
                <line x1="-22982.97772024" y1="-5272.25761493" x2="-22982.97772024" y2="-5272.66390941" />
                <line x1="-22982.97772024" y1="-5272.66390941" x2="-22985.92000972" y2="-5272.66390941" />
                <line x1="-22982.97772024" y1="-5272.25761493" x2="-22985.92000972" y2="-5272.25761493" />
                <circle cx="-22984.44886498" cy="-5295.86076217" r="1.82453966" />
                <circle cx="-22984.44886498" cy="-5272.46076217" r="1.82453966" />
                <line x1="-22989.77340465" y1="-5277.26390941" x2="-22979.27340465" y2="-5277.26390941" />
                <line x1="-22989.77340465" y1="-5291.46390941" x2="-22979.27340465" y2="-5291.46390941" />
                <line x1="-22989.77340465" y1="-5300.66390941" x2="-22979.27340465" y2="-5300.66390941" />
                <line x1="-22989.77340465" y1="-5268.06390941" x2="-22979.27340465" y2="-5268.06390941" />
                <line x1="-22989.77340465" y1="-5258.86390941" x2="-23000.27340465" y2="-5258.86390941" />
                <line x1="-23000.27340465" y1="-5258.86390941" x2="-23000.27340465" y2="-5309.86390941" />
                <line x1="-23000.27340465" y1="-5309.86390941" x2="-22989.77340465" y2="-5309.86390941" />
                <line x1="-22989.77340465" y1="-5309.86390941" x2="-22989.77340465" y2="-5258.86390941" />
                <line x1="-23000.27340465" y1="-5268.06390941" x2="-22989.77340465" y2="-5268.06390941" />
                <line x1="-23000.27340465" y1="-5300.66390941" x2="-22989.77340465" y2="-5300.66390941" />
                <line x1="-23000.27340465" y1="-5291.46390941" x2="-22989.77340465" y2="-5291.46390941" />
                <line x1="-23000.27340465" y1="-5277.26390941" x2="-22989.77340465" y2="-5277.26390941" />
                <circle cx="-22994.94886498" cy="-5272.46076217" r="1.82453966" />
                <circle cx="-22994.94886498" cy="-5295.86076217" r="1.82453966" />
                <line x1="-22993.47772024" y1="-5272.25761493" x2="-22996.42000972" y2="-5272.25761493" />
                <line x1="-22993.47772024" y1="-5272.66390941" x2="-22996.42000972" y2="-5272.66390941" />
                <line x1="-22993.47772024" y1="-5272.25761493" x2="-22993.47772024" y2="-5272.66390941" />
                <line x1="-22996.42000972" y1="-5272.66390941" x2="-22996.42000972" y2="-5272.25761493" />
                <line x1="-22996.42000972" y1="-5296.06390941" x2="-22996.42000972" y2="-5295.65761493" />
                <line x1="-22993.47772024" y1="-5295.65761493" x2="-22993.47772024" y2="-5296.06390941" />
                <line x1="-22993.47772024" y1="-5296.06390941" x2="-22996.42000972" y2="-5296.06390941" />
                <line x1="-22993.47772024" y1="-5295.65761493" x2="-22996.42000972" y2="-5295.65761493" />
                <line x1="-22958.27340465" y1="-5258.86390941" x2="-22968.77340465" y2="-5258.86390941" />
                <line x1="-22968.77340465" y1="-5258.86390941" x2="-22968.77340465" y2="-5309.86390941" />
                <line x1="-22968.77340465" y1="-5309.86390941" x2="-22958.27340465" y2="-5309.86390941" />
                <line x1="-22958.27340465" y1="-5309.86390941" x2="-22958.27340465" y2="-5258.86390941" />
                <line x1="-22968.77340465" y1="-5258.86390941" x2="-22979.27340465" y2="-5258.86390941" />
                <line x1="-22979.27340465" y1="-5258.86390941" x2="-22979.27340465" y2="-5309.86390941" />
                <line x1="-22979.27340465" y1="-5309.86390941" x2="-22968.77340465" y2="-5309.86390941" />
                <line x1="-22968.77340465" y1="-5309.86390941" x2="-22968.77340465" y2="-5258.86390941" />
                <line x1="-22979.27340465" y1="-5258.86390941" x2="-22989.77340465" y2="-5258.86390941" />
                <line x1="-22989.77340465" y1="-5258.86390941" x2="-22989.77340465" y2="-5309.86390941" />
                <line x1="-22989.77340465" y1="-5309.86390941" x2="-22979.27340465" y2="-5309.86390941" />
                <line x1="-22979.27340465" y1="-5309.86390941" x2="-22979.27340465" y2="-5258.86390941" />
                <line x1="-22968.77340465" y1="-5268.06390941" x2="-22958.27340465" y2="-5268.06390941" />
                <line x1="-22968.77340465" y1="-5300.66390941" x2="-22958.27340465" y2="-5300.66390941" />
                <line x1="-22968.77340465" y1="-5291.46390941" x2="-22958.27340465" y2="-5291.46390941" />
                <line x1="-22968.77340465" y1="-5277.26390941" x2="-22958.27340465" y2="-5277.26390941" />
                <circle cx="-22963.44886498" cy="-5272.46076217" r="1.82453966" />
                <circle cx="-22963.44886498" cy="-5295.86076217" r="1.82453966" />
                <line x1="-22961.97772024" y1="-5272.25761493" x2="-22964.92000972" y2="-5272.25761493" />
                <line x1="-22961.97772024" y1="-5272.66390941" x2="-22964.92000972" y2="-5272.66390941" />
                <line x1="-22961.97772024" y1="-5272.25761493" x2="-22961.97772024" y2="-5272.66390941" />
                <line x1="-22964.92000972" y1="-5272.66390941" x2="-22964.92000972" y2="-5272.25761493" />
                <line x1="-22964.92000972" y1="-5296.06390941" x2="-22964.92000972" y2="-5295.65761493" />
                <line x1="-22961.97772024" y1="-5295.65761493" x2="-22961.97772024" y2="-5296.06390941" />
                <line x1="-22961.97772024" y1="-5296.06390941" x2="-22964.92000972" y2="-5296.06390941" />
                <line x1="-22961.97772024" y1="-5295.65761493" x2="-22964.92000972" y2="-5295.65761493" />
                <line x1="-22979.27340465" y1="-5268.06390941" x2="-22968.77340465" y2="-5268.06390941" />
                <line x1="-22979.27340465" y1="-5300.66390941" x2="-22968.77340465" y2="-5300.66390941" />
                <line x1="-22979.27340465" y1="-5291.46390941" x2="-22968.77340465" y2="-5291.46390941" />
                <line x1="-22979.27340465" y1="-5277.26390941" x2="-22968.77340465" y2="-5277.26390941" />
                <circle cx="-22973.94886498" cy="-5272.46076217" r="1.82453966" />
                <circle cx="-22973.94886498" cy="-5295.86076217" r="1.82453966" />
                <line x1="-22972.47772024" y1="-5272.25761493" x2="-22975.42000972" y2="-5272.25761493" />
                <line x1="-22972.47772024" y1="-5272.66390941" x2="-22975.42000972" y2="-5272.66390941" />
                <line x1="-22972.47772024" y1="-5272.25761493" x2="-22972.47772024" y2="-5272.66390941" />
                <line x1="-22975.42000972" y1="-5272.66390941" x2="-22975.42000972" y2="-5272.25761493" />
                <line x1="-22975.42000972" y1="-5296.06390941" x2="-22975.42000972" y2="-5295.65761493" />
                <line x1="-22972.47772024" y1="-5295.65761493" x2="-22972.47772024" y2="-5296.06390941" />
                <line x1="-22972.47772024" y1="-5296.06390941" x2="-22975.42000972" y2="-5296.06390941" />
                <line x1="-22972.47772024" y1="-5295.65761493" x2="-22975.42000972" y2="-5295.65761493" />
                <line x1="-22982.97772024" y1="-5295.65761493" x2="-22985.92000972" y2="-5295.65761493" />
                <line x1="-22982.97772024" y1="-5296.06390941" x2="-22985.92000972" y2="-5296.06390941" />
                <line x1="-22982.97772024" y1="-5295.65761493" x2="-22982.97772024" y2="-5296.06390941" />
                <line x1="-22985.92000972" y1="-5296.06390941" x2="-22985.92000972" y2="-5295.65761493" />
                <line x1="-22985.92000972" y1="-5272.66390941" x2="-22985.92000972" y2="-5272.25761493" />
                <line x1="-22982.97772024" y1="-5272.25761493" x2="-22982.97772024" y2="-5272.66390941" />
                <line x1="-22982.97772024" y1="-5272.66390941" x2="-22985.92000972" y2="-5272.66390941" />
                <line x1="-22982.97772024" y1="-5272.25761493" x2="-22985.92000972" y2="-5272.25761493" />
                <circle cx="-22984.44886498" cy="-5295.86076217" r="1.82453966" />
                <circle cx="-22984.44886498" cy="-5272.46076217" r="1.82453966" />
                <line x1="-22989.77340465" y1="-5277.26390941" x2="-22979.27340465" y2="-5277.26390941" />
                <line x1="-22989.77340465" y1="-5291.46390941" x2="-22979.27340465" y2="-5291.46390941" />
                <line x1="-22989.77340465" y1="-5300.66390941" x2="-22979.27340465" y2="-5300.66390941" />
                <line x1="-22989.77340465" y1="-5268.06390941" x2="-22979.27340465" y2="-5268.06390941" />
                <line x1="-22926.77340465" y1="-5258.86390941" x2="-22937.27340465" y2="-5258.86390941" />
                <line x1="-22937.27340465" y1="-5258.86390941" x2="-22937.27340465" y2="-5309.86390941" />
                <line x1="-22937.27340465" y1="-5309.86390941" x2="-22926.77340465" y2="-5309.86390941" />
                <line x1="-22926.77340465" y1="-5309.86390941" x2="-22926.77340465" y2="-5258.86390941" />
                <line x1="-22937.27340465" y1="-5258.86390941" x2="-22947.77340465" y2="-5258.86390941" />
                <line x1="-22947.77340465" y1="-5258.86390941" x2="-22947.77340465" y2="-5309.86390941" />
                <line x1="-22947.77340465" y1="-5309.86390941" x2="-22937.27340465" y2="-5309.86390941" />
                <line x1="-22937.27340465" y1="-5309.86390941" x2="-22937.27340465" y2="-5258.86390941" />
                <line x1="-22947.77340465" y1="-5258.86390941" x2="-22958.27340465" y2="-5258.86390941" />
                <line x1="-22958.27340465" y1="-5258.86390941" x2="-22958.27340465" y2="-5309.86390941" />
                <line x1="-22958.27340465" y1="-5309.86390941" x2="-22947.77340465" y2="-5309.86390941" />
                <line x1="-22947.77340465" y1="-5309.86390941" x2="-22947.77340465" y2="-5258.86390941" />
                <line x1="-22937.27340465" y1="-5268.06390941" x2="-22926.77340465" y2="-5268.06390941" />
                <line x1="-22937.27340465" y1="-5300.66390941" x2="-22926.77340465" y2="-5300.66390941" />
                <line x1="-22937.27340465" y1="-5291.46390941" x2="-22926.77340465" y2="-5291.46390941" />
                <line x1="-22937.27340465" y1="-5277.26390941" x2="-22926.77340465" y2="-5277.26390941" />
                <circle cx="-22931.94886498" cy="-5272.46076217" r="1.82453966" />
                <circle cx="-22931.94886498" cy="-5295.86076217" r="1.82453966" />
                <line x1="-22930.47772024" y1="-5272.25761493" x2="-22933.42000972" y2="-5272.25761493" />
                <line x1="-22930.47772024" y1="-5272.66390941" x2="-22933.42000972" y2="-5272.66390941" />
                <line x1="-22930.47772024" y1="-5272.25761493" x2="-22930.47772024" y2="-5272.66390941" />
                <line x1="-22933.42000972" y1="-5272.66390941" x2="-22933.42000972" y2="-5272.25761493" />
                <line x1="-22933.42000972" y1="-5296.06390941" x2="-22933.42000972" y2="-5295.65761493" />
                <line x1="-22930.47772024" y1="-5295.65761493" x2="-22930.47772024" y2="-5296.06390941" />
                <line x1="-22930.47772024" y1="-5296.06390941" x2="-22933.42000972" y2="-5296.06390941" />
                <line x1="-22930.47772024" y1="-5295.65761493" x2="-22933.42000972" y2="-5295.65761493" />
                <line x1="-22947.77340465" y1="-5268.06390941" x2="-22937.27340465" y2="-5268.06390941" />
                <line x1="-22947.77340465" y1="-5300.66390941" x2="-22937.27340465" y2="-5300.66390941" />
                <line x1="-22947.77340465" y1="-5291.46390941" x2="-22937.27340465" y2="-5291.46390941" />
                <line x1="-22947.77340465" y1="-5277.26390941" x2="-22937.27340465" y2="-5277.26390941" />
                <circle cx="-22942.44886498" cy="-5272.46076217" r="1.82453966" />
                <circle cx="-22942.44886498" cy="-5295.86076217" r="1.82453966" />
                <line x1="-22940.97772024" y1="-5272.25761493" x2="-22943.92000972" y2="-5272.25761493" />
                <line x1="-22940.97772024" y1="-5272.66390941" x2="-22943.92000972" y2="-5272.66390941" />
                <line x1="-22940.97772024" y1="-5272.25761493" x2="-22940.97772024" y2="-5272.66390941" />
                <line x1="-22943.92000972" y1="-5272.66390941" x2="-22943.92000972" y2="-5272.25761493" />
                <line x1="-22943.92000972" y1="-5296.06390941" x2="-22943.92000972" y2="-5295.65761493" />
                <line x1="-22940.97772024" y1="-5295.65761493" x2="-22940.97772024" y2="-5296.06390941" />
                <line x1="-22940.97772024" y1="-5296.06390941" x2="-22943.92000972" y2="-5296.06390941" />
                <line x1="-22940.97772024" y1="-5295.65761493" x2="-22943.92000972" y2="-5295.65761493" />
                <line x1="-22951.47772024" y1="-5295.65761493" x2="-22954.42000972" y2="-5295.65761493" />
                <line x1="-22951.47772024" y1="-5296.06390941" x2="-22954.42000972" y2="-5296.06390941" />
                <line x1="-22951.47772024" y1="-5295.65761493" x2="-22951.47772024" y2="-5296.06390941" />
                <line x1="-22954.42000972" y1="-5296.06390941" x2="-22954.42000972" y2="-5295.65761493" />
                <line x1="-22954.42000972" y1="-5272.66390941" x2="-22954.42000972" y2="-5272.25761493" />
                <line x1="-22951.47772024" y1="-5272.25761493" x2="-22951.47772024" y2="-5272.66390941" />
                <line x1="-22951.47772024" y1="-5272.66390941" x2="-22954.42000972" y2="-5272.66390941" />
                <line x1="-22951.47772024" y1="-5272.25761493" x2="-22954.42000972" y2="-5272.25761493" />
                <circle cx="-22952.94886498" cy="-5295.86076217" r="1.82453966" />
                <circle cx="-22952.94886498" cy="-5272.46076217" r="1.82453966" />
                <line x1="-22958.27340465" y1="-5277.26390941" x2="-22947.77340465" y2="-5277.26390941" />
                <line x1="-22958.27340465" y1="-5291.46390941" x2="-22947.77340465" y2="-5291.46390941" />
                <line x1="-22958.27340465" y1="-5300.66390941" x2="-22947.77340465" y2="-5300.66390941" />
                <line x1="-22958.27340465" y1="-5268.06390941" x2="-22947.77340465" y2="-5268.06390941" />
                <line x1="-22895.27340465" y1="-5258.86390941" x2="-22905.77340465" y2="-5258.86390941" />
                <line x1="-22905.77340465" y1="-5258.86390941" x2="-22905.77340465" y2="-5309.86390941" />
                <line x1="-22905.77340465" y1="-5309.86390941" x2="-22895.27340465" y2="-5309.86390941" />
                <line x1="-22895.27340465" y1="-5309.86390941" x2="-22895.27340465" y2="-5258.86390941" />
                <line x1="-22905.77340465" y1="-5258.86390941" x2="-22916.27340465" y2="-5258.86390941" />
                <line x1="-22916.27340465" y1="-5258.86390941" x2="-22916.27340465" y2="-5309.86390941" />
                <line x1="-22916.27340465" y1="-5309.86390941" x2="-22905.77340465" y2="-5309.86390941" />
                <line x1="-22905.77340465" y1="-5309.86390941" x2="-22905.77340465" y2="-5258.86390941" />
                <line x1="-22916.27340465" y1="-5258.86390941" x2="-22926.77340465" y2="-5258.86390941" />
                <line x1="-22926.77340465" y1="-5258.86390941" x2="-22926.77340465" y2="-5309.86390941" />
                <line x1="-22926.77340465" y1="-5309.86390941" x2="-22916.27340465" y2="-5309.86390941" />
                <line x1="-22916.27340465" y1="-5309.86390941" x2="-22916.27340465" y2="-5258.86390941" />
                <line x1="-22905.77340465" y1="-5268.06390941" x2="-22895.27340465" y2="-5268.06390941" />
                <line x1="-22905.77340465" y1="-5300.66390941" x2="-22895.27340465" y2="-5300.66390941" />
                <line x1="-22905.77340465" y1="-5291.46390941" x2="-22895.27340465" y2="-5291.46390941" />
                <line x1="-22905.77340465" y1="-5277.26390941" x2="-22895.27340465" y2="-5277.26390941" />
                <circle cx="-22900.44886498" cy="-5272.46076217" r="1.82453966" />
                <circle cx="-22900.44886498" cy="-5295.86076217" r="1.82453966" />
                <line x1="-22898.97772024" y1="-5272.25761493" x2="-22901.92000972" y2="-5272.25761493" />
                <line x1="-22898.97772024" y1="-5272.66390941" x2="-22901.92000972" y2="-5272.66390941" />
                <line x1="-22898.97772024" y1="-5272.25761493" x2="-22898.97772024" y2="-5272.66390941" />
                <line x1="-22901.92000972" y1="-5272.66390941" x2="-22901.92000972" y2="-5272.25761493" />
                <line x1="-22901.92000972" y1="-5296.06390941" x2="-22901.92000972" y2="-5295.65761493" />
                <line x1="-22898.97772024" y1="-5295.65761493" x2="-22898.97772024" y2="-5296.06390941" />
                <line x1="-22898.97772024" y1="-5296.06390941" x2="-22901.92000972" y2="-5296.06390941" />
                <line x1="-22898.97772024" y1="-5295.65761493" x2="-22901.92000972" y2="-5295.65761493" />
                <line x1="-22916.27340465" y1="-5268.06390941" x2="-22905.77340465" y2="-5268.06390941" />
                <line x1="-22916.27340465" y1="-5300.66390941" x2="-22905.77340465" y2="-5300.66390941" />
                <line x1="-22916.27340465" y1="-5291.46390941" x2="-22905.77340465" y2="-5291.46390941" />
                <line x1="-22916.27340465" y1="-5277.26390941" x2="-22905.77340465" y2="-5277.26390941" />
                <circle cx="-22910.94886498" cy="-5272.46076217" r="1.82453966" />
                <circle cx="-22910.94886498" cy="-5295.86076217" r="1.82453966" />
                <line x1="-22909.47772024" y1="-5272.25761493" x2="-22912.42000972" y2="-5272.25761493" />
                <line x1="-22909.47772024" y1="-5272.66390941" x2="-22912.42000972" y2="-5272.66390941" />
                <line x1="-22909.47772024" y1="-5272.25761493" x2="-22909.47772024" y2="-5272.66390941" />
                <line x1="-22912.42000972" y1="-5272.66390941" x2="-22912.42000972" y2="-5272.25761493" />
                <line x1="-22912.42000972" y1="-5296.06390941" x2="-22912.42000972" y2="-5295.65761493" />
                <line x1="-22909.47772024" y1="-5295.65761493" x2="-22909.47772024" y2="-5296.06390941" />
                <line x1="-22909.47772024" y1="-5296.06390941" x2="-22912.42000972" y2="-5296.06390941" />
                <line x1="-22909.47772024" y1="-5295.65761493" x2="-22912.42000972" y2="-5295.65761493" />
                <line x1="-22919.97772024" y1="-5295.65761493" x2="-22922.92000972" y2="-5295.65761493" />
                <line x1="-22919.97772024" y1="-5296.06390941" x2="-22922.92000972" y2="-5296.06390941" />
                <line x1="-22919.97772024" y1="-5295.65761493" x2="-22919.97772024" y2="-5296.06390941" />
                <line x1="-22922.92000972" y1="-5296.06390941" x2="-22922.92000972" y2="-5295.65761493" />
                <line x1="-22922.92000972" y1="-5272.66390941" x2="-22922.92000972" y2="-5272.25761493" />
                <line x1="-22919.97772024" y1="-5272.25761493" x2="-22919.97772024" y2="-5272.66390941" />
                <line x1="-22919.97772024" y1="-5272.66390941" x2="-22922.92000972" y2="-5272.66390941" />
                <line x1="-22919.97772024" y1="-5272.25761493" x2="-22922.92000972" y2="-5272.25761493" />
                <circle cx="-22921.44886498" cy="-5295.86076217" r="1.82453966" />
                <circle cx="-22921.44886498" cy="-5272.46076217" r="1.82453966" />
                <line x1="-22926.77340465" y1="-5277.26390941" x2="-22916.27340465" y2="-5277.26390941" />
                <line x1="-22926.77340465" y1="-5291.46390941" x2="-22916.27340465" y2="-5291.46390941" />
                <line x1="-22926.77340465" y1="-5300.66390941" x2="-22916.27340465" y2="-5300.66390941" />
                <line x1="-22926.77340465" y1="-5268.06390941" x2="-22916.27340465" y2="-5268.06390941" />
                <line x1="-22884.77340465" y1="-5258.86390941" x2="-22895.27340465" y2="-5258.86390941" />
                <line x1="-22895.27340465" y1="-5258.86390941" x2="-22895.27340465" y2="-5309.86390941" />
                <line x1="-22895.27340465" y1="-5309.86390941" x2="-22884.77340465" y2="-5309.86390941" />
                <line x1="-22884.77340465" y1="-5309.86390941" x2="-22884.77340465" y2="-5258.86390941" />
                <line x1="-22895.27340465" y1="-5268.06390941" x2="-22884.77340465" y2="-5268.06390941" />
                <line x1="-22895.27340465" y1="-5300.66390941" x2="-22884.77340465" y2="-5300.66390941" />
                <line x1="-22895.27340465" y1="-5291.46390941" x2="-22884.77340465" y2="-5291.46390941" />
                <line x1="-22895.27340465" y1="-5277.26390941" x2="-22884.77340465" y2="-5277.26390941" />
                <circle cx="-22889.94886498" cy="-5272.46076217" r="1.82453966" />
                <circle cx="-22889.94886498" cy="-5295.86076217" r="1.82453966" />
                <line x1="-22888.47772024" y1="-5272.25761493" x2="-22891.42000972" y2="-5272.25761493" />
                <line x1="-22888.47772024" y1="-5272.66390941" x2="-22891.42000972" y2="-5272.66390941" />
                <line x1="-22888.47772024" y1="-5272.25761493" x2="-22888.47772024" y2="-5272.66390941" />
                <line x1="-22891.42000972" y1="-5272.66390941" x2="-22891.42000972" y2="-5272.25761493" />
                <line x1="-22891.42000972" y1="-5296.06390941" x2="-22891.42000972" y2="-5295.65761493" />
                <line x1="-22888.47772024" y1="-5295.65761493" x2="-22888.47772024" y2="-5296.06390941" />
                <line x1="-22888.47772024" y1="-5296.06390941" x2="-22891.42000972" y2="-5296.06390941" />
                <line x1="-22888.47772024" y1="-5295.65761493" x2="-22891.42000972" y2="-5295.65761493" />
            </g>
            </g>
    </g>
    </svg>