<?xml version='1.0' encoding='utf-8'?>
<svg xmlns:xlink="http://www.w3.org/1999/xlink" xmlns="http://www.w3.org/2000/svg" xmlns:lc="http://www.librecad.org" width="408.00mm" height="49.19mm" viewBox="-22310.285169199702 -7664.53872342 408.00319766940027 49.193389930000194">
    <g lc:layername="0" lc:is_locked="false" lc:is_construction="false" fill="none" stroke="black" stroke-width="1">
        <g lc:blockname="a38-0">
            <g lc:layername="0" lc:is_locked="false" lc:is_construction="false" fill="none" stroke="black" stroke-width="1">
                <line x1="-21906.28200288" y1="-7663.3811367" x2="-21923.10647855" y2="-7663.3811367" />
                <line x1="-21923.10647855" y1="-7663.3811367" x2="-21923.10647855" y2="-7659.87162356" />
                <line x1="-21923.10647855" y1="-7652.87125365" x2="-21923.10647855" y2="-7649.34533349" />
                <line x1="-21923.10647855" y1="-7649.34533349" x2="-21906.28200288" y2="-7649.34533349" />
                <line x1="-21907.63060525" y1="-7652.42561798" x2="-21907.63060525" y2="-7662.00704931" />
                <line x1="-21907.63060525" y1="-7662.00704931" x2="-21921.24510835" y2="-7662.00704931" />
                <line x1="-21921.24510835" y1="-7662.00704931" x2="-21921.24510835" y2="-7659.87162356" />
                <line x1="-21921.24510835" y1="-7652.87125365" x2="-21921.24510835" y2="-7650.8444582" />
                <line x1="-21921.24510835" y1="-7650.8444582" x2="-21907.63060525" y2="-7650.8444582" />
                <line x1="-21907.63060525" y1="-7650.8444582" x2="-21907.63060525" y2="-7652.42561798" />
                <line x1="-22289.46066218" y1="-7659.87162356" x2="-22289.46066218" y2="-7663.53872342" />
                <line x1="-22289.46066218" y1="-7663.53872342" x2="-22306.28513785" y2="-7663.53872342" />
                <line x1="-22306.28513785" y1="-7649.50292021" x2="-22289.46066218" y2="-7649.50292021" />
                <line x1="-22289.46066218" y1="-7649.50292021" x2="-22289.46066218" y2="-7652.87125365" />
                <line x1="-22291.33065516" y1="-7659.87162356" x2="-22291.33065516" y2="-7662.16463603" />
                <line x1="-22291.33065516" y1="-7662.16463603" x2="-22304.94515825" y2="-7662.16463603" />
                <line x1="-22304.94515825" y1="-7662.16463603" x2="-22304.94515825" y2="-7651.00204492" />
                <line x1="-22304.94515825" y1="-7651.00204492" x2="-22291.33065516" y2="-7651.00204492" />
                <line x1="-22291.33065516" y1="-7651.00204492" x2="-22291.33065516" y2="-7652.87125365" />
                <line x1="-22297.64741439" y1="-7652.87125365" x2="-21913.10248474" y2="-7652.87125365" />
                <line x1="-21913.10248474" y1="-7652.87125365" x2="-21913.10248474" y2="-7659.87162356" />
                <line x1="-21913.10248474" y1="-7659.87162356" x2="-22297.64741439" y2="-7659.87162356" />
                <line x1="-22297.64741439" y1="-7659.87162356" x2="-22297.64741439" y2="-7652.87125365" />
                <circle cx="-22294.15662671" cy="-7656.23270672" r="1.51760881" />
                <circle cx="-22272.03702577" cy="-7656.23270672" r="1.51760881" />
                <circle cx="-22266.1269742" cy="-7656.23270672" r="1.51760881" />
                <circle cx="-22259.91742483" cy="-7656.23270672" r="1.51760881" />
                <circle cx="-22254.00737327" cy="-7656.23270672" r="1.51760881" />
                <circle cx="-22247.7978239" cy="-7656.23270672" r="1.51760881" />
                <circle cx="-22241.88777233" cy="-7656.23270672" r="1.51760881" />
                <circle cx="-22235.67822296" cy="-7656.23270672" r="1.51760881" />
                <circle cx="-22229.76817139" cy="-7656.23270672" r="1.51760881" />
                <circle cx="-22223.55862202" cy="-7656.23270672" r="1.51760881" />
                <circle cx="-22217.64857045" cy="-7656.23270672" r="1.51760881" />
                <circle cx="-22211.43902109" cy="-7656.23270672" r="1.51760881" />
                <circle cx="-22205.52896952" cy="-7656.23270672" r="1.51760881" />
                <circle cx="-22199.31942015" cy="-7656.23270672" r="1.51760881" />
                <circle cx="-22193.40936858" cy="-7656.23270672" r="1.51760881" />
                <circle cx="-22187.19981921" cy="-7656.23270672" r="1.51760881" />
                <circle cx="-22180.99026985" cy="-7656.23270672" r="1.51760881" />
                <circle cx="-22174.78072048" cy="-7656.23270672" r="1.51760881" />
                <circle cx="-22168.87066891" cy="-7656.23270672" r="1.51760881" />
                <circle cx="-22162.66111954" cy="-7656.23270672" r="1.51760881" />
                <circle cx="-22156.75106797" cy="-7656.23270672" r="1.51760881" />
                <circle cx="-21916.80091115" cy="-7656.23270672" r="1.51760881" />
                <circle cx="-22156.75106797" cy="-7656.23270672" r="1.51760881" />
                <circle cx="-22150.8410164" cy="-7656.23270672" r="1.51760881" />
                <circle cx="-22144.63146703" cy="-7656.23270672" r="1.51760881" />
                <circle cx="-22138.72141547" cy="-7656.23270672" r="1.51760881" />
                <circle cx="-22132.5118661" cy="-7656.23270672" r="1.51760881" />
                <circle cx="-22126.60181453" cy="-7656.23270672" r="1.51760881" />
                <circle cx="-22120.39226516" cy="-7656.23270672" r="1.51760881" />
                <circle cx="-22114.48221359" cy="-7656.23270672" r="1.51760881" />
                <circle cx="-22108.27266422" cy="-7656.23270672" r="1.51760881" />
                <circle cx="-22102.36261265" cy="-7656.23270672" r="1.51760881" />
                <circle cx="-22096.15306329" cy="-7656.23270672" r="1.51760881" />
                <circle cx="-22090.24301172" cy="-7656.23270672" r="1.51760881" />
                <circle cx="-22084.03346235" cy="-7656.23270672" r="1.51760881" />
                <circle cx="-22078.12341078" cy="-7656.23270672" r="1.51760881" />
                <circle cx="-22071.91386141" cy="-7656.23270672" r="1.51760881" />
                <circle cx="-22065.70431204" cy="-7656.23270672" r="1.51760881" />
                <circle cx="-22059.49476268" cy="-7656.23270672" r="1.51760881" />
                <circle cx="-22053.58471111" cy="-7656.23270672" r="1.51760881" />
                <circle cx="-22047.37516174" cy="-7656.23270672" r="1.51760881" />
                <circle cx="-22041.46511017" cy="-7656.23270672" r="1.51760881" />
                <circle cx="-22041.46511017" cy="-7656.23270672" r="1.51760881" />
                <circle cx="-22035.5550586" cy="-7656.23270672" r="1.51760881" />
                <circle cx="-22029.34550923" cy="-7656.23270672" r="1.51760881" />
                <circle cx="-22023.43545766" cy="-7656.23270672" r="1.51760881" />
                <circle cx="-22017.2259083" cy="-7656.23270672" r="1.51760881" />
                <circle cx="-22011.31585673" cy="-7656.23270672" r="1.51760881" />
                <circle cx="-22005.10630736" cy="-7656.23270672" r="1.51760881" />
                <circle cx="-21999.19625579" cy="-7656.23270672" r="1.51760881" />
                <circle cx="-21992.98670642" cy="-7656.23270672" r="1.51760881" />
                <circle cx="-21987.07665485" cy="-7656.23270672" r="1.51760881" />
                <circle cx="-21980.86710549" cy="-7656.23270672" r="1.51760881" />
                <circle cx="-21974.95705392" cy="-7656.23270672" r="1.51760881" />
                <circle cx="-21968.74750455" cy="-7656.23270672" r="1.51760881" />
                <circle cx="-21962.83745298" cy="-7656.23270672" r="1.51760881" />
                <circle cx="-21956.62790361" cy="-7656.23270672" r="1.51760881" />
                <circle cx="-21950.41835424" cy="-7656.23270672" r="1.51760881" />
                <circle cx="-21944.20880488" cy="-7656.23270672" r="1.51760881" />
                <circle cx="-22278.24702577" cy="-7656.23270672" r="1.51760881" />
                <circle cx="-22284.15702577" cy="-7656.23270672" r="1.51760881" />
                <circle cx="-21938.29880488" cy="-7656.23270672" r="1.51760881" />
                <circle cx="-21932.08880488" cy="-7656.23270672" r="1.51760881" />
                <circle cx="-21926.17880488" cy="-7656.23270672" r="1.51760881" />
            </g>
            </g>
        <g lc:blockname="a38-0">
            <g lc:layername="0" lc:is_locked="false" lc:is_construction="false" fill="none" stroke="black" stroke-width="1">
                <line x1="-21906.28200288" y1="-7630.3811367" x2="-21923.10647855" y2="-7630.3811367" />
                <line x1="-21923.10647855" y1="-7630.3811367" x2="-21923.10647855" y2="-7626.87162356" />
                <line x1="-21923.10647855" y1="-7619.87125365" x2="-21923.10647855" y2="-7616.34533349" />
                <line x1="-21923.10647855" y1="-7616.34533349" x2="-21906.28200288" y2="-7616.34533349" />
                <line x1="-21907.63060525" y1="-7619.42561798" x2="-21907.63060525" y2="-7629.00704931" />
                <line x1="-21907.63060525" y1="-7629.00704931" x2="-21921.24510835" y2="-7629.00704931" />
                <line x1="-21921.24510835" y1="-7629.00704931" x2="-21921.24510835" y2="-7626.87162356" />
                <line x1="-21921.24510835" y1="-7619.87125365" x2="-21921.24510835" y2="-7617.8444582" />
                <line x1="-21921.24510835" y1="-7617.8444582" x2="-21907.63060525" y2="-7617.8444582" />
                <line x1="-21907.63060525" y1="-7617.8444582" x2="-21907.63060525" y2="-7619.42561798" />
                <line x1="-22289.46066218" y1="-7626.87162356" x2="-22289.46066218" y2="-7630.53872342" />
                <line x1="-22289.46066218" y1="-7630.53872342" x2="-22306.28513785" y2="-7630.53872342" />
                <line x1="-22306.28513785" y1="-7616.50292021" x2="-22289.46066218" y2="-7616.50292021" />
                <line x1="-22289.46066218" y1="-7616.50292021" x2="-22289.46066218" y2="-7619.87125365" />
                <line x1="-22291.33065516" y1="-7626.87162356" x2="-22291.33065516" y2="-7629.16463603" />
                <line x1="-22291.33065516" y1="-7629.16463603" x2="-22304.94515825" y2="-7629.16463603" />
                <line x1="-22304.94515825" y1="-7629.16463603" x2="-22304.94515825" y2="-7618.00204492" />
                <line x1="-22304.94515825" y1="-7618.00204492" x2="-22291.33065516" y2="-7618.00204492" />
                <line x1="-22291.33065516" y1="-7618.00204492" x2="-22291.33065516" y2="-7619.87125365" />
                <line x1="-22297.64741439" y1="-7619.87125365" x2="-21913.10248474" y2="-7619.87125365" />
                <line x1="-21913.10248474" y1="-7619.87125365" x2="-21913.10248474" y2="-7626.87162356" />
                <line x1="-21913.10248474" y1="-7626.87162356" x2="-22297.64741439" y2="-7626.87162356" />
                <line x1="-22297.64741439" y1="-7626.87162356" x2="-22297.64741439" y2="-7619.87125365" />
                <circle cx="-22294.15662671" cy="-7623.23270672" r="1.51760881" />
                <circle cx="-22272.03702577" cy="-7623.23270672" r="1.51760881" />
                <circle cx="-22266.1269742" cy="-7623.23270672" r="1.51760881" />
                <circle cx="-22259.91742483" cy="-7623.23270672" r="1.51760881" />
                <circle cx="-22254.00737327" cy="-7623.23270672" r="1.51760881" />
                <circle cx="-22247.7978239" cy="-7623.23270672" r="1.51760881" />
                <circle cx="-22241.88777233" cy="-7623.23270672" r="1.51760881" />
                <circle cx="-22235.67822296" cy="-7623.23270672" r="1.51760881" />
                <circle cx="-22229.76817139" cy="-7623.23270672" r="1.51760881" />
                <circle cx="-22223.55862202" cy="-7623.23270672" r="1.51760881" />
                <circle cx="-22217.64857045" cy="-7623.23270672" r="1.51760881" />
                <circle cx="-22211.43902109" cy="-7623.23270672" r="1.51760881" />
                <circle cx="-22205.52896952" cy="-7623.23270672" r="1.51760881" />
                <circle cx="-22199.31942015" cy="-7623.23270672" r="1.51760881" />
                <circle cx="-22193.40936858" cy="-7623.23270672" r="1.51760881" />
                <circle cx="-22187.19981921" cy="-7623.23270672" r="1.51760881" />
                <circle cx="-22180.99026985" cy="-7623.23270672" r="1.51760881" />
                <circle cx="-22174.78072048" cy="-7623.23270672" r="1.51760881" />
                <circle cx="-22168.87066891" cy="-7623.23270672" r="1.51760881" />
                <circle cx="-22162.66111954" cy="-7623.23270672" r="1.51760881" />
                <circle cx="-22156.75106797" cy="-7623.23270672" r="1.51760881" />
                <circle cx="-21916.80091115" cy="-7623.23270672" r="1.51760881" />
                <circle cx="-22156.75106797" cy="-7623.23270672" r="1.51760881" />
                <circle cx="-22150.8410164" cy="-7623.23270672" r="1.51760881" />
                <circle cx="-22144.63146703" cy="-7623.23270672" r="1.51760881" />
                <circle cx="-22138.72141547" cy="-7623.23270672" r="1.51760881" />
                <circle cx="-22132.5118661" cy="-7623.23270672" r="1.51760881" />
                <circle cx="-22126.60181453" cy="-7623.23270672" r="1.51760881" />
                <circle cx="-22120.39226516" cy="-7623.23270672" r="1.51760881" />
                <circle cx="-22114.48221359" cy="-7623.23270672" r="1.51760881" />
                <circle cx="-22108.27266422" cy="-7623.23270672" r="1.51760881" />
                <circle cx="-22102.36261265" cy="-7623.23270672" r="1.51760881" />
                <circle cx="-22096.15306329" cy="-7623.23270672" r="1.51760881" />
                <circle cx="-22090.24301172" cy="-7623.23270672" r="1.51760881" />
                <circle cx="-22084.03346235" cy="-7623.23270672" r="1.51760881" />
                <circle cx="-22078.12341078" cy="-7623.23270672" r="1.51760881" />
                <circle cx="-22071.91386141" cy="-7623.23270672" r="1.51760881" />
                <circle cx="-22065.70431204" cy="-7623.23270672" r="1.51760881" />
                <circle cx="-22059.49476268" cy="-7623.23270672" r="1.51760881" />
                <circle cx="-22053.58471111" cy="-7623.23270672" r="1.51760881" />
                <circle cx="-22047.37516174" cy="-7623.23270672" r="1.51760881" />
                <circle cx="-22041.46511017" cy="-7623.23270672" r="1.51760881" />
                <circle cx="-22041.46511017" cy="-7623.23270672" r="1.51760881" />
                <circle cx="-22035.5550586" cy="-7623.23270672" r="1.51760881" />
                <circle cx="-22029.34550923" cy="-7623.23270672" r="1.51760881" />
                <circle cx="-22023.43545766" cy="-7623.23270672" r="1.51760881" />
                <circle cx="-22017.2259083" cy="-7623.23270672" r="1.51760881" />
                <circle cx="-22011.31585673" cy="-7623.23270672" r="1.51760881" />
                <circle cx="-22005.10630736" cy="-7623.23270672" r="1.51760881" />
                <circle cx="-21999.19625579" cy="-7623.23270672" r="1.51760881" />
                <circle cx="-21992.98670642" cy="-7623.23270672" r="1.51760881" />
                <circle cx="-21987.07665485" cy="-7623.23270672" r="1.51760881" />
                <circle cx="-21980.86710549" cy="-7623.23270672" r="1.51760881" />
                <circle cx="-21974.95705392" cy="-7623.23270672" r="1.51760881" />
                <circle cx="-21968.74750455" cy="-7623.23270672" r="1.51760881" />
                <circle cx="-21962.83745298" cy="-7623.23270672" r="1.51760881" />
                <circle cx="-21956.62790361" cy="-7623.23270672" r="1.51760881" />
                <circle cx="-21950.41835424" cy="-7623.23270672" r="1.51760881" />
                <circle cx="-21944.20880488" cy="-7623.23270672" r="1.51760881" />
                <circle cx="-22278.24702577" cy="-7623.23270672" r="1.51760881" />
                <circle cx="-22284.15702577" cy="-7623.23270672" r="1.51760881" />
                <circle cx="-21938.29880488" cy="-7623.23270672" r="1.51760881" />
                <circle cx="-21932.08880488" cy="-7623.23270672" r="1.51760881" />
                <circle cx="-21926.17880488" cy="-7623.23270672" r="1.51760881" />
            </g>
            </g>
    </g>
    </svg>