<?xml version='1.0' encoding='utf-8'?>
<svg xmlns:xlink="http://www.w3.org/1999/xlink" xmlns="http://www.w3.org/2000/svg" xmlns:lc="http://www.librecad.org" width="510.00mm" height="49.48mm" viewBox="-22811.28513785 -7666.20281081 510.0 49.48338993000016">
    <g lc:layername="0" lc:is_locked="false" lc:is_construction="false" fill="none" stroke="black" stroke-width="1">
        <g lc:blockname="b28b-0">
            <g lc:layername="0" lc:is_locked="false" lc:is_construction="false" fill="none" stroke="black" stroke-width="1">
                <line x1="-22306.28513785" y1="-7651.1670076" x2="-22323.10961351" y2="-7651.1670076" />
                <line x1="-22323.10961351" y1="-7651.1670076" x2="-22323.10961351" y2="-7654.67652074" />
                <line x1="-22323.10961351" y1="-7661.67689066" x2="-22323.10961351" y2="-7665.20281081" />
                <line x1="-22323.10961351" y1="-7665.20281081" x2="-22306.28513785" y2="-7665.20281081" />
                <line x1="-22307.63374022" y1="-7662.12252632" x2="-22307.63374022" y2="-7652.54109499" />
                <line x1="-22307.63374022" y1="-7652.54109499" x2="-22321.24824332" y2="-7652.54109499" />
                <line x1="-22321.24824332" y1="-7652.54109499" x2="-22321.24824332" y2="-7654.67652074" />
                <line x1="-22321.24824332" y1="-7661.67689066" x2="-22321.24824332" y2="-7663.7036861" />
                <line x1="-22321.24824332" y1="-7663.7036861" x2="-22307.63374022" y2="-7663.7036861" />
                <line x1="-22307.63374022" y1="-7663.7036861" x2="-22307.63374022" y2="-7662.12252632" />
                <line x1="-22789.46066218" y1="-7654.67652074" x2="-22789.46066218" y2="-7651.00942088" />
                <line x1="-22789.46066218" y1="-7651.00942088" x2="-22806.28513785" y2="-7651.00942088" />
                <line x1="-22806.28513785" y1="-7665.04522409" x2="-22789.46066218" y2="-7665.04522409" />
                <line x1="-22789.46066218" y1="-7665.04522409" x2="-22789.46066218" y2="-7661.67689066" />
                <line x1="-22791.33065516" y1="-7654.67652074" x2="-22791.33065516" y2="-7652.38350827" />
                <line x1="-22791.33065516" y1="-7652.38350827" x2="-22804.94515825" y2="-7652.38350827" />
                <line x1="-22804.94515825" y1="-7652.38350827" x2="-22804.94515825" y2="-7663.54609938" />
                <line x1="-22804.94515825" y1="-7663.54609938" x2="-22791.33065516" y2="-7663.54609938" />
                <line x1="-22791.33065516" y1="-7663.54609938" x2="-22791.33065516" y2="-7661.67689066" />
                <line x1="-22797.64741439" y1="-7661.67689066" x2="-22313.10561971" y2="-7661.67689066" />
                <line x1="-22313.10561971" y1="-7661.67689066" x2="-22313.10561971" y2="-7654.67652074" />
                <line x1="-22313.10561971" y1="-7654.67652074" x2="-22797.64741439" y2="-7654.67652074" />
                <line x1="-22797.64741439" y1="-7654.67652074" x2="-22797.64741439" y2="-7661.67689066" />
                <circle cx="-22794.15662671" cy="-7658.31543758" r="1.51760881" />
                <circle cx="-22772.03702577" cy="-7658.31543758" r="1.51760881" />
                <circle cx="-22766.1269742" cy="-7658.31543758" r="1.51760881" />
                <circle cx="-22759.91742483" cy="-7658.31543758" r="1.51760881" />
                <circle cx="-22754.00737327" cy="-7658.31543758" r="1.51760881" />
                <circle cx="-22747.7978239" cy="-7658.31543758" r="1.51760881" />
                <circle cx="-22741.88777233" cy="-7658.31543758" r="1.51760881" />
                <circle cx="-22735.67822296" cy="-7658.31543758" r="1.51760881" />
                <circle cx="-22729.76817139" cy="-7658.31543758" r="1.51760881" />
                <circle cx="-22723.55862202" cy="-7658.31543758" r="1.51760881" />
                <circle cx="-22717.64857045" cy="-7658.31543758" r="1.51760881" />
                <circle cx="-22711.43902109" cy="-7658.31543758" r="1.51760881" />
                <circle cx="-22705.52896952" cy="-7658.31543758" r="1.51760881" />
                <circle cx="-22699.31942015" cy="-7658.31543758" r="1.51760881" />
                <circle cx="-22693.40936858" cy="-7658.31543758" r="1.51760881" />
                <circle cx="-22687.19981921" cy="-7658.31543758" r="1.51760881" />
                <circle cx="-22680.99026985" cy="-7658.31543758" r="1.51760881" />
                <circle cx="-22674.78072048" cy="-7658.31543758" r="1.51760881" />
                <circle cx="-22668.87066891" cy="-7658.31543758" r="1.51760881" />
                <circle cx="-22662.66111954" cy="-7658.31543758" r="1.51760881" />
                <circle cx="-22656.75106797" cy="-7658.31543758" r="1.51760881" />
                <circle cx="-22316.80404611" cy="-7658.31543758" r="1.51760881" />
                <circle cx="-22656.75106797" cy="-7658.31543758" r="1.51760881" />
                <circle cx="-22650.8410164" cy="-7658.31543758" r="1.51760881" />
                <circle cx="-22644.63146703" cy="-7658.31543758" r="1.51760881" />
                <circle cx="-22638.72141547" cy="-7658.31543758" r="1.51760881" />
                <circle cx="-22632.5118661" cy="-7658.31543758" r="1.51760881" />
                <circle cx="-22626.60181453" cy="-7658.31543758" r="1.51760881" />
                <circle cx="-22620.39226516" cy="-7658.31543758" r="1.51760881" />
                <circle cx="-22614.48221359" cy="-7658.31543758" r="1.51760881" />
                <circle cx="-22608.27266422" cy="-7658.31543758" r="1.51760881" />
                <circle cx="-22602.36261265" cy="-7658.31543758" r="1.51760881" />
                <circle cx="-22596.15306329" cy="-7658.31543758" r="1.51760881" />
                <circle cx="-22590.24301172" cy="-7658.31543758" r="1.51760881" />
                <circle cx="-22584.03346235" cy="-7658.31543758" r="1.51760881" />
                <circle cx="-22578.12341078" cy="-7658.31543758" r="1.51760881" />
                <circle cx="-22571.91386141" cy="-7658.31543758" r="1.51760881" />
                <circle cx="-22565.70431204" cy="-7658.31543758" r="1.51760881" />
                <circle cx="-22559.49476268" cy="-7658.31543758" r="1.51760881" />
                <circle cx="-22553.58471111" cy="-7658.31543758" r="1.51760881" />
                <circle cx="-22547.37516174" cy="-7658.31543758" r="1.51760881" />
                <circle cx="-22541.46511017" cy="-7658.31543758" r="1.51760881" />
                <circle cx="-22541.46511017" cy="-7658.31543758" r="1.51760881" />
                <circle cx="-22535.5550586" cy="-7658.31543758" r="1.51760881" />
                <circle cx="-22529.34550923" cy="-7658.31543758" r="1.51760881" />
                <circle cx="-22523.43545766" cy="-7658.31543758" r="1.51760881" />
                <circle cx="-22517.2259083" cy="-7658.31543758" r="1.51760881" />
                <circle cx="-22511.31585673" cy="-7658.31543758" r="1.51760881" />
                <circle cx="-22505.10630736" cy="-7658.31543758" r="1.51760881" />
                <circle cx="-22499.19625579" cy="-7658.31543758" r="1.51760881" />
                <circle cx="-22492.98670642" cy="-7658.31543758" r="1.51760881" />
                <circle cx="-22487.07665485" cy="-7658.31543758" r="1.51760881" />
                <circle cx="-22480.86710549" cy="-7658.31543758" r="1.51760881" />
                <circle cx="-22474.95705392" cy="-7658.31543758" r="1.51760881" />
                <circle cx="-22468.74750455" cy="-7658.31543758" r="1.51760881" />
                <circle cx="-22462.83745298" cy="-7658.31543758" r="1.51760881" />
                <circle cx="-22456.62790361" cy="-7658.31543758" r="1.51760881" />
                <circle cx="-22450.41835424" cy="-7658.31543758" r="1.51760881" />
                <circle cx="-22444.20880488" cy="-7658.31543758" r="1.51760881" />
                <circle cx="-22438.29875331" cy="-7658.31543758" r="1.51760881" />
                <circle cx="-22432.08920394" cy="-7658.31543758" r="1.51760881" />
                <circle cx="-22426.17915237" cy="-7658.31543758" r="1.51760881" />
                <circle cx="-22426.17915237" cy="-7658.31543758" r="1.51760881" />
                <circle cx="-22420.2691008" cy="-7658.31543758" r="1.51760881" />
                <circle cx="-22414.05955143" cy="-7658.31543758" r="1.51760881" />
                <circle cx="-22408.14949986" cy="-7658.31543758" r="1.51760881" />
                <circle cx="-22401.9399505" cy="-7658.31543758" r="1.51760881" />
                <circle cx="-22396.02989893" cy="-7658.31543758" r="1.51760881" />
                <circle cx="-22389.82034956" cy="-7658.31543758" r="1.51760881" />
                <circle cx="-22383.91029799" cy="-7658.31543758" r="1.51760881" />
                <circle cx="-22377.70074862" cy="-7658.31543758" r="1.51760881" />
                <circle cx="-22371.79069705" cy="-7658.31543758" r="1.51760881" />
                <circle cx="-22365.58114769" cy="-7658.31543758" r="1.51760881" />
                <circle cx="-22359.67109612" cy="-7658.31543758" r="1.51760881" />
                <circle cx="-22353.46154675" cy="-7658.31543758" r="1.51760881" />
                <circle cx="-22347.21073135" cy="-7658.31543758" r="1.51760881" />
                <circle cx="-22341.30067978" cy="-7658.31543758" r="1.51760881" />
                <circle cx="-22335.09113042" cy="-7658.31543758" r="1.51760881" />
                <circle cx="-22329.1883017" cy="-7658.02438237" r="1.51760881" />
                <circle cx="-22778.24702577" cy="-7658.31543758" r="1.51760881" />
                <circle cx="-22784.15702577" cy="-7658.31543758" r="1.51760881" />
            </g>
            </g>
        <g lc:blockname="b28b-0">
            <g lc:layername="0" lc:is_locked="false" lc:is_construction="false" fill="none" stroke="black" stroke-width="1">
                <line x1="-22306.28513785" y1="-7617.8770076" x2="-22323.10961351" y2="-7617.8770076" />
                <line x1="-22323.10961351" y1="-7617.8770076" x2="-22323.10961351" y2="-7621.38652074" />
                <line x1="-22323.10961351" y1="-7628.38689066" x2="-22323.10961351" y2="-7631.91281081" />
                <line x1="-22323.10961351" y1="-7631.91281081" x2="-22306.28513785" y2="-7631.91281081" />
                <line x1="-22307.63374022" y1="-7628.83252632" x2="-22307.63374022" y2="-7619.25109499" />
                <line x1="-22307.63374022" y1="-7619.25109499" x2="-22321.24824332" y2="-7619.25109499" />
                <line x1="-22321.24824332" y1="-7619.25109499" x2="-22321.24824332" y2="-7621.38652074" />
                <line x1="-22321.24824332" y1="-7628.38689066" x2="-22321.24824332" y2="-7630.4136861" />
                <line x1="-22321.24824332" y1="-7630.4136861" x2="-22307.63374022" y2="-7630.4136861" />
                <line x1="-22307.63374022" y1="-7630.4136861" x2="-22307.63374022" y2="-7628.83252632" />
                <line x1="-22789.46066218" y1="-7621.38652074" x2="-22789.46066218" y2="-7617.71942088" />
                <line x1="-22789.46066218" y1="-7617.71942088" x2="-22806.28513785" y2="-7617.71942088" />
                <line x1="-22806.28513785" y1="-7631.75522409" x2="-22789.46066218" y2="-7631.75522409" />
                <line x1="-22789.46066218" y1="-7631.75522409" x2="-22789.46066218" y2="-7628.38689066" />
                <line x1="-22791.33065516" y1="-7621.38652074" x2="-22791.33065516" y2="-7619.09350827" />
                <line x1="-22791.33065516" y1="-7619.09350827" x2="-22804.94515825" y2="-7619.09350827" />
                <line x1="-22804.94515825" y1="-7619.09350827" x2="-22804.94515825" y2="-7630.25609938" />
                <line x1="-22804.94515825" y1="-7630.25609938" x2="-22791.33065516" y2="-7630.25609938" />
                <line x1="-22791.33065516" y1="-7630.25609938" x2="-22791.33065516" y2="-7628.38689066" />
                <line x1="-22797.64741439" y1="-7628.38689066" x2="-22313.10561971" y2="-7628.38689066" />
                <line x1="-22313.10561971" y1="-7628.38689066" x2="-22313.10561971" y2="-7621.38652074" />
                <line x1="-22313.10561971" y1="-7621.38652074" x2="-22797.64741439" y2="-7621.38652074" />
                <line x1="-22797.64741439" y1="-7621.38652074" x2="-22797.64741439" y2="-7628.38689066" />
                <circle cx="-22794.15662671" cy="-7625.02543758" r="1.51760881" />
                <circle cx="-22772.03702577" cy="-7625.02543758" r="1.51760881" />
                <circle cx="-22766.1269742" cy="-7625.02543758" r="1.51760881" />
                <circle cx="-22759.91742483" cy="-7625.02543758" r="1.51760881" />
                <circle cx="-22754.00737327" cy="-7625.02543758" r="1.51760881" />
                <circle cx="-22747.7978239" cy="-7625.02543758" r="1.51760881" />
                <circle cx="-22741.88777233" cy="-7625.02543758" r="1.51760881" />
                <circle cx="-22735.67822296" cy="-7625.02543758" r="1.51760881" />
                <circle cx="-22729.76817139" cy="-7625.02543758" r="1.51760881" />
                <circle cx="-22723.55862202" cy="-7625.02543758" r="1.51760881" />
                <circle cx="-22717.64857045" cy="-7625.02543758" r="1.51760881" />
                <circle cx="-22711.43902109" cy="-7625.02543758" r="1.51760881" />
                <circle cx="-22705.52896952" cy="-7625.02543758" r="1.51760881" />
                <circle cx="-22699.31942015" cy="-7625.02543758" r="1.51760881" />
                <circle cx="-22693.40936858" cy="-7625.02543758" r="1.51760881" />
                <circle cx="-22687.19981921" cy="-7625.02543758" r="1.51760881" />
                <circle cx="-22680.99026985" cy="-7625.02543758" r="1.51760881" />
                <circle cx="-22674.78072048" cy="-7625.02543758" r="1.51760881" />
                <circle cx="-22668.87066891" cy="-7625.02543758" r="1.51760881" />
                <circle cx="-22662.66111954" cy="-7625.02543758" r="1.51760881" />
                <circle cx="-22656.75106797" cy="-7625.02543758" r="1.51760881" />
                <circle cx="-22316.80404611" cy="-7625.02543758" r="1.51760881" />
                <circle cx="-22656.75106797" cy="-7625.02543758" r="1.51760881" />
                <circle cx="-22650.8410164" cy="-7625.02543758" r="1.51760881" />
                <circle cx="-22644.63146703" cy="-7625.02543758" r="1.51760881" />
                <circle cx="-22638.72141547" cy="-7625.02543758" r="1.51760881" />
                <circle cx="-22632.5118661" cy="-7625.02543758" r="1.51760881" />
                <circle cx="-22626.60181453" cy="-7625.02543758" r="1.51760881" />
                <circle cx="-22620.39226516" cy="-7625.02543758" r="1.51760881" />
                <circle cx="-22614.48221359" cy="-7625.02543758" r="1.51760881" />
                <circle cx="-22608.27266422" cy="-7625.02543758" r="1.51760881" />
                <circle cx="-22602.36261265" cy="-7625.02543758" r="1.51760881" />
                <circle cx="-22596.15306329" cy="-7625.02543758" r="1.51760881" />
                <circle cx="-22590.24301172" cy="-7625.02543758" r="1.51760881" />
                <circle cx="-22584.03346235" cy="-7625.02543758" r="1.51760881" />
                <circle cx="-22578.12341078" cy="-7625.02543758" r="1.51760881" />
                <circle cx="-22571.91386141" cy="-7625.02543758" r="1.51760881" />
                <circle cx="-22565.70431204" cy="-7625.02543758" r="1.51760881" />
                <circle cx="-22559.49476268" cy="-7625.02543758" r="1.51760881" />
                <circle cx="-22553.58471111" cy="-7625.02543758" r="1.51760881" />
                <circle cx="-22547.37516174" cy="-7625.02543758" r="1.51760881" />
                <circle cx="-22541.46511017" cy="-7625.02543758" r="1.51760881" />
                <circle cx="-22541.46511017" cy="-7625.02543758" r="1.51760881" />
                <circle cx="-22535.5550586" cy="-7625.02543758" r="1.51760881" />
                <circle cx="-22529.34550923" cy="-7625.02543758" r="1.51760881" />
                <circle cx="-22523.43545766" cy="-7625.02543758" r="1.51760881" />
                <circle cx="-22517.2259083" cy="-7625.02543758" r="1.51760881" />
                <circle cx="-22511.31585673" cy="-7625.02543758" r="1.51760881" />
                <circle cx="-22505.10630736" cy="-7625.02543758" r="1.51760881" />
                <circle cx="-22499.19625579" cy="-7625.02543758" r="1.51760881" />
                <circle cx="-22492.98670642" cy="-7625.02543758" r="1.51760881" />
                <circle cx="-22487.07665485" cy="-7625.02543758" r="1.51760881" />
                <circle cx="-22480.86710549" cy="-7625.02543758" r="1.51760881" />
                <circle cx="-22474.95705392" cy="-7625.02543758" r="1.51760881" />
                <circle cx="-22468.74750455" cy="-7625.02543758" r="1.51760881" />
                <circle cx="-22462.83745298" cy="-7625.02543758" r="1.51760881" />
                <circle cx="-22456.62790361" cy="-7625.02543758" r="1.51760881" />
                <circle cx="-22450.41835424" cy="-7625.02543758" r="1.51760881" />
                <circle cx="-22444.20880488" cy="-7625.02543758" r="1.51760881" />
                <circle cx="-22438.29875331" cy="-7625.02543758" r="1.51760881" />
                <circle cx="-22432.08920394" cy="-7625.02543758" r="1.51760881" />
                <circle cx="-22426.17915237" cy="-7625.02543758" r="1.51760881" />
                <circle cx="-22426.17915237" cy="-7625.02543758" r="1.51760881" />
                <circle cx="-22420.2691008" cy="-7625.02543758" r="1.51760881" />
                <circle cx="-22414.05955143" cy="-7625.02543758" r="1.51760881" />
                <circle cx="-22408.14949986" cy="-7625.02543758" r="1.51760881" />
                <circle cx="-22401.9399505" cy="-7625.02543758" r="1.51760881" />
                <circle cx="-22396.02989893" cy="-7625.02543758" r="1.51760881" />
                <circle cx="-22389.82034956" cy="-7625.02543758" r="1.51760881" />
                <circle cx="-22383.91029799" cy="-7625.02543758" r="1.51760881" />
                <circle cx="-22377.70074862" cy="-7625.02543758" r="1.51760881" />
                <circle cx="-22371.79069705" cy="-7625.02543758" r="1.51760881" />
                <circle cx="-22365.58114769" cy="-7625.02543758" r="1.51760881" />
                <circle cx="-22359.67109612" cy="-7625.02543758" r="1.51760881" />
                <circle cx="-22353.46154675" cy="-7625.02543758" r="1.51760881" />
                <circle cx="-22347.21073135" cy="-7625.02543758" r="1.51760881" />
                <circle cx="-22341.30067978" cy="-7625.02543758" r="1.51760881" />
                <circle cx="-22335.09113042" cy="-7625.02543758" r="1.51760881" />
                <circle cx="-22329.1883017" cy="-7624.73438237" r="1.51760881" />
                <circle cx="-22778.24702577" cy="-7625.02543758" r="1.51760881" />
                <circle cx="-22784.15702577" cy="-7625.02543758" r="1.51760881" />
            </g>
            </g>
    </g>
    </svg>