<?xml version='1.0' encoding='utf-8'?>
<svg xmlns:xlink="http://www.w3.org/1999/xlink" xmlns="http://www.w3.org/2000/svg" xmlns:lc="http://www.librecad.org" width="612.00mm" height="49.48mm" viewBox="-23412.28513785 -7666.04522409 612.0 49.48338993000016">
    <g lc:layername="0" lc:is_locked="false" lc:is_construction="false" fill="none" stroke="black" stroke-width="1">
        <g lc:blockname="r26r-0">
            <g lc:layername="0" lc:is_locked="false" lc:is_construction="false" fill="none" stroke="black" stroke-width="1">
                <line x1="-22806.28513785" y1="-7651.00942088" x2="-22823.10961351" y2="-7651.00942088" />
                <line x1="-22823.10961351" y1="-7651.00942088" x2="-22823.10961351" y2="-7654.51893402" />
                <line x1="-22823.10961351" y1="-7661.51930394" x2="-22823.10961351" y2="-7665.04522409" />
                <line x1="-22823.10961351" y1="-7665.04522409" x2="-22806.28513785" y2="-7665.04522409" />
                <line x1="-22807.63374022" y1="-7661.9649396" x2="-22807.63374022" y2="-7652.38350827" />
                <line x1="-22807.63374022" y1="-7652.38350827" x2="-22821.24824332" y2="-7652.38350827" />
                <line x1="-22821.24824332" y1="-7652.38350827" x2="-22821.24824332" y2="-7654.51893402" />
                <line x1="-22821.24824332" y1="-7661.51930394" x2="-22821.24824332" y2="-7663.54609938" />
                <line x1="-22821.24824332" y1="-7663.54609938" x2="-22807.63374022" y2="-7663.54609938" />
                <line x1="-22807.63374022" y1="-7663.54609938" x2="-22807.63374022" y2="-7661.9649396" />
                <line x1="-23389.46066218" y1="-7654.51893402" x2="-23389.46066218" y2="-7650.85183416" />
                <line x1="-23389.46066218" y1="-7650.85183416" x2="-23406.28513785" y2="-7650.85183416" />
                <line x1="-23406.28513785" y1="-7664.88763737" x2="-23389.46066218" y2="-7664.88763737" />
                <line x1="-23389.46066218" y1="-7664.88763737" x2="-23389.46066218" y2="-7661.51930394" />
                <line x1="-23391.33065516" y1="-7654.51893402" x2="-23391.33065516" y2="-7652.22592155" />
                <line x1="-23391.33065516" y1="-7652.22592155" x2="-23404.94515825" y2="-7652.22592155" />
                <line x1="-23404.94515825" y1="-7652.22592155" x2="-23404.94515825" y2="-7663.38851266" />
                <line x1="-23404.94515825" y1="-7663.38851266" x2="-23391.33065516" y2="-7663.38851266" />
                <line x1="-23391.33065516" y1="-7663.38851266" x2="-23391.33065516" y2="-7661.51930394" />
                <line x1="-23397.64741439" y1="-7661.51930394" x2="-22813.10561971" y2="-7661.51930394" />
                <line x1="-22813.10561971" y1="-7661.51930394" x2="-22813.10561971" y2="-7654.51893402" />
                <line x1="-22813.10561971" y1="-7654.51893402" x2="-23397.64741439" y2="-7654.51893402" />
                <line x1="-23397.64741439" y1="-7654.51893402" x2="-23397.64741439" y2="-7661.51930394" />
                <circle cx="-23394.15662671" cy="-7658.15785086" r="1.51760881" />
                <circle cx="-23378.00856154" cy="-7658.15785086" r="1.51760881" />
                <circle cx="-23372.09850998" cy="-7658.15785086" r="1.51760881" />
                <circle cx="-23365.88896061" cy="-7658.15785086" r="1.51760881" />
                <circle cx="-23359.97890904" cy="-7658.15785086" r="1.51760881" />
                <circle cx="-23353.76935967" cy="-7658.15785086" r="1.51760881" />
                <circle cx="-23347.8593081" cy="-7658.15785086" r="1.51760881" />
                <circle cx="-23341.64975873" cy="-7658.15785086" r="1.51760881" />
                <circle cx="-23335.73970716" cy="-7658.15785086" r="1.51760881" />
                <circle cx="-23329.5301578" cy="-7658.15785086" r="1.51760881" />
                <circle cx="-23323.62010623" cy="-7658.15785086" r="1.51760881" />
                <circle cx="-23317.41055686" cy="-7658.15785086" r="1.51760881" />
                <circle cx="-23311.50050529" cy="-7658.15785086" r="1.51760881" />
                <circle cx="-23305.29095592" cy="-7658.15785086" r="1.51760881" />
                <circle cx="-23299.38090435" cy="-7658.15785086" r="1.51760881" />
                <circle cx="-23293.17135499" cy="-7658.15785086" r="1.51760881" />
                <circle cx="-23286.96180562" cy="-7658.15785086" r="1.51760881" />
                <circle cx="-23280.75225625" cy="-7658.15785086" r="1.51760881" />
                <circle cx="-23274.84220468" cy="-7658.15785086" r="1.51760881" />
                <circle cx="-23268.63265531" cy="-7658.15785086" r="1.51760881" />
                <circle cx="-23262.72260374" cy="-7658.15785086" r="1.51760881" />
                <circle cx="-22816.80404611" cy="-7658.15785086" r="1.51760881" />
                <circle cx="-23262.72260374" cy="-7658.15785086" r="1.51760881" />
                <circle cx="-23256.81255218" cy="-7658.15785086" r="1.51760881" />
                <circle cx="-23250.60300281" cy="-7658.15785086" r="1.51760881" />
                <circle cx="-23244.69295124" cy="-7658.15785086" r="1.51760881" />
                <circle cx="-23238.48340187" cy="-7658.15785086" r="1.51760881" />
                <circle cx="-23232.5733503" cy="-7658.15785086" r="1.51760881" />
                <circle cx="-23226.36380093" cy="-7658.15785086" r="1.51760881" />
                <circle cx="-23220.45374936" cy="-7658.15785086" r="1.51760881" />
                <circle cx="-23214.2442" cy="-7658.15785086" r="1.51760881" />
                <circle cx="-23208.33414843" cy="-7658.15785086" r="1.51760881" />
                <circle cx="-23202.12459906" cy="-7658.15785086" r="1.51760881" />
                <circle cx="-23196.21454749" cy="-7658.15785086" r="1.51760881" />
                <circle cx="-23190.00499812" cy="-7658.15785086" r="1.51760881" />
                <circle cx="-23184.09494655" cy="-7658.15785086" r="1.51760881" />
                <circle cx="-23177.88539719" cy="-7658.15785086" r="1.51760881" />
                <circle cx="-23171.67584782" cy="-7658.15785086" r="1.51760881" />
                <circle cx="-23165.46629845" cy="-7658.15785086" r="1.51760881" />
                <circle cx="-23159.55624688" cy="-7658.15785086" r="1.51760881" />
                <circle cx="-23153.34669751" cy="-7658.15785086" r="1.51760881" />
                <circle cx="-23147.43664594" cy="-7658.15785086" r="1.51760881" />
                <circle cx="-23147.43664594" cy="-7658.15785086" r="1.51760881" />
                <circle cx="-23141.52659437" cy="-7658.15785086" r="1.51760881" />
                <circle cx="-23135.31704501" cy="-7658.15785086" r="1.51760881" />
                <circle cx="-23129.40699344" cy="-7658.15785086" r="1.51760881" />
                <circle cx="-23123.19744407" cy="-7658.15785086" r="1.51760881" />
                <circle cx="-23117.2873925" cy="-7658.15785086" r="1.51760881" />
                <circle cx="-23111.07784313" cy="-7658.15785086" r="1.51760881" />
                <circle cx="-23105.16779156" cy="-7658.15785086" r="1.51760881" />
                <circle cx="-23098.9582422" cy="-7658.15785086" r="1.51760881" />
                <circle cx="-23093.04819063" cy="-7658.15785086" r="1.51760881" />
                <circle cx="-23086.83864126" cy="-7658.15785086" r="1.51760881" />
                <circle cx="-23080.92858969" cy="-7658.15785086" r="1.51760881" />
                <circle cx="-23074.71904032" cy="-7658.15785086" r="1.51760881" />
                <circle cx="-23068.80898875" cy="-7658.15785086" r="1.51760881" />
                <circle cx="-23062.59943939" cy="-7658.15785086" r="1.51760881" />
                <circle cx="-23056.38989002" cy="-7658.15785086" r="1.51760881" />
                <circle cx="-23050.18034065" cy="-7658.15785086" r="1.51760881" />
                <circle cx="-23044.27028908" cy="-7658.15785086" r="1.51760881" />
                <circle cx="-23038.06073971" cy="-7658.15785086" r="1.51760881" />
                <circle cx="-23032.15068814" cy="-7658.15785086" r="1.51760881" />
                <circle cx="-23032.15068814" cy="-7658.15785086" r="1.51760881" />
                <circle cx="-23026.24063657" cy="-7658.15785086" r="1.51760881" />
                <circle cx="-23020.03108721" cy="-7658.15785086" r="1.51760881" />
                <circle cx="-23014.12103564" cy="-7658.15785086" r="1.51760881" />
                <circle cx="-23007.91148627" cy="-7658.15785086" r="1.51760881" />
                <circle cx="-23002.0014347" cy="-7658.15785086" r="1.51760881" />
                <circle cx="-22995.79188533" cy="-7658.15785086" r="1.51760881" />
                <circle cx="-22989.88183376" cy="-7658.15785086" r="1.51760881" />
                <circle cx="-22983.6722844" cy="-7658.15785086" r="1.51760881" />
                <circle cx="-22977.76223283" cy="-7658.15785086" r="1.51760881" />
                <circle cx="-22971.55268346" cy="-7658.15785086" r="1.51760881" />
                <circle cx="-22965.64263189" cy="-7658.15785086" r="1.51760881" />
                <circle cx="-22959.43308252" cy="-7658.15785086" r="1.51760881" />
                <circle cx="-22953.52303095" cy="-7658.15785086" r="1.51760881" />
                <circle cx="-22947.31348158" cy="-7658.15785086" r="1.51760881" />
                <circle cx="-22941.10393222" cy="-7658.15785086" r="1.51760881" />
                <circle cx="-22934.89438285" cy="-7658.15785086" r="1.51760881" />
                <circle cx="-22928.98433128" cy="-7658.15785086" r="1.51760881" />
                <circle cx="-22922.77478191" cy="-7658.15785086" r="1.51760881" />
                <circle cx="-22916.86473034" cy="-7658.15785086" r="1.51760881" />
                <circle cx="-22910.75268353" cy="-7658.15785086" r="1.51760881" />
                <circle cx="-22904.84263196" cy="-7658.15785086" r="1.51760881" />
                <circle cx="-22898.6330826" cy="-7658.15785086" r="1.51760881" />
                <circle cx="-22892.72303103" cy="-7658.15785086" r="1.51760881" />
                <circle cx="-22886.21525129" cy="-7658.15785086" r="1.51760881" />
                <circle cx="-22880.30519973" cy="-7658.15785086" r="1.51760881" />
                <circle cx="-22874.09565036" cy="-7658.15785086" r="1.51760881" />
                <circle cx="-22868.18559879" cy="-7658.15785086" r="1.51760881" />
                <circle cx="-22862.27145399" cy="-7658.15785086" r="1.51760881" />
                <circle cx="-22856.36140243" cy="-7658.15785086" r="1.51760881" />
                <circle cx="-22850.15185306" cy="-7658.15785086" r="1.51760881" />
                <circle cx="-22844.24180149" cy="-7658.15785086" r="1.51760881" />
                <circle cx="-22838.15604782" cy="-7658.15785086" r="1.51760881" />
                <circle cx="-22831.94604782" cy="-7658.15785086" r="1.51760881" />
                <circle cx="-22826.03604782" cy="-7658.15785086" r="1.51760881" />
                <circle cx="-23384.21856154" cy="-7658.15785086" r="1.51760881" />
            </g>
            </g>
        <g lc:blockname="r26r-0">
            <g lc:layername="0" lc:is_locked="false" lc:is_construction="false" fill="none" stroke="black" stroke-width="1">
                <line x1="-22806.28513785" y1="-7617.71942088" x2="-22823.10961351" y2="-7617.71942088" />
                <line x1="-22823.10961351" y1="-7617.71942088" x2="-22823.10961351" y2="-7621.22893402" />
                <line x1="-22823.10961351" y1="-7628.22930394" x2="-22823.10961351" y2="-7631.75522409" />
                <line x1="-22823.10961351" y1="-7631.75522409" x2="-22806.28513785" y2="-7631.75522409" />
                <line x1="-22807.63374022" y1="-7628.6749396" x2="-22807.63374022" y2="-7619.09350827" />
                <line x1="-22807.63374022" y1="-7619.09350827" x2="-22821.24824332" y2="-7619.09350827" />
                <line x1="-22821.24824332" y1="-7619.09350827" x2="-22821.24824332" y2="-7621.22893402" />
                <line x1="-22821.24824332" y1="-7628.22930394" x2="-22821.24824332" y2="-7630.25609938" />
                <line x1="-22821.24824332" y1="-7630.25609938" x2="-22807.63374022" y2="-7630.25609938" />
                <line x1="-22807.63374022" y1="-7630.25609938" x2="-22807.63374022" y2="-7628.6749396" />
                <line x1="-23389.46066218" y1="-7621.22893402" x2="-23389.46066218" y2="-7617.56183416" />
                <line x1="-23389.46066218" y1="-7617.56183416" x2="-23406.28513785" y2="-7617.56183416" />
                <line x1="-23406.28513785" y1="-7631.59763737" x2="-23389.46066218" y2="-7631.59763737" />
                <line x1="-23389.46066218" y1="-7631.59763737" x2="-23389.46066218" y2="-7628.22930394" />
                <line x1="-23391.33065516" y1="-7621.22893402" x2="-23391.33065516" y2="-7618.93592155" />
                <line x1="-23391.33065516" y1="-7618.93592155" x2="-23404.94515825" y2="-7618.93592155" />
                <line x1="-23404.94515825" y1="-7618.93592155" x2="-23404.94515825" y2="-7630.09851266" />
                <line x1="-23404.94515825" y1="-7630.09851266" x2="-23391.33065516" y2="-7630.09851266" />
                <line x1="-23391.33065516" y1="-7630.09851266" x2="-23391.33065516" y2="-7628.22930394" />
                <line x1="-23397.64741439" y1="-7628.22930394" x2="-22813.10561971" y2="-7628.22930394" />
                <line x1="-22813.10561971" y1="-7628.22930394" x2="-22813.10561971" y2="-7621.22893402" />
                <line x1="-22813.10561971" y1="-7621.22893402" x2="-23397.64741439" y2="-7621.22893402" />
                <line x1="-23397.64741439" y1="-7621.22893402" x2="-23397.64741439" y2="-7628.22930394" />
                <circle cx="-23394.15662671" cy="-7624.86785086" r="1.51760881" />
                <circle cx="-23378.00856154" cy="-7624.86785086" r="1.51760881" />
                <circle cx="-23372.09850998" cy="-7624.86785086" r="1.51760881" />
                <circle cx="-23365.88896061" cy="-7624.86785086" r="1.51760881" />
                <circle cx="-23359.97890904" cy="-7624.86785086" r="1.51760881" />
                <circle cx="-23353.76935967" cy="-7624.86785086" r="1.51760881" />
                <circle cx="-23347.8593081" cy="-7624.86785086" r="1.51760881" />
                <circle cx="-23341.64975873" cy="-7624.86785086" r="1.51760881" />
                <circle cx="-23335.73970716" cy="-7624.86785086" r="1.51760881" />
                <circle cx="-23329.5301578" cy="-7624.86785086" r="1.51760881" />
                <circle cx="-23323.62010623" cy="-7624.86785086" r="1.51760881" />
                <circle cx="-23317.41055686" cy="-7624.86785086" r="1.51760881" />
                <circle cx="-23311.50050529" cy="-7624.86785086" r="1.51760881" />
                <circle cx="-23305.29095592" cy="-7624.86785086" r="1.51760881" />
                <circle cx="-23299.38090435" cy="-7624.86785086" r="1.51760881" />
                <circle cx="-23293.17135499" cy="-7624.86785086" r="1.51760881" />
                <circle cx="-23286.96180562" cy="-7624.86785086" r="1.51760881" />
                <circle cx="-23280.75225625" cy="-7624.86785086" r="1.51760881" />
                <circle cx="-23274.84220468" cy="-7624.86785086" r="1.51760881" />
                <circle cx="-23268.63265531" cy="-7624.86785086" r="1.51760881" />
                <circle cx="-23262.72260374" cy="-7624.86785086" r="1.51760881" />
                <circle cx="-22816.80404611" cy="-7624.86785086" r="1.51760881" />
                <circle cx="-23262.72260374" cy="-7624.86785086" r="1.51760881" />
                <circle cx="-23256.81255218" cy="-7624.86785086" r="1.51760881" />
                <circle cx="-23250.60300281" cy="-7624.86785086" r="1.51760881" />
                <circle cx="-23244.69295124" cy="-7624.86785086" r="1.51760881" />
                <circle cx="-23238.48340187" cy="-7624.86785086" r="1.51760881" />
                <circle cx="-23232.5733503" cy="-7624.86785086" r="1.51760881" />
                <circle cx="-23226.36380093" cy="-7624.86785086" r="1.51760881" />
                <circle cx="-23220.45374936" cy="-7624.86785086" r="1.51760881" />
                <circle cx="-23214.2442" cy="-7624.86785086" r="1.51760881" />
                <circle cx="-23208.33414843" cy="-7624.86785086" r="1.51760881" />
                <circle cx="-23202.12459906" cy="-7624.86785086" r="1.51760881" />
                <circle cx="-23196.21454749" cy="-7624.86785086" r="1.51760881" />
                <circle cx="-23190.00499812" cy="-7624.86785086" r="1.51760881" />
                <circle cx="-23184.09494655" cy="-7624.86785086" r="1.51760881" />
                <circle cx="-23177.88539719" cy="-7624.86785086" r="1.51760881" />
                <circle cx="-23171.67584782" cy="-7624.86785086" r="1.51760881" />
                <circle cx="-23165.46629845" cy="-7624.86785086" r="1.51760881" />
                <circle cx="-23159.55624688" cy="-7624.86785086" r="1.51760881" />
                <circle cx="-23153.34669751" cy="-7624.86785086" r="1.51760881" />
                <circle cx="-23147.43664594" cy="-7624.86785086" r="1.51760881" />
                <circle cx="-23147.43664594" cy="-7624.86785086" r="1.51760881" />
                <circle cx="-23141.52659437" cy="-7624.86785086" r="1.51760881" />
                <circle cx="-23135.31704501" cy="-7624.86785086" r="1.51760881" />
                <circle cx="-23129.40699344" cy="-7624.86785086" r="1.51760881" />
                <circle cx="-23123.19744407" cy="-7624.86785086" r="1.51760881" />
                <circle cx="-23117.2873925" cy="-7624.86785086" r="1.51760881" />
                <circle cx="-23111.07784313" cy="-7624.86785086" r="1.51760881" />
                <circle cx="-23105.16779156" cy="-7624.86785086" r="1.51760881" />
                <circle cx="-23098.9582422" cy="-7624.86785086" r="1.51760881" />
                <circle cx="-23093.04819063" cy="-7624.86785086" r="1.51760881" />
                <circle cx="-23086.83864126" cy="-7624.86785086" r="1.51760881" />
                <circle cx="-23080.92858969" cy="-7624.86785086" r="1.51760881" />
                <circle cx="-23074.71904032" cy="-7624.86785086" r="1.51760881" />
                <circle cx="-23068.80898875" cy="-7624.86785086" r="1.51760881" />
                <circle cx="-23062.59943939" cy="-7624.86785086" r="1.51760881" />
                <circle cx="-23056.38989002" cy="-7624.86785086" r="1.51760881" />
                <circle cx="-23050.18034065" cy="-7624.86785086" r="1.51760881" />
                <circle cx="-23044.27028908" cy="-7624.86785086" r="1.51760881" />
                <circle cx="-23038.06073971" cy="-7624.86785086" r="1.51760881" />
                <circle cx="-23032.15068814" cy="-7624.86785086" r="1.51760881" />
                <circle cx="-23032.15068814" cy="-7624.86785086" r="1.51760881" />
                <circle cx="-23026.24063657" cy="-7624.86785086" r="1.51760881" />
                <circle cx="-23020.03108721" cy="-7624.86785086" r="1.51760881" />
                <circle cx="-23014.12103564" cy="-7624.86785086" r="1.51760881" />
                <circle cx="-23007.91148627" cy="-7624.86785086" r="1.51760881" />
                <circle cx="-23002.0014347" cy="-7624.86785086" r="1.51760881" />
                <circle cx="-22995.79188533" cy="-7624.86785086" r="1.51760881" />
                <circle cx="-22989.88183376" cy="-7624.86785086" r="1.51760881" />
                <circle cx="-22983.6722844" cy="-7624.86785086" r="1.51760881" />
                <circle cx="-22977.76223283" cy="-7624.86785086" r="1.51760881" />
                <circle cx="-22971.55268346" cy="-7624.86785086" r="1.51760881" />
                <circle cx="-22965.64263189" cy="-7624.86785086" r="1.51760881" />
                <circle cx="-22959.43308252" cy="-7624.86785086" r="1.51760881" />
                <circle cx="-22953.52303095" cy="-7624.86785086" r="1.51760881" />
                <circle cx="-22947.31348158" cy="-7624.86785086" r="1.51760881" />
                <circle cx="-22941.10393222" cy="-7624.86785086" r="1.51760881" />
                <circle cx="-22934.89438285" cy="-7624.86785086" r="1.51760881" />
                <circle cx="-22928.98433128" cy="-7624.86785086" r="1.51760881" />
                <circle cx="-22922.77478191" cy="-7624.86785086" r="1.51760881" />
                <circle cx="-22916.86473034" cy="-7624.86785086" r="1.51760881" />
                <circle cx="-22910.75268353" cy="-7624.86785086" r="1.51760881" />
                <circle cx="-22904.84263196" cy="-7624.86785086" r="1.51760881" />
                <circle cx="-22898.6330826" cy="-7624.86785086" r="1.51760881" />
                <circle cx="-22892.72303103" cy="-7624.86785086" r="1.51760881" />
                <circle cx="-22886.21525129" cy="-7624.86785086" r="1.51760881" />
                <circle cx="-22880.30519973" cy="-7624.86785086" r="1.51760881" />
                <circle cx="-22874.09565036" cy="-7624.86785086" r="1.51760881" />
                <circle cx="-22868.18559879" cy="-7624.86785086" r="1.51760881" />
                <circle cx="-22862.27145399" cy="-7624.86785086" r="1.51760881" />
                <circle cx="-22856.36140243" cy="-7624.86785086" r="1.51760881" />
                <circle cx="-22850.15185306" cy="-7624.86785086" r="1.51760881" />
                <circle cx="-22844.24180149" cy="-7624.86785086" r="1.51760881" />
                <circle cx="-22838.15604782" cy="-7624.86785086" r="1.51760881" />
                <circle cx="-22831.94604782" cy="-7624.86785086" r="1.51760881" />
                <circle cx="-22826.03604782" cy="-7624.86785086" r="1.51760881" />
                <circle cx="-23384.21856154" cy="-7624.86785086" r="1.51760881" />
            </g>
            </g>
    </g>
    </svg>