<?xml version='1.0' encoding='utf-8'?>
<svg xmlns:xlink="http://www.w3.org/1999/xlink" xmlns="http://www.w3.org/2000/svg" xmlns:lc="http://www.librecad.org" width="713.98mm" height="49.48mm" viewBox="-24113.284916795503 -7665.88763737 713.9774524410002 49.48338993000016">
    <g lc:layername="0" lc:is_locked="false" lc:is_construction="false" fill="none" stroke="black" stroke-width="1">
        <g lc:blockname="ai30-0">
            <g lc:layername="0" lc:is_locked="false" lc:is_construction="false" fill="none" stroke="black" stroke-width="1">
                <path d="M-23406.3072433,-7661.80735288 L-23406.3072433,-7650.85183416 L-23423.13171896,-7650.85183416 L-23423.13171896,-7654.3613473 " />
                <path d="M-23423.13171896,-7661.36171722 L-23423.13171896,-7664.88763737 L-23406.3072433,-7664.88763737 L-23406.3072433,-7661.80735288 " />
                <path d="M-23407.65584567,-7661.80735288 L-23407.65584567,-7652.22592155 L-23421.27034877,-7652.22592155 L-23421.27034877,-7654.3613473 " />
                <path d="M-23421.27034877,-7661.36171722 L-23421.27034877,-7663.38851266 L-23407.65584567,-7663.38851266 L-23407.65584567,-7661.80735288 " />
                <path d="M-24089.46066218,-7654.3613473 L-24089.46066218,-7650.69424744 L-24106.28513785,-7650.69424744 L-24106.28513785,-7664.73005065 L-24089.46066218,-7664.73005065 L-24089.46066218,-7661.36171722 " />
                <path d="M-24091.33065516,-7654.3613473 L-24091.33065516,-7652.06833483 L-24104.94515825,-7652.06833483 L-24104.94515825,-7663.23092594 L-24091.33065516,-7663.23092594 L-24091.33065516,-7661.36171722 " />
                <line x1="-24097.64741439" y1="-7661.36171722" x2="-23413.12772516" y2="-7661.36171722" />
                <line x1="-23413.12772516" y1="-7661.36171722" x2="-23413.12772516" y2="-7654.3613473" />
                <line x1="-23413.12772516" y1="-7654.3613473" x2="-24097.64741439" y2="-7654.3613473" />
                <line x1="-24097.64741439" y1="-7654.3613473" x2="-24097.64741439" y2="-7661.36171722" />
                <circle cx="-24094.15662671" cy="-7658.00026415" r="1.51760881" />
                <circle cx="-24063.80509413" cy="-7658.00026415" r="1.51760881" />
                <circle cx="-24057.89504256" cy="-7658.00026415" r="1.51760881" />
                <circle cx="-24051.68549319" cy="-7658.00026415" r="1.51760881" />
                <circle cx="-24045.77544162" cy="-7658.00026415" r="1.51760881" />
                <circle cx="-24039.56589225" cy="-7658.00026415" r="1.51760881" />
                <circle cx="-24033.65584069" cy="-7658.00026415" r="1.51760881" />
                <circle cx="-24027.44629132" cy="-7658.00026415" r="1.51760881" />
                <circle cx="-24021.53623975" cy="-7658.00026415" r="1.51760881" />
                <circle cx="-24015.32669038" cy="-7658.00026415" r="1.51760881" />
                <circle cx="-24009.41663881" cy="-7658.00026415" r="1.51760881" />
                <circle cx="-24003.20708944" cy="-7658.00026415" r="1.51760881" />
                <circle cx="-23997.29703787" cy="-7658.00026415" r="1.51760881" />
                <circle cx="-23991.08748851" cy="-7658.00026415" r="1.51760881" />
                <circle cx="-23985.17743694" cy="-7658.00026415" r="1.51760881" />
                <circle cx="-23978.96788757" cy="-7658.00026415" r="1.51760881" />
                <circle cx="-23972.7583382" cy="-7658.00026415" r="1.51760881" />
                <circle cx="-23966.54878883" cy="-7658.00026415" r="1.51760881" />
                <circle cx="-23960.63873727" cy="-7658.00026415" r="1.51760881" />
                <circle cx="-23954.4291879" cy="-7658.00026415" r="1.51760881" />
                <circle cx="-23948.51913633" cy="-7658.00026415" r="1.51760881" />
                <circle cx="-23416.82615156" cy="-7658.00026415" r="1.51760881" />
                <circle cx="-23948.51913633" cy="-7658.00026415" r="1.51760881" />
                <circle cx="-23942.60908476" cy="-7658.00026415" r="1.51760881" />
                <circle cx="-23936.39953539" cy="-7658.00026415" r="1.51760881" />
                <circle cx="-23930.48948382" cy="-7658.00026415" r="1.51760881" />
                <circle cx="-23924.27993445" cy="-7658.00026415" r="1.51760881" />
                <circle cx="-23918.36988289" cy="-7658.00026415" r="1.51760881" />
                <circle cx="-23912.16033352" cy="-7658.00026415" r="1.51760881" />
                <circle cx="-23906.25028195" cy="-7658.00026415" r="1.51760881" />
                <circle cx="-23900.04073258" cy="-7658.00026415" r="1.51760881" />
                <circle cx="-23894.13068101" cy="-7658.00026415" r="1.51760881" />
                <circle cx="-23887.92113164" cy="-7658.00026415" r="1.51760881" />
                <circle cx="-23882.01108007" cy="-7658.00026415" r="1.51760881" />
                <circle cx="-23875.80153071" cy="-7658.00026415" r="1.51760881" />
                <circle cx="-23869.89147914" cy="-7658.00026415" r="1.51760881" />
                <circle cx="-23863.68192977" cy="-7658.00026415" r="1.51760881" />
                <circle cx="-23857.4723804" cy="-7658.00026415" r="1.51760881" />
                <circle cx="-23851.26283103" cy="-7658.00026415" r="1.51760881" />
                <circle cx="-23845.35277946" cy="-7658.00026415" r="1.51760881" />
                <circle cx="-23839.1432301" cy="-7658.00026415" r="1.51760881" />
                <circle cx="-23833.23317853" cy="-7658.00026415" r="1.51760881" />
                <circle cx="-23833.23317853" cy="-7658.00026415" r="1.51760881" />
                <circle cx="-23827.32312696" cy="-7658.00026415" r="1.51760881" />
                <circle cx="-23821.11357759" cy="-7658.00026415" r="1.51760881" />
                <circle cx="-23815.20352602" cy="-7658.00026415" r="1.51760881" />
                <circle cx="-23808.99397665" cy="-7658.00026415" r="1.51760881" />
                <circle cx="-23803.08392508" cy="-7658.00026415" r="1.51760881" />
                <circle cx="-23796.87437572" cy="-7658.00026415" r="1.51760881" />
                <circle cx="-23790.96432415" cy="-7658.00026415" r="1.51760881" />
                <circle cx="-23784.75477478" cy="-7658.00026415" r="1.51760881" />
                <circle cx="-23778.84472321" cy="-7658.00026415" r="1.51760881" />
                <circle cx="-23772.63517384" cy="-7658.00026415" r="1.51760881" />
                <circle cx="-23766.72512227" cy="-7658.00026415" r="1.51760881" />
                <circle cx="-23760.51557291" cy="-7658.00026415" r="1.51760881" />
                <circle cx="-23754.60552134" cy="-7658.00026415" r="1.51760881" />
                <circle cx="-23748.39597197" cy="-7658.00026415" r="1.51760881" />
                <circle cx="-23742.1864226" cy="-7658.00026415" r="1.51760881" />
                <circle cx="-23735.97687323" cy="-7658.00026415" r="1.51760881" />
                <circle cx="-23730.06682166" cy="-7658.00026415" r="1.51760881" />
                <circle cx="-23723.8572723" cy="-7658.00026415" r="1.51760881" />
                <circle cx="-23717.94722073" cy="-7658.00026415" r="1.51760881" />
                <circle cx="-23717.94722073" cy="-7658.00026415" r="1.51760881" />
                <circle cx="-23712.03716916" cy="-7658.00026415" r="1.51760881" />
                <circle cx="-23705.82761979" cy="-7658.00026415" r="1.51760881" />
                <circle cx="-23699.91756822" cy="-7658.00026415" r="1.51760881" />
                <circle cx="-23693.70801885" cy="-7658.00026415" r="1.51760881" />
                <circle cx="-23687.79796728" cy="-7658.00026415" r="1.51760881" />
                <circle cx="-23681.58841792" cy="-7658.00026415" r="1.51760881" />
                <circle cx="-23675.67836635" cy="-7658.00026415" r="1.51760881" />
                <circle cx="-23669.46881698" cy="-7658.00026415" r="1.51760881" />
                <circle cx="-23663.55876541" cy="-7658.00026415" r="1.51760881" />
                <circle cx="-23657.34921604" cy="-7658.00026415" r="1.51760881" />
                <circle cx="-23651.43916447" cy="-7658.00026415" r="1.51760881" />
                <circle cx="-23645.22961511" cy="-7658.00026415" r="1.51760881" />
                <circle cx="-23639.31956354" cy="-7658.00026415" r="1.51760881" />
                <circle cx="-23633.11001417" cy="-7658.00026415" r="1.51760881" />
                <circle cx="-23626.9004648" cy="-7658.00026415" r="1.51760881" />
                <circle cx="-23620.69091543" cy="-7658.00026415" r="1.51760881" />
                <circle cx="-23614.78086386" cy="-7658.00026415" r="1.51760881" />
                <circle cx="-23608.5713145" cy="-7658.00026415" r="1.51760881" />
                <circle cx="-23602.66126293" cy="-7658.00026415" r="1.51760881" />
                <circle cx="-23557.65346992" cy="-7658.00026415" r="1.51760881" />
                <circle cx="-23550.89238553" cy="-7658.00026415" r="1.51760881" />
                <circle cx="-23550.89238553" cy="-7658.00026415" r="1.51760881" />
                <circle cx="-23544.98233396" cy="-7658.00026415" r="1.51760881" />
                <circle cx="-23538.77278459" cy="-7658.00026415" r="1.51760881" />
                <circle cx="-23532.86273302" cy="-7658.00026415" r="1.51760881" />
                <circle cx="-23526.65318366" cy="-7658.00026415" r="1.51760881" />
                <circle cx="-23520.74313209" cy="-7658.00026415" r="1.51760881" />
                <circle cx="-23514.53358272" cy="-7658.00026415" r="1.51760881" />
                <circle cx="-23508.62353115" cy="-7658.00026415" r="1.51760881" />
                <circle cx="-23502.41398178" cy="-7658.00026415" r="1.51760881" />
                <circle cx="-23496.50393021" cy="-7658.00026415" r="1.51760881" />
                <circle cx="-23490.29438085" cy="-7658.00026415" r="1.51760881" />
                <circle cx="-23484.38432928" cy="-7658.00026415" r="1.51760881" />
                <circle cx="-23478.17477991" cy="-7658.00026415" r="1.51760881" />
                <circle cx="-23472.26472834" cy="-7658.00026415" r="1.51760881" />
                <circle cx="-23466.05517897" cy="-7658.00026415" r="1.51760881" />
                <circle cx="-23459.8456296" cy="-7658.00026415" r="1.51760881" />
                <circle cx="-23453.63608024" cy="-7658.00026415" r="1.51760881" />
                <circle cx="-23447.72602867" cy="-7658.00026415" r="1.51760881" />
                <circle cx="-23441.5164793" cy="-7658.00026415" r="1.51760881" />
                <circle cx="-23435.60642773" cy="-7658.00026415" r="1.51760881" />
                <circle cx="-23589.64517693" cy="-7658.00026415" r="1.51760881" />
                <circle cx="-23583.73512536" cy="-7658.00026415" r="1.51760881" />
                <circle cx="-23583.73512536" cy="-7658.00026415" r="1.51760881" />
                <circle cx="-23577.82507379" cy="-7658.00026415" r="1.51760881" />
                <circle cx="-23571.61552443" cy="-7658.00026415" r="1.51760881" />
                <circle cx="-23564.85471328" cy="-7658.00026415" r="1.51760881" />
                <circle cx="-23596.25848455" cy="-7658.00026415" r="1.51760881" />
                <circle cx="-24069.41901295" cy="-7658.00026415" r="1.51760881" />
                <circle cx="-24074.96361575" cy="-7658.00026415" r="1.51760881" />
                <circle cx="-24080.23774592" cy="-7658.00026415" r="1.51760881" />
            </g>
            </g>
        <g lc:blockname="ai30-0">
            <g lc:layername="0" lc:is_locked="false" lc:is_construction="false" fill="none" stroke="black" stroke-width="1">
                <path d="M-23406.3072433,-7628.51735288 L-23406.3072433,-7617.56183416 L-23423.13171896,-7617.56183416 L-23423.13171896,-7621.0713473 " />
                <path d="M-23423.13171896,-7628.07171722 L-23423.13171896,-7631.59763737 L-23406.3072433,-7631.59763737 L-23406.3072433,-7628.51735288 " />
                <path d="M-23407.65584567,-7628.51735288 L-23407.65584567,-7618.93592155 L-23421.27034877,-7618.93592155 L-23421.27034877,-7621.0713473 " />
                <path d="M-23421.27034877,-7628.07171722 L-23421.27034877,-7630.09851266 L-23407.65584567,-7630.09851266 L-23407.65584567,-7628.51735288 " />
                <path d="M-24089.46066218,-7621.0713473 L-24089.46066218,-7617.40424744 L-24106.28513785,-7617.40424744 L-24106.28513785,-7631.44005065 L-24089.46066218,-7631.44005065 L-24089.46066218,-7628.07171722 " />
                <path d="M-24091.33065516,-7621.0713473 L-24091.33065516,-7618.77833483 L-24104.94515825,-7618.77833483 L-24104.94515825,-7629.94092594 L-24091.33065516,-7629.94092594 L-24091.33065516,-7628.07171722 " />
                <line x1="-24097.64741439" y1="-7628.07171722" x2="-23413.12772516" y2="-7628.07171722" />
                <line x1="-23413.12772516" y1="-7628.07171722" x2="-23413.12772516" y2="-7621.0713473" />
                <line x1="-23413.12772516" y1="-7621.0713473" x2="-24097.64741439" y2="-7621.0713473" />
                <line x1="-24097.64741439" y1="-7621.0713473" x2="-24097.64741439" y2="-7628.07171722" />
                <circle cx="-24094.15662671" cy="-7624.71026415" r="1.51760881" />
                <circle cx="-24063.80509413" cy="-7624.71026415" r="1.51760881" />
                <circle cx="-24057.89504256" cy="-7624.71026415" r="1.51760881" />
                <circle cx="-24051.68549319" cy="-7624.71026415" r="1.51760881" />
                <circle cx="-24045.77544162" cy="-7624.71026415" r="1.51760881" />
                <circle cx="-24039.56589225" cy="-7624.71026415" r="1.51760881" />
                <circle cx="-24033.65584069" cy="-7624.71026415" r="1.51760881" />
                <circle cx="-24027.44629132" cy="-7624.71026415" r="1.51760881" />
                <circle cx="-24021.53623975" cy="-7624.71026415" r="1.51760881" />
                <circle cx="-24015.32669038" cy="-7624.71026415" r="1.51760881" />
                <circle cx="-24009.41663881" cy="-7624.71026415" r="1.51760881" />
                <circle cx="-24003.20708944" cy="-7624.71026415" r="1.51760881" />
                <circle cx="-23997.29703787" cy="-7624.71026415" r="1.51760881" />
                <circle cx="-23991.08748851" cy="-7624.71026415" r="1.51760881" />
                <circle cx="-23985.17743694" cy="-7624.71026415" r="1.51760881" />
                <circle cx="-23978.96788757" cy="-7624.71026415" r="1.51760881" />
                <circle cx="-23972.7583382" cy="-7624.71026415" r="1.51760881" />
                <circle cx="-23966.54878883" cy="-7624.71026415" r="1.51760881" />
                <circle cx="-23960.63873727" cy="-7624.71026415" r="1.51760881" />
                <circle cx="-23954.4291879" cy="-7624.71026415" r="1.51760881" />
                <circle cx="-23948.51913633" cy="-7624.71026415" r="1.51760881" />
                <circle cx="-23416.82615156" cy="-7624.71026415" r="1.51760881" />
                <circle cx="-23948.51913633" cy="-7624.71026415" r="1.51760881" />
                <circle cx="-23942.60908476" cy="-7624.71026415" r="1.51760881" />
                <circle cx="-23936.39953539" cy="-7624.71026415" r="1.51760881" />
                <circle cx="-23930.48948382" cy="-7624.71026415" r="1.51760881" />
                <circle cx="-23924.27993445" cy="-7624.71026415" r="1.51760881" />
                <circle cx="-23918.36988289" cy="-7624.71026415" r="1.51760881" />
                <circle cx="-23912.16033352" cy="-7624.71026415" r="1.51760881" />
                <circle cx="-23906.25028195" cy="-7624.71026415" r="1.51760881" />
                <circle cx="-23900.04073258" cy="-7624.71026415" r="1.51760881" />
                <circle cx="-23894.13068101" cy="-7624.71026415" r="1.51760881" />
                <circle cx="-23887.92113164" cy="-7624.71026415" r="1.51760881" />
                <circle cx="-23882.01108007" cy="-7624.71026415" r="1.51760881" />
                <circle cx="-23875.80153071" cy="-7624.71026415" r="1.51760881" />
                <circle cx="-23869.89147914" cy="-7624.71026415" r="1.51760881" />
                <circle cx="-23863.68192977" cy="-7624.71026415" r="1.51760881" />
                <circle cx="-23857.4723804" cy="-7624.71026415" r="1.51760881" />
                <circle cx="-23851.26283103" cy="-7624.71026415" r="1.51760881" />
                <circle cx="-23845.35277946" cy="-7624.71026415" r="1.51760881" />
                <circle cx="-23839.1432301" cy="-7624.71026415" r="1.51760881" />
                <circle cx="-23833.23317853" cy="-7624.71026415" r="1.51760881" />
                <circle cx="-23833.23317853" cy="-7624.71026415" r="1.51760881" />
                <circle cx="-23827.32312696" cy="-7624.71026415" r="1.51760881" />
                <circle cx="-23821.11357759" cy="-7624.71026415" r="1.51760881" />
                <circle cx="-23815.20352602" cy="-7624.71026415" r="1.51760881" />
                <circle cx="-23808.99397665" cy="-7624.71026415" r="1.51760881" />
                <circle cx="-23803.08392508" cy="-7624.71026415" r="1.51760881" />
                <circle cx="-23796.87437572" cy="-7624.71026415" r="1.51760881" />
                <circle cx="-23790.96432415" cy="-7624.71026415" r="1.51760881" />
                <circle cx="-23784.75477478" cy="-7624.71026415" r="1.51760881" />
                <circle cx="-23778.84472321" cy="-7624.71026415" r="1.51760881" />
                <circle cx="-23772.63517384" cy="-7624.71026415" r="1.51760881" />
                <circle cx="-23766.72512227" cy="-7624.71026415" r="1.51760881" />
                <circle cx="-23760.51557291" cy="-7624.71026415" r="1.51760881" />
                <circle cx="-23754.60552134" cy="-7624.71026415" r="1.51760881" />
                <circle cx="-23748.39597197" cy="-7624.71026415" r="1.51760881" />
                <circle cx="-23742.1864226" cy="-7624.71026415" r="1.51760881" />
                <circle cx="-23735.97687323" cy="-7624.71026415" r="1.51760881" />
                <circle cx="-23730.06682166" cy="-7624.71026415" r="1.51760881" />
                <circle cx="-23723.8572723" cy="-7624.71026415" r="1.51760881" />
                <circle cx="-23717.94722073" cy="-7624.71026415" r="1.51760881" />
                <circle cx="-23717.94722073" cy="-7624.71026415" r="1.51760881" />
                <circle cx="-23712.03716916" cy="-7624.71026415" r="1.51760881" />
                <circle cx="-23705.82761979" cy="-7624.71026415" r="1.51760881" />
                <circle cx="-23699.91756822" cy="-7624.71026415" r="1.51760881" />
                <circle cx="-23693.70801885" cy="-7624.71026415" r="1.51760881" />
                <circle cx="-23687.79796728" cy="-7624.71026415" r="1.51760881" />
                <circle cx="-23681.58841792" cy="-7624.71026415" r="1.51760881" />
                <circle cx="-23675.67836635" cy="-7624.71026415" r="1.51760881" />
                <circle cx="-23669.46881698" cy="-7624.71026415" r="1.51760881" />
                <circle cx="-23663.55876541" cy="-7624.71026415" r="1.51760881" />
                <circle cx="-23657.34921604" cy="-7624.71026415" r="1.51760881" />
                <circle cx="-23651.43916447" cy="-7624.71026415" r="1.51760881" />
                <circle cx="-23645.22961511" cy="-7624.71026415" r="1.51760881" />
                <circle cx="-23639.31956354" cy="-7624.71026415" r="1.51760881" />
                <circle cx="-23633.11001417" cy="-7624.71026415" r="1.51760881" />
                <circle cx="-23626.9004648" cy="-7624.71026415" r="1.51760881" />
                <circle cx="-23620.69091543" cy="-7624.71026415" r="1.51760881" />
                <circle cx="-23614.78086386" cy="-7624.71026415" r="1.51760881" />
                <circle cx="-23608.5713145" cy="-7624.71026415" r="1.51760881" />
                <circle cx="-23602.66126293" cy="-7624.71026415" r="1.51760881" />
                <circle cx="-23557.65346992" cy="-7624.71026415" r="1.51760881" />
                <circle cx="-23550.89238553" cy="-7624.71026415" r="1.51760881" />
                <circle cx="-23550.89238553" cy="-7624.71026415" r="1.51760881" />
                <circle cx="-23544.98233396" cy="-7624.71026415" r="1.51760881" />
                <circle cx="-23538.77278459" cy="-7624.71026415" r="1.51760881" />
                <circle cx="-23532.86273302" cy="-7624.71026415" r="1.51760881" />
                <circle cx="-23526.65318366" cy="-7624.71026415" r="1.51760881" />
                <circle cx="-23520.74313209" cy="-7624.71026415" r="1.51760881" />
                <circle cx="-23514.53358272" cy="-7624.71026415" r="1.51760881" />
                <circle cx="-23508.62353115" cy="-7624.71026415" r="1.51760881" />
                <circle cx="-23502.41398178" cy="-7624.71026415" r="1.51760881" />
                <circle cx="-23496.50393021" cy="-7624.71026415" r="1.51760881" />
                <circle cx="-23490.29438085" cy="-7624.71026415" r="1.51760881" />
                <circle cx="-23484.38432928" cy="-7624.71026415" r="1.51760881" />
                <circle cx="-23478.17477991" cy="-7624.71026415" r="1.51760881" />
                <circle cx="-23472.26472834" cy="-7624.71026415" r="1.51760881" />
                <circle cx="-23466.05517897" cy="-7624.71026415" r="1.51760881" />
                <circle cx="-23459.8456296" cy="-7624.71026415" r="1.51760881" />
                <circle cx="-23453.63608024" cy="-7624.71026415" r="1.51760881" />
                <circle cx="-23447.72602867" cy="-7624.71026415" r="1.51760881" />
                <circle cx="-23441.5164793" cy="-7624.71026415" r="1.51760881" />
                <circle cx="-23435.60642773" cy="-7624.71026415" r="1.51760881" />
                <circle cx="-23589.64517693" cy="-7624.71026415" r="1.51760881" />
                <circle cx="-23583.73512536" cy="-7624.71026415" r="1.51760881" />
                <circle cx="-23583.73512536" cy="-7624.71026415" r="1.51760881" />
                <circle cx="-23577.82507379" cy="-7624.71026415" r="1.51760881" />
                <circle cx="-23571.61552443" cy="-7624.71026415" r="1.51760881" />
                <circle cx="-23564.85471328" cy="-7624.71026415" r="1.51760881" />
                <circle cx="-23596.25848455" cy="-7624.71026415" r="1.51760881" />
                <circle cx="-24069.41901295" cy="-7624.71026415" r="1.51760881" />
                <circle cx="-24074.96361575" cy="-7624.71026415" r="1.51760881" />
                <circle cx="-24080.23774592" cy="-7624.71026415" r="1.51760881" />
            </g>
            </g>
    </g>
    </svg>