<?xml version='1.0' encoding='utf-8'?>
<svg xmlns:xlink="http://www.w3.org/1999/xlink" xmlns="http://www.w3.org/2000/svg" xmlns:lc="http://www.librecad.org" width="815.98mm" height="49.48mm" viewBox="-24914.284916795503 -7665.73005065 815.9774524410002 49.48338992999925">
    <g lc:layername="0" lc:is_locked="false" lc:is_construction="false" fill="none" stroke="black" stroke-width="1">
        <g lc:blockname="cb31-0">
            <g lc:layername="0" lc:is_locked="false" lc:is_construction="false" fill="none" stroke="black" stroke-width="1">
                <path d="M-24106.3072433,-7661.64976616 L-24106.3072433,-7650.69424744 L-24123.13171896,-7650.69424744 L-24123.13171896,-7654.20376058 " />
                <path d="M-24123.13171896,-7661.2041305 L-24123.13171896,-7664.73005065 L-24106.3072433,-7664.73005065 L-24106.3072433,-7661.64976616 " />
                <path d="M-24107.65584567,-7661.64976616 L-24107.65584567,-7652.06833483 L-24121.27034877,-7652.06833483 L-24121.27034877,-7654.20376058 " />
                <path d="M-24121.27034877,-7661.2041305 L-24121.27034877,-7663.23092594 L-24107.65584567,-7663.23092594 L-24107.65584567,-7661.64976616 " />
                <path d="M-24889.46066218,-7654.20376058 L-24889.46066218,-7650.53666072 L-24906.28513785,-7650.53666072 L-24906.28513785,-7664.57246393 L-24889.46066218,-7664.57246393 L-24889.46066218,-7661.2041305 " />
                <path d="M-24891.33065516,-7654.20376058 L-24891.33065516,-7651.91074812 L-24904.94515825,-7651.91074812 L-24904.94515825,-7663.07333922 L-24891.33065516,-7663.07333922 L-24891.33065516,-7661.2041305 " />
                <line x1="-24897.64741439" y1="-7661.2041305" x2="-24113.12772516" y2="-7661.2041305" />
                <line x1="-24113.12772516" y1="-7661.2041305" x2="-24113.12772516" y2="-7654.20376058" />
                <line x1="-24113.12772516" y1="-7654.20376058" x2="-24897.64741439" y2="-7654.20376058" />
                <line x1="-24897.64741439" y1="-7654.20376058" x2="-24897.64741439" y2="-7661.2041305" />
                <circle cx="-24894.15662671" cy="-7657.84267743" r="1.51760881" />
                <circle cx="-24863.80509413" cy="-7657.84267743" r="1.51760881" />
                <circle cx="-24857.89504256" cy="-7657.84267743" r="1.51760881" />
                <circle cx="-24851.68549319" cy="-7657.84267743" r="1.51760881" />
                <circle cx="-24845.77544162" cy="-7657.84267743" r="1.51760881" />
                <circle cx="-24839.56589225" cy="-7657.84267743" r="1.51760881" />
                <circle cx="-24833.65584069" cy="-7657.84267743" r="1.51760881" />
                <circle cx="-24827.44629132" cy="-7657.84267743" r="1.51760881" />
                <circle cx="-24821.53623975" cy="-7657.84267743" r="1.51760881" />
                <circle cx="-24815.32669038" cy="-7657.84267743" r="1.51760881" />
                <circle cx="-24809.41663881" cy="-7657.84267743" r="1.51760881" />
                <circle cx="-24803.20708944" cy="-7657.84267743" r="1.51760881" />
                <circle cx="-24797.29703787" cy="-7657.84267743" r="1.51760881" />
                <circle cx="-24791.08748851" cy="-7657.84267743" r="1.51760881" />
                <circle cx="-24785.17743694" cy="-7657.84267743" r="1.51760881" />
                <circle cx="-24778.96788757" cy="-7657.84267743" r="1.51760881" />
                <circle cx="-24772.7583382" cy="-7657.84267743" r="1.51760881" />
                <circle cx="-24766.54878883" cy="-7657.84267743" r="1.51760881" />
                <circle cx="-24760.63873727" cy="-7657.84267743" r="1.51760881" />
                <circle cx="-24754.4291879" cy="-7657.84267743" r="1.51760881" />
                <circle cx="-24748.51913633" cy="-7657.84267743" r="1.51760881" />
                <circle cx="-24116.82615156" cy="-7657.84267743" r="1.51760881" />
                <circle cx="-24748.51913633" cy="-7657.84267743" r="1.51760881" />
                <circle cx="-24742.60908476" cy="-7657.84267743" r="1.51760881" />
                <circle cx="-24736.39953539" cy="-7657.84267743" r="1.51760881" />
                <circle cx="-24730.48948382" cy="-7657.84267743" r="1.51760881" />
                <circle cx="-24724.27993445" cy="-7657.84267743" r="1.51760881" />
                <circle cx="-24718.36988289" cy="-7657.84267743" r="1.51760881" />
                <circle cx="-24712.16033352" cy="-7657.84267743" r="1.51760881" />
                <circle cx="-24706.25028195" cy="-7657.84267743" r="1.51760881" />
                <circle cx="-24700.04073258" cy="-7657.84267743" r="1.51760881" />
                <circle cx="-24694.13068101" cy="-7657.84267743" r="1.51760881" />
                <circle cx="-24687.92113164" cy="-7657.84267743" r="1.51760881" />
                <circle cx="-24682.01108007" cy="-7657.84267743" r="1.51760881" />
                <circle cx="-24675.80153071" cy="-7657.84267743" r="1.51760881" />
                <circle cx="-24669.89147914" cy="-7657.84267743" r="1.51760881" />
                <circle cx="-24663.68192977" cy="-7657.84267743" r="1.51760881" />
                <circle cx="-24657.4723804" cy="-7657.84267743" r="1.51760881" />
                <circle cx="-24651.26283103" cy="-7657.84267743" r="1.51760881" />
                <circle cx="-24645.35277946" cy="-7657.84267743" r="1.51760881" />
                <circle cx="-24639.1432301" cy="-7657.84267743" r="1.51760881" />
                <circle cx="-24633.23317853" cy="-7657.84267743" r="1.51760881" />
                <circle cx="-24633.23317853" cy="-7657.84267743" r="1.51760881" />
                <circle cx="-24627.32312696" cy="-7657.84267743" r="1.51760881" />
                <circle cx="-24621.11357759" cy="-7657.84267743" r="1.51760881" />
                <circle cx="-24615.20352602" cy="-7657.84267743" r="1.51760881" />
                <circle cx="-24608.99397665" cy="-7657.84267743" r="1.51760881" />
                <circle cx="-24603.08392508" cy="-7657.84267743" r="1.51760881" />
                <circle cx="-24596.87437572" cy="-7657.84267743" r="1.51760881" />
                <circle cx="-24590.96432415" cy="-7657.84267743" r="1.51760881" />
                <circle cx="-24584.75477478" cy="-7657.84267743" r="1.51760881" />
                <circle cx="-24578.84472321" cy="-7657.84267743" r="1.51760881" />
                <circle cx="-24572.63517384" cy="-7657.84267743" r="1.51760881" />
                <circle cx="-24566.72512227" cy="-7657.84267743" r="1.51760881" />
                <circle cx="-24560.51557291" cy="-7657.84267743" r="1.51760881" />
                <circle cx="-24554.60552134" cy="-7657.84267743" r="1.51760881" />
                <circle cx="-24548.39597197" cy="-7657.84267743" r="1.51760881" />
                <circle cx="-24542.1864226" cy="-7657.84267743" r="1.51760881" />
                <circle cx="-24535.97687323" cy="-7657.84267743" r="1.51760881" />
                <circle cx="-24530.06682166" cy="-7657.84267743" r="1.51760881" />
                <circle cx="-24523.8572723" cy="-7657.84267743" r="1.51760881" />
                <circle cx="-24517.94722073" cy="-7657.84267743" r="1.51760881" />
                <circle cx="-24517.94722073" cy="-7657.84267743" r="1.51760881" />
                <circle cx="-24512.03716916" cy="-7657.84267743" r="1.51760881" />
                <circle cx="-24505.82761979" cy="-7657.84267743" r="1.51760881" />
                <circle cx="-24499.91756822" cy="-7657.84267743" r="1.51760881" />
                <circle cx="-24493.70801885" cy="-7657.84267743" r="1.51760881" />
                <circle cx="-24487.79796728" cy="-7657.84267743" r="1.51760881" />
                <circle cx="-24481.58841792" cy="-7657.84267743" r="1.51760881" />
                <circle cx="-24475.67836635" cy="-7657.84267743" r="1.51760881" />
                <circle cx="-24469.46881698" cy="-7657.84267743" r="1.51760881" />
                <circle cx="-24463.55876541" cy="-7657.84267743" r="1.51760881" />
                <circle cx="-24457.34921604" cy="-7657.84267743" r="1.51760881" />
                <circle cx="-24451.43916447" cy="-7657.84267743" r="1.51760881" />
                <circle cx="-24445.22961511" cy="-7657.84267743" r="1.51760881" />
                <circle cx="-24439.31956354" cy="-7657.84267743" r="1.51760881" />
                <circle cx="-24433.11001417" cy="-7657.84267743" r="1.51760881" />
                <circle cx="-24330.6130763" cy="-7657.84267743" r="1.51760881" />
                <circle cx="-24324.40352694" cy="-7657.84267743" r="1.51760881" />
                <circle cx="-24318.49347537" cy="-7657.84267743" r="1.51760881" />
                <circle cx="-24312.283926" cy="-7657.84267743" r="1.51760881" />
                <circle cx="-24306.37387443" cy="-7657.84267743" r="1.51760881" />
                <circle cx="-24256.8024371" cy="-7657.84267743" r="1.51760881" />
                <circle cx="-24250.89238553" cy="-7657.84267743" r="1.51760881" />
                <circle cx="-24250.89238553" cy="-7657.84267743" r="1.51760881" />
                <circle cx="-24244.98233396" cy="-7657.84267743" r="1.51760881" />
                <circle cx="-24238.77278459" cy="-7657.84267743" r="1.51760881" />
                <circle cx="-24232.86273302" cy="-7657.84267743" r="1.51760881" />
                <circle cx="-24226.65318366" cy="-7657.84267743" r="1.51760881" />
                <circle cx="-24220.74313209" cy="-7657.84267743" r="1.51760881" />
                <circle cx="-24214.53358272" cy="-7657.84267743" r="1.51760881" />
                <circle cx="-24208.62353115" cy="-7657.84267743" r="1.51760881" />
                <circle cx="-24202.41398178" cy="-7657.84267743" r="1.51760881" />
                <circle cx="-24196.50393021" cy="-7657.84267743" r="1.51760881" />
                <circle cx="-24190.29438085" cy="-7657.84267743" r="1.51760881" />
                <circle cx="-24184.38432928" cy="-7657.84267743" r="1.51760881" />
                <circle cx="-24178.17477991" cy="-7657.84267743" r="1.51760881" />
                <circle cx="-24172.26472834" cy="-7657.84267743" r="1.51760881" />
                <circle cx="-24166.05517897" cy="-7657.84267743" r="1.51760881" />
                <circle cx="-24159.8456296" cy="-7657.84267743" r="1.51760881" />
                <circle cx="-24153.63608024" cy="-7657.84267743" r="1.51760881" />
                <circle cx="-24147.72602867" cy="-7657.84267743" r="1.51760881" />
                <circle cx="-24141.5164793" cy="-7657.84267743" r="1.51760881" />
                <circle cx="-24135.60642773" cy="-7657.84267743" r="1.51760881" />
                <circle cx="-24285.79497373" cy="-7657.84267743" r="1.51760881" />
                <circle cx="-24279.88492216" cy="-7657.84267743" r="1.51760881" />
                <circle cx="-24279.88492216" cy="-7657.84267743" r="1.51760881" />
                <circle cx="-24273.97487059" cy="-7657.84267743" r="1.51760881" />
                <circle cx="-24267.76532122" cy="-7657.84267743" r="1.51760881" />
                <circle cx="-24261.85526965" cy="-7657.84267743" r="1.51760881" />
                <circle cx="-24433.11001417" cy="-7657.84267743" r="1.51760881" />
                <circle cx="-24427.1999626" cy="-7657.84267743" r="1.51760881" />
                <circle cx="-24420.99041323" cy="-7657.84267743" r="1.51760881" />
                <circle cx="-24415.08036166" cy="-7657.84267743" r="1.51760881" />
                <circle cx="-24408.87081229" cy="-7657.84267743" r="1.51760881" />
                <circle cx="-24402.96076073" cy="-7657.84267743" r="1.51760881" />
                <circle cx="-24396.75121136" cy="-7657.84267743" r="1.51760881" />
                <circle cx="-24390.84115979" cy="-7657.84267743" r="1.51760881" />
                <circle cx="-24384.63161042" cy="-7657.84267743" r="1.51760881" />
                <circle cx="-24384.63161042" cy="-7657.84267743" r="1.51760881" />
                <circle cx="-24378.72155885" cy="-7657.84267743" r="1.51760881" />
                <circle cx="-24372.51200948" cy="-7657.84267743" r="1.51760881" />
                <circle cx="-24366.60195791" cy="-7657.84267743" r="1.51760881" />
                <circle cx="-24360.39240855" cy="-7657.84267743" r="1.51760881" />
                <circle cx="-24354.48235698" cy="-7657.84267743" r="1.51760881" />
                <circle cx="-24348.27280761" cy="-7657.84267743" r="1.51760881" />
                <circle cx="-24342.36275604" cy="-7657.84267743" r="1.51760881" />
                <circle cx="-24336.15320667" cy="-7657.84267743" r="1.51760881" />
                <circle cx="-24297.91457467" cy="-7657.84267743" r="1.51760881" />
                <circle cx="-24292.0045231" cy="-7657.84267743" r="1.51760881" />
                <circle cx="-24292.0045231" cy="-7657.84267743" r="1.51760881" />
                <circle cx="-24131.08847439" cy="-7657.84267743" r="1.51760881" />
                <circle cx="-24301.90570743" cy="-7657.84267743" r="1.51760881" />
                <circle cx="-24868.24585024" cy="-7657.84267743" r="1.51760881" />
                <circle cx="-24873.0045992" cy="-7657.84267743" r="1.51760881" />
                <circle cx="-24877.83231151" cy="-7657.84267743" r="1.51760881" />
                <circle cx="-24882.86694858" cy="-7657.84267743" r="1.51760881" />
            </g>
            </g>
        <g lc:blockname="cb31-0">
            <g lc:layername="0" lc:is_locked="false" lc:is_construction="false" fill="none" stroke="black" stroke-width="1">
                <path d="M-24106.3072433,-7628.35976616 L-24106.3072433,-7617.40424744 L-24123.13171896,-7617.40424744 L-24123.13171896,-7620.91376058 " />
                <path d="M-24123.13171896,-7627.9141305 L-24123.13171896,-7631.44005065 L-24106.3072433,-7631.44005065 L-24106.3072433,-7628.35976616 " />
                <path d="M-24107.65584567,-7628.35976616 L-24107.65584567,-7618.77833483 L-24121.27034877,-7618.77833483 L-24121.27034877,-7620.91376058 " />
                <path d="M-24121.27034877,-7627.9141305 L-24121.27034877,-7629.94092594 L-24107.65584567,-7629.94092594 L-24107.65584567,-7628.35976616 " />
                <path d="M-24889.46066218,-7620.91376058 L-24889.46066218,-7617.24666072 L-24906.28513785,-7617.24666072 L-24906.28513785,-7631.28246393 L-24889.46066218,-7631.28246393 L-24889.46066218,-7627.9141305 " />
                <path d="M-24891.33065516,-7620.91376058 L-24891.33065516,-7618.62074812 L-24904.94515825,-7618.62074812 L-24904.94515825,-7629.78333922 L-24891.33065516,-7629.78333922 L-24891.33065516,-7627.9141305 " />
                <line x1="-24897.64741439" y1="-7627.9141305" x2="-24113.12772516" y2="-7627.9141305" />
                <line x1="-24113.12772516" y1="-7627.9141305" x2="-24113.12772516" y2="-7620.91376058" />
                <line x1="-24113.12772516" y1="-7620.91376058" x2="-24897.64741439" y2="-7620.91376058" />
                <line x1="-24897.64741439" y1="-7620.91376058" x2="-24897.64741439" y2="-7627.9141305" />
                <circle cx="-24894.15662671" cy="-7624.55267743" r="1.51760881" />
                <circle cx="-24863.80509413" cy="-7624.55267743" r="1.51760881" />
                <circle cx="-24857.89504256" cy="-7624.55267743" r="1.51760881" />
                <circle cx="-24851.68549319" cy="-7624.55267743" r="1.51760881" />
                <circle cx="-24845.77544162" cy="-7624.55267743" r="1.51760881" />
                <circle cx="-24839.56589225" cy="-7624.55267743" r="1.51760881" />
                <circle cx="-24833.65584069" cy="-7624.55267743" r="1.51760881" />
                <circle cx="-24827.44629132" cy="-7624.55267743" r="1.51760881" />
                <circle cx="-24821.53623975" cy="-7624.55267743" r="1.51760881" />
                <circle cx="-24815.32669038" cy="-7624.55267743" r="1.51760881" />
                <circle cx="-24809.41663881" cy="-7624.55267743" r="1.51760881" />
                <circle cx="-24803.20708944" cy="-7624.55267743" r="1.51760881" />
                <circle cx="-24797.29703787" cy="-7624.55267743" r="1.51760881" />
                <circle cx="-24791.08748851" cy="-7624.55267743" r="1.51760881" />
                <circle cx="-24785.17743694" cy="-7624.55267743" r="1.51760881" />
                <circle cx="-24778.96788757" cy="-7624.55267743" r="1.51760881" />
                <circle cx="-24772.7583382" cy="-7624.55267743" r="1.51760881" />
                <circle cx="-24766.54878883" cy="-7624.55267743" r="1.51760881" />
                <circle cx="-24760.63873727" cy="-7624.55267743" r="1.51760881" />
                <circle cx="-24754.4291879" cy="-7624.55267743" r="1.51760881" />
                <circle cx="-24748.51913633" cy="-7624.55267743" r="1.51760881" />
                <circle cx="-24116.82615156" cy="-7624.55267743" r="1.51760881" />
                <circle cx="-24748.51913633" cy="-7624.55267743" r="1.51760881" />
                <circle cx="-24742.60908476" cy="-7624.55267743" r="1.51760881" />
                <circle cx="-24736.39953539" cy="-7624.55267743" r="1.51760881" />
                <circle cx="-24730.48948382" cy="-7624.55267743" r="1.51760881" />
                <circle cx="-24724.27993445" cy="-7624.55267743" r="1.51760881" />
                <circle cx="-24718.36988289" cy="-7624.55267743" r="1.51760881" />
                <circle cx="-24712.16033352" cy="-7624.55267743" r="1.51760881" />
                <circle cx="-24706.25028195" cy="-7624.55267743" r="1.51760881" />
                <circle cx="-24700.04073258" cy="-7624.55267743" r="1.51760881" />
                <circle cx="-24694.13068101" cy="-7624.55267743" r="1.51760881" />
                <circle cx="-24687.92113164" cy="-7624.55267743" r="1.51760881" />
                <circle cx="-24682.01108007" cy="-7624.55267743" r="1.51760881" />
                <circle cx="-24675.80153071" cy="-7624.55267743" r="1.51760881" />
                <circle cx="-24669.89147914" cy="-7624.55267743" r="1.51760881" />
                <circle cx="-24663.68192977" cy="-7624.55267743" r="1.51760881" />
                <circle cx="-24657.4723804" cy="-7624.55267743" r="1.51760881" />
                <circle cx="-24651.26283103" cy="-7624.55267743" r="1.51760881" />
                <circle cx="-24645.35277946" cy="-7624.55267743" r="1.51760881" />
                <circle cx="-24639.1432301" cy="-7624.55267743" r="1.51760881" />
                <circle cx="-24633.23317853" cy="-7624.55267743" r="1.51760881" />
                <circle cx="-24633.23317853" cy="-7624.55267743" r="1.51760881" />
                <circle cx="-24627.32312696" cy="-7624.55267743" r="1.51760881" />
                <circle cx="-24621.11357759" cy="-7624.55267743" r="1.51760881" />
                <circle cx="-24615.20352602" cy="-7624.55267743" r="1.51760881" />
                <circle cx="-24608.99397665" cy="-7624.55267743" r="1.51760881" />
                <circle cx="-24603.08392508" cy="-7624.55267743" r="1.51760881" />
                <circle cx="-24596.87437572" cy="-7624.55267743" r="1.51760881" />
                <circle cx="-24590.96432415" cy="-7624.55267743" r="1.51760881" />
                <circle cx="-24584.75477478" cy="-7624.55267743" r="1.51760881" />
                <circle cx="-24578.84472321" cy="-7624.55267743" r="1.51760881" />
                <circle cx="-24572.63517384" cy="-7624.55267743" r="1.51760881" />
                <circle cx="-24566.72512227" cy="-7624.55267743" r="1.51760881" />
                <circle cx="-24560.51557291" cy="-7624.55267743" r="1.51760881" />
                <circle cx="-24554.60552134" cy="-7624.55267743" r="1.51760881" />
                <circle cx="-24548.39597197" cy="-7624.55267743" r="1.51760881" />
                <circle cx="-24542.1864226" cy="-7624.55267743" r="1.51760881" />
                <circle cx="-24535.97687323" cy="-7624.55267743" r="1.51760881" />
                <circle cx="-24530.06682166" cy="-7624.55267743" r="1.51760881" />
                <circle cx="-24523.8572723" cy="-7624.55267743" r="1.51760881" />
                <circle cx="-24517.94722073" cy="-7624.55267743" r="1.51760881" />
                <circle cx="-24517.94722073" cy="-7624.55267743" r="1.51760881" />
                <circle cx="-24512.03716916" cy="-7624.55267743" r="1.51760881" />
                <circle cx="-24505.82761979" cy="-7624.55267743" r="1.51760881" />
                <circle cx="-24499.91756822" cy="-7624.55267743" r="1.51760881" />
                <circle cx="-24493.70801885" cy="-7624.55267743" r="1.51760881" />
                <circle cx="-24487.79796728" cy="-7624.55267743" r="1.51760881" />
                <circle cx="-24481.58841792" cy="-7624.55267743" r="1.51760881" />
                <circle cx="-24475.67836635" cy="-7624.55267743" r="1.51760881" />
                <circle cx="-24469.46881698" cy="-7624.55267743" r="1.51760881" />
                <circle cx="-24463.55876541" cy="-7624.55267743" r="1.51760881" />
                <circle cx="-24457.34921604" cy="-7624.55267743" r="1.51760881" />
                <circle cx="-24451.43916447" cy="-7624.55267743" r="1.51760881" />
                <circle cx="-24445.22961511" cy="-7624.55267743" r="1.51760881" />
                <circle cx="-24439.31956354" cy="-7624.55267743" r="1.51760881" />
                <circle cx="-24433.11001417" cy="-7624.55267743" r="1.51760881" />
                <circle cx="-24330.6130763" cy="-7624.55267743" r="1.51760881" />
                <circle cx="-24324.40352694" cy="-7624.55267743" r="1.51760881" />
                <circle cx="-24318.49347537" cy="-7624.55267743" r="1.51760881" />
                <circle cx="-24312.283926" cy="-7624.55267743" r="1.51760881" />
                <circle cx="-24306.37387443" cy="-7624.55267743" r="1.51760881" />
                <circle cx="-24256.8024371" cy="-7624.55267743" r="1.51760881" />
                <circle cx="-24250.89238553" cy="-7624.55267743" r="1.51760881" />
                <circle cx="-24250.89238553" cy="-7624.55267743" r="1.51760881" />
                <circle cx="-24244.98233396" cy="-7624.55267743" r="1.51760881" />
                <circle cx="-24238.77278459" cy="-7624.55267743" r="1.51760881" />
                <circle cx="-24232.86273302" cy="-7624.55267743" r="1.51760881" />
                <circle cx="-24226.65318366" cy="-7624.55267743" r="1.51760881" />
                <circle cx="-24220.74313209" cy="-7624.55267743" r="1.51760881" />
                <circle cx="-24214.53358272" cy="-7624.55267743" r="1.51760881" />
                <circle cx="-24208.62353115" cy="-7624.55267743" r="1.51760881" />
                <circle cx="-24202.41398178" cy="-7624.55267743" r="1.51760881" />
                <circle cx="-24196.50393021" cy="-7624.55267743" r="1.51760881" />
                <circle cx="-24190.29438085" cy="-7624.55267743" r="1.51760881" />
                <circle cx="-24184.38432928" cy="-7624.55267743" r="1.51760881" />
                <circle cx="-24178.17477991" cy="-7624.55267743" r="1.51760881" />
                <circle cx="-24172.26472834" cy="-7624.55267743" r="1.51760881" />
                <circle cx="-24166.05517897" cy="-7624.55267743" r="1.51760881" />
                <circle cx="-24159.8456296" cy="-7624.55267743" r="1.51760881" />
                <circle cx="-24153.63608024" cy="-7624.55267743" r="1.51760881" />
                <circle cx="-24147.72602867" cy="-7624.55267743" r="1.51760881" />
                <circle cx="-24141.5164793" cy="-7624.55267743" r="1.51760881" />
                <circle cx="-24135.60642773" cy="-7624.55267743" r="1.51760881" />
                <circle cx="-24285.79497373" cy="-7624.55267743" r="1.51760881" />
                <circle cx="-24279.88492216" cy="-7624.55267743" r="1.51760881" />
                <circle cx="-24279.88492216" cy="-7624.55267743" r="1.51760881" />
                <circle cx="-24273.97487059" cy="-7624.55267743" r="1.51760881" />
                <circle cx="-24267.76532122" cy="-7624.55267743" r="1.51760881" />
                <circle cx="-24261.85526965" cy="-7624.55267743" r="1.51760881" />
                <circle cx="-24433.11001417" cy="-7624.55267743" r="1.51760881" />
                <circle cx="-24427.1999626" cy="-7624.55267743" r="1.51760881" />
                <circle cx="-24420.99041323" cy="-7624.55267743" r="1.51760881" />
                <circle cx="-24415.08036166" cy="-7624.55267743" r="1.51760881" />
                <circle cx="-24408.87081229" cy="-7624.55267743" r="1.51760881" />
                <circle cx="-24402.96076073" cy="-7624.55267743" r="1.51760881" />
                <circle cx="-24396.75121136" cy="-7624.55267743" r="1.51760881" />
                <circle cx="-24390.84115979" cy="-7624.55267743" r="1.51760881" />
                <circle cx="-24384.63161042" cy="-7624.55267743" r="1.51760881" />
                <circle cx="-24384.63161042" cy="-7624.55267743" r="1.51760881" />
                <circle cx="-24378.72155885" cy="-7624.55267743" r="1.51760881" />
                <circle cx="-24372.51200948" cy="-7624.55267743" r="1.51760881" />
                <circle cx="-24366.60195791" cy="-7624.55267743" r="1.51760881" />
                <circle cx="-24360.39240855" cy="-7624.55267743" r="1.51760881" />
                <circle cx="-24354.48235698" cy="-7624.55267743" r="1.51760881" />
                <circle cx="-24348.27280761" cy="-7624.55267743" r="1.51760881" />
                <circle cx="-24342.36275604" cy="-7624.55267743" r="1.51760881" />
                <circle cx="-24336.15320667" cy="-7624.55267743" r="1.51760881" />
                <circle cx="-24297.91457467" cy="-7624.55267743" r="1.51760881" />
                <circle cx="-24292.0045231" cy="-7624.55267743" r="1.51760881" />
                <circle cx="-24292.0045231" cy="-7624.55267743" r="1.51760881" />
                <circle cx="-24131.08847439" cy="-7624.55267743" r="1.51760881" />
                <circle cx="-24301.90570743" cy="-7624.55267743" r="1.51760881" />
                <circle cx="-24868.24585024" cy="-7624.55267743" r="1.51760881" />
                <circle cx="-24873.0045992" cy="-7624.55267743" r="1.51760881" />
                <circle cx="-24877.83231151" cy="-7624.55267743" r="1.51760881" />
                <circle cx="-24882.86694858" cy="-7624.55267743" r="1.51760881" />
            </g>
            </g>
    </g>
    </svg>