<?xml version='1.0' encoding='utf-8'?>
<svg xmlns:xlink="http://www.w3.org/1999/xlink" xmlns="http://www.w3.org/2000/svg" xmlns:lc="http://www.librecad.org" width="800mm" height="35mm" viewBox="0 0 800 35">
    <g lc:layername="0" lc:is_locked="false" lc:is_construction="false" fill="none" stroke="black" stroke-width="1">
        <line x1="32.03209639" y1="30" x2="0" y2="30" />
        <line x1="32.03209639" y1="35" x2="0" y2="35" />
        <line x1="32.03209639" y1="4.99999999" x2="0" y2="4.99999999" />
        <line x1="32.03209639" y1="0" x2="0" y2="0" />
        <path d="M16.21619908,20 A2.5,2.5 0 0,0 16.21619908,15 " />
        <path d="M6.84119908,15 A2.5,2.5 0 0,0 6.84119908,20 " />
        <line x1="6.84119908" y1="15" x2="16.21619908" y2="15" />
        <line x1="6.84119908" y1="20" x2="16.21619908" y2="20" />
        <path d="M783.38957807,15 A2.5,2.5 0 0,0 783.38957807,20 " />
        <path d="M792.76457807,20 A2.5,2.5 0 0,0 792.76457807,15 " />
        <line x1="792.76457807" y1="15" x2="783.38957807" y2="15" />
        <line x1="792.76457807" y1="20" x2="783.38957807" y2="20" />
        <line x1="32.03209639" y1="30" x2="800" y2="30" />
        <line x1="32.03209639" y1="35" x2="800" y2="35" />
        <line x1="32.03209639" y1="4.99999999" x2="800" y2="4.99999999" />
        <line x1="32.03209639" y1="0" x2="800" y2="0" />
    </g>
    </svg>