<?xml version='1.0' encoding='utf-8'?>
<svg xmlns:xlink="http://www.w3.org/1999/xlink" xmlns="http://www.w3.org/2000/svg" xmlns:lc="http://www.librecad.org" width="612.00mm" height="57.00mm" viewBox="-23412.28513785 -5947.73080847 612.0 57.0">
    <g lc:layername="CERCEVE" lc:is_locked="false" lc:is_construction="false" fill="none" stroke="black" stroke-width="1">
        <g lc:blockname="4-1">
            <g lc:layername="0" lc:is_locked="false" lc:is_construction="false" fill="none" stroke="black" stroke-width="1">
                <circle cx="-22821.78513785" cy="-5919.23080847" r="0.1" />
                <circle cx="-23390.78513785" cy="-5919.23080847" r="0.1" />
                <line x1="-22855.28513785" y1="-5916.23080847" x2="-22855.28513785" y2="-5922.23080847" />
                <line x1="-22949.78513785" y1="-5922.23080847" x2="-22949.78513785" y2="-5916.23080847" />
                <line x1="-22952.78513785" y1="-5916.23080847" x2="-22952.78513785" y2="-5922.23080847" />
                <line x1="-23259.78513785" y1="-5922.23080847" x2="-23259.78513785" y2="-5916.23080847" />
                <line x1="-23262.78513785" y1="-5916.23080847" x2="-23262.78513785" y2="-5922.23080847" />
                <line x1="-23357.28513785" y1="-5922.23080847" x2="-23357.28513785" y2="-5916.23080847" />
                <line x1="-23357.28513785" y1="-5916.23080847" x2="-23262.78513785" y2="-5916.23080847" />
                <line x1="-23259.78513785" y1="-5916.23080847" x2="-22952.78513785" y2="-5916.23080847" />
                <line x1="-22949.78513785" y1="-5916.23080847" x2="-22855.28513785" y2="-5916.23080847" />
                <line x1="-22855.28513785" y1="-5922.23080847" x2="-22949.78513785" y2="-5922.23080847" />
                <line x1="-22952.78513785" y1="-5922.23080847" x2="-23259.78513785" y2="-5922.23080847" />
                <line x1="-23262.78513785" y1="-5922.23080847" x2="-23357.28513785" y2="-5922.23080847" />
                <line x1="-22817.78513785" y1="-5898.23080847" x2="-22825.78513785" y2="-5898.23080847" />
                <line x1="-22825.78513785" y1="-5898.23080847" x2="-22825.78513785" y2="-5940.23080847" />
                <line x1="-22825.78513785" y1="-5940.23080847" x2="-22817.78513785" y2="-5940.23080847" />
                <line x1="-22817.78513785" y1="-5940.23080847" x2="-22817.78513785" y2="-5898.23080847" />
                <line x1="-23394.78513785" y1="-5940.23080847" x2="-23394.78513785" y2="-5898.23080847" />
                <line x1="-23386.78513785" y1="-5940.23080847" x2="-23394.78513785" y2="-5940.23080847" />
                <line x1="-23386.78513785" y1="-5898.23080847" x2="-23386.78513785" y2="-5940.23080847" />
                <line x1="-23394.78513785" y1="-5898.23080847" x2="-23386.78513785" y2="-5898.23080847" />
                <line x1="-23406.28513785" y1="-5946.73080847" x2="-23406.28513785" y2="-5891.73080847" />
                <line x1="-22806.28513785" y1="-5946.73080847" x2="-23406.28513785" y2="-5946.73080847" />
                <line x1="-22806.28513785" y1="-5891.73080847" x2="-22806.28513785" y2="-5946.73080847" />
                <line x1="-23406.28513785" y1="-5891.73080847" x2="-22806.28513785" y2="-5891.73080847" />
            </g>
            <g lc:layername="CERCEVE" lc:is_locked="false" lc:is_construction="false" fill="none" stroke="black" stroke-width="1">
                <line x1="-23406.28513785" y1="-5946.73080847" x2="-22806.28513785" y2="-5946.73080847" />
                <line x1="-22806.28513785" y1="-5891.73080847" x2="-23406.28513785" y2="-5891.73080847" />
            </g>
            </g>
    </g>
    </svg>