<?xml version='1.0' encoding='utf-8'?>
<svg xmlns:xlink="http://www.w3.org/1999/xlink" xmlns="http://www.w3.org/2000/svg" xmlns:lc="http://www.librecad.org" width="714.00mm" height="57.00mm" viewBox="-24113.28513785 -5947.73080847 714.0 57.0">
    <g lc:layername="CERCEVE" lc:is_locked="false" lc:is_construction="false" fill="none" stroke="black" stroke-width="1">
        <g lc:blockname="5-1">
            <g lc:layername="0" lc:is_locked="false" lc:is_construction="false" fill="none" stroke="black" stroke-width="1">
                <circle cx="-23421.78513785" cy="-5919.23080847" r="0.1" />
                <circle cx="-24090.78513785" cy="-5919.23080847" r="0.1" />
                <line x1="-23455.28513785" y1="-5916.23080847" x2="-23455.28513785" y2="-5922.23080847" />
                <line x1="-23599.78513785" y1="-5922.23080847" x2="-23599.78513785" y2="-5916.23080847" />
                <line x1="-23602.78513785" y1="-5916.23080847" x2="-23602.78513785" y2="-5922.23080847" />
                <line x1="-23909.78513785" y1="-5922.23080847" x2="-23909.78513785" y2="-5916.23080847" />
                <line x1="-23912.78513785" y1="-5916.23080847" x2="-23912.78513785" y2="-5922.23080847" />
                <line x1="-24057.28513785" y1="-5922.23080847" x2="-24057.28513785" y2="-5916.23080847" />
                <line x1="-24057.28513785" y1="-5916.23080847" x2="-23912.78513785" y2="-5916.23080847" />
                <line x1="-23909.78513785" y1="-5916.23080847" x2="-23602.78513785" y2="-5916.23080847" />
                <line x1="-23599.78513785" y1="-5916.23080847" x2="-23455.28513785" y2="-5916.23080847" />
                <line x1="-23455.28513785" y1="-5922.23080847" x2="-23599.78513785" y2="-5922.23080847" />
                <line x1="-23602.78513785" y1="-5922.23080847" x2="-23909.78513785" y2="-5922.23080847" />
                <line x1="-23912.78513785" y1="-5922.23080847" x2="-24057.28513785" y2="-5922.23080847" />
                <line x1="-23417.78513785" y1="-5898.23080847" x2="-23425.78513785" y2="-5898.23080847" />
                <line x1="-23425.78513785" y1="-5898.23080847" x2="-23425.78513785" y2="-5940.23080847" />
                <line x1="-23425.78513785" y1="-5940.23080847" x2="-23417.78513785" y2="-5940.23080847" />
                <line x1="-23417.78513785" y1="-5940.23080847" x2="-23417.78513785" y2="-5898.23080847" />
                <line x1="-24094.78513785" y1="-5940.23080847" x2="-24094.78513785" y2="-5898.23080847" />
                <line x1="-24086.78513785" y1="-5940.23080847" x2="-24094.78513785" y2="-5940.23080847" />
                <line x1="-24086.78513785" y1="-5898.23080847" x2="-24086.78513785" y2="-5940.23080847" />
                <line x1="-24094.78513785" y1="-5898.23080847" x2="-24086.78513785" y2="-5898.23080847" />
                <line x1="-24106.28513785" y1="-5946.73080847" x2="-24106.28513785" y2="-5891.73080847" />
                <line x1="-23406.28513785" y1="-5946.73080847" x2="-24106.28513785" y2="-5946.73080847" />
                <line x1="-23406.28513785" y1="-5891.73080847" x2="-23406.28513785" y2="-5946.73080847" />
                <line x1="-24106.28513785" y1="-5891.73080847" x2="-23406.28513785" y2="-5891.73080847" />
            </g>
            <g lc:layername="CERCEVE" lc:is_locked="false" lc:is_construction="false" fill="none" stroke="black" stroke-width="1">
                <line x1="-24106.28513785" y1="-5946.73080847" x2="-23406.28513785" y2="-5946.73080847" />
                <line x1="-23406.28513785" y1="-5891.73080847" x2="-24106.28513785" y2="-5891.73080847" />
            </g>
            </g>
    </g>
    </svg>