<?xml version='1.0' encoding='utf-8'?>
<svg xmlns:xlink="http://www.w3.org/1999/xlink" xmlns="http://www.w3.org/2000/svg" xmlns:lc="http://www.librecad.org" width="510.00mm" height="57.00mm" viewBox="-22811.28513785 -5947.73080847 510.0 57.0">
    <g lc:layername="CERCEVE" lc:is_locked="false" lc:is_construction="false" fill="none" stroke="black" stroke-width="1">
        <g lc:blockname="3-1">
            <g lc:layername="0" lc:is_locked="false" lc:is_construction="false" fill="none" stroke="black" stroke-width="1">
                <circle cx="-22321.78513785" cy="-5919.23080847" r="0.1" />
                <circle cx="-22790.78513785" cy="-5919.23080847" r="0.1" />
                <line x1="-22355.28513785" y1="-5916.23080847" x2="-22355.28513785" y2="-5922.23080847" />
                <line x1="-22449.78513785" y1="-5922.23080847" x2="-22449.78513785" y2="-5916.23080847" />
                <line x1="-22452.78513785" y1="-5916.23080847" x2="-22452.78513785" y2="-5922.23080847" />
                <line x1="-22659.78513785" y1="-5922.23080847" x2="-22659.78513785" y2="-5916.23080847" />
                <line x1="-22662.78513785" y1="-5916.23080847" x2="-22662.78513785" y2="-5922.23080847" />
                <line x1="-22757.28513785" y1="-5922.23080847" x2="-22757.28513785" y2="-5916.23080847" />
                <line x1="-22757.28513785" y1="-5916.23080847" x2="-22662.78513785" y2="-5916.23080847" />
                <line x1="-22659.78513785" y1="-5916.23080847" x2="-22452.78513785" y2="-5916.23080847" />
                <line x1="-22449.78513785" y1="-5916.23080847" x2="-22355.28513785" y2="-5916.23080847" />
                <line x1="-22355.28513785" y1="-5922.23080847" x2="-22449.78513785" y2="-5922.23080847" />
                <line x1="-22452.78513785" y1="-5922.23080847" x2="-22659.78513785" y2="-5922.23080847" />
                <line x1="-22662.78513785" y1="-5922.23080847" x2="-22757.28513785" y2="-5922.23080847" />
                <line x1="-22317.78513785" y1="-5898.23080847" x2="-22325.78513785" y2="-5898.23080847" />
                <line x1="-22325.78513785" y1="-5898.23080847" x2="-22325.78513785" y2="-5940.23080847" />
                <line x1="-22325.78513785" y1="-5940.23080847" x2="-22317.78513785" y2="-5940.23080847" />
                <line x1="-22317.78513785" y1="-5940.23080847" x2="-22317.78513785" y2="-5898.23080847" />
                <line x1="-22794.78513785" y1="-5940.23080847" x2="-22794.78513785" y2="-5898.23080847" />
                <line x1="-22786.78513785" y1="-5940.23080847" x2="-22794.78513785" y2="-5940.23080847" />
                <line x1="-22786.78513785" y1="-5898.23080847" x2="-22786.78513785" y2="-5940.23080847" />
                <line x1="-22794.78513785" y1="-5898.23080847" x2="-22786.78513785" y2="-5898.23080847" />
                <line x1="-22806.28513785" y1="-5946.73080847" x2="-22806.28513785" y2="-5891.73080847" />
                <line x1="-22306.28513785" y1="-5946.73080847" x2="-22806.28513785" y2="-5946.73080847" />
                <line x1="-22306.28513785" y1="-5891.73080847" x2="-22306.28513785" y2="-5946.73080847" />
                <line x1="-22806.28513785" y1="-5891.73080847" x2="-22306.28513785" y2="-5891.73080847" />
            </g>
            <g lc:layername="CERCEVE" lc:is_locked="false" lc:is_construction="false" fill="none" stroke="black" stroke-width="1">
                <line x1="-22806.28513785" y1="-5946.73080847" x2="-22306.28513785" y2="-5946.73080847" />
                <line x1="-22306.28513785" y1="-5891.73080847" x2="-22806.28513785" y2="-5891.73080847" />
            </g>
            </g>
    </g>
    </svg>