<?xml version='1.0' encoding='utf-8'?>
<svg xmlns:xlink="http://www.w3.org/1999/xlink" xmlns="http://www.w3.org/2000/svg" xmlns:lc="http://www.librecad.org" width="408.00mm" height="57.00mm" viewBox="-22310.28513785 -5947.73080847 408.0 57.0">
    <g lc:layername="CERCEVE" lc:is_locked="false" lc:is_construction="false" fill="none" stroke="black" stroke-width="1">
        <g lc:blockname="2-1">
            <g lc:layername="0" lc:is_locked="false" lc:is_construction="false" fill="none" stroke="black" stroke-width="1">
                <circle cx="-21921.78513785" cy="-5919.23080847" r="0.1" />
                <circle cx="-22290.78513785" cy="-5919.23080847" r="0.1" />
                <line x1="-21955.28513785" y1="-5916.23080847" x2="-21955.28513785" y2="-5922.23080847" />
                <line x1="-22049.78513785" y1="-5922.23080847" x2="-22049.78513785" y2="-5916.23080847" />
                <line x1="-22052.78513785" y1="-5916.23080847" x2="-22052.78513785" y2="-5922.23080847" />
                <line x1="-22159.78513785" y1="-5922.23080847" x2="-22159.78513785" y2="-5916.23080847" />
                <line x1="-22162.78513785" y1="-5916.23080847" x2="-22162.78513785" y2="-5922.23080847" />
                <line x1="-22257.28513785" y1="-5922.23080847" x2="-22257.28513785" y2="-5916.23080847" />
                <line x1="-22257.28513785" y1="-5916.23080847" x2="-22162.78513785" y2="-5916.23080847" />
                <line x1="-22159.78513785" y1="-5916.23080847" x2="-22052.78513785" y2="-5916.23080847" />
                <line x1="-22049.78513785" y1="-5916.23080847" x2="-21955.28513785" y2="-5916.23080847" />
                <line x1="-21955.28513785" y1="-5922.23080847" x2="-22049.78513785" y2="-5922.23080847" />
                <line x1="-22052.78513785" y1="-5922.23080847" x2="-22159.78513785" y2="-5922.23080847" />
                <line x1="-22162.78513785" y1="-5922.23080847" x2="-22257.28513785" y2="-5922.23080847" />
                <line x1="-21917.78513785" y1="-5898.23080847" x2="-21925.78513785" y2="-5898.23080847" />
                <line x1="-21925.78513785" y1="-5898.23080847" x2="-21925.78513785" y2="-5940.23080847" />
                <line x1="-21925.78513785" y1="-5940.23080847" x2="-21917.78513785" y2="-5940.23080847" />
                <line x1="-21917.78513785" y1="-5940.23080847" x2="-21917.78513785" y2="-5898.23080847" />
                <line x1="-22294.78513785" y1="-5940.23080847" x2="-22294.78513785" y2="-5898.23080847" />
                <line x1="-22286.78513785" y1="-5940.23080847" x2="-22294.78513785" y2="-5940.23080847" />
                <line x1="-22286.78513785" y1="-5898.23080847" x2="-22286.78513785" y2="-5940.23080847" />
                <line x1="-22294.78513785" y1="-5898.23080847" x2="-22286.78513785" y2="-5898.23080847" />
                <line x1="-22306.28513785" y1="-5946.73080847" x2="-22306.28513785" y2="-5891.73080847" />
                <line x1="-21906.28513785" y1="-5946.73080847" x2="-22306.28513785" y2="-5946.73080847" />
                <line x1="-21906.28513785" y1="-5891.73080847" x2="-21906.28513785" y2="-5946.73080847" />
                <line x1="-22306.28513785" y1="-5891.73080847" x2="-21906.28513785" y2="-5891.73080847" />
            </g>
            <g lc:layername="CERCEVE" lc:is_locked="false" lc:is_construction="false" fill="none" stroke="black" stroke-width="1">
                <line x1="-22306.28513785" y1="-5946.73080847" x2="-21906.28513785" y2="-5946.73080847" />
                <line x1="-21906.28513785" y1="-5891.73080847" x2="-22306.28513785" y2="-5891.73080847" />
            </g>
            </g>
    </g>
    </svg>