<?xml version='1.0' encoding='utf-8'?>
<svg xmlns:xlink="http://www.w3.org/1999/xlink" xmlns="http://www.w3.org/2000/svg" xmlns:lc="http://www.librecad.org" width="25407.73mm" height="25393.45mm" viewBox="-25155.3804892285 -25141.2404892285 25407.725840607003 25393.445840607">
    <g lc:layername="CERCEVE" lc:is_locked="false" lc:is_construction="false" fill="none" stroke="black" stroke-width="1">
        <g lc:blockname="11-0">
            <g lc:layername="0" lc:is_locked="false" lc:is_construction="false" fill="none" stroke="black" stroke-width="1">
                <path d="M-24123.28513785,-6456.88959096 A3.25,3.25 0 0,0 -24123.28513785,-6450.38959096 " />
                <path d="M-24120.28513785,-6450.38959096 A3.25,3.25 0 1,0 -24120.28513785,-6456.88959096 " />
                <path d="M-24120.28513785,-6290.38959096 A3.25,3.25 0 1,0 -24120.28513785,-6296.88959096 " />
                <path d="M-24123.28513785,-6296.88959096 A3.25,3.25 0 0,0 -24123.28513785,-6290.38959096 " />
                <path d="M-24889.28513785,-6290.38959096 A3.25,3.25 0 1,0 -24889.28513785,-6296.88959096 " />
                <path d="M-24892.28513785,-6296.88959096 A3.25,3.25 0 0,0 -24892.28513785,-6290.38959096 " />
                <path d="M-24892.28513785,-6456.88959096 A3.25,3.25 0 0,0 -24892.28513785,-6450.38959096 " />
                <path d="M-24889.28513785,-6450.38959096 A3.25,3.25 0 1,0 -24889.28513785,-6456.88959096 " />
                <circle cx="-24121.78513785" cy="-6463.63959096" r="0.1" />
                <circle cx="-24121.78513785" cy="-6443.63959096" r="0.1" />
                <circle cx="-24121.78513785" cy="-6453.63959096" r="0.1" />
                <circle cx="-24121.78513785" cy="-6293.63959096" r="0.1" />
                <circle cx="-24121.78513785" cy="-6283.63959096" r="0.1" />
                <circle cx="-24121.78513785" cy="-6303.63959096" r="0.1" />
                <circle cx="-24890.78513785" cy="-6303.63959096" r="0.1" />
                <circle cx="-24890.78513785" cy="-6283.63959096" r="0.1" />
                <circle cx="-24890.78513785" cy="-6293.63959096" r="0.1" />
                <circle cx="-24890.78513785" cy="-6453.63959096" r="0.1" />
                <circle cx="-24890.78513785" cy="-6443.63959096" r="0.1" />
                <circle cx="-24890.78513785" cy="-6463.63959096" r="0.1" />
                <line x1="-24892.28513785" y1="-6450.38959096" x2="-24889.28513785" y2="-6450.38959096" />
                <line x1="-24892.28513785" y1="-6290.38959096" x2="-24889.28513785" y2="-6290.38959096" />
                <line x1="-24120.28513785" y1="-6450.38959096" x2="-24123.28513785" y2="-6450.38959096" />
                <line x1="-24120.28513785" y1="-6290.38959096" x2="-24123.28513785" y2="-6290.38959096" />
                <line x1="-24117.78513785" y1="-6467.63959096" x2="-24117.78513785" y2="-6459.63959096" />
                <line x1="-24125.78513785" y1="-6467.63959096" x2="-24117.78513785" y2="-6467.63959096" />
                <line x1="-24125.78513785" y1="-6459.63959096" x2="-24125.78513785" y2="-6467.63959096" />
                <line x1="-24117.78513785" y1="-6447.63959096" x2="-24117.78513785" y2="-6439.63959096" />
                <line x1="-24125.78513785" y1="-6447.63959096" x2="-24117.78513785" y2="-6447.63959096" />
                <line x1="-24125.78513785" y1="-6439.63959096" x2="-24125.78513785" y2="-6447.63959096" />
                <line x1="-24125.78513785" y1="-6279.63959096" x2="-24125.78513785" y2="-6287.63959096" />
                <line x1="-24125.78513785" y1="-6287.63959096" x2="-24117.78513785" y2="-6287.63959096" />
                <line x1="-24117.78513785" y1="-6287.63959096" x2="-24117.78513785" y2="-6279.63959096" />
                <line x1="-24125.78513785" y1="-6299.63959096" x2="-24125.78513785" y2="-6307.63959096" />
                <line x1="-24125.78513785" y1="-6307.63959096" x2="-24117.78513785" y2="-6307.63959096" />
                <line x1="-24117.78513785" y1="-6307.63959096" x2="-24117.78513785" y2="-6299.63959096" />
                <line x1="-24894.78513785" y1="-6307.63959096" x2="-24894.78513785" y2="-6299.63959096" />
                <line x1="-24886.78513785" y1="-6307.63959096" x2="-24894.78513785" y2="-6307.63959096" />
                <line x1="-24886.78513785" y1="-6299.63959096" x2="-24886.78513785" y2="-6307.63959096" />
                <line x1="-24894.78513785" y1="-6287.63959096" x2="-24894.78513785" y2="-6279.63959096" />
                <line x1="-24886.78513785" y1="-6287.63959096" x2="-24894.78513785" y2="-6287.63959096" />
                <line x1="-24886.78513785" y1="-6279.63959096" x2="-24886.78513785" y2="-6287.63959096" />
                <line x1="-24906.28513785" y1="-6493.63959096" x2="-24906.28513785" y2="-6253.63959096" />
                <line x1="-24106.28513785" y1="-6493.63959096" x2="-24106.28513785" y2="-6253.63959096" />
                <line x1="-24886.78513785" y1="-6439.63959096" x2="-24886.78513785" y2="-6447.63959096" />
                <line x1="-24886.78513785" y1="-6447.63959096" x2="-24894.78513785" y2="-6447.63959096" />
                <line x1="-24894.78513785" y1="-6447.63959096" x2="-24894.78513785" y2="-6439.63959096" />
                <line x1="-24886.78513785" y1="-6459.63959096" x2="-24886.78513785" y2="-6467.63959096" />
                <line x1="-24886.78513785" y1="-6467.63959096" x2="-24894.78513785" y2="-6467.63959096" />
                <line x1="-24894.78513785" y1="-6467.63959096" x2="-24894.78513785" y2="-6459.63959096" />
                <line x1="-24123.28513785" y1="-6296.88959096" x2="-24120.28513785" y2="-6296.88959096" />
                <line x1="-24123.28513785" y1="-6456.88959096" x2="-24120.28513785" y2="-6456.88959096" />
                <line x1="-24889.28513785" y1="-6456.88959096" x2="-24892.28513785" y2="-6456.88959096" />
                <line x1="-24889.28513785" y1="-6296.88959096" x2="-24892.28513785" y2="-6296.88959096" />
                <line x1="-24117.78513785" y1="-6279.63959096" x2="-24125.78513785" y2="-6279.63959096" />
                <line x1="-24117.78513785" y1="-6299.63959096" x2="-24125.78513785" y2="-6299.63959096" />
                <line x1="-24117.78513785" y1="-6439.63959096" x2="-24125.78513785" y2="-6439.63959096" />
                <line x1="-24117.78513785" y1="-6459.63959096" x2="-24125.78513785" y2="-6459.63959096" />
                <line x1="-24894.78513785" y1="-6279.63959096" x2="-24886.78513785" y2="-6279.63959096" />
                <line x1="-24894.78513785" y1="-6299.63959096" x2="-24886.78513785" y2="-6299.63959096" />
                <line x1="-24894.78513785" y1="-6439.63959096" x2="-24886.78513785" y2="-6439.63959096" />
                <line x1="-24894.78513785" y1="-6459.63959096" x2="-24886.78513785" y2="-6459.63959096" />
            </g>
            <g lc:layername="CERCEVE" lc:is_locked="false" lc:is_construction="false" fill="none" stroke="black" stroke-width="1">
                <line x1="-24906.28513785" y1="-6493.63959096" x2="-24106.28513785" y2="-6493.63959096" />
                <line x1="-24106.28513785" y1="-6253.63959096" x2="-24906.28513785" y2="-6253.63959096" />
            </g>
            </g>
    </g>
    </svg>