<?xml version='1.0' encoding='utf-8'?>
<svg xmlns:xlink="http://www.w3.org/1999/xlink" xmlns="http://www.w3.org/2000/svg" xmlns:lc="http://www.librecad.org" width="23877.73mm" height="23863.45mm" viewBox="-23640.3804892285 -23626.2404892285 23877.725840607003 23863.445840607">
    <g lc:layername="CERCEVE" lc:is_locked="false" lc:is_construction="false" fill="none" stroke="black" stroke-width="1">
        <g lc:blockname="9-0">
            <g lc:layername="0" lc:is_locked="false" lc:is_construction="false" fill="none" stroke="black" stroke-width="1">
                <path d="M-22823.28513785,-6456.88959096 A3.25,3.25 0 0,0 -22823.28513785,-6450.38959096 " />
                <path d="M-22820.28513785,-6450.38959096 A3.25,3.25 0 1,0 -22820.28513785,-6456.88959096 " />
                <path d="M-22820.28513785,-6290.38959096 A3.25,3.25 0 1,0 -22820.28513785,-6296.88959096 " />
                <path d="M-22823.28513785,-6296.88959096 A3.25,3.25 0 0,0 -22823.28513785,-6290.38959096 " />
                <path d="M-23389.28513785,-6290.38959096 A3.25,3.25 0 1,0 -23389.28513785,-6296.88959096 " />
                <path d="M-23392.28513785,-6296.88959096 A3.25,3.25 0 0,0 -23392.28513785,-6290.38959096 " />
                <path d="M-23392.28513785,-6456.88959096 A3.25,3.25 0 0,0 -23392.28513785,-6450.38959096 " />
                <path d="M-23389.28513785,-6450.38959096 A3.25,3.25 0 1,0 -23389.28513785,-6456.88959096 " />
                <circle cx="-22821.78513785" cy="-6463.63959096" r="0.1" />
                <circle cx="-22821.78513785" cy="-6443.63959096" r="0.1" />
                <circle cx="-22821.78513785" cy="-6453.63959096" r="0.1" />
                <circle cx="-22821.78513785" cy="-6293.63959096" r="0.1" />
                <circle cx="-22821.78513785" cy="-6283.63959096" r="0.1" />
                <circle cx="-22821.78513785" cy="-6303.63959096" r="0.1" />
                <circle cx="-23390.78513785" cy="-6303.63959096" r="0.1" />
                <circle cx="-23390.78513785" cy="-6283.63959096" r="0.1" />
                <circle cx="-23390.78513785" cy="-6293.63959096" r="0.1" />
                <circle cx="-23390.78513785" cy="-6453.63959096" r="0.1" />
                <circle cx="-23390.78513785" cy="-6443.63959096" r="0.1" />
                <circle cx="-23390.78513785" cy="-6463.63959096" r="0.1" />
                <line x1="-23392.28513785" y1="-6450.38959096" x2="-23389.28513785" y2="-6450.38959096" />
                <line x1="-23392.28513785" y1="-6290.38959096" x2="-23389.28513785" y2="-6290.38959096" />
                <line x1="-22820.28513785" y1="-6450.38959096" x2="-22823.28513785" y2="-6450.38959096" />
                <line x1="-22820.28513785" y1="-6290.38959096" x2="-22823.28513785" y2="-6290.38959096" />
                <line x1="-22817.78513785" y1="-6467.63959096" x2="-22817.78513785" y2="-6459.63959096" />
                <line x1="-22825.78513785" y1="-6467.63959096" x2="-22817.78513785" y2="-6467.63959096" />
                <line x1="-22825.78513785" y1="-6459.63959096" x2="-22825.78513785" y2="-6467.63959096" />
                <line x1="-22817.78513785" y1="-6447.63959096" x2="-22817.78513785" y2="-6439.63959096" />
                <line x1="-22825.78513785" y1="-6447.63959096" x2="-22817.78513785" y2="-6447.63959096" />
                <line x1="-22825.78513785" y1="-6439.63959096" x2="-22825.78513785" y2="-6447.63959096" />
                <line x1="-22825.78513785" y1="-6279.63959096" x2="-22825.78513785" y2="-6287.63959096" />
                <line x1="-22825.78513785" y1="-6287.63959096" x2="-22817.78513785" y2="-6287.63959096" />
                <line x1="-22817.78513785" y1="-6287.63959096" x2="-22817.78513785" y2="-6279.63959096" />
                <line x1="-22825.78513785" y1="-6299.63959096" x2="-22825.78513785" y2="-6307.63959096" />
                <line x1="-22825.78513785" y1="-6307.63959096" x2="-22817.78513785" y2="-6307.63959096" />
                <line x1="-22817.78513785" y1="-6307.63959096" x2="-22817.78513785" y2="-6299.63959096" />
                <line x1="-23394.78513785" y1="-6307.63959096" x2="-23394.78513785" y2="-6299.63959096" />
                <line x1="-23386.78513785" y1="-6307.63959096" x2="-23394.78513785" y2="-6307.63959096" />
                <line x1="-23386.78513785" y1="-6299.63959096" x2="-23386.78513785" y2="-6307.63959096" />
                <line x1="-23394.78513785" y1="-6287.63959096" x2="-23394.78513785" y2="-6279.63959096" />
                <line x1="-23386.78513785" y1="-6287.63959096" x2="-23394.78513785" y2="-6287.63959096" />
                <line x1="-23386.78513785" y1="-6279.63959096" x2="-23386.78513785" y2="-6287.63959096" />
                <line x1="-23406.28513785" y1="-6493.63959096" x2="-23406.28513785" y2="-6253.63959096" />
                <line x1="-22806.28513785" y1="-6493.63959096" x2="-22806.28513785" y2="-6253.63959096" />
                <line x1="-23386.78513785" y1="-6439.63959096" x2="-23386.78513785" y2="-6447.63959096" />
                <line x1="-23386.78513785" y1="-6447.63959096" x2="-23394.78513785" y2="-6447.63959096" />
                <line x1="-23394.78513785" y1="-6447.63959096" x2="-23394.78513785" y2="-6439.63959096" />
                <line x1="-23386.78513785" y1="-6459.63959096" x2="-23386.78513785" y2="-6467.63959096" />
                <line x1="-23386.78513785" y1="-6467.63959096" x2="-23394.78513785" y2="-6467.63959096" />
                <line x1="-23394.78513785" y1="-6467.63959096" x2="-23394.78513785" y2="-6459.63959096" />
                <line x1="-22823.28513785" y1="-6296.88959096" x2="-22820.28513785" y2="-6296.88959096" />
                <line x1="-22823.28513785" y1="-6456.88959096" x2="-22820.28513785" y2="-6456.88959096" />
                <line x1="-23389.28513785" y1="-6456.88959096" x2="-23392.28513785" y2="-6456.88959096" />
                <line x1="-23389.28513785" y1="-6296.88959096" x2="-23392.28513785" y2="-6296.88959096" />
                <line x1="-22817.78513785" y1="-6279.63959096" x2="-22825.78513785" y2="-6279.63959096" />
                <line x1="-22817.78513785" y1="-6299.63959096" x2="-22825.78513785" y2="-6299.63959096" />
                <line x1="-22817.78513785" y1="-6439.63959096" x2="-22825.78513785" y2="-6439.63959096" />
                <line x1="-22817.78513785" y1="-6459.63959096" x2="-22825.78513785" y2="-6459.63959096" />
                <line x1="-23394.78513785" y1="-6279.63959096" x2="-23386.78513785" y2="-6279.63959096" />
                <line x1="-23394.78513785" y1="-6299.63959096" x2="-23386.78513785" y2="-6299.63959096" />
                <line x1="-23394.78513785" y1="-6439.63959096" x2="-23386.78513785" y2="-6439.63959096" />
                <line x1="-23394.78513785" y1="-6459.63959096" x2="-23386.78513785" y2="-6459.63959096" />
            </g>
            <g lc:layername="CERCEVE" lc:is_locked="false" lc:is_construction="false" fill="none" stroke="black" stroke-width="1">
                <line x1="-23406.28513785" y1="-6493.63959096" x2="-22806.28513785" y2="-6493.63959096" />
                <line x1="-22806.28513785" y1="-6253.63959096" x2="-23406.28513785" y2="-6253.63959096" />
            </g>
            </g>
    </g>
    </svg>